<svg xmlns="http://www.w3.org/2000/svg" width="25.022" height="25.045" viewBox="0 0 25.022219 25.045374"><path d="M2.575 15.746l.011.002.01-.004.009-.012h.003l.002.007.003.004.004.001.004.01.001.019v.01l.013.021.002.005-.013-.003-.008.002-.008.006-.01.001-.002-.005.005-.009v-.005l-.006-.002-.002-.006.003-.008-.004-.011-.028-.019-.01-.015.002-.014h.005l.004.012.01.012zm-.385.007l.008.005.01-.004v.022l.002.02.007.016.014.006.007.003.005.005.006.004h.01l.02-.015.008-.002-.011.027-.017.01-.02-.002-.019-.011-.01-.01-.002-.007v-.01l-.004-.015-.007-.011-.023-.024-.01-.021v-.018l.033-.078.007-.007.01-.005.027-.007v.015l-.036.02-.01.021-.002.012-.008.022-.002.013.002.014.005.012zm.195-.134l.003.01-.006.018-.004.009-.005.003-.002.005.005.033-.006.019-.012.012-.014.003-.01-.007-.005-.02.002-.02.004-.02.003-.02.003-.013.007-.006.014-.002h.011l.006-.002.003-.003.003.001zm1.44-.278l-.016.007-.03-.011-.024-.02-.017-.02-.006-.02.01-.013.01-.007.006-.006.002-.007-.001-.006.003-.003.021.001.012.004.011.015.01.025.006.03.002.014v.017zm-1.762-.713l-.01.007-.015-.012-.009-.021-.028-.08v-.017h.018l.026.016.012.01.006.012.01.025.002.02-.012.04zM13.89 5.76l.014.024.024-.009.052-.051.014-.004.088.038.12.017.078.045.018.016.05.07.017.012.049.006.023.008.085.058.01.001.01-.01.02-.034.013-.01.054-.02.006-.005.002-.008v-.01l.002-.008.007-.017.025-.04.012-.004.048.02.014-.001.014-.004.013-.008.012-.013.025-.018.034-.004.034.007.026.013-.01.014-.01.017-.003.018.006.017.102.136.01.03v.034l-.001.03-.01.047.01.029-.005.013-.007.012-.004.018-.001.02.004.015.023.026.004.015-.002.029.008.035.025.027.03.017.025.006h.026l.013.003.01.01.021.034.008.022v.024l-.008.015-.013.008-.032.01-.019.018-.004.029.004.075v.006l-.001.006v.005l.013.014.002.013-.003.035.002.007.005.003.01.004.003.005-.001.04-.004.045-.034.007h-.011l-.012-.004-.023-.013-.012-.005h-.022l-.014.008-.006.02.004.037.038.003.008.005.003.016v.025l-.004.024-.004.015.023.013.01.01.009.015.019.038.01.012h.013l.022-.015.017-.02.03-.056.016-.012.018.003.02.01.018.004h.019l.006.003.006.01.003.014.006.051.013-.002.03-.016.016-.002.006.003.013.013.006.004.01.003.01-.002.02-.01.017-.015.005-.014-.003-.047.002-.02.006-.02.01-.014.013-.005.12.012.015.005.012.006.01.011.035.07.014.017.018.006.016-.003.014-.007.008-.017-.002-.029-.01-.018-.018-.007-.019-.003-.016-.007-.01-.01-.002-.006v-.013l.002-.01.002-.013.004-.012.013-.028.002-.011-.005-.01-.014-.013-.02-.013-.007-.01-.001-.016.01-.008.067.01.02.012.023.025.019.031.009.032.007.01.028.01.008.018-.003.014-.02.047.054.022.058.023v.003l-.004.01-.006.014-.008.003-.009-.002h-.01l-.002.003-.005.014-.002.003h-.006l-.018-.007-.006.003-.001.012.002.014.002.01.011.016.014.013.009.015-.007.025-.015.037-.006.021v.017l.011.013.02.005.02-.002.012-.009.025-.03.016-.03.008-.006h.01l.062.028.016-.008-.003-.036-.012-.03-.012-.022-.015-.012h-.021l-.054.01-.004-.007.004-.018.006-.02.005-.013.028-.03.031-.006.082.009.078.009.035-.005.009.005.007.014.003.018.002.04.028.015.008.014.005.03.011.013.079.018.103.024.009-.002.003-.009.003-.022.005-.004.02.002.005.002.008.007.014.017.008.002.014-.005.008-.006.002-.013-.001-.025.005-.019.036-.01.01-.015-.002-.013-.005-.011-.002-.009.008-.005.032-.008.01.003v.004l.003.021.006.004.034-.01-.027.163-.008.028-.013.014-.017.003-.091-.018-.018.001-.015.009-.013.016-.012.023.029.02-.055.022-.01.012-.015.093-.027.005-.011.006-.01.013-.005.02.003.014.02.024-.017.035.098.053-.026.063.039.03.008-.003.06-.061.014-.015.006-.008.005-.011.007-.028.004-.006.011-.004.005-.001.015.003.005-.003.002-.016.004-.016v-.009l.001-.006.005-.003.047.002.01.003.02.012.01-.003.043-.035.02-.007h.02l.064.01.01.005.002.016v.037l.009.007.019.001.006-.004.012-.025.006-.005.04.001.006.003.008.013.003.015.006.01.012.005-.005.023.004.016.023.023.032.027.018.004.013-.016.029-.094v-.008l-.008-.009-.01-.01-.004-.008.005-.052.006-.02.009-.012.1.004.006-.007.01-.049.007-.014.005-.007.007-.002.031-.002.006-.006.005-.015.007-.03.005-.015.006-.008.02-.007.05.001.023.006.047.025.016-.001.153-.114.095-.072-.044-.076.042-.032.021-.01.022-.002.063.008.023-.005.245-.118.087-.041-.007-.025-.001-.017.004-.016.01-.02.013-.017.012-.006.122.033.026-.007.039-.03.013-.005h.01l.018.002.01-.002.01-.01.003-.019v-.02l.004-.02.013-.015.018-.004.034.003.015-.002.043-.023.012-.004h.015l.009.01-.005.024-.01.01-.05.013-.011.008-.014.013-.007.014.008.013.03.01.012.01.005.025-.003.026-.01.02-.013.018-.01.02-.008.03-.005.01-.007.01-.015.014-.006.01-.032.038h-.037l-.078-.03-.039-.003-.012.005-.01.007-.001.007.062.11.004.013.008.04.018.031.581.469.084.067.105.118.05.057.067.106.24.422.066.116.347.645.196.371.065.123.247.53.032.07.018.05.007.015.014.022.019.02.02.014h.02l-.034-.054-.01-.03.021-.013.011.006.021.024.011.007.014-.002.008-.01.008-.032.008-.015.009-.007.024-.01.005-.006.009-.012.006-.004.007-.001.025.003.024-.005.027-.015.022-.023.012-.034.002-.015.002-.017v-.017l-.003-.015-.006-.014-.017-.018-.008-.013-.002-.012v-.018l.004-.032.005-.019.008-.012.01-.007.015-.002.052.007.024-.006.008-.025v-.015l.005-.015.007-.013.008-.01.011-.012.012-.001.081.04.016.003.008-.007.005-.01.012-.01.014.002.005.013.001.034.005.019.007.01.025.014.028.013.014.004.015.002.018-.019.009-.005.012.002.012.007.004.012-.002.017-.005.02-.041.103-.016.06-.002.013.004.008.012.007.016.003.034-.001.072-.024.076.004v.035l.009.032.014.029.017.025-.014.02-.011.024-.004.025.007.021.018.01.13-.005.015-.01.017-.028.012-.01.011.001.023.016.013.002.045-.008.03.005.028.009.014.009.037.033.013.008.032.006.016-.002.016-.005.01-.01.012-.015.012-.01.011.002.01.005.007-.003.008-.007.009-.004.008.002.006.004.007.004.028-.007.013.007.028.027.078-.054.042-.02.016-.02.001-.068.016-.019.023-.006.05.015.08.01.028-.01.022-.025.017-.034.013-.04.012-.002h.007l.015.007.01.001.01-.001.01-.004.069-.01.067.01.017.027.01.011.012.008.068.013.014.007.036.032.014.009.012.002h.027l.014.004.012.008.011.011.02.034.007.009.024.01.018.02v.06l.015.031.07.05.007.006.02.027.005.018.002.015.004.013.02.024.007.016.001.018-.013.051.01.03.016.03.012.031.002.022-.001.021v.02l.006.018.007.006.019.005.007.005.005.007.008.016.004.006.023.001.022-.018.022-.013.021.017.018.021.019.013.02.005.023-.002.022.003.015.014.014.018.019.014.01.001.022-.003.01.006.007.008.015.036.008.005.01-.004.012-.007.008-.004.014.002.04.019.007.007.02.033.005.012-.002.015-.01.006-.028.006-.005.001-.002.055.002.025.013.012.035.008.014.011.01.022.002.035.004.013.01.017.04.046.013.027.006.075.018.028.024.014.024-.009.01-.008.014-.009.014-.005.012-.002.014.006.027.02.015.005.023-.002.01-.004.012-.005.019-.018.01-.005.01.002.01.01.008.027.008.012.01.004.01-.002.023-.01h.013l.01.006.01.01.009.014.009.005.011-.004.02-.016.013-.005h.011l.025.003.001.008-.006.04v.015l.009.011.01.003.01-.004.03-.031.026-.01.025.006.015.025.025.028.023-.03.02-.051.015-.032.035-.025.038-.014.04-.039.011-.004.004-.006v-.009l-.001-.01-.004-.01.028-.018.011-.012.005-.003h.012l.012-.017.007-.02.009-.013.02.001.025.015h.01l.019-.004h.01l.007.004v.01l-.01.022-.003.009.001.012.007.01.015.016-.012.013-.012.009-.013.005-.03.002-.012.01-.022.032-.009.017-.002.014.004.013.012.014.015.01h.013l.028-.006.014.003.042.027.014.012-.001.016-.005.019v.021l.009.016.015.011.031.016.017.013-.001.01-.01.01-.006.016.005.013.012.013.041.033.008.008.002.008v.013l.005.009.007.006.009.003.015.002.052-.005.018.004.017.008.033.023.01.02.013.065.01.027-.076-.022-.024-.013-.028-.007-.086.035-.018-.002-.036-.011-.017.001-.013.01-.013.034-.01.015-.025.02-.01.012-.01.016-.008.02-.002.014v.016l.005.023.014.031.02.019.01.018-.016.03-.011.013-.004.009v.01l.007.04v.013l-.004.01-.046.065-.03.029-.01.012-.006.015-.012.031-.006.012-.011.01-.071.028-.06-.004-.015.007-.013.012-.025.03-.033.017-.114-.01-.136.02-.022.016-.017.029-.081.2-.015.101-.01.035-.01.024-.007.02-.002.022.05.27v.03l-.01.06.002.028.01.027.043.071.005.019-.003.018-.004.016.002.015.005.017v.014l-.006.03-.003.018-.003.014-.007.007-.028.004-.015.004-.013.01-.006.015-.001.017-.004.013-.005.013-.008.012-.005.016-.002.017-.004.01h-.04l-.08.012-.035-.005-.012.003-.013.007-.008.01-.015.026-.013.014-.042.031-.018.02-.007.005-.028.007-.009.005-.01.01-.014.027-.012.009-.047.01-.044.019-.017.003-.012-.006-.003-.012.005-.014.009-.014.007-.014v-.032l-.011-.027-.02-.02-.022-.012-.029-.002-.058.014-.028-.005-.033-.016h-.02l-.075-.006-.066.006-.04.023-.014.003-.043-.009h-.058l-.233-.083-.104-.07-.024-.012-.056-.012-.013-.008-.031-.028-.015-.005-.017-.002h-.016l-.016.004-.015.008-.005.01v.047l-.008.02-.001.01v.008l.004.018v.01l-.01.033-.002.018.001.017.004.016-.001.015-.004.015-.09.187-.056.213-.024.053-.004.015-.007.048-.01.028-.04.067-.024.052-.017.058-.015.122-.017.08-.008.025-.017.042-.046.08-.022.087-.02.045-.004.025-.004.019.023.035.02.01.093.014.063.026.01.017.002.032-.001.035-.012.079-.018.062-.028.046-.039.007-.03-.019-.052-.058-.029-.02-.03-.004-.033.009-.117.06-.03.007-.025-.012-.012-.013-.01-.007-.04-.007-.01-.006-.002-.011v-.02l-.005-.03-.01-.036-.015-.026-.021-.002-.025-.007-.026.012-.049.036-.243.077-.05.028-.025.009h-.028l-.075.03-.016.001-.05-.016h-.03l-.098.037-.042-.004-.014.002-.012.01-.011.03-.01.01-.016.003-.045-.003-.044.017-.044-.007-.027.002-.025.012-.023.022-.06.053-.03.015-.012.01-.009.025.016.021.075.048.03.003.109-.024.016.002.011.006.031.025.1.038.01.007.002.011-.003.011-.01.007-.04.01-.02.01-.013.015-.001.01.003.008.01.015.005.01-.003.01-.009.019-.016.065-.005.035.002.03.024.126v.034l-.016.061-.005.032.004.016.01.011.02.02.006.015.004.014.001.016v.017l.007.018.01.02.022.033.073.19.072.191-.002.028-.01.026-.03.058.009.013.023.006.024.012.008.012.004.015.002.016v.016l.004.016.014.027.003.015-.003.018-.009.013-.012.007-.014.003-.012-.003-.031-.024h-.026l-.026.012-.048.036-.053.023-.026.017-.008.023.012.021.02.017.042.02.028.005.013.007.007.015-.003.017-.014.008-.03.004-.047.018-.011.01-.03.011-.01.002-.022-.006-.01-.001-.01.006-.013.021-.013.05-.01.025-.023.034-.005.013-.002.018.003.013.005.013.005.033.007.012.016.024.007.015v.01l-.01.027v.01l.015.065.004.013.006.012.009.012.011.06-.005.018-.007.01-.023.012-.027-.016-.019-.025-.016-.028-.02-.027-.04-.036-.023-.035-.008-.01-.026-.017-.136-.03h-.027l-.049.009-.058-.004-.031-.013-.017-.022-.028-.067-.02-.02-.048-.024-.021-.022-.01-.015-.005-.016-.004-.017v-.019l.003-.032-.005-.008-.015-.005-.024.005-.048.024h-.023l-.024-.01-.04-.003-.05-.02-.073-.007-.01-.006-.022-.018-.025-.014-.06-.022-.04-.004-.027.002-.013.005-.022.014-.01.004h-.014l-.025-.01-.012-.002-.028.004-.028-.001-.065.006-.028-.005-.034-.02-.014-.006-.014-.001-.014.002-.016.009-.015.007-.008-.005-.01-.015-.041-.01-.04-.002-.013.003-.032.015h-.01l-.013-.007-.01-.009-.012-.006h-.024l-.017-.006h-.01l-.01.002-.025.012-.02.006-.06-.01h-.021l-.01-.003-.01-.007-.017-.025-.007-.006-.02-.008-.07-.011-.012-.006-.012.002-.024.01h-.027l-.013.002-.012.009-.012.015-.005.003h-.004l-.01-.002-.005.001-.002.003v.004l-.003.003-.023.013-.012.003-.027-.001-.024.01-.013.004-.016-.003-.031-.014-.016-.002-.012.005-.018.018-.011.003-.006-.003-.007-.013-.006-.004h-.008l-.012.006h-.006l-.053-.015h-.055l-.045-.011h-.016l-.04.013h-.014l-.048-.015-.024-.003-.031.002-.007.001-.009.002-.007.007-.02.053-.006.011-.015.015-.017.013-.018.008h-.016l-.039-.016-.012-.002-.024.003-.138-.018h-.04l-.017-.004-.037-.022-.014-.012-.018-.01-.037-.011-.017-.009-.017-.015-.053-.026-.07-.012-.021-.008-.063-.049-.008-.01-.016-.027-.008-.01-.012-.007-.025-.007-.021-.015-.026-.002-.013-.007-.031-.026-.018-.01-.02-.004-.017-.007-.031-.029-.018-.01.017.024.006.014-.002.012-.01.006-.096.011-.011-.003-.022-.022-.013-.004-.018.014-.02.058-.023.012h-.026l-.01.002-.105.043-.03.017-.009.009-.007.012-.023.068-.012.022-.005.012-.003.015.002.014.007.028.002.015-.002.013-.049.109-.007.03-.001.03.004.028.01.026.044.087v.014l-.017.004-.037-.015-.055-.01-.008-.01v-.018l.002-.026-.01-.01-.014-.006-.044-.003-.01-.003-.01-.006-.013-.01-.023-.009h-.027l-.078.012h-.021l-.02-.006-.021-.01-.016-.014-.021-.04-.015-.016-.019-.01-.087-.022h-.044l-.021-.003-.072-.05-.04-.016-.08-.003-.009.002-.017.009-.01.001-.02-.006-.07-.04-.038-.009-.01-.004-.01-.006-.009-.005-.01.002-.02.008-.044.002-.02.007-.067.043-.01.002-.008-.003-.025-.02-.006-.004-.006.001-.01.005-.03-.01h-.015l-.01.01-.007.012-.008.012-.01.01-.01.004-.013-.002-.015-.007-.014-.004-.01.005-.013.024-.008.01-.01.007-.023.008-.005.008-.002.018.001.033-.003.012-.01.01-.052.008-.023.015.006.03.006.009.021.019.006.01-.002.009-.006.008-.008.005-.01-.001-.029-.019-.01.009-.008.014-.007.016-.004.016.001.01.004.005.001.005-.004.01-.02.024-.022.021-.007.013.003.012.025.025.012.007.018.004-.02.017-.021.017-.012.006-.011.006-.012.001-.011.002-.015-.004-.014-.004h-.014l-.005.007-.004.006-.003.007-.002.008-.004.005-.003.006-.008.01-.009.01-.007.014-.007.013-.006.015-.005.016-.007.012-.006.012-.01.004-.01.005-.007-.001h-.007l-.006-.004-.007-.002-.005-.005-.004-.005-.007-.02-.002-.006-.005-.005-.005-.006-.006-.004-.005-.004h-.005l-.004-.002-.03.013-.03.013-.013.011-.013.012-.008.017-.007.017-.002.007-.003.007-.004.004-.004.005-.015.007-.006.002-.005.003-.005.003-.005.005-.004.004-.02.036-.022.036-.007.01-.008.009-.026.019-.025.018-.017.007-.017.006-.005.004-.005.004-.004.006-.004.006-.01.011-.009.011-.012.006-.013.005-.034.001-.034.002-.041.011-.042.012-.005.004-.005.004-.009.01-.008.01-.031.025-.032.024-.017.006-.017.006-.009.005-.008.006-.004.011-.004.01.002.005v.004l.006.01.005.01v.008l-.003.002-.004.002-.018-.003-.018-.004-.005.001-.004.002-.012.007-.012.008h-.004l-.005.001-.009-.003-.009-.003h-.005l-.005.002-.016.01-.017.011-.008.007-.007.008-.003.008-.003.009-.006-.003-.006-.002-.005.002-.006.002-.03.016-.003.002-.002.003-.001.003v.003l.001.003.01.011v.002l.003.016v.007l-.005.038-.004.04-.003.004-.002.004-.006.006-.005.005-.01.007-.01.007-.012.006-.01.005-.014.002-.013.001-.006.002-.007.003-.004.005-.004.005-.007.013-.008.014-.02.009-.022.01-.008.009-.009.01-.01.032-.012.032-.006.008-.006.007-.025.01-.013.007-.008.006-.009.005-.003.01-.004.01-.01-.005v-.001.035l-.002.004-.002.005-.006.005-.001.002-.002.006v.006l.003.034.003.034.002.007.002.008.002.003.003.003.003.002.003.002.007.002.008.002v.015l.002.005.006.014.003.005v.002l-.001.003-.008.012-.007.013.006.003.005.003-.001.005-.002.005-.007.004-.006.004-.008-.001-.009-.001-.012-.006-.012-.007h-.007l-.003.001-.003.002-.005.01-.003.003h-.008l-.009.009v.002l-.12-.063-.025-.013-.02-.016-.02-.016-.029-.028-.028-.028-.009-.005-.01-.006-.011-.002-.013-.003-.002-.001-.002-.002.001-.003.001-.003.003-.002.003-.003.01-.005.011-.005.005-.004.005-.004.013-.015.003-.006.005-.01.005-.01.004-.014.005-.013.003-.014.003-.013v-.024l-.003-.004-.002-.005-.001-.002-.002-.002-.002-.001-.003-.002.012-.007.007-.005-.004-.003-.003-.001v-.004l.001-.004-.001-.01-.001-.009-.007.001h-.006l-.005.01-.004.009-.003-.004-.003-.005h-.008l-.012.006-.003.003-.004-.007-.004-.006-.003-.016-.002-.016-.003-.007-.003-.007-.014-.018-.013-.018-.005-.01h-.001l-.004-.012-.003-.011-.034.022-.017.012h-.006l-.006.001-.007-.002-.007-.003-.012-.006-.013-.007-.007-.002-.007-.002-.5.03-.07.004-.036-.009-.015-.004-.014-.016-.013-.017-.027-.12-.026-.12-.02-.101-.019-.101-.01-.104-.011-.104h-.002l-.001-.001-.007-.002h-.288l-.002-.002-.003-.002v-.005l-.001-.004.004-.297v-.025l.002-.006.002-.005.007-.003.007-.003.003-.007.003-.007.017-.25.013-.207-.089.047-.088.048h-.005l-.006-.001-.118-.244-.052-.108-.012-.01-.012-.011-.063-.04-.063-.04-.03-.032-.03-.032-.067-.086-.065-.086-.01-.01-.011-.008-.01-.002-.01-.002-.01.005-.012.004-.179.1-.061.034-.01.003-.011.003-.653-.06-.093-.008-.39.064-.056.009-.275.05h-.001l-.013-.005-.012-.005-.324-.374-.043-.05-.067-.072-.07-.076-.036-.058-.006-.02-.004-.044-.004-.02-.011-.023-.016-.018-1.454-.976-.047-.032-.016-.007-.015-.002-.267.078-.036.01-.264.082-.077.024-.918.296.001 2.894v.187l-.042-.004-.02.002-.055.026-.057.009-.036.014-.077.004-.019-.006-.017-.01-.012-.01-.01-.014-.018-.041-.007-.014-.01-.01-.038-.027-.022-.02-.018-.022-.04-.07-.039-.07-.028-.038-.063-.086-.007-.015-.003-.017v-.017l.003-.015v-.013l-.005-.017-.015-.018-.103-.096-.332-.223-.045-.016-.046-.006-.348.063-.04.009-.135.054-.035.02-.095.034-.131.11-.175.175-.025.026-.001-.016.005-.019.023-.06.006-.03-.004-.033-.007-.017-.008-.014-.012-.011-.004-.007-.002-.01.004-.029v-.008l-.004-.008-.018-.02.007-.012.005-.016.004-.016.001-.015.004-.014.009-.006.01-.005.01-.007.03-.058.034-.045.004-.007.003-.008V17.9l.003-.006.018-.018.005-.008.002-.007.001-.014.002-.007.01-.033.006-.03v-.03l-.008-.032-.016-.036-.012-.019-.026-.017-.007-.018v-.018l.006-.006.005.009.004.017.007.017.012.008.005.002.022.015.003.006.002.01.003.001.009.03.006.015.006.007.006-.007.007-.017.005-.02.003-.016-.006-.037-.014-.024-.022-.014-.03-.002-.002-.02-.03-.02-.064-.024-.06-.005h-.01l-.014.006-.008.005-.003.005-.007.015-.003.004-.016-.007-.04-.056-.023-.018-.015-.001-.053.008-.041.016-.022.016-.014.005-.012-.007-.036-.042-.009-.013-.013-.027-.01-.015-.006-.013-.006-.03-.006-.017-.03-.033-.007-.017-.017-.005-.005-.003-.003-.01.002-.008.003-.006.002-.01-.002-.016-.007-.017-.01-.01-.024.012-.03-.001-.014.003-.013.015-.007.002-.007-.002-.014-.008-.008-.002-.057.012h-.056l-.008-.008.002-.02.022-.068.007-.035.004-.11-.003-.018-.02-.038-.002-.008-.002-.027-.002-.008-.009-.011-.024-.018-.005-.014-.002-.012-.005-.002-.007.003-.007.002-.008-.002-.004-.001-.009-.008-.016-.023-.056-.118-.005-.015-.003-.015-.001-.008-.009-.014-.002-.005v-.008l.001-.018-.001-.008-.005-.01-.018-.016-.004-.008-.005-.015-.01-.015-.007-.016-.006-.008-.006-.004-.014-.004-.005-.004-.005-.012v-.007l.004-.007.001-.012-.002-.07-.003-.018-.003-.014-.016-.022-.024-.018-.052-.024-.215-.04-.028-.013-.013-.009-.014-.012-.01-.016-.005-.018.004-.039v-.018l-.004-.017.004-.006-.006-.015-.003-.028.001-.029.008-.016.01.025.009-.011.006-.024.002-.013.007-.005.001-.01v-.012l.003-.009.007-.006.006.002.005.006.007.005.096.019.03-.002.028-.01h.015l.006.013.01.003h.053l.01.01.007.003.007-.004.006-.016.003-.004h.039l.016.004.013.007.022.02.018.024.006.003.015-.002.006.002.004.007-.001.005-.005.004-.006.001.01.015.016.01.05.024.017.004.018-.001.018-.005.014-.007.033-.034.004-.008.004-.003.004-.001h.025l.016-.006h.01l-.005.028.017.005.042-.009.041.02.014-.002.008-.011-.003-.012-.009-.01-.009-.009-.036-.02-.025-.023-.015-.002-.029.01-.03.004-.016-.016-.021-.064-.014-.026-.02-.018-.05-.033-.01-.012-.005-.004-.022-.003-.006-.002-.003-.006-.007-.007-.039-.025-.005-.014-.001-.02.003-.017.01-.008.005-.003.002-.007v-.008l-.001-.006-.007-.005h-.01l-.007-.003-.003-.01.006-.013.014-.01.016-.004.013-.002.015.002.007-.002.009-.006.011-.018.006-.006.026-.018.015-.008.013-.003.01.007.012.015.012.012.013.002.005-.011-.004-.017-.008-.017-.008-.012-.003-.01.003-.01.004-.01.002-.008-.001-.006-.005-.014-.002-.004.004-.012.007-.015.019-.028.003-.014.006-.014.054-.066.005-.013.003-.02.003-.017.009.008.016.03.023.01h.03l.03-.008.022-.014.019-.021.006-.004h.013l.006-.002.01-.016.006-.017.008-.015.012-.01.007.01.007.01.005.014.002.012.052.009.01.004.017.016.011.004.01-.004.02-.016.012-.004.014.002.025.008.013.002.19-.025.025.008.045-.007.03.007.102.046.061.01.031.016.015.005.057-.007.016.003.033.013.015.002.013-.005.026-.015.014-.003.004-.002.007-.009.004-.002.015.005.001.001.005-.003.005-.005.004-.007-.001-.009-.011-.007-.064-.013-.005-.004-.008-.011-.006-.004-.019-.002-.028-.009-.077-.039-.015-.003-.006-.003-.01-.016-.005-.005-.006-.002-.022-.004-.03-.013-.01-.008.002-.011-.003-.008-.004-.006.002-.008.005-.009v-.006l-.002-.007v-.028l.004-.016.007-.01.011-.004.01-.007.007-.016.01-.032.024-.041.01-.013.007-.004.015-.006.005-.005.021-.03.008-.015.012-.034.01-.017.017-.02.006-.007.003-.008.005-.02.004-.009.013-.024.003-.013-.003-.016v.005l-.003-.013.004-.012.014-.02.005-.012.003-.015.005-.06.018-.08v-.06l-.017-.047-.028-.036-.03-.032.012.001.018.017.012.006v-.007l-.011-.008-.006-.014v-.016l.004-.016-.01.005-.015.014-.014.01-.012-.005v-.018l.007-.024.019-.037v.016l.008.01h.011l.01-.008.005-.013.003-.033.005-.015.005.018.005-.004.005-.015.005-.01.006-.003.014.003h.006l.007-.005.003-.003.002-.011.002-.035-.012-.02-.019-.01-.019-.003-.012-.005-.004-.012.002-.029-.012-.062-.011-.024-.003-.011-.005-.006-.026.004H4l-.012-.013-.023-.036-.01-.007H3.93l-.057.012-.033-.006h-.07l-.014-.004-.012-.007-.021-.024-.01-.004-.04-.007-.011.002-.006.008-.002.01v.023l-.003.009-.028.036-.01.009-.058.02-.017.002-.02-.015-.008.001-.005.008.002.012.004.003.016.006.005.003.008.014.003.01.001.01-.003.003-.077-.005-.016-.007-.005-.005-.004-.003-.002-.007-.001-.013-.003.002-.008-.006-.02-.022-.006-.004-.004-.005-.002-.01.004-.007.007-.006.004-.008-.002-.01-.012-.004-.01.016-.013.034-.012.005-.02-.001-.02-.005-.014-.008.02-.026.006-.006-.013-.004-.015.007-.027.017h-.013l-.013-.006-.012-.01-.01-.012-.023-.019-.009-.015.013-.039-.001-.018-.009-.014-.015-.002-.012.01-.006.017-.003.02-.006.016-.012.002-.012-.016-.016-.031-.012-.012-.015-.008-.04-.007-.033-.013-.079-.017-.025-.016-.016.003-.027.02-.024.013-.08.019-.012.007-.018.024-.01.006-.01-.003-.013-.013-.007-.003-.007.003-.003.006-.001.007.003.003-.004.008-.049.084-.01.009-.007-.016.002-.01.012-.018.003-.012-.003-.006-.008.005-.022.024-.016.009-.016.004-.012-.005-.01-.002-.003.018-.002.043-.005.014-.008.013-.01.007-.011-.005.011-.015.007-.014-.002-.01-.014-.003-.02.007-.005.002-.007.008-.005-.002-.005-.006-.02-.017-.012-.005h-.002l-.01.013-.019.058-.01.01.003-.012.002-.031-.009.007-.004.01-.004.011-.004.009-.005.002-.011.001-.005.003-.005.004-.002.004-.027.05-.012.014-.011-.002v-.009l.004-.01.002-.01-.006-.005-.008.003-.02.012-.054.058-.017.03-.01.014-.013.005-.023-.003-.008.003-.006.005-.01.014-.005.006-.022.01-.006.013h-.01l-.017-.005-.01.008v.017l-.004.011-.016-.006-.007-.013-.005-.005-.007.004v.019l-.002.009-.006-.004-.012-.017-.008-.006-.007.001-.001.007.002.023-.001.007-.04-.052-.01-.005v.017l.003.04-.011-.007-.006.005-.005.01-.007.01-.005-.02-.008-.012-.036-.016-.01-.007-.008-.011v-.019.028l.002.015.009.01.006.023.004.009h-.006l-.011-.005-.006-.002-.005-.003v-.007l.003-.007v-.006l-.015-.016-.005-.004-.004.004v.006l-.001.004-.02-.004-.021-.009-.02-.013-.01-.017.005.023.04.046.01.028-.013-.005-.022-.001h-.003l-.009-.01-.005-.014-.008-.01-.012-.002v.006l.01.01.002.019.004.018.016.008.023.024.002.008.001.01v.01l-.003.009-.026-.02-.011-.011-.01-.012-.008-.015-.007-.009-.01-.005-.016-.001.007.005.005.006.003.008.002.014.002.008.023.025-.003.001-.006.005-.008-.006-.049-.016h-.007l-.003.004.001.01.005.005.007.003h.006l.01.008.004.017.001.017.002.013-.118-.069-.045-.035-.026-.026-.013-.007H1.48l-.015.003H1.45l-.037-.03-.016-.02-.017-.014-.025-.006h-.056l-.02-.01.014-.02-.01-.007-.003-.013-.002-.013-.005-.009-.023-.014-.011-.005-.012-.001.015-.02.016-.044.031-.026.038-.008.035.011.013.012.01.014.016.034.015.007.093-.017.02-.016.035-.044-.189-.297-.092-.242-.007-.021-.006-.015-.01-.007-.022-.003-.022-.007-.016-.015-.03-.043-.115-.2-.038-.032-.041-.02-.242.005-.13-.063-.015-.001-.01.008-.004.013v.055l-.004.042-.005.018-.009.002-.113-.079-.02-.02-.011-.014-.003-.01.004-.012.008-.016.01-.012.002-.008-.002-.005-.02-.035-.044-.054-.004-.01.009-.008L.42 13l.025-.023.009-.018-.012-.011-.033-.004-.01-.012v-.017l.005-.015.003-.016-.004-.019-.004-.005-.014-.015-.003-.008.004-.006.006-.005.004-.005.009-.018v-.008l-.008-.014-.013-.009-.06-.016-.307-.107.087-.24.082-.227.014-.02.022-.017.046-.025.014-.011.011-.01.03-.04.026-.047.012-.05-.007-.048-.03-.04-.091-.07-.034-.013.076-.46.014-.039.022-.021.134-.06.041-.043.039-.05.012-.027v-.034l-.034-.047-.005-.027.007-.013.022-.021.006-.015-.003-.014-.008-.01-.005-.012.006-.019.01-.009.043-.018.009-.01.02-.047.019-.028.025-.024.028-.015h.026l.015.011.04.053.028.015.008.01.011.022.006.007.012.005.007.004.029.034.012.018.024.021.024.037.025.022.004.012.003.013.004.013.008.01.03.026.014.025.006.027.004.027.007.027.005.01.006.018.004.009.007.008.024.02.012.022.005.021.007.014.021.002.018-.004.006.003.029.028.035.021.008.002.007-.005.015-.02.008-.007.125-.05.061-.035.048-.057.01-.016.004-.01v-.01l-.007-.037-.005-.016-.008-.01-.043-.014v-.025l.004-.033-.01-.037-.027-.052-.016-.066-.017-.138.003-.067-.003-.03-.016-.021-.03-.007-.016-.008-.003-.02.01-.012.015.002.08.049.029.006.027-.005.111-.084.055-.072.025-.023.086-.022.052-.022.024-.02.01-.033-.012-.03-.02-.026-.015-.024.007-.028.015-.026.005-.014.006-.032.005-.018.008-.016.008-.01.015-.004.048.015.147-.001.01-.007.029-.04.088-.078.025-.013.11-.022.072-.037.01-.009.004-.01v-.012l-.005-.017-.002-.019.006-.009.01-.006.008-.01-.007-.01-.003-.005.004-.006.008-.002.036-.002.011-.004.009-.009.005-.017.014-.002.01-.004.005-.01.003-.022-.006-.057.002-.015.01-.012.012-.003.009-.007.001-.025.002-.022h.012l.024.02h.028l.005.004-.011.017-.01.018.007.008.016.002.014-.002.027-.01.016-.02.003-.027-.03-.082-.001-.033.014-.017.033.007.01.007.012.01.01.013.007.016.01.018.015.008.15.01.012-.005.013-.007.013-.004.011.007.015.026.008.009.012.006h.027l.012.007.006.02v.022l-.006.015-.008.01-.012.006-.06.012-.003.007.022.043.02.02.045.005.05-.008.033-.017.01-.016.008-.015.01-.01h.015l.015.006.007.01.001.013.001.023.014.03.028-.003.031-.02.024-.019v-.036l-.01-.032-.001-.03.034-.04.019-.028.01-.01.018-.007.017.001.017.007.016.01.016.006.018.002h.02l.015-.006.012-.011.013-.031.01-.014.015-.01.035.003.017-.001.013-.011.007-.03.01-.01.017.012.01.033.008.04.008.029.04.079.018.064.004.01.007.012.01.013.01.011.014.008.004.002.014-.01.054.004.003.009.007-.004.012-.018.006-.005.007-.003.015-.002.004-.003.003-.007.004-.008.01-.002.006.003.013.014.006.003.034-.003.012.005-.008.018.012.002.016.01.01.002.009-.003.016-.017.008-.007.023-.01.073.003-.005-.017.003-.008.008-.002h.01l.005.002.009.015.005.003.008-.005.003-.001.046.007.01-.002.014-.007.013.009h.001l.024.01.007.008.012.024.009.009.062.025.026.018.008.009.004.016-.005.008-.021.01.011.014v.016l-.003.017.004.016.02.021.01.012.004.018.015.017.112.034.031-.005.017.004.023.02.012.012.015.033.013.009.032.005.012.009.005.014.006.038.006.013.004.009.002.01-.002.016.019.024.01.01.025.014.008.012.008.013.01.013.014.01.05.008.006.005.012.012.006.004.027.006.009.004.004.008.001.01-.001.01-.004.009-.035.045-.005.02v.043l-.004.018-.013.044-.004.02.003.018.01.02.021.03.013.012.014.01.012.002.032-.008.025-.01.034-.03.018-.028-.002-.03-.021-.071v-.02l.007-.037v-.02l-.003-.006-.01-.01L5 10.382l.002-.008.01-.017.004-.009-.009-.038-.033-.02-.035-.01-.014-.011.007-.009.012-.006.007-.01-.013-.036.005-.012.012-.007.052-.017h.015l.014.004.013.008.024.022.04.02.012.013.019.025.02.02.094.028.01.021-.002.038.014.025.135.128.015.01.011.003.011-.001.03-.009H5.5l.016.005.014.01.009.015.005.016.006.013.028.012.01.01.019.027.026.019.021-.009.043-.046.103-.057.09-.076.012-.022.023-.117.006-.023.007-.013.01-.003.051.024.019.004.016-.004.012-.011.005-.016.004-.035.01-.01.03-.004.01-.013v-.014l-.007-.028v-.014l.007-.012.01-.01.019-.017.018.007.054.08.012.005.044.01.012-.002.001-.01-.004-.017-.012-.031-.002-.019.009-.013.013-.009.012-.005.015-.003.01.005.023.018.015.006h.016l.016-.006.015-.007.016-.004.051.006.029-.007.04-.026.01-.004.009.006.008.02.005.037.004.017.01.007.015.001.011.003.01.009.01.015.006.016.007.035.006.015.01.016.01.01.04.024.016.004h.015l.014-.009.01-.014.008-.015.008-.012.014-.01.024.004.057.018.02-.011.01-.029v-.032l-.006-.064.004-.036.011-.023.01-.021.017-.004.027.017.01.002h.034l.007.004.006.006.01.014.006.002.017-.01.008-.002.046-.008.005.001.002.005.001.012v.003l.015.01.016.009.017.001.014-.01.007-.017.006-.021.007-.018.013-.007.014-.004.025-.015.009.008.018.02.008.012.003.026.004.011.013.007.075.002.026.012.02.025.004.041-.004.018-.007.015-.009.011-.01.01-.005.014.003.018.006.017.007.011.011.003.031-.002.006.01-.004.037.002.013.01.01.016.002.018-.005.017-.001.013.012.01.032.006.011.01.012.046.035.024.01.166.016.014.004.01.013.007.014.007.01.009.004h.01l.059-.014h.031l.025.015.012.014.033.014.007.006-.002.025-.015.007-.035-.006-.016.015v.014l.009.014.034.032.02-.01.02-.02.021-.018.031-.005.032.002.03-.006.026-.028.026-.058.008-.013.02-.023.006-.013.003-.017-.003-.033v-.02l.003-.016.026-.065.004-.007.006-.006.026-.01.038-.003.033.012.01.036v.035l.014.028.02.022.022.017.034.017.256.03.06-.01.17-.057.17-.058.019-.02.014-.029.009-.04.01-.088.034-.19.012-.045.02-.027.027-.015.033-.009-.043-.019-.019-.017-.015-.027-.024-.076-.013-.02-.002-.005-.023-.006-.026-.017-.023-.01-.009.002-.015.004h-.008l-.008-.001-.02-.012-.016-.003-.042.003-.014-.002-.024-.009-.012-.002-.02.001H8.92l-.005-.003-.004-.003-.008-.01L8.9 9.71l-.02-.015-.007-.009-.01-.019-.004-.012-.001-.009v-.032l.001-.013h-.01l-.248-.006-.006-.002-.003-.007-.001-.01-.002-.01-.006-.004-.067-.011-.013-.009v-.02l.01-.013.029-.014.012-.01.002-.007v-.017l.003-.006.012-.01.006-.006.003-.008-.017-.021-.109-.027-.063-.047-.02-.009-.007.01-.006.015-.015.009-.02-.004-.012-.012-.028-.065-.006-.016.001-.016.01-.024h.122l.089-.096.048-.04.049-.022.034.001.034.008.033-.002.031-.025.025-.04.01-.01.06-.026.011-.009.031-.035.012-.01.026-.015.019-.02-.038-.053-.01-.014-.003-.018-.003-.042-.004-.018-.005-.01-.008-.004-.057-.02-.01-.009-.003-.016.003-.048v-.02l-.004-.015-.003-.007-.006-.001-.032.003h-.01l-.008-.007-.003-.008-.002-.007-.002-.005-.014-.011-.003-.009v-.022l.015-.041.026-.016.03-.008.025-.013.008-.013.015-.028.011-.014.106-.098-.05-.049h-.001l.048-.001.022-.007.02-.014.02-.018.022-.003.021.007.02.014.018.007.02.003.018-.003.017-.007.029-.026.015-.004.018.01.022.02.037.037.019.008.019-.012.011-.011.012-.003.026.004.063-.009.022.008.04.033.023.003.046-.018.023-.017.014-.023.012-.05.001-.024-.005-.024-.015-.025-.02-.012-.132-.027-.043-.018-.036-.035-.025-.036-.013-.005-.059.033-.02.003-.022-.007-.06-.048-.022-.008H9.05l-.028-.007-.025-.023-.012-.024-.006-.026.002-.026.012-.024.027-.04.006-.014.003-.013.002-.031.01-.01.016-.005.016.004.012.01.013.023.016.022.017.014h.019l.015-.01.031-.035.016-.013.025-.014-.016-.068-.008-.014-.008-.003h-.069l-.018.006-.027.039-.022.003-.086-.021-.011-.008-.004-.006-.007-.017-.005-.007-.03-.01-.085-.005-.017-.02.015-.025.063.022.022-.019v-.038l.005-.012.01-.006.024-.004.005-.011.007-.025.015-.018.017-.017.012-.016.002-.024-.015-.013-.021-.01-.017-.01-.012-.02-.007-.004-.012-.004h-.04l-.013-.004-.004-.01-.001-.012.001-.012.004-.012.011-.015.013-.008.029-.006.02-.001.03.006.003.005.007.017.008.013.01.01.011-.001.01-.019.003-.018-.004-.018-.014-.04-.005-.02.034-.002.016-.009.01-.018.012-.014.016-.004.049.008.01.009.017.038.01.008.046.01.002.034.004.01.011.003.012-.002.006-.01.003-.015.003-.02h.058l.008.008.008.004.008-.001.014-.018h.008l.01.003.008.005.005.02.001.013.004.01.012.009.022.006.068.005v-.089l.25-.01.013.002.008.011-.001.023-.028.019-.008.013.003.02.01.018.03.016.013.015.006.01.007.008.008.005.008.001.01-.005.002-.007-.005-.033-.003-.007v-.008l.007-.014.027-.027-.01-.02-.005-.004-.007-.036.018-.028.03-.018.025-.007.053-.003.034-.015.011.003.027.013.017.001.05-.015.061.008.017-.008.01-.018-.002-.015-.006-.015-.003-.02.008-.016.02-.007.037.002.07.017h.023l.017-.009.032-.026.017-.009.042-.002.1-.046.021.002.018.01.05.039.018.004.008.004.007-.014.02-.008.022-.004.019-.01.01-.028-.019-.027-.009-.016v-.008l.006-.004.004-.008.006-.005.011.013.007.004.008.001.007-.001.006-.004.01-.013.005-.005h.01l.026.008.015-.004.03-.014.018-.005.013-.006.004-.004.007-.005.009.001.015.008.06-.007.008-.003.01-.015.004-.004.02.006.007.002.015-.004.026-.018.008.007.037.033.02.012.022.002.039-.02.038-.032.039-.02.041.017.049.066.008.01.009.006.009.003h.01l.005-.004.007-.007.005-.002.018.008h.006l.018-.034-.02-.112.013-.024-.002-.021v-.025l.01-.013.078-.035.017-.001.035.01.013-.004.005-.022-.007-.039.003-.014.017-.005.06.007.084.03.019-.004.016-.017.017-.033.017-.025.02-.014.045-.018.012.01.005.069.01.017.074-.027.213-.078.04-.006.077.003.039-.006.013-.008.023-.025.013-.008.12-.006.019-.004.036-.021.019-.005h.046l.024-.005.016-.017.013-.026.014-.017.017-.007.04.012.04-.009.11.003.047-.014.036-.032.024-.042.013-.016.018-.013.021-.006h.02l.058.029.096-.014.01-.012.005-.027.014-.006.005-.01.002-.014.006-.02.011-.007.018-.001.013-.006.003-.022-.05-.03-.022-.026.01-.03-.014-.015-.004-.003.039-.022.013-.003.009.003.008.006.01.004h.012l.03-.015h.016l.046.014.041-.015.014-.001.016.004.008-.002.006-.01.001-.011-.003-.021v-.009l.01-.013.029-.02.005-.016-.002-.023v-.018l.005-.018.007-.018.013.008.062.01.014.007.013.012.022.038.012.015.014.007.015-.01.006-.013.002-.018-.004-.041-.015-.01-.012-.006-.01-.01-.006-.037-.003-.008v-.007l.006-.009.01-.006.01-.001.11.04.015.02.01.033z" fill="#fff" stroke="#000" stroke-width=".2"/><path d="M11.687 15.133c0 .743-.573 1.345-1.28 1.345-.707 0-1.28-.602-1.28-1.344 0-.742.573-1.344 1.28-1.344.707 0 1.28.603 1.28 1.345z" fill="none" stroke="red" stroke-width=".3" stroke-linecap="round" stroke-linejoin="bevel"/><path d="M11.145 15.094c0 .429-.332.776-.742.776-.409 0-.74-.347-.74-.776 0-.428.331-.776.74-.776.41 0 .742.348.742.776z" fill="none" stroke="red" stroke-width=".3" stroke-linecap="round" stroke-linejoin="bevel"/></svg>