<svg xmlns="http://www.w3.org/2000/svg" width="603.645" height="519.086" viewBox="0 0 603.6452 519.08594"><desc>world98</desc><g stroke="#000" stroke-width="5" fill="#fff"><path d="M426.214 464.513l.202.14 2.216 5.356-.038 1.49.09 2.37.468 1.76 2.482 6.29.545.2.27-.05 1.05-.45.21-.13.87-.7.29-.41.07-.23.05-.28-.04-.29.07-1.19.05-.29.14-.26.21-.11.2.06.26.39.37 1.18.2 1.05.23 1.56.01.3.01.45-.92-.04-4.76 1.19-2.28.96-1.5 1 .13.45.11 1.02-.05.32-.26.45-.58.39-.23.04-2.05-.13-.31-.07-.31-.08-3.9-2.19-.26-.35-.1-.2-1.85-2.08-2.51-2.46-1.54-1.11-1.26-.35-.3-.08-5.53-.87-1.85-.25-6.07.2-.26.05-2.32.47-.94.38-.57.05-6.09-1.1-3.93-1.61-.87-.52-2.56-2.03-1.22-1.74-2.14-1.32-.45-.25-6.09-1.37-1.21-.03-4.11-1.39-.08-.23-1.54-1.02-2.47-1.57-6.43-1.94-2.29-.66-5.89-1.33-1.27-4.19-3.11-8.55-1.79-4.07-.62-1.24-.67-1.22-.14-.17-.28-.09-1.7-.24-.31-.07-.27-.1-6.01-7.96.7-9.62-1.34-9.84-.04-.26-1.33-3.94-.1-.2-.87-1.08-.3-.35-.61-.41-2.13-1.28-.6-.14-.36-.04-.27.06-3.58-.71-.8-.55-.38-.59-.3-.36-.34-.61-.07-.23-.33-.61-.2-.15-.24-.11-.34-.05-.62-.07-.19-.15-.27-.38-.08-.23-.42-.84-.14-.18-.32-.14-1.08-.07-.24-.08-1.01-1.04-.23-.41-.12-.48-.3-1.74-.37-2.09-.07-.23-2.43-2.52-1.24-1.05-4.04-6.01-.94-1.58-.38-.31-.51-.21-.67-.1-.27-.09-3.42-1.4-2.46-2.06-1.77-1.58-.15-.18-.12-.2-2.09-4.99-.04-.47.09-.62.01-.57-.98-2.87-.38-1.08-1.82-2.41-2.03-2.52-1.47-1.95-.34-.61-.38-.86-.04-.25.1-.48.03-.09-.04-.26-.22-.69-1.34-3.55-.19-.43-1.59-1.65-1.19-1.42-1.44-1.76-.53-1.04-.07-.23.32-1.44.01-.28-1.61-4.82-.23-.39-5.71-6.56-.19-.14-5.96-3.94-.78-.31-3.63-3.85-.4-.7-.13-.19-.14-.2-.23-.21-.47-.24-.28-.1-1.88-.38-.36-.04-1.18-.32-.24-.12-3.51-2.21-4.21-3.42-2.05-2.06-.54-.995-.08-.25.05-.305-.17-.452-1.51-3.1-2.35.02-3.76.05-3.93.21-3.71-.53-1.75-.49-1.35-.36-2.33-.36-3.03-.06-4.5.01-2.32.305-.594.07-1-.04-.95-.19-1.116-.36-4.825-1.68-1.43-.87-.19-.14-1.32-.79-.26-.09-.36-.04-.24.1-2.02 1.67-6.26 3.146-3.11.63-4.99 1.14-6.13 12.25-2.116 5.55-2.04 4.47-2.7 3.24-4.42 4.05-4.67 5.14-.55-.17-.62-.125-5.05-.39-.09-.01-.32-.06-3.43-1.17-1.19-.58-2.77-1.67-1.05-.72-2.12-1.7-9.32-3.33-6.99-3.95-3.917-.91-2.22-.7-.99-.44-.83-.53-.78-.58-4.05-3.08-1.18-1.16-.32-.34-.11-.2.03-.876-1.07-.68-1.117-.64-1.36-.75-.24-.12-.56-.16-.67-.1-.29.04-.45.22-.19.14-.25-.05-3.577-2-1.56-1.2-3.95-3.43-.16-.17-6.03-11.93-.2-.42-.67-2.71-.38-2-.01-.28.21-.5.72-1.3.2-.48.06-.28.11-2.58-.33-.9-1.06-2.09-3.26-3.86-2.06-3.103-1.95-3.66-.68-2.68-.58-1.58-.37-.6-1.46-1.52-.2-.14-2.45-1.04-3.24-2.82-2.87-2.53-2.03-1.32-1.73-1.05-.57-.16-.36-.04-.33.01-.33.34-.23.1-.65-.05-6.01-3.13-4.27-3.52-.37-.3-2.13-2.13-1.62-2.49-.345-.62-.6-.69-.21-.14-4.92-2.78-2.55-1.32-.2-.14-.16-.165-.12-.2-.34-.9-.26-.39-1.72-1.91-.66-.67-.73-.61-5.23-3.97-1.64-1.126-.28-.08-1.77-.16-.85-.25-3.25-1.21-2.81-1.7-.42-.28-2.5-3.64-.25-.39-.64-1.54-.65-1.828-1.34-2.18-.14-.19-2.51-2.52-.454-.25-.57-.16-.29-.01-.88.112-.95.066-1.46-.14-.41-.34-1.01-.91-2.88-1.88-.61-.445-1.3-2.48-1.45-4.18-.18-.72 2.14-.28 24.33.01 72.195-.02 26.53.016 26.63.01 12.26-.02-.024-9.87.01-35.7.1-6.18.11-4.46.27-11.45.32-11.13.32-12.39-.02-9.88.026-41.04-.01-63.08 6.07.02 13.7-.02 51.68.03 42.53-.02 22.04-.01 2.67.02-.01 10.64-.02 7.6.11 69.39.05.037.49.22.23.06.42.02.49-.02.264-.1.78-.11.75.03.35.064.76.213.95.4.42.28 2.65 2.15 1.71 1.56.49.467.46.41 2.734 2.3.53.37.73.38.27.09 1.03.23.57.06 8.2-.1 2.41-1.81 2.26-.8 3.76 1.54.11.09 2.6 2.88.12.28.11.357-.27 2.17.04 1.15.12.47.18.37.19.31.215.25.35.28.34.1 6.59.68 7.31 1.65.52.166.8.16 4.32.782 1.09.08.77-.15.54-.14.96-.366.73-.22 1.1-.26.64-.01.84.13.49.19.15.123.48.42.33.32.42.62.63.64.47.38.76.53 1.27.74.55.17.52.06.69-.05.76-.17.53-.18.46-.24.13-.126.11-.127 5.47-2.09 5.27.2 3.37 1.67-.04.56-.01.43.02.34.03.19.25 1.12.05.13.22.35.152.19.27.23.56.28.306.1.48.07.88.03 1.56.16.76.11.52.13.51.33.19.15.027.15.05 1.433.01.41-.08.25-.51.71-.16.37-.05.47.023.46.25.36.15.13.42.19 3.19.77.52-.05.32-.09 2.83-1.08.46-.24.2-.15 1.29-1.34 1.6-1.6.77-.54.884-.44.65-.24.69-.08.5.04 1.99.72 3.73 3.13 2.48 2.46.31.62.593.52.48.16.99-.01.87-.1.91-.29.51-.2 5.19-2.68 2.37 2.39-.43.49-.17.41-.03.75.1.49.28.7.46.88.18.28.74.71.33.28.74.27.55.075 2.15-1.407 1.61-4.28 2.96-4.44.19-.15.51-.2.91-.16 1.33-.12.35.05.51.208.19.15.29.38.22.44.1.81.14.51.1.22.11.23.28.38.56.48.44.26.3.07 4.72 1 .72.05.62-.1 5.11-.14 5.56 3.19 6.31 3.59.51.11.26-.027.46-.14 5.23-2.7.43-.224.48-.46.2-.39.14-.34.05-.34.34-.65.28-.29.3-.24 1.81-.63.493-.14 6.01-1.28 3.94.67 4.76-.54 1.346-1.08 6.113-2.316.5-.11.28.02.52.11.55.17.44.18.47.41.06.13.12.66-.05.19-.03.49.024.27.06.19.217.14 4.75.58 2.85-.163 1.76-.39 1.23-.4 2.09-.75.13-.15-.03-.28-.28-.42-.05-.23.09-.37.697-.88.2-.18.55-.25.27-.03.27.04 2.88.81.17.06 7.03 4.13 2.08 1.68 4.53 3.09 6.32 2.59 7.78 1.974 1.39.08 1.31.02 1.48 1.926 2.71 2.15.61.15.25.05 2.43-.166.21-.08.19-.3.11-.21-.01-.44.1-.33.206-.155.15-.05.28-.017 4.49.06.33.05 4.29.687.29.05 1.91.9.074.94.01.76-.01 22.04.01.75.08.25-.08 4.31-.03 29.65.02 12.21v.04l.01.18.06.122 3.06 2.94.39.24 1.05.41.49.24.39.264.72.64.79.86.26.395 2.05 3.14.172.44 1 3.09.08.352-.28.67-.11.5-.58 2.81-.07.58.05.25.32.58.27.4.44.52 1.03 1 1.84 2.44 3.56 4.9.47.93 1.69 4.33.71 1.69 2.06 1.65.98.28.21.14.06.19-1.14 15.56-.14.8-2.56 5.62-.67.71-1.08.66-.55.47-.41.57-1.71 2.78-.13.21-.57 1.31-.05.22-1.09 7.93.05 1.42.05.22.18.42.53.79 1.1 2.73.72 4.28.06.53-.94 3.22-.18.43-.15.17-1.78 1.9-1.47 1.17-2.21.28-.27.08-.214.15-4.6 6.863-.12.65-.01.25.04.44.15.44.21.265.21.14.34.2 1.073.66.97 1 .26.29 1.28 1.74.264.39.05.25-.027.26-.19.15-.41.12-.58.1-.32.016-.47-.06-.26-.1-.44-.25-.28-.07-.37-.02-5.04.14-1.46.23-2.64.8-.75.28-7.98 3.02-6.447 2.58-7.34 2.99-1.22.504-.63.34-1.05.643-.95.73-.33.33-.75.91-.52.47-.414.27-.51.17-.58.1-.46-.12-.21-.14-.127-.14-.06-.19.05-.22.24-.56.36-.33 3.775-2.97.22-.12 3.53-1.17 3.53-1.08.86.1.354.016.23-.05 1.26-1.64.05-.28-.07-.12-.22-.08-3.725-.49-.33-.02-.58.1-4.26.89-4.12-.7 1.56-1.94.11-.217.2-.46.24-.77.1-.51.43-2.27.05-.28.03-.32-.12-1.57-.06-.25-.12-.19-1.45-1.08-.42-.18-.52.167-2.5.91-.42.21-.53.48-5.156 2.485-.18-.1-1.99-.85-.54-.09-1.75-.17-.19.01-.18.09-.12.09-.08.19.05.19 2.13 6.52 5.16 6.24.17.19.19.42.37.93-.05.89-.24 1.59-.05.28-.38.92-8.08 5.85-.633.38-2.14 5.48-.71.57-6.39 4.96-.62.42-1 .65-1.27.76-11.58 6.31-.43.2-2.9.64-.305.1-1.82.13-.35-.055-.44-.19-.34-.05-1.78.16-5.84 1.88-.25.09-.44.24-.17.15-.12.15-.355 2.28.01.22.21.14.28.01.5-.05.75-.26.91-.43.92-.47 1.01-.6.558-.44.695-.33.86-.05 1.56-.52.15-.05.25-.03.09.04-.05.11-2.9 1.96-1.4.59-1.71.63-1.54.51-1.01.3-.99.15-.52.17-.72.29-1.63.76-1.06.58-.22.15-3.056 1.62-1.15.52-2.36 1.05-.21.09-.07-.13.08-.13.38-.52.268-.24.41-.308 1.96-1.09 3.15-1.52.47-.2.97-.38.94-.34 1.21-.48.22-.13.52-.48.14-.725-.02-.21-.17-.42-.09-.16-.18-.09-.18-.04-1.65.32-1.34.48-1.01.54-1.16.48-.96.38-.504.16-3.03.94-.51.07-.28-.075-.09-.48.28-.49.37-.2.32.04.34.14.47-.02.24-.076 1.17-.53.43-.24.33-.264.035-.09-.03-.16-2.17-2.75-.1-.13-.29-.1-.31-.01-2.91.52-.24.09-5.34-2.19-.63-.36-1.87-1.07-.09.3.283 1.42.98 3.88.08.17.16.1.8.28.25.03.49-.01.21.07.1.17-.11.24-.23.13-1.13.55-.85.15-.33.03-.36-.02-2.73-.91-2.51-1.11-.213-.13-.1-.16-.24-.95.01-.28.14-.693-.09-.21-.15-.14-.71-.64-.18-.13-.26-.1-.28-.05-2.09.04-.28.71-.17.53-.04.26.06.256 3.05 5.22 4.28 2.62 3.7 2.23.51.52.08.17.01.22-.11.22-.18.15-10.14 4.95-1.19.362-.28.06-.36-.01-1.15-.51-.17-.1-.317-.35-.15-.44.07-1.11-.067-1.04-.1-.19-.16-.16-1.71-1.7-1.81-1.65-.13-.1-.21-.08-.25.13-.18.09-.42.52-1.46 1.99-.05.25.06.47.265.35.62.56 1.58 1.08.306.36.1.2.07.24-.04 4.53-4.647 4.61-1.86.52-.67.17-1.91.23-.27-.076-1.353-.63-.54-2.31-6.11.81-.18.09-.3.31-.22.37-1.8 3.38-.05.35.23.29.28.07.96.05.24.08 1.48.82.1.13.06.48 2-1.84.2-.12 2.27-.93.924.6.18 2.08-.05.12-7.37 9.24-.29.24-.23.12-.46.09-.48-.02-.47-.11-.19-.09-5.21-1.37-6.71-1.17-.99.35-.29.18.03.17.27.32 1.09 1.19.06.06.35.227 4.014 1.83 3.52 3.09 1.63 2.71-4.89 11.9-.99 2.87-.112.21-.23.126-3.03.92-.68-.16-1.27-3.15-4.38 1.84-.31-.73-.46-.83-1.76-.66-2.11-2.13-1.85-1.43-.28.063-.18.15-.01.26.07.25.1.21.26.39 1.89 1.77 2.1 3.27.12.25-.01.15-.23.185.88 1.56.99 1 .48.2 3.96.75.3-.026.25-.09 2.39-.98 1.24-.44.74-.11.44.114-.04.53-.836 5.56-.12.53-1.33 4.17-3.45.9-.21.11-.18.15-.25.38-.04.28.19 6.51.09.54.36.61.35.32.24.1.594-.07.306.04.72.31.2.126.14.19.16.48.66 2.32 2.48 8.84.47 6.09.49 1.94z"/><path d="M541.563 332.234l-.697.595-.582.4-.418.26-10.387 6.39-.19.09-.12.02-.03-.04.05-.28.58-.72.4-.42 6.16-4.94 6.14-4.6 1.67 1.39-2.61 1.76zm-69.726 39.476l.038-.026.114-.28.15-.176 1.1-.85.21-.113.48-.456.11-.16.43-.37.69-.21.83-.51.6-.32 1.33-.46.15-.03.16.12-.12.21-.43.14-.37.18.07-.01.18-.07-.4.2-.37.24-.15.18-.74.61-.22.11-.59.42-.25.09-1.05.53-.41.27-.33.3-.41.27-.18.09-.24.03-.14.06zm-18.38 9.61l.81-.138 1.863-.38.418-.152 1.862-1.355.178-.152.304-.368.253-.405.152-.177.215-.152 6.118-3.26 3.47-1.8.04-.21.164-.4.14-.19.366-.18.216-.02.1.04.178.17.19 1.14.038.76-.278.58-.114.16-.507.43-1.367.65-.938.34-.747.25-1.91.83-1.07.6-6.41 3.82-.64.42-1.38.9-.76.58-2.37 1.88-.36.34-.17-.8.23-2.31.16-.4.24-.41.43-.49.54-.14.28.02zm-3.394 4.902l-1.786 2.432-6.27 7.345-.48-.27.468-1.47.152-.38 4.573-7.93 2.23-2.04.24-.03 1 .63.28.25.176.23-.05.15-.102.04zM430.988 412.4l-1.254 2.393-.645 1.494-.96 2.368-.38 1-.32 1.103-.52 2.406-.55 1.57-.22.47-.19.303-.24.152-.38-.17-.08-.32.25-2.05.03-.28.51-2.85.2-.89 1.52-4.03.21-.5.68-1.56.37-.6.23-.37 1.04-1.56 5.4-7.96.43-.56 3.53-4.35.18-.22.2-.12.4-.16.59-.01.1.06.08.06-.03.41-.04.12-.37.43-1.13 1.25-1.21 1.23-.7.86-2.24 3-.35.55-3.23 5.48-.06.16zm-4.528 32.285l-.89-1.67-.674-8.327-.025-1.443.06-3.09.03-.672.09-.658.38-2.166.16-.37.1-.1.26-.03.09.16-.07.31-.09.85-.16 1.97-.15 3.82.04 1.86.09.66 1.15 7.15.11.6.06.27.57 2.07.8 3.58 1.63 4.54 1.28 3.38.59 1.87.94 3.22.98 3.76.33 1.85.89 5.58.34 2.16.05.72-.12.5-.18.27-.49-.55-.31-1.09-.17-.89-.31-4.16-.84-5.12-2.42-7.33-1.22-3.3-1.9-4.91-.55-1.04z"/></g><path d="M463.845 483.41a32.55 33.177 0 1 1-65.1 0 32.55 33.177 0 1 1 65.1 0z" stroke="red" stroke-width="7" stroke-linecap="round" stroke-linejoin="bevel" fill="none"/><path d="M497.024 511.444a32.55 33.177 0 1 1-65.1 0 32.55 33.177 0 1 1 65.1 0z" transform="matrix(.57692 0 0 .5775 163.33 187.182)" stroke="red" stroke-width="12.127" stroke-linecap="round" stroke-linejoin="bevel" fill="none"/></svg>