<svg xmlns="http://www.w3.org/2000/svg" width="24.47" height="24.73"><g fill="#fff" stroke="#000" stroke-width="5.21"><path d="M426.2 464.5l.22.15 2.2 5.36-.03 1.5v2.4l.4 1.8 2.5 6.3.5.2h.2l1-.4.2-.1.8-.7.3-.4v-.5l-.1-.3.1-1.2v-.3l.1-.2.2-.1.2.1.2.4.4 1.2.2 1.1.2 1.6v.8h-.9l-4.8 1.2-2.3 1-1.5 1 .1.5.1 1-.1.3-.3.5-.6.4h-.2l-2-.1-.3-.1-.3-.1-3.9-2.2-.3-.3-.1-.2-1.8-2.1-2.5-2.4-1.6-1.1-1.3-.4h-.3l-5.5-.9-1.9-.2-6.1.2-.3.1-2.3.5-1 .4-.6.1-6.1-1.1-3.9-1.6-.9-.5-2.6-2-1.2-1.7-2.2-1.3-.4-.2-6.1-1.3h-1.2l-4.1-1.4-.1-.2-1.5-1-2.5-1.5-6.4-2-2.3-.7-5.9-1.4-1.3-4.2-3.1-8.5-1.8-4-.6-1.2-.7-1.2-.1-.1-.3-.1-1.7-.2-.3-.1-.3-.1-6-8 .7-9.6-1.4-10v-.2l-1.3-3.9-.1-.2-.9-1.1-.3-.3-.6-.4-2.1-1.3-.6-.1-.4-.1-.3.1-3.6-.7-.8-.6-.4-.6-.3-.3-.4-.6-.1-.2-.3-.6-.2-.2-.2-.1h-.9l-.2-.2-.3-.4-.1-.2-.4-.8-.1-.2-.3-.1-1.1-.1-.3-.1-1-1.02-.3-.4-.1-.5-.3-1.8-.4-2.1-.1-.2-2.5-2.5-1.2-1.06-4-6-1-1.6-.4-.3-.5-.2-.7-.1-.3-.1-3.4-1.4-2.43-2.1-1.7-1.6-.1-.14-.1-.2-2.1-5-.04-.5.1-.6v-.6l-1-2.9-.4-1.1-1.8-2.4-2.04-2.5-1.5-2-.4-.6-.4-.9v-.3l.1-.5v-.3l-.2-.7-1.38-3.55-.2-.4-1.6-1.7-1.2-1.5-1.4-1.7-.5-1-.06-.2.3-1.4v-.3l-1.6-4.8-.25-.4-5.7-6.6-.2-.1-5.9-3.9-.8-.3-3.6-3.84-.4-.7-.15-.2-.1-.2-.2-.2-.5-.2-.3-.1-1.9-.3-.3-.1-1.2-.3-.2-.2-3.5-2.2-4.2-3.4-2-2.1-.6-1-.1-.2.1-.3-.2-.5-1.5-3.1h-2l-3.8.1-3.9.2-3.7-.5-1.7-.5-1.4-.4-2.3-.4-3-.1H215l-2.36.3-.6.1h-1l-.98-.2-1.1-.36-4.85-1.6-1.4-.9-.2-.1-1.3-.8-.3-.1-.4-.1-.2.1-2 1.6-6.3 3.2-3.1.6-5 1.1-6.1 12.24-2.1 5.5-2 4.5-2.6 3-4.4 4-4.7 5.2-.5-.2-.6-.1-5-.4h-.4l-3.4-1.2-1.2-.57-2.7-1.7-1-.7-2.1-1.7-9.3-3.3-7-3.9-3.9-.9-2.2-.7-1-.5-.8-.5-.8-.5-4-3.1-1.2-1.2-.3-.3-.1-.2v-.9l-1.1-.7-1.1-.7-1.3-.8-.3-.2-.5-.14-.7-.1-.3.1-.4.2-.2.1h-.3l-3.6-2-1.6-1.2-3.8-3.4-.1-.2-6.1-12-.2-.4-.6-2.7-.4-2v-.3l.2-.5.7-1.3.2-.5.1-.2.1-2.6-.3-.9-1-2.1-3.3-3.9-2-3.1-1.9-3.7-.6-2.7-.6-1.6-.4-.6-1.4-1.5-.2-.2-2.4-1.02-3.2-2.8-2.8-2.6-2-1.3-1.7-1-.5-.2-.4-.1H68l-.3.3-.2.1h-.6l-6-3.2-4.3-3.5-.35-.3-2.2-2.1-1.6-2.5-.4-.6-.6-.7-.2-.16-4.97-2.8-2.55-1.3-.2-.2-.12-.2-.1-.2-.4-.9-.3-.4-1.7-1.9-.7-.7-.8-.6-5.2-4-1.6-1-.3-.1-1.8-.2-.9-.2-3.2-1.2-2.8-1.7-.4-.3-2.5-3.6-.3-.4-.6-1.5-.7-1.8-1.3-2.2-.2-.2-2.5-2.5-.5-.3-.6-.2h-.2l-.9.1-1 .1-1.4-.2-.4-.3-1-.9-2.8-1.9-.6-.4-1.3-2.5L3 209l-.2-.7L5 208h161l-.02-9.9v-36l.1-6.2.15-4.47.2-11.46.3-11.13.3-12.4v-9.9l.1-41.1v-63h71.5l42.5-.1h25v18.3l.1 69.4h.1l.5.2h1.1l.3-.1.8-.1h.8l.4.1.8.2 1 .4.4.3 2.7 2.2 1.7 1.5.5.5.5.4 2.7 2.3.5.4.7.3.3.1 1 .2h.5l8.2-.1 2.4-1.8 2.3-.8L340 98l.1.1 2.6 2.88.12.3.1.35-.24 2.16.05 1.1.14.4.2.4.2.3.2.2.34.3.4.1 6.6.6 7.3 1.6.6.1.8.1 4.3.7 1.1.1.8-.2.6-.1 1-.4.8-.3 1.1-.3h.7l.8.1.5.2.2.1.5.4.4.3.4.6.6.7.5.4.8.5 1.3.7.6.2h.5l.7-.1.8-.2.6-.2.5-.3.1-.1.1-.1 5.4-2 5.3.2 3.4 1.7v1.5l.3 1.1.1.1.2.3.2.2.2.2.6.2.3.1.5.1h.9l1.5.2.8.1.6.1.5.4.2.2v.1l.1 1.4v.6l-.5.7-.2.4v.9l.3.3.2.1.4.2 3.2.7.5-.1.3-.1 2.8-1.1.5-.2.2-.2 1.2-1.1 1.6-1.6.7-.5.9-.4.7-.3.7-.1.5.1 2 .7 3.8 3.1 2.5 2.5.3.6.6.5.5.2h1l.9-.1.9-.3.5-.2 5.2-2.7 2.3 2.4-.4.4-.2.4v.8l.1.5.3.7.5.9.1.3.7.7.3.3.7.2.5.1 2.2-1.4 1.6-4.3 3-4.5.2-.1.5-.2.9-.2 1.4-.1.3.1.5.2.2.2.3.4.2.4.1.8.2.5.1.3.1.2.3.4.5.5.5.2.3.1 4.7 1h.7l.6-.1 5.1-.2 5.6 3.2 6.3 3.6.5.1.3-.1.5-.1 5.3-2.7.5-.2.5-.5.2-.4.1-.4v-.3l.3-.7.3-.3.3-.2 1.8-.7.5-.1 6-1.3 3.9.7 4.8-.58 1.4-1.1 6.2-2.3.5-.2h.3l.5.1.57.2.5.2.5.4.07.1.1.6v.9l.1.2.2.1 4.77.6 2.83-.2 1.8-.4 1.2-.4 2.1-.75.1-.14v-.3l-.3-.4-.07-.28.1-.4.7-.9.2-.2.56-.2.3-.1h.3l2.9.8.2.1 7 4.1 2.1 1.7 4.57 3.1 6.4 2.6 7.7 2 1.4.1h1.3l1.5 1.9 2.7 2.14.6.2.3.1 2.4-.17.2-.1.2-.3.1-.2v-.46l.1-.33.2-.17.2-.1h5l4.3.7h.3l1.9.9.1 1v24l.1.3-.1 4.3-.1 29.6V208l.1.12 3.1 2.94.4.25 1 .4.5.3.4.3.7.7.8.9.24.4 2 3.2.2.5 1 3.1.06.4-.3.7-.1.5-.6 2.8-.1.6.1.3.3.6.27.4.4.5 1 1 1.9 2.5 3.6 4.9.5 1 1.7 4.3.7 1.7 2.1 1.7.9.3.2.2.07.2-1.1 15.5-.1.8-2.6 5.7-.7.7-1.1.7-.6.5-.4.6-1.7 2.8-.1.2-.6 1.4v.2l-1.1 7.9.04 1.4.1.3.2.4.6.8 1.1 2.7.7 4.3.04.5-.9 3.3-.2.4-.1.2-1.8 1.9-1.5 1.2-2.2.3-.3.1-.2.1-4.6 6.9-.1.6v.7l.1.5.2.3.2.2.3.2 1.1.7.95 1 .24.3 1.3 1.8.3.4.06.2v.3l-.2.1-.4.1-.6.1h-.8l-.2-.1-.4-.3h-.7l-5 .2-1.4.2-2.6.8-.7.3-8 3-6.5 2.6-7.3 3-1.2.5-.6.3-1.02.7-.9.7-.3.3-.7.9-.5.5-.4.3-.5.2-.6.1-.5-.1-.2-.1-.2-.1v-.2l.1-.2.3-.5.36-.3 3.8-3 .2-.1 3.5-1.2 3.6-1.1.82.1h.34l.2-.1 1.3-1.6.06-.3-.1-.1-.2-.06-3.7-.5h-.2l-.6.1-4.3.8-4.1-.7 1.5-1.92.1-.2.2-.5.3-.8.1-.5.44-2.2v-.3l.1-.4-.2-1.5-.1-.3-.1-.2-1.9-1.2-.4-.2-.5.2-2.5.9-.5.2-.5.5-5.1 2.5-.2-.1-2-.8-.6-.1-1.7-.1h-.2l-.1.1-.1.1-.1.2.1.2 2.2 6.5 5.2 6.3.1.2.2.4.4.9v.9l-.2 1.6-.04.3-.3.9-8.1 5.9-.6.4-2.1 5.5-.7.56-6.4 4.97-.6.4-1 .7-1.2.7-11.6 6.3-.4.2-2.9.66-.3.1-1.8.1-.3-.02-.4-.2h-.4l-1.8.1-5.86 1.9-.2.1-.4.3-.2.13-.1.1-.3 2.3v.3l.2.2h.3l.5-.1.7-.3.9-.4.9-.45 1-.6.6-.4.7-.4.9-.1 1.6-.5.14-.1h.3l.1.1-.1.1-2.9 2-1.4.6-1.7.6-1.6.5-1 .3-1 .1-.5.2-.7.3-1.6.76-1 .5-.3.2-3.04 1.6-1.15.5-2.4 1.1-.2.1-.1-.16.1-.1.4-.5.3-.2.4-.3 2-1.1 3.1-1.6.44-.2.94-.4.9-.4 1.2-.43.3-.1.5-.5.2-.7v-.2l-.15-.4-.1-.2-.1-.1-.17-.1-1.7.3-1.37.48-1 .6-1.2.5-1 .4-.5.2-3.1 1h-.8l-.1-.5.3-.5.4-.2.3.1.3.1h.5l.2-.1 1.12-.5.4-.3.3-.2v-.4l-2.13-2.7-.1-.2-.3-.1h-.3l-2.9.5-.2.1-5.3-2.2-.64-.3-1.9-1.1-.1.3.3 1.4 1 3.8.1.2.1.1.8.3.26.06h.5l.2.03.1.2-.1.2-.2.1-1.1.5-.8.2-.3.06-.4-.06-2.7-.9-2.5-1.1-.2-.2-.1-.2-.27-1v-.2l.1-.7-.1-.2-.14-.1-.7-.7-.2-.1-.2-.1-.3-.06H461l-.2.7-.1.5-.07.3.08.2 3.1 5.2 4.3 2.6 3.7 2.2.5.5.1.2v.2l-.1.3-.2.1-10.1 5-1.2.4-.3.04h-.4l-1.1-.5-.1-.1-.3-.4-.2-.4.1-1.1v-1l-.1-.2-.1-.1-1.7-1.7-1.9-1.6-.1-.1-.3-.1-.2.1-.1.1-.5.5-1.5 2v.3l.1.47.3.36.6.6 1.6 1.1.3.4.1.2.1.24v4.5l-4.6 4.6-1.9.5-.7.2-1.9.2-.3-.1-1.4-.6-.5-2.3-6.1.8-.2.1-.3.3-.2.3-1.8 3.4-.1.3.2.3h1.3l.3.1 1.5.8.1.14.1.5 2-1.9.2-.1 2.3-.9.9.6.2 2.1-.1.1-7.4 9.3-.3.2-.2.1-.4.1h-.5l-.4-.1-.2-.1-5.2-1.3-6.7-1.2-1 .3-.3.2v.1l.3.3 1.1 1.2v.1l.3.3 4 1.8 3.5 3.1 1.7 2.7-4.9 11.9-1 2.9-.1.2-.2.12-3.1.9-.7-.2-1.2-3.2-4.4 1.9-.3-.78-.5-.8-1.8-.7-2.1-2.1-1.9-1.5h-.2l-.2.13v.3l.1.2.1.2.3.4 1.9 1.8 2.1 3.28.1.25v.2l-.2.2.9 1.5 1 1 .5.2 4 .8h.3l.3-.1 2.4-.9 1.2-.4.7-.1.5.1v.5l-.8 5.5-.1.5-1.3 4.1-3.5.9-.2.1-.2.1-.2.4v.3l.2 6.5.1.5.4.6.4.3.2.1.6-.1.3.06.7.3.2.2.1.2.16.46.6 2.3 2.5 8.9.4 6.1.5 1.9z" transform="matrix(.03883 0 0 .03792 .533 3.057)"/><path d="M541.56 332.23l-.7.6-.58.4-.4.26-10.4 6.3-.2.1h-.1l-.04-.1.05-.3.5-.8.4-.4 6.1-5 6.1-4.6 1.6 1.4-2.6 1.7zm-69.72 39.48h.04l.1-.3.16-.1 1.1-.8.2-.1.5-.4.1-.1.43-.3.7-.2.82-.5.6-.3 1.3-.4h.1l.1.1-.1.2-.5.1-.4.2h.1l.1-.1-.4.2-.4.3-.2.2-.8.6-.2.2-.6.4-.3.1-1.1.5-.5.3-.4.3-.4.3-.2.1h-.2l-.1.1zm-18.38 9.7l.8-.1 1.87-.4.42-.1 1.86-1.3.2-.1.3-.3.3-.4.2-.2.2-.1 6.2-3.3 3.5-1.8.1-.2.2-.4.2-.2.4-.2h.3l.1.1.2.2.2 1.1v.8l-.3.6-.1.2-.5.5-1.3.6-1 .4-.7.3-1.9.9-1 .6-6.4 3.9-.7.4-1.4.9-.7.6-2.4 1.9-.4.4-.1-.8.3-2.3.2-.4.3-.4.5-.5.6-.1h.3zm-3.4 4.9l-1.78 2.5L442 396l-.47-.27.47-1.47.15-.38 4.57-7.93 2.23-2.04h.24l1 .7.2.3.2.3-.1.2-.1.1zM431 412.4l-1.27 2.4-.64 1.5-1 2.35-.4 1-.3 1.1-.5 2.4-.6 1.58-.2.47-.2.3-.3.16-.4-.17-.1-.4.2-2.1v-.3l.5-2.9.2-.9 1.5-4.1.2-.5.7-1.6.3-.6.2-.4 1-1.6 5.4-8 .4-.6 3.5-4.3.2-.2.2-.2.4-.2h.7v.4l-.1.1-.4.5-1.2 1.2-1.2 1.2-.7.9-2.3 3-.4.5-3.3 5.5-.1.1zm-4.54 32.28l-.9-1.67-.66-8.3-.03-1.4.06-3.1.03-.6.1-.6.37-2.1.16-.3.1-.1h.2l.1.2-.1.3-.1.9-.2 2-.2 3.8v1.9l.1.7 1.1 7.1.1.6v.3l.6 2.1.8 3.6 1.7 4.4 1.3 3.4.6 1.9.9 3.3 1 3.8.4 1.9.9 5.6.3 2.2v.8l-.1.5-.2.3-.5-.5-.3-1.1-.2-.9-.3-4.1-.9-5.1-2.5-7.3-1.2-3.3-1.9-4.9-.6-1.1z" transform="matrix(.03883 0 0 .03792 .533 3.057)"/></g><path fill="none" stroke="red" stroke-width=".3" d="M5.8 12.05c0 .85-.66 1.54-1.5 1.54-.83 0-1.5-.7-1.5-1.6 0-.9.67-1.6 1.5-1.6.84 0 1.5.7 1.5 1.5z" stroke-linecap="round" stroke-linejoin="bevel"/><path fill="none" stroke="red" stroke-width=".3" d="M5.17 12c0 .5-.4.9-.87.9-.48 0-.88-.4-.88-.9s.4-.9.88-.9.87.4.87.9z" stroke-linecap="round" stroke-linejoin="bevel"/></svg>