<svg xmlns="http://www.w3.org/2000/svg" width="24.3" height="23.982" viewBox="0 0 24.299809 23.981883"><path d="M9.716 33.7c-.166-.176-.203-.196-.256-.136-.022.025-.026.048-.018.093.01.057.01.06-.035.06a.363.363 0 0 1-.22-.117.506.506 0 0 1-.07-.17c-.02-.063-.04-.12-.05-.123-.06-.022-.11.076-.11.21 0 .083-.01.115-.05.115-.03 0-.07-.06-.09-.168-.04-.19-.09-.23-.25-.214a.543.543 0 0 0-.11.02c-.03.013-.08-.035-.08-.085s.07-.11.14-.11c.03 0 .06-.006.08-.015.02-.013.02-.02 0-.058-.03-.05-.03-.13-.01-.16.04-.042.1-.02.2.074.14.13.19.118.13-.03-.05-.126-.02-.232.07-.232.05 0 .07.035.09.177.02.14.04.17.09.17.08 0 .1-.08.04-.17-.06-.11-.03-.18.1-.22.12-.04.15-.09.07-.13-.03-.02-.06-.02-.13.01-.13.04-.17.03-.23-.04-.09-.1-.07-.17.06-.22.08-.04.19-.14.19-.19 0-.03-.01-.04-.05-.04-.07 0-.25.08-.33.15-.09.08-.11.14-.1.28.01.08 0 .13-.02.16-.06.12-.17.16-.31.12-.1-.03-.16-.02-.18.05 0 .03 0 .05.03.07.02.02.05.03.06.03.01 0 .03.01.04.02.01.02.01.03-.03.08-.03.02-.06.05-.07.05-.02 0-.06-.04-.11-.08-.12-.1-.14-.11-.28-.11-.12 0-.13 0-.18-.06-.07-.08-.12-.18-.12-.23.01-.06.08-.06.25 0 .09.03.18.05.21.05.05-.01.06-.01.07-.08.02-.1.06-.16.11-.19.04-.02.05-.02.11.01.08.04.11.04.2 0 .08-.04.13-.11.11-.16-.02-.08-.06-.09-.21-.01-.11.05-.16.07-.26.07-.09.01-.14.02-.18.05-.03.02-.06.05-.06.06 0 .02-.09.06-.14.05-.06-.02-.08-.05-.05-.09.02-.02.03-.06.04-.09.01-.07.09-.15.15-.17.02-.01.06 0 .09.02.03.01.07.02.09.02.05 0 .16-.05.18-.08.01-.01.05-.02.1-.02.11 0 .14-.01.14-.05 0-.08-.2-.13-.41-.12-.15.01-.18.02-.29.12-.09.09-.14.11-.2.08-.04-.02-.09-.12-.08-.18.02-.08.07-.1.2-.1.31 0 .43-.14.24-.26-.09-.07-.15-.06-.18.04s-.08.11-.13.02l-.03-.06-.11.01c-.06.01-.11.01-.11 0-.01-.03.08-.12.17-.17.1-.06.12-.11.05-.15-.04-.03-.05-.03-.12 0-.07.03-.09.03-.14 0-.08-.03-.09-.03-.16.02-.03.02-.07.04-.08.04-.04 0-.04-.07-.01-.14s.03-.08.01-.11c-.04-.06-.04-.06.04-.08.05-.02.07-.03.07-.07.01-.03.04-.07.07-.1.03-.03.05-.07.05-.09 0-.07.07-.33.11-.41.05-.09.05-.15.01-.19-.04-.04-.1-.03-.14.04-.03.05-.04.08-.03.17 0 .13-.03.16-.12.15-.05 0-.06-.01-.08-.06-.02-.05-.03-.06-.07-.06-.03 0-.06-.01-.08-.03-.05-.06-.03-.1.06-.19.05-.04.11-.12.14-.16.04-.07.08-.1.12-.11.08-.03.12-.07.12-.12 0-.13-.08-.14-.17-.04-.05.07-.15.13-.21.13-.02 0-.04-.02-.06-.05-.01-.03-.05-.08-.07-.11-.04-.05-.05-.06-.03-.1.02-.05.14-.14.21-.15.03-.01.08 0 .13.01.1.03.12.02.19-.05.05-.04.06-.05.11-.04.03 0 .08.03.12.06.08.06.11.05.11-.02 0-.1-.07-.14-.22-.11-.2.04-.24.01-.23-.12.01-.1.05-.16.12-.19.05-.02.06-.03.06-.09 0-.05-.01-.08-.04-.11-.04-.04-.09-.04-.19-.01-.03.01-.04 0-.07-.03-.07-.08-.09-.1-.13-.1-.04 0-.09.04-.09.09 0 .04-.05.05-.08.02-.05-.06.02-.18.17-.28.05-.03.09-.06.09-.06 0-.01-.01-.03-.02-.05-.02-.02-.02-.06-.02-.09 0-.05.04-.08.18-.14.04-.02.05-.03.08-.11.01-.02.04-.03.1-.03.14-.01.15-.06.04-.2-.1-.13-.11-.15-.08-.18.03-.04.09-.04.15.01.06.06.1.13.1.2 0 .05-.02.08-.11.18-.06.07-.11.13-.11.14 0 .05.17.19.23.19.01 0 .03-.02.05-.04.02-.04.02-.05-.02-.13a.405.405 0 0 1-.03-.12c.01-.03.07-.06.16-.07.04-.01.07-.02.07-.04s-.01-.07-.03-.11c-.05-.11-.05-.16-.01-.19.03-.02.03-.04.03-.15-.01-.07-.01-.16-.02-.2-.01-.06 0-.09.03-.15.03-.07.04-.11.04-.22 0-.13 0-.14.06-.24l.067-.11-.02-.11c-.02-.14-.02-.17.05-.22.06-.04.06-.1.01-.15-.02-.02-.05-.03-.06-.04-.01 0-.02-.03-.03-.07-.01-.05-.02-.07-.05-.07a.11.11 0 0 0-.1.09.2.2 0 0 1-.05.06c-.08.04-.08.06-.1.36-.01.38-.02.41-.17.43-.11.02-.16-.017-.16-.11 0-.106.05-.398.08-.498.03-.09.06-.13.13-.15.07-.02.08-.06.045-.19-.04-.134-.05-.25-.01-.353.01-.04.03-.13.04-.2.01-.08.03-.16.07-.24.12-.26.14-.4.06-.56-.05-.11-.05-.12-.05-.31.01-.16 0-.21-.023-.295-.06-.18-.04-.26.07-.29.06-.01.09-.05.13-.17.02-.05.09-.23.16-.39.15-.36.185-.47.23-.69a1.8 1.8 0 0 1 .09-.3c.05-.11.06-.15.06-.25s0-.12.04-.18.044-.09.06-.29c.01-.12.01-.34 0-.49-.02-.45-.025-.42.06-.56.05-.08.08-.14.08-.18 0-.036-.04-.13-.09-.24-.05-.1-.09-.19-.09-.206 0-.01.03-.06.07-.11.1-.11.14-.2.14-.33 0-.06.01-.14.04-.2.04-.11.06-.16.16-.6.09-.42.11-.51.11-.84 0-.24 0-.28.03-.33l.03-.06-.04-.06c-.05-.06-.05-.11-.01-.24.02-.05.06-.21.09-.34l.06-.24v-.45c0-.37 0-.47-.03-.58-.02-.09-.03-.18-.023-.31 0-.1 0-.19-.01-.19 0 0-.07-.04-.14-.09-.17-.1-.28-.2-.37-.31-.13-.16-.38-.33-1.03-.67-.39-.21-.49-.274-.74-.49-.23-.19-.28-.27-.27-.41v-.14c0-.08-.08-.24-.24-.47-.25-.36-.553-.97-.75-1.52-.09-.24-.13-.32-.22-.43-.04-.05-.12-.17-.18-.26-.15-.25-.192-.29-.4-.43-.22-.14-.3-.22-.28-.27.01-.02.03-.04.06-.04a.15.15 0 0 0 .06-.03c0-.01-.03-.117-.08-.23-.11-.26-.114-.338-.03-.477.08-.13.2-.26.284-.28l.12-.03c.09-.03.16-.16.12-.23-.02-.03-.03-.04-.08-.03-.05.01-.07 0-.21-.1a.547.547 0 0 1-.15-.14c0-.02.01-.06.02-.09.03-.09.03-.14-.01-.23-.05-.12-.03-.18.09-.27.05-.04.09-.09.09-.1 0-.09.04-.17.126-.26.08-.09.09-.096.09-.19 0-.11.02-.21.05-.235.01-.01.07-.03.13-.04.11-.017.21-.06.23-.1.01-.01.02-.07.02-.12.01-.08.02-.11.06-.15.023-.03.06-.08.07-.12.03-.1.085-.156.163-.17.1-.01.19-.07.24-.13.06-.08.2-.36.22-.42 0-.03-.01-.07-.04-.12-.05-.09-.1-.29-.1-.47 0-.12 0-.15.03-.19.04-.056.05-.1.01-.19.01.04 0-.02 0-.07 0-.13-.04-.19-.24-.4-.25-.25-.28-.32-.21-.44.04-.07.04-.11 0-.17-.067-.08-.156-.12-.297-.11-.15.01-.24.06-.3.16-.02.05-.06.09-.12.12-.11.07-.12.1-.04.19.03.04.06.08.07.09.02.08-.12.204-.22.204-.05 0-.07-.01-.11-.07a.263.263 0 0 0-.14-.09.582.582 0 0 1-.18-.11c-.16-.15-.33-.22-.58-.25-.09-.01-.18-.02-.2-.04-.06-.03-.09-.09-.09-.16 0-.12-.13-.26-.27-.28-.05-.01-.07-.03-.11-.08-.056-.09-.1-.11-.15-.08-.11.07-.105.07-.2.02-.11-.05-.16-.12-.16-.23 0-.05.01-.09.04-.13.075-.1.044-.24-.066-.32-.086-.06-.61-.61-.61-.64 0-.04.03-.07.1-.08.03-.01.08-.04.12-.07.05-.06.06-.06.05-.16-.01-.14.01-.16.23-.19.22-.04.3-.08.35-.18.04-.1.08-.12.27-.12.16 0 .16 0 .27-.07.14-.08.3-.14.33-.12.02.01.02.04.02.07l-.03.2c0 .11-.01.15-.05.21l-.07.1v.32c0 .31 0 .31-.06.5-.07.24-.09.32-.05.39.034.092.31.46.48.64.2.212.39.32.58.32.13 0 .2-.03.33-.138.16-.13.33-.216.42-.216.04 0 .13.01.19.03l.23.06c.17.05.25.11.36.28.12.187.19.26.24.26.04 0 .07-.03.24-.27.07-.09.14-.17.22-.23.16-.12.18-.16.18-.33 0-.07.01-.15.015-.17.04-.1.26-.29.34-.29.02 0 .07.01.105.03.09.042.11.04.13-.01.03-.05.06-.068.2-.08.14-.02.2-.047.3-.13a.621.621 0 0 1 .26-.136c.04-.01.11-.06.195-.13.15-.13.21-.14.3-.06.09.08.05.18-.1.23-.15.04-.18.14-.11.33.04.11.04.12-.07.31-.07.11-.09.16-.09.23-.01.08-.01.09.06.16.12.14.27.18.35.11.07-.06.06-.15-.03-.39-.09-.23-.09-.28-.03-.35.05-.07.09-.09.35-.2l.19-.09V1.6c.01-.11.01-.12.05-.13.06-.02.12.01.17.09.06.11.11.14.22.14.18 0 .31.11.31.28 0 .09.03.15.09.18.08.03.26.03.39-.01.17-.06.22-.05.48.11.09.05.19.1.23.11.07.02.08.02.26-.07.32-.14.62-.24.78-.24.11 0 .24.03.28.06.03.03.03.03.01.05-.02.01-.04.02-.06.02-.06 0-.12.06-.12.12 0 .08.04.1.28.15.33.06.44.11.44.21 0 .04-.05.14-.11.25-.07.11-.06.11.22.12.31.01.42.04.55.16.05.05.14.11.21.15.17.09.2.13.2.22 0 .14.07.22.21.25.03.01.1.07.19.17.08.09.16.168.18.17.02.01.07-.004.12-.03.11-.062.16-.06.25.028.06.07.08.07.16.07.04 0 .14-.01.22-.03.2-.04.3-.04.49.037.09.03.25.09.36.12.1.03.22.08.26.11.04.024.16.134.27.24.11.11.22.22.25.24.08.054.12.14.18.413.06.32.11.4.24.51.3.23.3.23.18.47-.09.18-.18.32-.26.38-.03.02-.08.04-.12.05-.11.02-.19.11-.19.21 0 .08.11.18.16.15a.53.53 0 0 0 .05-.13c.03-.133.09-.2.19-.23.2-.05.63.03.75.14.06.06.06.1-.02.25-.06.11-.18.26-.31.36-.06.05-.06.08 0 .12.04.03.04.03.1 0 .03-.02.07-.06.1-.11.09-.15.08-.15.2-.15h.1l.01-.1c.04-.343.25-.353.93-.05.38.17.6.31.65.42.03.05.03.06 0 .14-.01.05-.04.12-.06.17-.08.18-.04.2.16.05.28-.2.32-.21.6-.09.11.04.23.09.28.11.11.04.29.03.42 0s.39-.03.52 0 .28.11.39.19c.05.03.19.16.32.29.25.25.41.36.62.43.11.04.14.045.31.04.1 0 .21 0 .23.01.07.02.11.115.19.43.09.357.11.55.1.73-.03.32-.23.74-.5 1.04-.08.1-.12.12-.3.19-.14.05-.2.13-.31.42-.2.51-.3.6-.47.47-.06-.05-.08-.05-.11-.037-.07.03-.07.07-.01.126.06.06.06.08 0 .17-.09.13-.1.29-.06 1.1.01.18.01.22-.03.37s-.05.19-.04.32c.01.18.01.2-.11.28-.05.03-.09.07-.1.09-.02.102-.07.49-.07.54 0 .08-.03.14-.08.17-.06.04-.07.055-.13.25-.03.13-.05.16-.13.245-.11.123-.14.18-.15.35-.02.21-.04.24-.19.26-.14.02-.21.1-.23.25-.02.11-.05.12-.25.13-.1 0-.29-.01-.43-.02-.33-.04-.35-.03-.5.11-.07.06-.15.12-.19.14-.05.02-.1.06-.13.08-.03.04-.06.05-.12.06-.31.04-.38.07-.62.31s-.37.33-.46.35c-.07.01-.08.03-.1.15a.62.62 0 0 1-.05.17c-.04.08-.04.1-.03.27 0 .11.02.28.03.38.02.21 0 .44-.04.52-.02.04-.05.06-.13.09-.156.06-.24.17-.42.55-.23.48-.32.61-.53.77-.095.07-.16.1-.16.06 0-.01.06-.09.13-.18.15-.2.21-.32.2-.4-.01-.05-.01-.06-.06-.06-.07-.01-.2.06-.23.12-.01.03-.02.09-.02.136 0 .1-.04.19-.11.25a.477.477 0 0 0-.13.27c-.014.07-.05.17-.07.22-.022.06-.06.15-.08.21a.69.69 0 0 1-.22.33c-.12.09-.19.17-.31.34-.13.17-.21.26-.33.318-.09.045-.11.048-.38.05-.16 0-.32.01-.35.015-.05.01-.1 0-.26-.07a.822.822 0 0 0-.34-.09c-.11 0-.16-.02-.19-.04-.1-.07-.11-.07-.16-.05-.06.03-.08.07-.08.12 0 .09.1.16.308.2.16.03.25.09.27.15.01.04.01.06-.04.15-.093.18-.06.29.1.34.12.04.19.1.19.18 0 .07-.05.15-.214.36-.06.08-.14.2-.16.26-.08.17-.21.26-.51.364-.29.095-.8.18-1.13.18-.17 0-.21 0-.25-.03-.14-.09-.22.08-.11.27.03.05.05.1.05.11 0 .01-.03.054-.07.094-.09.09-.11.14-.07.29.01.068.03.13.03.14 0 .05-.12.158-.21.19-.21.08-.34.06-.66-.073-.2-.09-.26-.09-.29-.04-.04.05-.04.2 0 .31.01.05.03.15.03.23.01.11.017.14.044.16.01.01.07.04.11.07.09.06.12.06.21-.02.07-.06.1-.06.17-.03.12.07.1.22-.05.31-.08.05-.12.05-.19-.03-.05-.054-.07-.07-.12-.07-.13 0-.16.1-.05.16.04.02.07.047.07.058 0 .03-.06.07-.16.1-.09.02-.1.03-.13.1-.03.06-.04.13-.05.29-.01.227-.02.25-.1.33-.03.03-.05.06-.05.09 0 .07-.03.13-.07.14l-.14.027c-.24.04-.45.19-.54.4-.04.09-.05.117-.04.19.01.11.06.2.14.29.11.11.19.15.36.17.18.02.23.04.25.08.01.02-.01.1-.03.19-.02.09-.04.18-.04.21.01.1.01.1-.27.3-.23.167-.38.307-.44.4a.72.72 0 0 0-.06.22c-.03.2-.11.31-.23.31-.02 0-.06.01-.07.02-.06.03-.24.23-.25.27-.01.07.01.39.03.54.02.117.04.14.14.277.06.08.11.153.11.16 0 .01-.01.03-.02.04-.02.02-.05.02-.15-.01-.16-.05-.23-.05-.26 0s-.03.11.03.15c.03.02.08.03.2.04.15.01.16.01.22.06.09.09.09.12 0 .2-.11.1-.1.17.01.15.05-.01.09.02.12.1.04.1.57.54.76.63.04.02.14.04.23.05.18.02.24.04.23.08-.01.05-.11.09-.3.12-.135.02-.2.04-.245.07-.07.05-.09.05-.18.02-.06-.02-.06-.018-.1.04-.05.07-.11.07-.3.01-.125-.04-.23-.05-.23-.03 0 .01.03.05.06.09.11.16.12.24.04.24-.03 0-.08-.04-.2-.17zM.326 7.227c-.196-.105-.24-.367-.08-.495.057-.046.067-.045.128.023.087.093.137.342.09.436-.036.06-.064.07-.138.03zm12.406-4.788c-.016-.016-.022-.04-.016-.055.026-.063.027-.09.01-.13-.02-.04-.02-.046.01-.068a.415.415 0 0 1 .202-.057c.1 0 .194.138.154.228-.013.03-.047.05-.127.075-.132.042-.194.043-.23.007z" fill="#fff" stroke="#000" stroke-width=".3"/><path d="M18.535 4.85c0 1.036-.796 1.876-1.779 1.876-.983 0-1.78-.84-1.78-1.876 0-1.037.797-1.877 1.78-1.877s1.78.84 1.78 1.877z" fill="none" stroke="red" stroke-width=".385" stroke-linecap="round" stroke-linejoin="bevel"/><path d="M17.782 4.795c0 .598-.462 1.083-1.031 1.083-.57 0-1.031-.485-1.031-1.083s.462-1.083 1.031-1.083c.57 0 1.03.485 1.03 1.083z" fill="none" stroke="red" stroke-width=".385" stroke-linecap="round" stroke-linejoin="bevel"/></svg>