<svg xmlns="http://www.w3.org/2000/svg" width="349.531" height="298.156" viewBox="0 0 349.53125 298.15625"><desc>world98</desc><g stroke="#000" stroke-width="3" fill="#fff"><path d="M228.666 163.195l2.42-1.38.202-.127.582-2.115-.722-.507-1.114.1 3.128-3.962.583-.735 2.964-3.32.35-.32.9-.4 1.54-1.42.3-.42.55-1.29.06-.31-.02-.23-.88-2.52-.69-1.69-.15-.18-.8-.43-11.14-4.62-.25.21-1.19 4.37.08.28.59.38 3.04 1.53 1.55.48.33 1.71.09.46-.01.54-1.28 4.14-.39 1.01-.47.38-3.56 1.54-.13.05-.36-.15-.65-.88-4.13-6.15-.4-.84-.43-1.03-.08-.31-.05-.81.11-.56.17-.55.61-1.22.4-.57.17-.17-.55 1.42-.2.82.05.47.19.09.19-.19.96-2.16.54-1.51 1.07-4.59 1.1-7.31 1.53-3.42 2.33-5.85.09-.28.97-4.53.59-7.16-.32-2.49-.11-.14-.73-.63-.76-.82-.25-.33-.2-.42.07-.21.22-.19 1.52-.67.3-.4.29-.57.05-.24.03-.57-.06-.52-.17-.407-.14-.19-.23-.16-.5-.205-4.596-5.03-.85-2.874-1.52-3.85-1.33-.404-4.61-.86-1.207-.164-.29.01-.734.24-.16.1-3.93-2.09-1.303-2.28-5.573-6.76-5.91-3.76-1.01-.41-.93-.3-.15-.18-.08-.15-.35-2.18-.93-4.22-1.77-.55-3.07-1.84-.22-.16-1.697-1.53-.1-.2-.04-.2.036-.53-.05-.71-.11-.454-.15-.34-1.85-2.63-.15-.18-.31-.3-1.52-1.19-3.12-2.12-1.69-.95-.73-.14-.128.14-1.4-.51-2.63-1.3-.65-.42-1.876-1.29-3.08-2.04-.55-.213-.67-.06-7.84-.2-.18.01-2.34.36-.49.127-2.71 1.1-5.61 2.8-.35.5-.07.24-.03.29.94 1.24.38.15.6.05.697-.02.85-.11 1.95.53.28.1.15.18.06.24-.01.25-.21.86-.167.48-.14.17-.38.26-.96.22-.27-.1.08-.217.43-.17.18-.163-.01-.09-.09-.11-.18-.15-.24-.13-.63-.15-.927-.14-1.65-.18-.32-.01-2.87.29-1.593.7-1.09.57-3.52 1.873-3.23 2.05-1.12.8-.436.19L129 58.9l-1.62.62-.9-.44 1.05-1.52.11-.24.09-.28.01-.25-.11-.18-.26-.1-.31.025-.24.1-1.7.96-2.86 2.1-3.75.62-6.79.94-3.94.48-2.114.57-.57-.01-.266-.1-.43-.3-.44-.507-.2-.32-.28-.67-.5-1.52-.49-1.54-.08-.776-.01-.53.07-1.52.2-.696.11-.24.18-.16.21-.07.23.14.04.19-.02.27-.26.99-.15.86-.01.25.16 1 .41 2.026.19.56.52.96.6.93.15.18.22.13.24.06 1.43-.44.39-.23.1-.11.05-1.9-.1-2.67-.05-.5-.18-.44-2.27-3.22-.34-.34-1.495-1.24-.586-.43-6.12-4.36-2.88-1.5-.38-.304-.53-1.055-.12-.1-.08-.104-.02-.15.06-.11.22-.14.22.01 1.03.31.16.05 1.7.84.35.26.34.34.01.16.95.21.19.15 1.73 1.37.43.28.5.23.42.11.24.01.47-.08.18-.06.24-.1 1.33-.67.2-.13.09-.28-.03-.25-.52-.17-.87-.21-.9.17-9.28-4.15-.14-.07-1.86-1.83.13-.33 1.1-2.35-3.8-2.33-3.924.28-.266.06-.11.24-.24.97-.06.6.14.45.11.22.26.31.14.07.31.02.22-.13.35-.34.34-.26.48-.04.98.065.59.05.13.07.93 1.84.73 1.5.05.12-.03.163-.13 1.55-2.48-1.68-2.294-1.49-1.91-.97-1.38-.7-1.25-.57-4.6-1.79-2.5-.9-3.6-1.19-3.73-1.2-.832-.22-2.18-.54-.99-.18-.29-.74 8.12.07 2.49.73.15-.05.13-.14-.01-.32-.82-1.62-.23-.4-3.29-1.94-2.7-1-.3-.08-7.98.03-2.3 1.07-.39.23-4.28 2.35-.63.08-.61-.04-2.1-.1-2.01-.09-3.26.12-6.673.79-2.02.264-4.23.61-.782.13-.8.19-1.27.41-2.93.44.48-.42.03-.19.45-.4 2.16-.76.53-.123.73-.16.84-.13 2.75-.18.53-.124.47-.2.65-.35L33 27.1l-.79-.95-2.685-2.24-4.077-.31-2.76.316.157.18.25.66.04.253-.01.57-.126.52-.14.24-.95 1.6L18 31.61l-1.64.258-.21 1.1-1.252.305-5.422 1.1-2.568.51-.737.1-.14-.075.09-.125.9-.875.17-.1.52-.076.96-.014.52-.04.34-.112L10.9 32.4l.354-.402 3.32-3.94.05-.494-.266-.44-.315-.29-.343-.167-2.727-.97-.92-1.666-.112-.48-.01-.38.13-.58.17-.39.56-.76.51-.88.3-.7.39-1.15.06-.3.01-.57-.12-.41-.38-.52-.57-.42-1.17-.63-.48-.24-.96-.43-.67-.36-.44-.27-1.03-.71-.36-.41-4.13-4.85-.19-.43.02-.29.99-5.77 1.78-.03 102.57.03 13.69-.03.58-.08-.22.29.04.22.11.27 1.84 2.81.11.14 1.83 5.13.07.61.26 1.42.14.43.14.22.27.23 1.74 1.16 17.62.89 1.83.07 9.84.52 22.83 1.25 15.67.9 15.68.95 5.46.34 15.67 1.01 5.09.34 5.46.37 4.73.36 1.37 3.63.1.37-.02.28-.06.31-.24.61-.13.55-.04.51.13.41.67 1.67.26.42.18.15.47.27.46.05 3.75.05 1.76-.45.06-.07.05-.25 1.29-6.96.28-1.6-.04-.96-.08-.24-.19-.32-.91-1.06-.2-.42-.16-.44-.07-.33-.05-.61.31-3.36.17-.41 1.05-1.84.13-.14 2.17-1.363.29-.11.29-.02 1.72-.09.49.14 4.23 1.6.28.11.416.317.95.52 2.26.95 7.383 1.75.33.02 2.21-.38 1.58.98 1.71 2.39-.403 3.03-.4 2.95 1.8 1.77.1.22.924 3.53.04.21-.11 1.13.03 3.04.12.744.15.63 1.14 3.23 1.43 5.28 1.17 4.58.777 3.19 1.46 4.89.33.91 2.86 7.16 1.19 2.8 6.62 14.37 2.18 4.1 6.22 9.72 5.8 8.77.6.9.32.45.275.37 1.61 1.67.24.33 2.22 3.42.81 1.3.32.67.46 1.02.876 2.443.164.67-.03.25-.12.207-.18.15-.17.1-.71.28-.34.23-1.52 1.26-.04 2.88.1 5.15.22 1.43.18.96.27 1.43.36 1.42.53 1.44 1 1.886.23.393 1.72 2.76.99 1.51.49.8.53 1 .29.69.06.24-.023.38-.07.14-2.788-4.12-2.28-3.8-.33-.595-1.21-2.7-.15-.413-.28-.82-.29-1.08-.56-2.29-.08-.59-.02-4.73.17-3.27.1-.28.38-.59.203-.54.52-1.736.29-1.17.09-.66.02-1.18-.04-.46-.11-.61-.73-2.252-.08-.1-2.17-.2-.33.024-.14.14-.12.71-.162.2-.23.09-.23.01-3.02-.54-.27-.05-.47-.22-.21-.16-.542-.61-.177-.352-.21-.62.26-1.62.1-.27.2-.11.08-.02.206.04.166-.04.65-.58.18-.163.13-.23.01-.22-.14-.47-.14-.19-.33-.28-2.6-1.63-1.42-.86.05.88.91 5.46 2.93 10.31.15.44 1.67 3.57 6.4 13.82 4.09 8.22.79 1.39.42.57.18.15.67.94.44.82 1.61 3.36.53 1.23.62 1.66.58 1.64.12.38.12.47-.04.25.06.784.14.71.14.44 1.48 4.23.24.61 4.3 10.47 2.85 2.44.14.16 2.01 3.86.93 2.694.2.62 1.3 5.216.57 2.37.163.71.1.47.21 6.64-.01.8-.12 2.7-.1.594-.1.1-.14.1-.32 1.45-.2 1.03-.76 4.96-1.24 8.36-1.88 13.45-2.44 7.32-.14.17-2.88 2.61-2.47 3.35-.13.37-.08.49.05 2.26.06.21-.99 1.14-.29.48-.08.15-.04.19-1.53 7.99-1.84 2.78-.43.8-.036.99.23.51.32.29.787.696-.05.09-.07-.014-.46-.09-.29-.09-.23-.14-.19-.37-.92-1.8-.19-.108-.21-.08-2.04.87-.05.175.15.12.13.03 1.046.07-.71.22-.72.54-.72-.84-.21-.4.47-.17.38-.138.02-.38-.2-.078-1.42-.14-1.08.114-.47.08-.24.11-3.33 2.37-1.37 1.06-6.64.06-9.98 1.57-1.89.56-.7-.5-1.94-1.49-.074-.113-1.315-3.05-.05-.24-.03-.72 1-2.73.78-.23.14-.28.09-.11.12-.08.13.047.9 1.14.75.74.05.21 4.01 3.05.91.45.2.04.25-.04 1.86-.72.32-.26.31-.39.18-.52-.03-.39-.34-.48-1.45-1.69-1.2-.97-.19-.1-.32-.02-.62.01-1.46-.2-.46-.19-2.06-1.15-.63-.33-.13-.08-.64-.42-.11-.09-.09-.24-.74-.88-.11-.63-1.19-2.55-6.9-14.09-.37-.74-.22-.4-.14-.18-.173-.16-1.29-.927-.44-.26-.94-.47-7.13-3.23-2.723-.49-2.57.73-2.82-2.05-2-5.82-.84-.51-.14-.17-.42-1.68-.26-1.22-1.1-8.41-1.59-4.94.05.23-.01.23-.19.23-.15.09-.37.08-3.543-1.88-.067-.09.202-.99.04-.08.09-.05.05-.01.11.05.07.09.06.22.06.07.13.01.15-.03 1.37-.63-.18-.97 6.18-7.18.38-.67.05-.214-.32-.023-.23.09-4.53 2.16-.2.13-.86 1.13-.12.17-.077.14-.13.305-.03.28.07.5-.12.62-1.17 2.168-.19.124-2.97.506-.24.017-.32-.1-1.64-.67-.1-.22-.105-.53-.52-5.58.01-1.09 1.38-6.385 1.47-5.33-3.79.55-4.18.66 1.26 2.91.61 2.52-.07 1.43-.09.18-.19.16-.25.05-5.68-2.256-.25-.115-.41-.29-.604-.66-2.736-3.638-.254-.36-.62-.94-.1-.22-1.23-2.61-1.45-3.14-3.89-8.64.15-.23.05-.28-.01-.27-.35-1.02-1.01-2.86-.39-.8-.52-.44-3.1-2.37z"/><path d="M47.377 29.41l-5.865.075-7.283 1.177-3.75.62-3.39.583-1.03.266-3.93.57-1.57.23-1.71.22-.27.03-.18.02-.6-.16-.62-.25-.35-.2-.05-.1.06-.18.17-.07 6.48-.35 5.62-1.12 5.97-.81 5.18-.67.63-.07 1.3-.1 1.5-.06 3.2-.11 1.93.01.29.04 2.42.42.18.07.05.06-.03.13-.14.2-.36-.04-1.06-.23zM140.8 56.067l-.062.342-.14.2-.14.14-.53.33-.684.29-.734.21-.71.15-.975.14-.28-.04-.037-.04.088-.27.228-.1.532-.05.836-.21.43-.19.963-.43 1.2-.72zm-22.557 9.08l.71.28.48.138 1.9-.24 1.14-.228 7.08-3.33 5.308-3.117.33-.05.18.05.01.102-.05.09-3.56 2.71-9.19 3.912-1.49.456-.26.05-1.56.204-.39-.025-1.55-1.08-.25-.22-.05-.08.05-.15.19.02.04.05zm-.836-2.407l-.81 1.445-.14.14-.19.075-.29.025-.495-.1-.722-.23-.165-.113-1.418-1.152-.873-.85 2.912-.176.735-.025.52.1.86.21.28.16-.14.33zm201.416 62.968l-.063.28.025.202.102.468.164.38.35.735-.3-.09-2.76-6.154-.76-4.53.17-2.13.15-.48.15-.33 1.57-1.47 2.35-1.03.1-.02.53.12.24.2.15.16.37.54.16.57.02.2-.02.44-.23.66-.52.97-.3.54-.29.62-.28.62-.36 1.19-.67 3.24-.01.23.4 2.38zm12.033 23.277l.19.43.405.812.93 1.595 1.97 5.547 1.65 5.66.51 1.21 1.99 3.57 3.21 7.5.1.46.02.26-.95-.99-.12-.19-.81-1.6-3.76-7.72-4.61-13.03-2.67-6.84-.01-.1.27-.08.21.01.19.15.1.27zm-102.558 16.337l.266.33 2.648 3.52.215.38-.09.215-.38-.1-.353-.305-3.37-3.862-.14-.19-.036-.14.037-.177.165-.1.342.05.355.165zm17.518 28.33l.29.66.38 1.064.09.76-.242.785-.114.24-.114.18-.164.1-.228-.07-.038-.29-.443-3.71.063-.24.19.03.202.27.076.18zm7.84 13.348l-.316-1.012-.216-.684-1.24-3.66-.305-.57-.64-.684-.12-.152-.53-.823-.05-.114-.32-1.17.23-.05.92.15.96.27.61 1.3.07.18.09.22 1.28 4.52.59 2.69-.02.22-.18.17-.12.08-.32-.03-.24-.16-.21-.55zm-5.674-5.09l.038.164-.05.088-.18-.063-.834-1.06-.063-.17-.495-2.02-.025-.59.126-.14.17.06.12.18.14.24zm2.102 5.952l.127.253 2.16 1.368 1.99.05.39-.024.26-.18-.02-.27.1-.12.26-.05.56.19.61.34.24.16.08.11-.03.09-2.15 1.16-.25.05-.3-.08-1.77-.64-.66-.34-1.57-.89-.23-.14-.11-.31-.43-1.29-.54-1.97-.02-.27.19-.07.16.03.3.19.08.1.07.11.24 1.04zm23.002 27.064l.354.152-.468 1.405-.177.38-.266.216-.26.05-1.14-1.56-.05-.12-.04-.27.09-.12.17-.01zm69.017 9.764l-.063.304-.113.076-.23.025-.138-.025-.09-.05-.53-.432-.08-.114.1-1.177.86-.862.26-.24.1-.038.21.127-.07.48zm-1.38 9.41l-.165.418-1.052 2.19-.265.406-.17.19-.14.1-.24-.012-.03-.14 1.75-3.837.17-.253.17-.1.19.1.08.114-.02.228-.08.215-.09.07zm-17.593 23.112l.253-.203 5.167-5.59 2.065-2.71 1.036-1.41 1.31-1.69.79-1.76.47-1.54 1.9-2.19.27-.24.24-.14.43-.12.22.01.32.15.16.22-.05.25-.09.11-.15.13-.33.1-4.41 7.5.03.3-.21.41-.15.2-9.08 8.86-.27.18-.22.05-.44-.03-.31-.13-.1-.14zm-2.027 1.658l-.07.19-.272.394-.58.43-.34.165-.81.32-.01-.03.49-.7.6-.64.56-.34.23-.03.07.08zm-3.268 2.357l-.012.215-.355.228-2 1.165-.153-.063.027-.04.062-.39.152-.203 1.735-1.12.41.04.03.03zm-4.332 2.558l-.152.342-.21.24-.29.178-.28.038-1.82.24-.3-.12-.01-.01.12-.24.14-.14 1.07-.568.86-.355.87.272zm-10.55 4.09l.265-.28 2.774-1.19.85-.353.278-.013.095.07.02.01-.154.2-.1.07-.12.06-1.71.85-2.63 1.1zm-15.466 3.673l-.405-.24-.304-.254-2.736-3.85.165-.152.57.102.19.063.14.063.442.304 1.06 1.013.66.633 1.05 2.145.08.185.06.494-.1.177-.59.25-.28.02-.09-.05-.03-.16.15-.71zm13.313-3.33l.523.297-.587.17-1.963.305-1.33.202zm-20.216 1.494l.278-.05.507.2.06.04.47.38.15.278.15.418.04.202.02.14-.05.278-.07.317-.12.203-.08.05-1.71-1.127-.13-.34-.05-.43.04-.31.06-.01zm-.254 3.153l-.202.127-3.23 1.29-1.557.33-.5-.037-.01-.03 3.16-4.112.03-.29.08-.216.21-.127.23.05.09.077 1.13 1.05.38.356.41.57.08.43-.04.127-.17.328zm-6.128 1.9l.056.086-1.57.92-1.57.2-.208-.19.15-.92.257-.82.086-.03 1.856.03.65.2.26.53zm-21.116-.532l.342.19.14.177.088.24-.077.317-.68 1.14-.22.025-.22-.063-.79-1.99.05-.09.13-.08.14-.04.87.12zm15.35 2.115l-1.265.29-.31-.024-.11-.076-.11-.15.08-.154.29-.47 2.37-.568.22-.025.3.03.36.15.12.09.14.19-.06.1z"/></g><path d="M497.024 511.444a32.55 33.177 0 1 1-65.1 0 32.55 33.177 0 1 1 65.1 0z" transform="matrix(.63285 0 0 .63334 27.893 -211.93)" stroke="red" stroke-width="6.318" stroke-linecap="round" stroke-linejoin="bevel" fill="none"/><path d="M497.024 511.444a32.55 33.177 0 1 1-65.1 0 32.55 33.177 0 1 1 65.1 0z" transform="matrix(.3651 0 0 .36575 152.253 -75.624)" stroke="red" stroke-width="10.946" stroke-linecap="round" stroke-linejoin="bevel" fill="none"/></svg>