<svg xmlns="http://www.w3.org/2000/svg" width="468.938" height="432.531" viewBox="0 0 468.9375 432.53125"><desc>world98</desc><path d="M2170.204 1095.81l.25-.208.586-.118 1.233.138.64.09.293.197.25.43-.132.69-.126-.19-.38-.28-.482-.18-2.47-.17z" fill="#fff" stroke="#000"/><g stroke="#000" stroke-width="4" fill="#fff"><path d="M176.51 338.833l.128-.203.214-.468.28-.76-.013-.557-.21-6.6-.21-.48-1.12-1.317.38-5.268.24-.735.54-2.773-.01-.595-.07-.254-.61-1.355-.37-.33-2.66-1.278-1.05-.443-.66-.076-.3.06-.17.18-.15.52-.19.12-.34-.04-4.02-2.07-.9-.52-.18-.19-.26-.39-.41-.91-.03-.28.02-.62.11-.56.36-.97.82-2.17-3.6-4.27-2.32-.66-.57-.24-.46-.24-.56-.48-1.76-1.67-.33-.35-5.26-5.48-4.53-1.98-.26-.69-.98-2.38-.1-.23-.15-.21-.95-1.02-.19-.16-2.03-1.52-2.76-2.44-.29-.38-.1-.21-.09-.53-.13-.78.01-.31-.72-1.86-.32-.66-.25-.4-.19-.2-8.4-8.112-.65-.46-3.64-1.77-.53-.23-1.24-.29-.45-.25-2.878-2.94-.15-.19-.12-.215.05-.28.23-.73-.03-.31-.38-2.02-.06-.28-.484-1.69-.53-1.42-.11-.21-1.04-2.2-1.14-2.83.06-.583.09-.24.25-.43 1.314-1.46.2-.15.395.015.27.1.61.48.3.34.42.355.263.06.32-.05.28-.09.48-.23.53-.54.29-.39.38-.62.22-.458.09-.24 1.08-4.04.49-2.434-1.48-3.05-.25-.42-2.09-2.66-.305-.34-.76-.644-.73-.36-.58-.18-.357-.04-.71.05-2.51.49-1.63.58-.55.14-.35.01-.67-.1-.62-.18-.77-.29-2.84-1.26-.503-.26-1.024-.71-.39-.312-8.79-7.95-.215-.404-.23-.505-.18-.43-.14-.504-.06-.58.01-.29.1-.54.357-1.03.43-1.23.1-.56.02-.3-.216-1.648-.08-.257-1.98-4.57-.34-.62-.3-.38-.19-.19-.19-.13-.318-.075-.72.05-.64-.14-.19-.166-.12-.213-.1-.53-.256-1.64-.16-1.09.4-7.4.12-1.22.1-.55.164-.19 1.16-.593.29-.09.315-.05 2.557-.25.32.06.19.166.57.782.3.68.24 2.18-.21 1.88-.05.24-.405 1.27-.09.25.43 1.52.1.23 12.77 6.89.28.1.71.12 1.15.05.6-.14.49-.54-1.09-.37-2.25-1.33-.15-.15-1.88-3.76-.21-.76-.09-.557-.05-.81-.214-.75-.21-.43-.75-1.27-.8-.91-3.1-2.36-2.61-2.72-4.14-5.76-.12-.23-.06-.24 1.916-1.27 5.12-3.11.53-.23.59-.11 2.39.874 1.627.56 5.1-1.41 1.2.02 3.37.52 2.66.506.915.263.32.05 6.04.86.355.01.65-.1 1.01-.88-.03-.15.01-.7.33-.89.12-.11.155-.05 1.76-1.1.31-.07.41.01.32.077 3.723 2.493 2.67 1.81.47.27.36.034.128-.216-.06-.25-.15-.19-.34-.315-.19-.168-1.62-1.26-3.65-2.458-.24-.14-.95-.18-.76.02-2.75.55-.24.11-.38.33-.09.27-.46.536.07.13-.03.17-.1.11-.13.09-.74.33-.31.13-.67.44-.316.05-.36-.016-3.768-1.66-3.95.69-3.3-1.42-1.866-2.32-1.43 1.79-2.725 2.16-7.04-2.217-.94-.58-.67-.38-.55-.23-2.453-.88-1.17.37-3.85 1.23-.28.09.03 8.15.07.28 1.64 1.22 1.06.74.03.28-.05.28-1.42 1.923-.454.265-1.35.125-.67-.12-.28-.13-6.59-3.54-5.27-3.734-.317-.34-.23-.167-.43-.25-1.07-.5-3.63-1.56-1.01-.86-.43.9-.88 2.46-2.26-.247 1.853-2.41 1.34-4.764-1.71-3.53.88.71.81.71 1.24 1.06 2.75 3.54 1.68 1.18-.028-.28-.38-.63-.85-1.17-5.84-7.19-2.07-1.34-1.7.21-.25-.28.177-2.12-2.83-4.486-.23-.15-.48-.23-.79-.32-1.55-.71-2.99-1.407-1.34-.82-1.94-1.33-.36-.36-1.64-2.13-4.13-4.82-.35-.34-3.86-2.66-3.825-2.95-3.62-3.08-.19-.19-.51-1.11-.07-.26.08-.28.16-.15.49-.24 1.023-1.05.29-.39.213-.47-.02-.58-.71-3.76-.31-.69-.93-2-.24-.43-1.78-3.49-1.83-4.01-.11-.53.01-.92.09-.58.81-4.37.25-.777.38-.65 1.13-1.29.09-.25-1.486-6.8-.316-.68-2.03-3.394-2.15-3.53-2.85-3.7-5.904-6.38-.167-.17-.774-.66-.41-.316-.46-.28-1.878-1.076-.24-.11-.42-.02-.53-.22-1.594-1-4.33-2.91-1.09-.75-.33-.34-.167-.19-.08-.25.054-.59.33-.99.14-.54.04-.6-.155-.495L5.67 77l-.24-.43-.82-.96-.08-.215.04-.277 1.01-3.54.09-.25.88-2.13 2.54-5.04.12-.23.43-.61.45-.6.35-.37.79-.67 1.37.04 2.57-3.03 2.01-8.2.19-1.46-.08-.54-.07-.24-.46-.6-.208-.17-.44-4.56 1.34-3.966.16-.493 1.28-4.04.71-2.298.27-1.37-.19-1.39-.24-.74-.65-2-2.51-7.65-2.86-3.24-1.56-3.006.72-1.05.22-.45.22-.74.68-3.538-.41-2.157-.08-.24 10.73-.02 54.71.027L106 4.54l38.75.027 44.683-.01 13.07-.02 1.52.03-.015 136.42 8.27 5.67 13.87 9.57 22.917 16.06 6.065 4.31 23.02 16.45 7.5 5.42 14.54 10.59 6.69 4.9 7.78 5.73 7.01 5.19 6.99 5.2 7.33 5.49 7.31 5.5 6.56 4.95 6.9 5.245 7.25 5.52L377.36 267l7.89 6.103 7.51 5.84 4.99 3.91 8.88 6.967 13.793 10.916 5.992 4.775 5.965 4.78 15.364 12.39 1.57 1.35-.062 4.63.05.26.254.41 2.748 2.71 2.875 2.66 1.69 2.72 1.7 3.05 1.81 3.58.09.23.34.88.04.26-.04.28 1.54 2.43 2.57 1.99.62.43 1.6.96 1.38.79 1.01.47.29.09.21.14.2.16.51.52.78.89.65.9.24.71.01.26-.16.21-4.47 3.52-.6.42-3.88 2.05-1.59.83-.77.27-.48.18-.62.42-.71.68-.11.24-.43 2.39-.09.28-.14.2-1.19.93-.6.45-.62.42-1.26.82-.25.13-.38.28-.25.46-.04.28.61 3.43.72 3.92.47 2.79-1.94 7.31-.1.22-4.57 5.9-.36.34-.24.1-.57.08-3.24.77-.02 3.66 1.01 1.748.92 1.56.72 1.4-.04.59-.14 1.61-.16.56-.1.24-.7 1.025-.12.24-.18.56-.04.3.07.51.08.23.78 1.165.66.72.164.16 2.46.54.37.03.89-.1.85-.18 1.07.08.33.06.58.17.38.28.164.18 1.86 2.14.33 4.51.01.25-.05.32-.22.503-3.04 5.08-.14.2-.22.16-.2.11-.57.1-1.75-.064-.91-.214-1.15-.35-.66-.15-.37-.04-1.355.014-.51.17-.82.95-.49.03-6.453.45-7.05.49-8.05.57-9.195.67-9.187.69-13.78 1.04-15.27 1.19-11.8.92-.623.05-9.03.726-9.17.75-8.26.71-1.24.06-.5-1.39-.98-1.797-1.22-2.39-.92-.78-.5-.39.06-.64.53-.055 1.16 1.056.99 2.47.48.23.94.13.31-.07.09-.5-.04-.28-.14-.495-.72-1.25-.43-.54-.164-.15-2.05-1.7-.443-.25-.24-.09-.3-.02-.42.24-.2.17-.266.39-.22.43-.17.496-.03.27-.01.32-.08.79-.56.197-.64-1.34.12-.96.38-2.81-1.025-2.7.843-.85.44-.545.1-.216.066-.27-.07-.87-.81-3.61-.19-.74-2.18-5.47-.446-.87-.496-.78-3.15-4.67-3.25-3.8-.65-.67-6.24-4.585-1.85-1.26-4.65-3.14-3.82-2.46-.508-.22-.29-.08-.75-.076-.85-.24-1.15-.63-.865-.56-.85-.59-.783-.61-.38-.33-1.02-1.04-.52-.46-.57-.47-1.723-1.38-.786-.61-.72-.36-.85-.263-3.836-.82-.307.05-1.33.48-.51.19-.2.14-.03.313.08.4.02.1.05.81-.1.24-.17.18-.2.14-.57.13-.68-.1-.585-.165-3.32-1.03-.43-.28-.03-.023-.32-.31-.28-.354-.124-.203-.19-.44.063-.28.13-.213.83-.85.555-.81.09-.585-.12-.51-1.447-3.05-.225-.42-.403-.606-1-1.3-.76-.91-1.73-1.97-.75-.636-.43-.27-.556-.22-.69-.01-4.25.29-1.95.15-2.49.29-.92.14-.307.08-.21.11-.2.178-2.19-.09-4.55-1.135-1.152-.31-.9-.24-6.75-2.11-1.95-.95-.215-.13-1.71-1.05-.21-.14-.174-.19-1.46-2.44-.1-.19-2.53-2.643-4.72-3.37-1.4-.72-4.33-1.86-1.62-.29-1.03-.14-1.14-.05-7.93-.073-9.03-1.83-.65-.12-5.13-.44-.68.01-4.86.23-5.02.357-3.15.44-1.04.11-.19-.19-1.29-2.013-.23-.7-.24-.42-.216-.17-.19-.13-2.14-1.1-.49-.25-.25-.07-.35-.04-.36.01-.54.21-.6.1-.3-.077-.51-.52-.3-.66-.06-.254.2-2.29z"/><path d="M113.46 182.606l.19.152-.128.215-.278.09-.28-.103-.28-.126-.62-.418.166-.177.253-.13.317.07zm8.435 1.14l.278.1.152.19-.164.178-.21.152-.28.114-.31-.038-.2-.152-.1-.228.05-.28.4-.05zm95.945 183.442l4.775-.392 1.254-.507.26-.08.34.04 1.61.88.17.16-.65 1.09-.17.15-.23.11-2.44.72-5.48 1.17-.31.05-2.56.14-2.92-.32-1.49-.7-.14-.19-2.06-3.27-.04-.56.06-.28.3-.05 1.94.02zm-28.106-.392l.254.1.48.267.178.164.29.355-.164.178-.266.09-2.912.277-2.673-.38-.32-.05-.48-.23.13-.252.3-.354.23-.17.43-.24.62-.1 1.69-.17 1.65.38zm15.656 2.71l.176.19.075 1.127-.05.28-3.04 1.797-.26.076-3.1.583-.64-.12-1.07-.4-.87-.51-.35-.32-.91-1.13-1.54-2.13 1.89-.45 2.27-.47 3.79-.46.76.55 1.61 1.56zm69.587 25.152l1.912.67 2.44 1.355 2.39 2.382.19.455.01.24-.03.318-.19.48-.21.178-.27.05-6.15-.797-.3-.08-.22-.14-6.13-6.68-.13-.19-.07-.26.16-.18.34-.02 1.62.05.34.02.29.07.25.11.43.33zm-47.46 7.56l.253.114 1.38.747.254.13.178.14.52.49.354.35.14.19-.09.25-.24.11-.836.2-.57.1-.38-.03-1.04-.12-.924-.19-.52-.22-.43-.28-.532-.49-.72-.95-.14-.19-.33-.67 1.836.07 1.166.05.368.07zm43.773 13.374l.267.392.696.697 1.04.99 3.14 2.4 2.014 1.41-.013 1-1.43.64-.28.11-.29.02-2.94-1.66-.417-.28-.317-.35-1.824-2.76-1.672-2.6-1.064-2.11-.09-.22.026-.3.127-.22 1.572.15.328.05.937 2.24z"/></g><path d="M497.024 511.444a32.55 33.177 0 1 1-65.1 0 32.55 33.177 0 1 1 65.1 0z" transform="matrix(.8761 0 0 .87634 -225.247 -107.045)" stroke="red" stroke-width="6.848" stroke-linecap="round" stroke-linejoin="bevel" fill="none"/><path d="M497.024 511.444a32.55 33.177 0 1 1-65.1 0 32.55 33.177 0 1 1 65.1 0z" transform="matrix(.50545 0 0 .50608 -53.084 81.56)" stroke="red" stroke-width="11.863" stroke-linecap="round" stroke-linejoin="bevel" fill="none"/></svg>