<svg xmlns="http://www.w3.org/2000/svg" width="26.85" height="26.844"><title>New Zealand</title><g transform="translate(-28.45 -23.813)"><title>Layer 1</title><path d="M39.846 23.876v.043h.203l-.203-.043m1.422.482l.163.308h.081c.045-.218-.05-.292-.243-.308m-.407.22c.3.228 1.052.912.65 1.272.105.245.323.58.57.659l.446-.44-.447.66c.396.3.693.742.983 1.153.034.05.265.459.328.24.043-.149-.33-.669-.376-.867.257.25.25.679.65.746l-.203-.351.082-.088.203.088-.04-.176.121.132h.163v.088c-.139.011-.2.03-.244.175l.203.044v.044l-.203.263.162.395c-.149-.189-.246-.333-.487-.351.055.22.224.383.34.57.204.33.33 1.154.798 1.098l-.163.175c.085.323.118.729.488.658-.097.076-.297.106-.365.202-.11.158.034.258.162.237l.04.264-.325.043c-.032.42-.099 1.172-.447 1.418-.32.226-1.266.173-1.252.776.01.456.56.461.845.57.21.08.33.295.53.399.218.115.478.084.69.204.615.348.621 1.04.24 1.592-.226.326-.523.546-.753.854-.199.266.252.287.391.287.053.327.25.064.441.127.145.047.153.267.169.4.953-.01 1.556-.988 2.056-1.699.26-.37.61-.663.87-1.03.135-.19.134-.402.236-.604.086-.17.24-.276.333-.441l-.406-.044c-.061-.933.853-1.144 1.544-.965l.04.35.326-.394c-.203-.195-.082-.435-.081-.702l.65-.352c-.093-.577.117-1.154.447-1.58v-.043c-.461-.36-1.106-.437-1.57-.018-.188.17-.246.403-.503.5-.637.24-1.284-.29-1.87-.484-.284-.094-.471.017-.69-.262l.406.176c-.094-.218-.295-.351-.384-.57-.134-.33-.001-.831-.307-1.054l-.162.132v-.044l.243-.132c-.097-.167-.233-.173-.406-.175-.044-.327-.252-.389-.528-.395.027.184.17.236.22.4.044.143-.061.28-.008.426.051.14.218.265.165.437-.032.103-.155.144-.231.069-.108-.105-.046-.296-.176-.397-.107-.083-.257-.047-.377-.098-.379-.16-.886-.644-.447-1.057-.086-.24-.28-.615-.528-.658-.002-.225-.01-.375-.244-.395v-.044l.244-.043-.082-.176.203-.044c-.105-.422-.422-.829-.812-.658l-.163-.176v-.044h.163c-.105-.35-.72-.452-1.017-.526v.131h-.243l.162-.131c-.104-.367-.305.012-.406.175-.046-.28-.88-1.396-1.057-.921m3.292 2.37v.175h.203l-.203-.176m1.748 1.185c.023-.155-.04-.752-.314-.606-.328.173.175.548.314.606m-.894-.395c.077.148.143.151.284.088l-.284-.088m-.163.527l-.081-.176c-.173.108-.094.22.081.176m1.382.22c.066.129.11.153.244.131l-.081-.175-.163.043m-1.3.352l.284.263.122-.307-.407.044m2.52 1.58l-.04.043v.088l.04.044h.082l.04-.044v-.088l-.04-.044h-.082m.895.527l.203.044-.203-.044m-7.723 5.047l.04.175c-.267-.042-.811.32-.88.615-.058.242.072.512-.003.744-.079.245-.38.565-.58.697-.168.111-.37.073-.514.233-.226.25-.217.613-.34.915-.174.426-.476.795-.812 1.085-.241.208-.588.243-.853.419-.407.268-.77.708-1.18.94-.252.141-.556.168-.812.313-.244.138-.466.382-.733.468-.208.067-.445-.037-.647.049-.198.083-.324.345-.53.456l.04.132c-.353.025-.508.334-.772.542-.181.143-.406.205-.447.467-.478.037-1.017.77-.284.878v.043h-.285l.081.176-.65-.22-.203.571.528-.088v.044c-.161.066-.46.247-.122.307v.044l-.813.088.04.439.285-.088-.08.22h.243c-.282.458.604.288.854.343.266.058.408-.204.65-.16.248.044.247.329.45.403.153.056.327-.06.484-.056.164.004.328.093.488.128v.088l-.243.087v.088c.369.131.686.054 1.056 0 .073.359.525.206.773.159.675-.128 1.19-.418 1.695-.927.102-.103.14-.252.258-.341.258-.195.738.01.77-.427l-.285.088c.225-.555.525-1.213.976-1.58.01-.403.017-.917.238-1.258.145-.223.434-.306.656-.397.412-.167.775-.433 1.22-.495.029-.527.685.073.934.087v-.263h.04l.082.263h.04c.508-.451-.145-.586-.487-.658.01-.146-.04-.295-.005-.439.128-.532.648-.404.956-.73.209-.219.286-.57.48-.807.434-.531.985-.918 1.333-1.535l-.244-.131-.158-.481.605-.572-.04-.044-1.017.35v-.175l-.447-.263c-.188.084-.612.499-.807.425-.22-.083-.115-.707-.128-.908-.148-.042-.31.054-.446-.008-.16-.074-.26-.316-.074-.428.118-.07.31-.005.44-.003v-.087h-.814m2.114.79c.239-.027.39-.138.447-.395-.287.006-.388.091-.447.395m-.163.131v.088c.167.068.298.079.407-.088l-.204-.088-.203.088m.325.264c.263.393.71-.023.935-.22-.277-.2-.704.042-.935.22M30.62 44.808l-.041.22.244.088-.04-.308h-.163m-.691 1.185h.487c-.025-.355-.461-.35-.487 0z" fill="#fff" stroke="#000" stroke-width=".15"/><path d="M51.356 33.78c0 .808-.621 1.463-1.387 1.463s-1.386-.655-1.386-1.463c0-.807.62-1.462 1.386-1.462.766 0 1.387.655 1.387 1.463z" fill="none" stroke="red" stroke-width=".3" stroke-linecap="round" stroke-linejoin="bevel"/><path d="M50.769 33.738c0 .466-.36.844-.804.844-.444 0-.803-.378-.803-.844 0-.466.36-.844.803-.844.444 0 .804.378.804.844z" fill="none" stroke="red" stroke-width=".3" stroke-linecap="round" stroke-linejoin="bevel"/></g></svg>