<svg xmlns="http://www.w3.org/2000/svg" width="23.836" height="24.064"><path d="M22.016 21.51a.072.072 0 0 1 .046 0c.012.003.002.005-.023.005-.03 0-.04-.003-.03-.006zm.168-.018a.228.228 0 0 1 .06-.01c.026 0 .026 0 0 .01a.193.193 0 0 1-.06.01h-.033l.04-.01zm.125-.034c.02-.01.05-.04.08-.062.02-.022.04-.035.04-.028 0 .018-.13.11-.15.11-.01 0 0-.01.02-.02zm-.6-.092a.191.191 0 0 1-.06-.072c0-.007-.02-.025-.03-.04-.02-.016-.06-.067-.1-.116-.09-.1-.15-.164-.2-.19a1.519 1.519 0 0 0-.32-.195.398.398 0 0 1-.09-.058c-.03-.02-.05-.034-.06-.034-.02 0-.19-.1-.22-.13l-.11-.08a.378.378 0 0 1-.09-.08c-.01-.01-.03-.04-.05-.05-.04-.02-.07-.05-.22-.2-.07-.07-.15-.17-.16-.19-.01-.01.04-.01.11.01.06.02.13.08.18.15.03.06.13.15.2.19.07.05.19.14.25.21.04.05.1.09.17.12.05.03.1.05.11.05.01 0 .06.05.11.11.02.02.07.06.11.08.04.02.08.04.08.05.01.01.05.04.09.06.04.02.08.05.1.07.03.04.09.07.12.07.01 0 .03.02.04.03.01.02.04.05.08.08.07.05.08.06.08.11 0 .04-.02.03-.03-.02-.01-.04-.03-.05-.08-.08-.04-.02-.07-.06-.08-.07a.055.055 0 0 0-.05-.03c-.02 0-.05-.02-.08-.04s-.09-.06-.14-.08l-.1-.06c-.01-.01-.04-.03-.09-.05s-.1-.05-.12-.08l-.06-.06c-.04-.02-.14-.07-.13-.05 0 .01.01.02.02.02.02 0 .1.07.1.09 0 .01-.01.01-.02.01-.04 0-.01.03.09.08.06.03.12.07.12.07.01.01.03.03.05.04.04.02.16.14.23.22.03.04.06.07.07.08.01.01.03.03.04.06.03.06.06.09.08.1.02.01.05.03.05.04 0 .02-.03.01-.08-.05zm-.68-.663c0-.006-.03-.026-.07-.045-.04-.018-.07-.032-.07-.03 0 .008.11.086.12.086 0 0 .01-.005.01-.01zm-.1-.1c0-.005-.03-.02-.06-.034-.03-.02-.06-.03-.06-.03s.02.02.05.03c.05.03.05.03.05.02zm-.17-.06c0-.008-.01-.014-.02-.014s-.02 0-.02.01 0 .01.01.01c0 0 .01-.01.01-.02zm-.07-.027c-.02-.04.02-.047.06-.015.02.02.04.03.04.03.02 0-.12-.13-.23-.22-.17-.12-.24-.18-.27-.23-.06-.09-.17-.16-.24-.16-.04 0 .26.32.34.38.02.02.04.04.05.06.01.02.05.07.1.1.04.04.09.07.1.08.02.03.03.03.02 0zm1.8.66a.472.472 0 0 0-.05-.218c-.03-.066-.05-.155-.06-.198-.03-.088-.03-.314-.01-.43.01-.04.01-.073.01-.075 0-.002-.03.005-.05.016-.08.04-.11.17-.03.17.02 0 .03.01.03.01 0 .02-.04.03-.05.02-.02-.01-.03.05-.04.16-.01.08-.01.11 0 .11.01.01.01.01 0 .03-.01.02-.01.03 0 .03.01.01.01.02 0 .03-.01.01-.01.03-.01.04 0 .02 0 .02-.01.02-.02-.01-.01-.3.01-.37.01-.02.01-.06 0-.09s0-.06.02-.1c.03-.05.03-.14.01-.26-.01-.03-.01-.06 0-.06s.01-.05.02-.1c0-.07 0-.09-.02-.11-.02-.01-.02-.02-.01-.03.01-.01.01-.03 0-.08-.01-.06-.02-.08-.06-.1-.04-.02-.05-.03-.05-.09-.01-.04-.01-.09-.01-.11 0-.02-.01-.04-.01-.05-.01 0-.01-.03-.01-.06.01-.07 0-.13-.03-.13-.02 0-.01 0 .01-.03.02-.01.03-.04.03-.06 0-.02 0-.04.01-.05 0-.01.01-.06.01-.1 0-.04 0-.09.01-.1.03-.06.06-.2.07-.28 0-.05.02-.12.04-.16.02-.04.04-.1.05-.14l.03-.13c.01-.03.02-.07.02-.09 0-.01 0-.02.01-.03.01 0 .01-.01.01-.02 0 0 .01-.02.03-.04.02-.01.03-.04.03-.05s.02-.04.04-.06c.04-.03.12-.18.12-.21 0-.02.08-.13.1-.13.01 0 .03-.01.04-.01.01-.01.02-.01.03.02.02.03.02.03 0 .05-.01 0-.02.01-.02.02 0 0-.02.03-.05.07-.05.05-.13.2-.13.23 0 .01-.02.05-.05.08-.04.07-.13.27-.13.31 0 .02-.02.07-.04.13-.03.05-.04.11-.04.12.01.01 0 .03 0 .03s-.02.07-.02.14c-.01.2-.01.21-.03.22-.02.02-.04.11-.02.12.01.01.01.01 0 .01-.01.01-.02.07-.03.14-.01.12-.01.14.01.14.02.01.02.02 0 .03-.03.03-.01.1.04.27.02.08.05.16.05.19s.02.1.04.15c.03.09.03.1.01.2-.03.15-.05.3-.06.42-.01.06-.01.12-.02.13-.01.03.04.26.09.38.04.11.05.16.05.23 0 .05 0 .09-.01.1 0 .01-.01-.03-.01-.08zm-.09-1.088c0-.072.01-.146.02-.165l.01-.034-.04.03c-.04.04-.07.04-.08.01-.01-.02-.01-.02-.01 0 0 .01-.01.03-.02.04-.01.01-.01.03 0 .08.01.03.01.07.01.08-.01.05 0 .06.03.05.01-.01.03 0 .03.01s.01.01.01.01l.02-.14zm-.02-.213c-.01-.043-.04-.2-.06-.266-.01-.03-.03-.05-.04-.05-.02 0-.02.01-.02.02s.02.07.03.13c.02.14.04.2.06.2.01-.01.01-.02.01-.05zm.01-.08c-.01-.01-.01-.018-.02-.015-.01.004-.01.017 0 .03 0 .01.01.018.01.015v-.03zm-.08-.273c0-.01-.02-.06-.03-.11a.617.617 0 0 1-.04-.135c0-.068-.01-.08-.05-.06-.05.026-.06.044-.03.093.01.024.02.055.01.068-.01.084 0 .132.03.146.04.02.1.02.1 0zm-.08-.427c0-.042-.01-.068-.01-.06-.01.01-.02.025-.04.033-.03.01-.03.016-.01.02.01.003.02.022.03.044l.02.04v-.077zm-.03-.116c0-.02-.01-.04-.02-.04s-.02.02-.02.04 0 .04.01.03c0-.01.01-.03.01-.04zm.05-.21c0-.03.01-.05.01-.06.03-.02.05-.34.02-.34-.03 0-.04.08-.04.2 0 .07-.01.13-.02.15-.01.02-.02.07-.01.14v.11l.01-.09c.01-.05.01-.11.02-.13zm.06-.43c0-.01-.01-.02-.01-.02s-.01.01-.01.02 0 .02.01.02.01-.01.01-.02zm.08-.32c-.02-.02-.03.01-.03.07l-.01.06.02-.07c.01-.04.01-.07.01-.07zm.05-.15c.05-.1.05-.12.03-.1-.01 0-.09.17-.09.18 0 .02.01-.01.06-.09zm.07-.16c-.02-.02-.03 0-.02.02.01.01.01.01.02 0v-.03zm.18-.26l.04-.07c-.01-.01-.12.09-.12.12 0 .02.03.01.07-.05zm-3.4 1.95c-.02-.01-.02-.01-.01-.01s.03 0 .04.01c.02 0 .02.01.01.01s-.03-.01-.04-.01zm.07-.02c0-.01-.02-.03-.03-.04-.02-.01-.03-.03-.04-.04 0-.03 0-.03.03 0 .02.01.04.03.05.03.02 0 .02.01 0 .04-.01.01-.01.01-.01 0zm-.2-.02c-.02-.02-.03-.02-.01-.02.02 0 .03-.01.04-.02.02-.02.02-.03 0-.04-.01-.01-.01-.02.01-.02.01 0 .02-.01.02-.02s0-.02.01-.02.01.03-.01.07c-.01.02-.01.03.01.04.02.01.02.01-.01.01-.02 0-.05-.01-.06-.02zm-.09-.03c-.02-.01-.02-.02-.02-.07 0-.04 0-.07-.01-.07-.02-.01-.01-.02.01-.02.01 0 .03.01.05.03.01.03.01.03 0 .03-.03-.01-.03.04-.01.08.02.03.01.03-.02.02zm-.11-.03c-.02-.01-.04-.02-.04-.03 0 0-.01-.01-.03-.01-.02 0-.03-.01-.04-.02 0-.01.01-.02.04-.01.04 0 .05 0 .04-.02l-.01-.03c0-.01-.08-.01-.08.01 0 .01-.02 0-.04-.01s-.03-.03-.04-.03c-.01 0-.02-.02-.02-.05a.974.974 0 0 0-.05-.11c-.02-.03-.04-.07-.04-.07 0-.01-.02-.04-.03-.06-.04-.06-.04-.11-.01-.15.02-.02.03-.02.06-.01.02.01.03.02.03.04 0 .01 0 .03.01.03s.01.02.01.04-.01.03-.02.04c-.02.01-.02.04.01.04.01 0 .03.01.03.01s.02.01.04.01.04.01.05.02c0 .01.01.03 0 .03s-.02-.01-.02-.02-.04-.02-.07-.03c-.05-.01-.07-.02-.08-.05-.02-.05-.02-.04 0 .03.02.05.02.06.05.05.02 0 .03 0 .03.02 0 .01-.01.02-.02.02-.03 0-.03 0 0 .01.01.01.02.03.02.04s.01.04.03.05c.02.02.03.03.06.02.05-.02.09 0 .1.06.01.03.02.05.04.06.04.02.03.02-.04 0zm-.33-.45c-.01-.01-.01-.01-.01 0s.02.03.02.02c.01-.01 0-.02-.01-.03zm.05-.06c0-.02-.02-.04-.03-.04-.04 0-.04.04-.01.07.04.03.06.01.04-.04zm.27.34c-.04-.05-.08-.11-.07-.12 0 0 .04.03.08.08.08.09.08.11 0 .03zm-.49-.54a.94.94 0 0 1-.12-.18c0-.01-.01-.02-.02-.02s-.02-.01-.02-.03-.01-.03-.01-.04c0-.01-.02-.02-.02-.04-.01-.03-.01-.03.01-.02.02 0 .03 0 .03-.02.02-.06.06-.03.08.05.02.05.08.13.11.13.01 0 .02.01.03.03.01.02.03.04.06.05.02.01.03.02.03.02 0 .03-.11.05-.14.03zm.07-.03c.02-.02-.11-.13-.12-.12-.01 0-.01.01.01.01.01 0 .02.01.02.02s.02.03.03.05c.03.03.06.04.07.03zm-.13-.16c0-.01 0-.01-.01-.02 0-.01-.01 0-.01 0s.01.01.02.01l.01-.01zm-.05-.09c.01-.01.02-.02.01-.03s-.01-.02-.02 0c-.03.03-.02.05.02.03zm-.24-.21c-.02-.02-.04-.03-.04-.04s-.01-.01-.02-.01c-.02 0-.06-.07-.11-.16l-.07-.13a.634.634 0 0 1-.08-.29c0-.05 0-.06.02-.06.03 0 .07.03.1.1.01.03.03.07.05.1.01.02.03.04.03.05l.02.04s.03.04.03.06c0 .01.01.02.02.02s.01.01.01.02.01.03.03.05c.02.02.03.04.03.05 0 .01.01.05.02.08.02.06.02.11 0 .1-.01 0-.03-.01-.05-.02zm-.07-.09l-.02-.01a.206.206 0 0 1-.05-.09c0-.02.02-.02.05 0 .02.02.06.02.07 0 0-.01-.02-.05-.05-.09a.29.29 0 0 1-.05-.1.19.19 0 0 0-.05-.08c-.02-.04-.05-.09-.06-.12-.01-.04-.03-.06-.05-.07-.03-.02-.06-.01-.03.01.01 0 .01.04.01.09 0 .07.01.1.06.19.1.18.14.25.15.25.01 0 .01-.01.01-.01zm.07-.02c0-.03-.01-.03-.04-.04-.05-.01-.05 0-.01.04.04.03.05.03.05-.01zm-.36-.87c-.01-.02-.01-.18 0-.31 0-.1.03-.15.05-.13.01.01.03.16.03.25 0 .04.01.08.01.08.02.01.01.03-.01.03-.01 0-.03.02-.04.04-.02.03-.03.04-.05.02zm.07-.11c0-.02 0-.06.01-.09 0-.04 0-.05-.01-.04-.01 0-.02.02-.02.04 0 .01-.01.03-.02.04-.02.01-.03.06 0 .07.03.01.04.01.04-.03zm-.02-.25c0-.03-.01-.05-.02-.05s-.01.02-.01.05 0 .04.01.04.01-.03.01-.05zm5.33.21c-.02-.04-.01-.09.02-.18l.05-.16c.02-.09.02-.22-.01-.32a.248.248 0 0 0-.08-.14c-.04-.04-.06-.07-.06-.09 0-.04-.03-.12-.05-.14a.076.076 0 0 1-.02-.05c-.01-.02-.02-.03-.04-.03-.03 0-.03-.02-.03-.04s-.03-.08-.06-.13-.05-.11-.05-.12c0-.01-.01-.03-.02-.03-.01-.01-.02-.02-.02-.03 0-.01-.01-.03-.03-.04-.02-.02-.03-.03-.03-.04 0-.03-.05-.1-.07-.11-.02-.01-.03-.02-.03-.05 0-.02-.02-.05-.03-.06-.02-.01-.03-.03-.04-.05 0-.01-.02-.03-.03-.03-.02 0-.03-.02-.04-.07a.333.333 0 0 0-.06-.1c-.02-.02-.04-.04-.04-.05 0-.01-.02-.02-.04-.03s-.04-.02-.04-.04c0-.04-.02-.08-.05-.08-.02 0-.03 0-.02-.03 0-.02-.01-.06-.04-.12-.03-.05-.05-.1-.06-.11a.54.54 0 0 1-.06-.13c-.06-.18-.07-.21-.09-.23-.01-.01-.02-.05-.03-.08-.01-.04-.02-.08-.03-.1a.19.19 0 0 1-.03-.09c-.02-.13-.03-.17-.06-.18h.04c.04 0 .05 0 .05.01-.01.01-.01.01-.02 0-.02-.01-.03.02-.01.04.01.01.02.06.02.1.01.05.02.1.03.11.01.02.02.06.03.1.01.04.02.08.03.09.02.01.02.03.09.22.05.14.04.13.08.19.06.09.09.16.08.18 0 .01 0 .02.01.02.02 0 .05.04.05.07 0 .02.01.03.03.04.02.01.03.02.03.03 0 .01.02.03.04.05.03.02.05.05.06.09.01.03.02.05.04.05.03 0 .06.04.06.07 0 .01.01.02.02.02.02 0 .06.08.05.1-.01.01 0 .02.01.02s.02.01.03.03c.01.02.02.03.03.03s.01.01.02.03c0 .01.02.05.04.07.02.03.04.06.04.08 0 .02.03.07.06.12.03.05.05.09.04.1-.01.01 0 .02.02.02s.03.01.03.02c.01.04.04.1.06.11l.02.07c.01.05.02.07.05.08.05.02.16.14.16.16 0 .01.01.01.02.01s.01-.01.01-.02.01-.02.02-.03c.02-.01.01-.02-.03-.06-.13-.14-.22-.23-.22-.26-.01-.02-.03-.07-.06-.11-.03-.04-.05-.09-.06-.11 0-.02-.02-.04-.03-.06a.847.847 0 0 1-.12-.23c0-.01-.01-.03-.03-.05-.06-.06-.11-.13-.11-.16s-.07-.11-.12-.15a.233.233 0 0 1-.07-.09c-.02-.04-.06-.09-.08-.12a.502.502 0 0 1-.08-.12.378.378 0 0 0-.05-.08c-.01-.01-.01-.02-.01-.03 0-.01-.02-.05-.03-.07a.2.2 0 0 1-.03-.08c0-.02-.01-.05-.03-.06-.01-.01-.02-.04-.03-.05 0-.02-.02-.05-.04-.08s-.03-.06-.03-.08-.01-.03-.02-.04c-.01 0-.02-.04-.02-.08 0-.05-.01-.09-.02-.11-.02-.02-.02-.05-.02-.08s0-.07-.01-.08v-.19l.01-.15.01.17v.23c0 .03.01.07.02.08.01.02.02.06.02.11s0 .08.02.1c.01.01.02.03.02.04 0 .02.01.05.03.07.02.03.03.06.04.07l.02.04c.01.01.02.03.02.05 0 .02.01.06.03.08.02.03.03.06.03.07 0 .01.01.04.02.05.02.01.03.04.03.05 0 .03.07.12.1.13.02.01.03.02.03.03 0 .04.07.15.14.21.06.05.08.08.08.11 0 .02.01.05.03.07.02.02.03.04.03.04 0 .01.01.03.03.04.02.02.04.04.05.08 0 .03.02.06.02.06.01 0 .01.01.01.02s.03.05.05.09c.03.04.06.09.06.11.02.06.07.13.08.13a.843.843 0 0 0 .24.32c.06.06.08.09.04.1-.01.01-.02.03-.02.08v.1c0 .02.01.05.02.07.02.04.02.04-.02.09-.03.03-.05.08-.08.18-.06.17-.09.22-.11.17zm.05-.03c.01-.04.01-.06-.01-.05-.01.01-.02.02-.02.04 0 .04.02.04.03.01zm.03-.17c.01-.05.04-.11.06-.14.02-.03.03-.06.02-.06-.01-.01-.01-.07-.01-.14-.01-.09-.01-.13-.02-.14-.01 0-.03-.02-.05-.04-.04-.04-.04-.04-.02.03.04.15.04.32 0 .46-.03.08-.04.13-.02.13 0 0 .02-.04.04-.09zm.11-.25c-.01-.01-.02-.01-.02-.01 0 .02.01.03.02.02 0 0 0-.01-.01-.02zm0-.12c0-.04 0-.06-.01-.04-.02.01-.03.07-.01.07l.02-.04zm-5.58-.07c-.01-.02-.01-.26-.01-.47 0-.03.01-.04.03-.06.05-.02.07-.01.1.07.04.08.04.12-.01.17-.03.03-.03.03-.01.03.02 0 .03.02.03.06 0 .03-.01.06-.02.06-.01.01-.01.02 0 .05.02.04-.01.07-.07.09-.03 0-.04 0-.05-.03zm.1-.06l-.02-.04c-.01-.01 0-.02.01-.03.03-.02.02-.08-.01-.09-.03-.01-.04-.05-.01-.06.01 0 .03-.03.04-.05.02-.04.02-.04-.01-.1-.04-.08-.05-.08-.04-.01 0 .04 0 .07-.01.08-.02.02-.02.07-.02.18 0 .15 0 .16.03.16s.03-.01.02-.03zm-.08-.1c-.01-.02-.01-.01-.01.03s.01.04.01.03c.01-.02.01-.05 0-.06zm.02-.26c0-.06-.02-.06-.03 0 0 .04 0 .05.02.05.01 0 .02-.03.02-.05zm.22.03c-.02-.02-.01-.06.01-.06.04 0 .06.01.06.04 0 .01-.01.02-.03.02-.02 0-.04 0-.04-.01zm-.16-.21c-.08-.03-.08-.06-.07-.27.01-.09.04-.19.06-.18.01 0 .01.03.02.07 0 .03.02.07.03.08.02.02.02.02.01-.01-.01-.02-.01-.03 0-.04.02-.02.07-.02.09 0 .02.02 0 .06-.03.06-.02 0-.03 0-.02.01 0 0 .02.01.04.01.04 0 .04 0 .04.05-.01.05-.01.05-.06.04-.07-.01-.08.02-.05.09.02.04.02.09-.01.08-.01 0-.03-.01-.05-.02zm.05-.02c.01-.01-.02-.07-.03-.07-.01 0-.01.01-.02.02 0 .01-.02.01-.03.01-.02-.01-.01 0 .01.02.03.03.05.03.07.02zm.01-.16c.02 0 .02-.01.02-.04-.01-.05-.06-.1-.1-.09-.03.01-.03.02-.03.08 0 .04.01.07.02.07s.02.02.03.03c.01.02.01.01.02-.02s.02-.04.04-.04zm.08-.05c0-.01-.01-.01-.03-.01-.01 0-.02 0-.02.01.01.01.05.01.05-.01zm-.02-.1c.01-.03-.03-.04-.05-.02-.01.01-.01.02-.01.03.01.01.05.01.05-.01zm-.12-1.25c-.03-.04-.03-.07-.01-.11.01-.03.03-.05.04-.05l.07-.01.05-.01v.06c0 .06-.01.06-.02.04-.01-.01-.02-.03-.01-.04.01-.03-.02-.05-.05-.05-.01 0-.03.01-.05.03-.02.03-.02.05-.01.08.02.05.02.06 0 .03zm.11 0c.01-.02.01-.02.02-.02 0 0 0 .01-.01.02s-.01.01-.01-.01zm-.12-.26c-.02-.03-.01-.08.01-.05 0 .01.01.03.01.04-.01.03-.01.03-.03.01zm-.07-.2c0-.02.02-.03.04-.01.01.02.01.02-.01.02s-.03 0-.03-.01zm4.14-.09c0-.01.01-.02.02-.02.03 0 .02-.06-.01-.06a.144.144 0 0 0-.03-.02c0-.02.04 0 .06.02.01.01.02.03.02.05 0 .02-.01.03-.03.03-.02 0-.03-.01-.03-.01zm.01-.21c0-.02.01-.03.02-.03.01-.01.01 0 0 0s-.02.02-.03.03c-.01.01-.01.01-.01-.01zm.06-.01c-.02-.02-.02-.02 0-.01l.02.02c0 .01-.01 0-.02-.02zm-4.46-.28c-.08-.17-.1-.23-.09-.26.03-.07.11.01.15.13.01.03.04.08.05.1.03.04.03.09.01.13-.02.05-.05.02-.11-.11zm.11.05c0-.01-.01-.02-.01-.02-.02 0-.06-.09-.06-.11 0-.02-.05-.08-.07-.08 0 0 .01.03.03.07l.04.08c0 .02.04.06.06.06 0 0 .01-.01.01-.02zm-.08-.21c-.01-.02-.01-.02-.02-.02s-.01 0 0 .02c0 .01.01.01.02.01v-.02zm-.05-.05c.01-.02-.02-.06-.03-.05-.02.01-.01.07.01.07l.02-.02zm4.48.26c-.04-.05-.05-.08-.02-.1.02-.03.02-.03 0-.03-.01 0-.02 0-.02-.01s.01-.01.02-.01.02-.01.02-.02 0-.02.01-.02c0 0 .01.01.01.02s0 .01.01.01c0-.01.02 0 .03 0 .02.01.02.01.01-.04 0-.03-.01-.06-.02-.07-.01-.01-.01-.02.01-.02.04 0 .05.03.04.15l-.01.11-.05.01c-.03 0-.05 0-.06-.01zm.1-.02c0-.01 0-.02-.01-.02s-.02.01-.02.01v.02l.01-.01zm-.03-.05c.01-.03-.01-.06-.03-.05-.03.01-.03.08 0 .08.01 0 .02-.02.03-.03zm-.16 0c0-.01 0-.03-.01-.04-.01-.02-.01-.02.01 0 .01.01.01.03.01.05-.01.02-.01.02-.01 0zm.21-.37c-.01-.03 0-.04.02-.03.03 0 .04.05 0 .06-.02 0-.03-.01-.03-.03zm.11-.16c0-.02 0-.03.01-.04.01-.01.02-.02.02-.03 0-.03.09-.21.1-.21.01 0-.01.04-.03.07-.02.03-.03.07-.03.07.01.01.01.01.01 0l.07-.08c.03-.04.06-.09.06-.09 0-.01.01-.02.01-.02.02 0 .05-.16.05-.23a.36.36 0 0 0-.02-.11c-.01-.02-.02-.09-.03-.14-.01-.05-.02-.12-.03-.14-.01-.02-.02-.06-.02-.08s0-.04-.01-.04-.02-.02-.04-.05c-.01-.03-.03-.05-.03-.05-.01 0-.01-.01-.01-.02 0-.05-.11-.22-.16-.25a.215.215 0 0 1-.04-.07c-.03-.07-.06-.07-.05 0 0 .02.01.04.01.04s.02.03.02.06c.01.03.02.06.03.06.01 0 .01.01.01.02s.01.02.03.02c.02 0 .03.02.03.03v.04c0 .01.01.02.01.02.01 0 .01.02.01.03s.01.03.01.03c.01 0 .01.01.01.02s.01.02.01.02.01 0 .01.01.01.02.02.03c.01.01.03.06.05.11.03.08.03.1.03.17-.01.05 0 .09 0 .1.01.01.01.08 0 .15l-.02.13v-.23c0-.23 0-.23-.04-.32-.02-.05-.05-.09-.06-.09-.02-.01-.02-.02-.02-.04s0-.03-.01-.03-.01-.01-.01-.02-.01-.02-.02-.02-.01-.02-.01-.04-.01-.03-.02-.03-.02-.01-.02-.02c0-.05-.01-.07-.04-.08-.02 0-.04-.02-.04-.02 0-.01-.01-.02-.02-.03s-.02-.03-.02-.05c0-.03-.01-.05-.02-.06-.01-.01-.02-.02-.01-.03 0-.02-.01-.05-.02-.08-.03-.06-.03-.09 0-.03.02.04.02.04.02-.05-.01-.08-.01-.09-.06-.13-.03-.03-.05-.06-.05-.07 0-.01-.06-.13-.1-.18-.03-.04-.18-.19-.2-.19-.02 0-.01.02.02.05.02.02.04.06.06.09.02.03.04.07.05.08.01.01.03.03.03.04 0 .01.01.03.02.04.01.01.03.04.05.07.02.03.03.05.04.05.01 0 .01.01.01.02s0 .02.02.01c.01 0 .02.01.01.08 0 .06 0 .08-.01.05-.01-.02-.01-.05-.01-.07 0-.02-.01-.03-.02-.03s-.02-.02-.03-.04c-.01-.03-.01-.03-.02-.02-.01.04-.03.01-.03-.04 0-.03-.01-.06-.04-.09-.02-.03-.04-.05-.04-.06 0-.01-.01-.03-.03-.05-.02-.01-.03-.04-.03-.04 0-.01-.02-.04-.05-.07a.274.274 0 0 1-.04-.07c0-.02-.09-.11-.11-.11-.01 0-.02-.01-.02-.02s.02-.02.03-.02c.05 0 .25.19.34.31.05.07.1.15.1.16 0 .02.08.11.09.1.01-.01.03.06.03.1 0 .02.01.06.03.09.02.03.03.06.03.06 0 .01.02.04.05.07.07.08.14.2.14.24 0 .02.01.03.01.03s.01.01.01.02.02.03.03.05c.02.02.03.056.04.08 0 .03.02.07.02.08.01.02.02.09.03.15.04.29.03.41-.05.5l-.08.1c-.01.03-.03.05-.04.05 0 0-.02.03-.03.06-.03.06-.05.07-.07.04zm-5.81-.31c-.02-.01-.06-.05-.1-.07l-.1-.07c-.18-.1-.45-.29-.46-.32-.01-.03.08-.11.11-.11.02 0 .03.01.04.04.01.05.05.08.08.07.01-.01.02.01.03.03.03.07.05.09.12.09.06 0 .06 0 .1.06.04.07.07.09.11.06.02-.01.02-.01.02 0 0 .03.06.08.11.09.03.01.05.02.05.05.01.07-.07.1-.14.05zm.11-.05c0-.03 0-.03-.06-.02-.06.01-.07.01-.05.03.01.02.1.01.11-.02zm-.1-.04h.04l-.04-.02a.185.185 0 0 0-.07-.02c-.02 0-.03-.01-.02-.03.01-.03.01-.03-.02-.02-.02.01-.03 0-.04-.02-.01-.02-.03-.05-.04-.08-.03-.04-.04-.05-.1-.05-.06 0-.07 0-.1-.06-.02-.04-.04-.06-.06-.06-.04-.01-.04 0-.01.04l.04.08c.02.04.02.04.06.04.02 0 .04 0 .06.02.01.01.02.02.03.02.01 0 .01.01.01.03-.01.02 0 .03.03.04l.07.05c.02.02.04.03.05.02.03-.02.04-.01.03.02-.01.02-.01.02 0 .02 0-.01.03-.02.05-.02zm-.44-.24c0-.01-.01-.02-.02-.02s-.01 0-.01.01l.01.01s.01 0 .01-.01zm-.04-.09c-.03-.06-.1-.12-.12-.11-.05.02-.03.05.07.11.05.04.07.04.05-.01zm-.05-.13c0-.01-.01-.02-.02-.02s-.01.01.01.02c.02.02.03.02.02-.01zm.35.06c0-.01-.01-.01-.02-.01s-.02-.01-.01-.04c.01-.05.02-.06.06-.06.02 0 .02.01.01.04s-.01.06-.01.07c0 .02-.01.03-.02.03s-.02-.01-.02-.02zm.03-.03c0-.01 0-.03.01-.04 0-.01 0-.02-.02-.02-.03 0-.05.06-.03.07.02.01.03.01.03-.01zm-.72-.14a.19.19 0 0 0-.08-.05c-.01 0-.04-.02-.06-.05-.04-.05-.05-.05-.03-.09 0-.02.02-.05.02-.06.02-.02.08-.01.13.02.02.01.04.02.05.02.01 0 .02 0 0 .01-.01.01-.01.02.01.03.02.02.03.03.02.06-.01.05.01.06.04.03.05-.05.13-.02.13.05 0 .02-.02.03-.07.05-.09.03-.09.03-.16-.03zm.09.02c.02-.01.02-.01 0-.02-.03-.02-.05-.01-.04.01.01.02.01.02.03.01zm.08-.05c.02-.02.02-.05-.01-.05-.01 0-.02.01-.04.02-.03.04.01.05.06.02zm-.18-.03c0-.02-.03-.07-.04-.08l-.02-.03c-.01-.02-.02-.02-.03-.02-.01.01-.02 0-.02-.01 0-.02 0-.02-.02 0-.02.03-.03.08-.01.08.01 0 .03.02.06.04.05.04.07.05.07.03zm.04-.08c-.02-.02-.03-.04-.03-.04 0-.01-.01-.02-.02-.02s-.02-.01-.03-.02c-.01-.01-.02-.02-.03-.02-.02 0-.02 0 0 .03.01.01.04.05.05.08.03.05.03.05.05.03.01-.02.01-.03-.01-.05zm-.58-.15v-.02c0-.03-.03-.07-.06-.06-.02 0-.03.01-.03.02.01.01 0 .01-.01.01l-.02-.02c0-.03.06-.04.09-.03.02.01.03.01.04 0 .01-.03.03-.01.03.05 0 .03-.01.06-.02.06s-.01-.01-.01-.01zm.1-.05c0-.04 0-.06.01-.06s.01.02.01.06c0 .03-.01.06-.02.06s-.02-.03-.02-.06zm-.16.02c-.02-.01-.02-.02-.01-.02s.02.01.02.02c.01.01 0 .01-.02 0zm-.18-.09l-.1-.05c-.02-.01-.04-.02-.04-.03 0-.01-.03-.01-.1-.03-.04-.01-.16-.06-.21-.09a.283.283 0 0 0-.06-.03c-.04 0-.42-.11-.45-.14a.515.515 0 0 0-.17-.08c-.02 0-.08-.03-.15-.06-.12-.06-.12-.06-.12-.11 0-.04 0-.05.04-.07.03-.02.04-.02.09.01.03.02.08.04.11.05.07.02.14.06.16.09.01.01.02.02.04.02.01 0 .03.01.03.02.01.01.02.02.03.02.01 0 .02.01.03.02.01.02.03.02.04.01.02-.01.03-.01.04.01.01.03.09.05.17.05.03 0 .07.01.09.02.01.01.02.01.02.01.01-.01.02 0 .04.02.05.05.11.04.19-.04.03-.04.07-.06.07-.06.01 0 .01.03.02.06l.01.04h-.13c0 .01.13.08.15.08 0 0 .02.02.03.04.01.02.03.05.06.06.02.01.04.03.04.03 0 .01.01.01.03.01.02 0 .04 0 .05.02.02.04.08.07.14.08.03 0 .05.01.05.02-.01.01-.12-.03-.19-.07-.05-.03-.06-.03-.07-.01-.01.01-.02.01-.02-.01-.01-.01-.03-.03-.06-.05a.172.172 0 0 1-.06-.06c-.01-.02-.02-.04-.03-.04-.01 0-.05-.02-.08-.04a.277.277 0 0 0-.13-.03c-.04 0-.07-.01-.08-.02a.076.076 0 0 0-.05-.02c-.02 0-.04-.01-.04-.02-.01-.01-.02-.02-.05-.01-.05.01-.19-.03-.19-.05 0-.01-.01-.01-.02 0s-.02.02-.02.03c0 .03-.04.04-.06.02-.02-.01-.02-.02-.01-.04s.01-.03-.01-.05c-.01-.02-.03-.03-.04-.03-.01 0-.03-.02-.05-.03-.01-.02-.03-.03-.04-.03-.01 0-.02-.01-.03-.02-.01-.01-.05-.02-.09-.04l-.08-.03.06.06c.06.06.07.09.04.09-.01 0-.02 0-.02-.01s-.02-.01-.04-.02c-.08-.01-.06 0 .16.1.05.02.1.05.11.06.01.01.07.03.13.05.17.05.19.06.22.06.01 0 .03.01.04.01.01.01.03.01.05.01s.06.02.09.04c.05.03.08.04.06.02-.01-.01-.01-.02 0-.02s.02.01.02.02c.01.03.03.04.06.03.01-.01.03 0 .05.01.01.01.04.03.07.03.03 0 .06.02.06.03 0 .01.02.01.03.01.02-.01.03 0 .05.02.01.01.04.03.05.03.02.01.03.02.03.03 0 .02-.01.02-.08-.02zm-.2-.4c-.01-.05-.01-.05-.04-.02-.03.04-.03.05.01.05.03 0 .04-.01.03-.04zm-1.12-.17c0-.01-.01-.02-.02-.02s-.01 0-.01.01l.01.01s.01-.01.01-.02zm.06-.06c-.06-.08-.06-.07-.09-.06-.04.02-.04.08 0 .08.01 0 .04.01.06.02.02.01.04.02.06.02.02.01.01-.01-.03-.06zm1.6.58c0-.01.01-.02.01-.02l.01.01s-.01.02-.02.02-.02-.01-.02-.01zm-5.49-.09c-.03-.01-.05-.03-.05-.03a.239.239 0 0 0-.07-.03c-.03-.01-.06-.01-.06-.02s-.02-.01-.05-.02c-.04-.01-.08-.02-.1-.03s-.04 0-.06 0c-.19-.02-.31-.06-.36-.1a.311.311 0 0 0-.06-.04c-.05-.03-.08-.07-.07-.1.01-.02.01-.03.02-.03s.03-.02.04-.04c.04-.06.08-.06.11-.01.04.07.18.17.24.17.02 0 .05.01.08.02s.05.01.06.01c.01 0 .03 0 .05.01.05.03.27.09.3.09.01 0 .04.01.07.02.07.03.19.03.24 0 .03-.02.06-.03.12-.03.09 0 .14-.02.24-.1.04-.03.09-.07.11-.08.15-.06.2-.08.26-.08s.06-.01.02-.06c-.02-.02-.04-.03-.05-.03-.02 0-.03-.01-.04-.04-.01-.03-.01-.06-.01-.07.01-.03.05-.04.08-.01l.09.04c.09.04.09.04.1.08.01.03 0 .04-.02.05l-.03.01.03.01c.02 0 .03.01.03.04s-.01.04-.05.05c-.02 0-.07.01-.11.01-.04 0-.09 0-.11.01l-.14.03a.31.31 0 0 0-.18.09c-.05.05-.09.07-.12.08l-.1.01c-.03.01-.08.03-.11.05-.11.07-.25.09-.34.05zm.11-.02c-.02-.02-.04-.03-.05-.03-.02 0-.02-.03 0-.04.01-.01.05-.01.08 0 .04 0 .07 0 .07-.01.01-.01 0-.01-.01-.01s-.04 0-.07-.01c-.23-.06-.4-.11-.43-.12-.01-.01-.03-.01-.05-.01-.02 0-.05-.01-.08-.02a.235.235 0 0 0-.08-.02c-.03.01-.03.01.02.03.03.02.05.03.05.04-.01.02-.05.02-.07 0-.01-.01-.03-.02-.04-.01a.51.51 0 0 1-.22-.07c-.02-.02-.04-.03-.05-.03-.01 0-.03-.02-.05-.04-.03-.03-.03-.03-.03-.01 0 .03.15.13.23.16.04.01.11.03.17.03.06 0 .12.02.13.03.02.01.04.01.05.01.04 0 .23.06.28.1.03.02.07.03.1.03h.05L9.67 11zm.13-.03c0-.01-.02-.01-.07-.01-.08 0-.09 0-.07.02.01.01.12 0 .13-.02zm.07-.02c.01-.01.02-.01.01-.01s-.02 0-.03.01l-.01.01.03-.01zm.14-.03c.03 0 .05-.01.05-.01 0-.02-.09-.01-.12.01-.02.01-.02.01 0 0 .01-.01.05-.01.07-.01zm.15-.05c.01-.01 0-.01 0-.01s-.02 0-.02.01c-.01.01-.01.01 0 .01s.02-.01.02-.02zm-1.12-.07l-.06-.04a1.06 1.06 0 0 1-.12-.1c-.07-.07-.08-.07-.11-.01-.01.02-.01.03.04.05l.09.05c.06.04.15.07.15.05zm-.03-.06H9c-.01.01.04.05.06.05l-.02-.03zm1.44-.01h-.02c-.01.01-.01.01.01.01s.02 0 .02-.01zm.08-.04c0-.01-.01-.01-.02 0-.01 0-.01.01.01.01s.02 0 .01-.01zm.09-.03c0-.01-.01-.01-.02 0s-.01.01 0 .01.02 0 .02-.01zm.14-.03l-.01-.02c-.02-.01-.02-.01-.03 0s-.03.02-.04.03c-.02.01-.02.01.02.01.03 0 .05-.01.06-.01zm-.02-.13c0-.01-.01-.02-.02-.02-.05-.02-.09-.04-.1-.06-.01-.02-.06-.02-.06 0-.01.03.02.07.05.07.02 0 .04.01.04.02.02.02.08.01.09-.01zm3.5.39c0-.02.02-.04.04-.03.02.01 0 .04-.02.04-.01 0-.02-.01-.02-.02zm-.14-.04c0-.02.01-.03.01-.03s.01-.01.01-.02c0-.02.01-.02.03 0 .03.02.04.03 0 .03-.01 0-.03.01-.04.02-.01.02-.02.01-.02 0zm-2.9-.1a.527.527 0 0 0-.15-.05c-.09-.02-.1-.03-.1-.09 0-.03 0-.05.02-.05s.01-.01-.02-.03c-.04-.02-.11-.12-.11-.15 0-.01.01-.03.02-.05.02-.03.02-.03.05-.01.01.02.02.04.02.05 0 .02.01.03.06.02h.06v.08c0 .06-.01.08-.03.09-.03.01-.03.01.01.03.02.01.07.01.1.01.04 0 .08.01.1.02.03.01.06.02.08.01.01 0 .05-.01.07-.01h.06c.02 0 .12-.09.22-.19.04-.04.08-.05.09-.03.01.01.02.01.03.01.02-.01.03-.01.04-.01l.07-.05c.04-.04.07-.05.08-.04.01 0 .09 0 .17-.01.08-.02.17-.03.2-.03.08-.01.16.01.16.04 0 .01-.03.02-.12.02-.14 0-.34.03-.45.08-.05.02-.09.03-.1.03-.01 0-.04.02-.06.04-.03.02-.07.05-.11.07-.03.01-.07.04-.07.05 0 .01-.02.02-.03.02s-.02.01-.03.01c-.02.04-.21.12-.28.11a.45.45 0 0 1-.08-.02zm.11-.03l.03-.01h-.04c-.02 0-.06-.01-.09-.02s-.06-.02-.08-.01c-.02 0 0 .01.04.02.03.01.06.02.06.03 0 .01.02.01.06 0zm.13-.06c.04-.02.04-.02-.03-.02l-.09.01s-.04 0-.08-.02c-.05-.02-.08-.02-.11-.01l-.04.01h.04c.02 0 .06.01.08.02.06.02.16.02.22 0zm-.35-.01c-.03-.03-.09-.04-.09-.02 0 .03.01.03.06.03.04 0 .04 0 .03-.01zm.58-.1c0-.01-.01-.01-.03 0s-.02.02-.02.03c0 .01.01.01.03 0 .01-.01.02-.02.02-.03zm-.63-.06c0-.05-.01-.07-.03-.07-.09 0-.11-.01-.11-.03 0-.03-.03-.04-.04-.02 0 .01 0 .03.01.06s.03.04.05.04c.04 0 .07.03.07.06 0 .01.01.01.02.01s.02-.01.02-.06zm.71.02c.03-.03.04-.04.03-.04-.03.01-.1.06-.1.07 0 .02.02.01.07-.03zm-.78.01c0-.01 0-.01-.01-.02s-.01 0-.01 0 .01.01.02.01.01-.01.01-.01zm.74-.05c.04-.04.05-.07.03-.07-.01 0-.1.09-.1.1 0 .02.02 0 .06-.04zm.72-.17c-.01-.01-.02-.01-.03 0-.01 0-.01.01.01.01s.02-.01.02-.01zm1.93.43c0-.01.01-.02.03-.03.03-.03.04-.01.01.02-.03.02-.05.03-.05.01zm-3.82-.17c0-.02.01-.02.02-.02s.02.01.02.02-.01.01-.02.01-.02-.01-.02-.02zm-2.1-.03c-.06-.03-.13-.08-.16-.11s-.06-.05-.08-.06c-.02-.01-.04-.02-.04-.03 0-.01-.01-.02-.02-.02-.03 0-.13-.07-.23-.16-.05-.04-.12-.1-.16-.12-.08-.04-.1-.05-.1-.1 0-.09.07-.14.11-.09.02.03.03.03.05.01.02-.02.03-.02.03 0s.01.04.01.05.01.03.03.04c.02.01.03.02.03.03 0 .03.05.08.07.07.02-.01.05.02.08.08.01.03.02.04.03.04s.03.03.06.06.09.07.13.09c.04.02.09.04.1.05.02.01.04.02.05.02.02 0 .03.01.04.02.01.01.03.02.05.02.03 0 .04 0 .04-.03 0-.02.01-.03.03-.03s.03.01.03.03c0 .04.03.07.09.07.05 0 .06 0 .06.04 0 .02-.01.04-.03.06-.03.02-.13.07-.16.07a.61.61 0 0 1-.12-.07zm.21 0c0-.01-.03-.02-.06-.03l-.09-.02c-.05-.01-.04.01.02.05.04.03.06.03.09.02.02 0 .03-.01.03-.02zm.04-.04c.07-.01.06-.04-.01-.05a.239.239 0 0 1-.07-.03c-.01-.01-.05-.02-.09-.02-.06 0-.1-.02-.21-.07-.15-.07-.24-.15-.28-.22-.02-.03-.03-.05-.06-.05s-.04-.01-.06-.06c-.03-.05-.07-.08-.11-.08-.02 0 .03.06.1.13.06.06.09.1.09.12 0 .03.06.08.13.11.02.01.04.02.04.03 0 .01.01.01.02.01s.03.02.04.03c.02.02.04.03.05.02.01 0 .03 0 .05.01.02.01.24.09.27.09 0 0 .03 0 .06-.01zm-.1-.15c0-.01-.01-.02-.01-.02-.01 0-.02.01-.02.02s.01.02.02.02.01 0 .01-.01zm-.76-.31c-.02-.01-.03-.03-.03-.04 0-.01-.02-.04-.05-.07l-.04-.05-.01.04c-.01.05.02.1.09.12.06.01.06.01.03-.01zm0-.13c0-.01-.01-.01-.02 0s-.02.02-.01.03c.01.01.03-.01.03-.04zm5.26.64c-.06-.01-.09-.03-.18-.08-.04-.02-.08-.04-.11-.04-.09 0-.1-.06-.02-.07.03-.01.05 0 .08.02.02.01.04.02.05.02.01 0 .04.01.07.03.03.02.08.03.15.03.11 0 .15.02.14.06-.01.03-.09.04-.19.02zm.13-.04c0-.01-.01-.02-.04-.01-.03 0-.04.01-.04.01 0 .02.07.01.07-.01zm-.02-.04c0-.01 0-.02-.01-.02s-.02.01-.02.02v.02s.01 0 .01-.01zm-4.4 0a.427.427 0 0 1 0-.16c0-.01.06-.03.1-.04.03-.01.03-.01.02.01-.01.01-.02.06-.02.1-.01.04-.02.08-.03.09-.03.02-.06.01-.07-.02zm.09-.17c0-.01-.02 0-.03.01-.03.01-.04.06-.01.08.01.01.02.03.02.05s.01-.01.02-.06c.01-.05.01-.09.01-.09zm1.86.12c-.01-.04-.01-.04.02-.07.05-.04.06-.04.05.01-.01.02-.01.05-.01.07 0 .04-.05.03-.07-.01zm.04-.04c0-.01-.01-.01-.02-.01s-.02 0-.02.01c.01.01.01.01.02.01 0 0 .01-.01.01-.02zm2.69.02c0-.01.02-.02.03-.03.02 0 .02 0 .02.02 0 .01-.02.02-.03.03-.02 0-.02 0-.02-.02zm-3.04-.02c0-.03.01-.04.03-.04.03 0 .03.01.03.03 0 .03 0 .03-.03.03s-.03-.01-.03-.03zm2.68.02c-.02-.01-.02-.05-.01-.08.01-.02.03-.01.04.03 0 .04-.01.06-.04.05zm.02-.03c0-.01-.01-.01-.02-.01s-.01 0-.01.01.01.02.01.02v-.01zm.24.02c-.03-.03-.01-.1.02-.1.01 0 .02 0 .03-.01.01-.03.03-.01.03.03 0 .03-.01.05-.03.07-.04.03-.05.04-.07.01zm.06-.05c.02-.02.02-.03-.02-.03-.02 0-.04 0-.04.01s0 .02-.01.03c-.01.02 0 .02.01.01l.04-.03zm-2.81.01c-.01 0-.01-.02-.01-.03 0-.03.03-.04.05-.01.01.01-.03.05-.04.04zm2.88-.01c-.01-.01 0-.03.01-.05.02-.03.02-.03-.01-.04-.02-.01-.03-.03-.03-.08 0-.14.07-.15.1-.02.01.05.01.07 0 .07-.02.01-.02.02 0 .05.01.02.02.05.01.05-.01.02-.1.01-.11-.01zm.08-.02c0-.03-.02-.04-.04-.02-.03.02-.02.03.01.03.01 0 .02 0 .02-.01zm-.01-.14c0-.05-.03-.08-.05-.08-.01 0-.01.01-.01.03 0 .02 0 .03-.01.03s-.01 0 0 .01.02.02.02.03c0 .01.01.02.02.02s.01-.03.01-.05zm-2.75.13c0-.03.04-.05.06-.04.03.02.02.05-.03.05-.03 0-.04-.01-.04-.02zm.04-.01c0-.01 0-.02-.01-.02s-.02 0-.02.01v.01l.01-.01zm10.35-.27c0-.01.01-.04 0-.06-.01-.04-.02-.05-.05-.05-.02-.01-.05 0-.06.01-.02.01-.02.01-.02-.02s.01-.04.06-.04c.06 0 .06 0 .08.05.02.06.01.09-.02.09-.02 0-.02-.01-.01-.02zM7.41 10l-.22-.056c-.11-.025-.2-.043-.2-.04-.01.005-.02 0-.02-.006 0-.01-.01-.016-.02-.016s-.04-.01-.06-.016l-.07-.02a.169.169 0 0 1-.08-.047c-.03-.03-.06-.05-.08-.05-.02-.01-.04-.01-.04-.02s-.02-.02-.05-.02a.408.408 0 0 0-.07-.02c-.02-.01-.02-.01.016-.02.023-.01.05-.02.065-.03.03-.03.07-.04.08-.01.01.01.03.02.06.03.03.01.06.02.08.03.02.01.03.01.05 0 .04-.03.07-.02.07.01.01.03.02.03.06.03.05 0 .06.01.06.03 0 .01.01.02.03.02.01 0 .03.01.05.02.02.01.05.02.08.02s.06.01.08.02c.02.01.03.01.03-.01s0-.02.05 0c.04.02.05.02.08.01.02-.01.06-.01.09-.01.08.01.09.03.01.03-.03 0-.07.01-.08.01-.01.02 0 .02.05.03.08.02.13 0 .12-.04 0-.02 0-.03.02-.03s.03-.02.04-.03c.01-.02.03-.04.04-.05.03-.02.03-.04.02-.1 0-.06 0-.07.02-.07s.03.03.03.09c.02.09 0 .12-.08.21-.02.02-.05.06-.07.09a.38.38 0 0 1-.05.06c-.01.01-.06.01-.1 0zm.09-.04c.01-.01-.11-.05-.13-.04-.02.016-.01.03.03.037.08.01.08.01.09 0zm-.27-.03c0-.01.01-.02.03-.02.03 0 .04-.022.01-.025-.05-.007-.1.026-.08.044.01.01.03.01.03 0zm.12 0c0-.01-.01-.02-.02-.02-.02 0-.02.01-.02.017s0 .017.02.017c.01 0 .02-.005.02-.01zm-.23-.03c-.01-.03-.05-.046-.07-.02-.02.02-.02.02.01.023l.05.006s.01 0 0-.01zM7 9.85c.007 0 .01-.013.01-.03-.005-.024-.014-.03-.054-.03-.046 0-.047 0-.032.03.02.047.053.07.06.047 0-.01.01-.02.016-.02zm-.134-.012s-.01-.01-.026-.02c-.023 0-.025-.01-.013-.02.01-.01.027-.02.04-.02.014 0 .025-.01.025-.02 0-.02-.04-.03-.06-.01-.01.01-.024.01-.045-.01a.175.175 0 0 0-.04-.02c-.02 0 .028.08.068.11.046.04.05.04.05.02zm.845-.04c.04-.05.06-.13.03-.13 0 0-.01.02-.01.04s-.01.05-.02.06c-.02.03-.05.09-.03.09.01 0 .03-.02.05-.05zm.27.15c-.01-.01-.01-.01 0-.02.01 0 .02-.01.01-.01 0 0 .01-.02.03-.04.03-.02.04-.03.07-.01.03.02.03.02-.01.04-.02.02-.04.04-.04.05.01.03-.02.03-.04.02zm13.09-.07c-.02-.02-.05-.04-.06-.04-.01 0-.02 0-.02-.01 0-.02-.09-.08-.15-.09-.02 0-.04-.02-.05-.03 0-.01-.02-.01-.04-.01s-.05-.01-.07-.02a.107.107 0 0 0-.06-.02c-.01 0-.03 0-.03-.01 0-.02-.08-.04-.15-.05-.03 0-.06-.01-.07-.02-.01 0-.01-.01 0-.01s-.01-.02-.03-.04-.05-.04-.07-.04c-.01 0-.03 0-.03-.02 0-.01-.01-.02-.02-.02s-.02-.01-.01-.02c.01-.04.1-.03.16.02.01.01.05.02.08.03.03.01.07.03.08.04.02.02.04.03.05.03.03 0 .09.02.13.05.02.01.07.03.12.04.05.01.1.03.11.04.01.01.03.02.04.02.01 0 .03.01.04.03.01.02.06.04.11.06.07.03.09.04.11.08.02.05.02.05 0 .08-.03.04-.06.03-.11-.02zm.1.02c.01-.01.01-.03.01-.06-.01-.04-.02-.04-.1-.07a.282.282 0 0 1-.11-.05c-.01-.01-.03-.03-.04-.03-.01 0-.03-.01-.04-.02a.336.336 0 0 0-.1-.04.318.318 0 0 1-.11-.04c-.02-.01-.05-.03-.08-.03s-.07-.02-.09-.04c-.02-.02-.06-.03-.09-.04-.02 0-.06-.02-.08-.03-.02-.01-.04-.02-.06-.02-.04 0-.03.04.02.06.03.01.06.03.07.05.01.02.05.03.09.04.04.01.1.03.13.04.03.02.07.03.07.03.01 0 .03.01.05.03.02.02.05.03.07.03s.03.01.04.02c.01 0 .05.03.09.05.09.04.2.12.23.16.02.03.04.03.06 0zM7.8 9.89c-.014-.02.018-.09.052-.108.067-.035.12.055.057.1-.04.022-.1.025-.11.005zm.098-.03c.016-.01.017-.02.003-.05l-.01-.04-.03.023c-.04.047-.01.09.04.06zm-.1-.13c-.005-.01-.003-.04.005-.07.01-.04.016-.043.07-.043.054 0 .06.003.06.032 0 .02-.014.04-.053.06-.063.03-.07.03-.08.01zm.068-.03c.053-.03.057-.06.007-.07-.035-.01-.067.024-.067.063 0 .03 0 .03.06 0zm12.2-.37a.131.131 0 0 0-.055-.03s-.01-.01-.01-.015-.01-.02-.03-.03a.269.269 0 0 1-.08-.054c-.03-.03-.05-.04-.07-.03-.02 0-.03 0-.05-.03l-.04-.04a.902.902 0 0 1-.17-.16c0-.01-.01-.02-.03-.02-.05 0-.09-.03-.08-.06.01-.01 0-.03 0-.03-.01-.01-.01-.06 0-.06h.03c.01 0 .04.02.07.04.03.03.06.05.07.05.02 0 .07.05.16.14.09.09.23.22.25.22.01 0 .01.01.02.03 0 .02.02.03.03.03.02 0 .1.09.09.11-.01.02-.02.02-.06-.02zm.014-.03a.208.208 0 0 0-.048-.04c-.01 0-.03-.02-.14-.12a.284.284 0 0 0-.08-.066.385.385 0 0 1-.06-.062c-.026-.037-.057-.067-.068-.067-.01 0-.028-.015-.04-.03a.443.443 0 0 0-.09-.086c-.09-.07-.092-.07-.114-.06-.015.01-.015.01 0 .03.01.01.013.03.01.04-.007.01.004.02.034.04.023.01.047.01.053.01.006-.01.014 0 .018.02.008.02.093.11.155.15.017.01.037.04.046.05.01.02.028.03.047.03.034 0 .113.04.113.05 0 .01.01.01.02.01.012 0 .035.02.052.03.08.08.167.13.093.05zm-.755-.586c-.006-.01-.027-.023-.047-.04a.16.16 0 0 1-.052-.055.559.559 0 0 0-.172-.18c-.037-.03-.05-.04-.05-.07 0-.03-.01-.05-.043-.07a.146.146 0 0 0-.05-.03c-.01 0-.02-.02-.03-.03-.01-.03-.03-.04-.05-.03-.04.01-.06-.01-.07-.05-.01-.05-.07-.11-.15-.15-.03-.02-.08-.05-.1-.07-.02-.02-.04-.03-.05-.03-.01 0-.04-.02-.08-.04a.2.2 0 0 0-.08-.03s-.02-.02-.04-.03c-.01-.02-.04-.03-.05-.03-.03 0-.07-.02-.07-.04s-.08-.07-.12-.07c-.07 0-.25-.16-.32-.27-.01-.03-.03-.05-.04-.05 0 0-.02-.02-.03-.05-.01-.04-.03-.05-.06-.05-.03-.01-.03-.01-.03-.03.01-.02 0-.04-.01-.05a.076.076 0 0 1-.02-.04c0-.01 0-.02-.01-.02s-.02-.02-.02-.04c-.01-.04-.05-.11-.07-.12 0 0-.01-.02-.01-.04s-.02-.05-.04-.07a.69.69 0 0 1-.09-.18c-.03-.07-.1-.22-.18-.39-.06-.12-.15-.25-.18-.26-.01 0-.02-.01-.01-.02.01-.03-.02-.06-.04-.05-.01 0-.01 0-.01-.01.01-.01 0-.04 0-.05-.01-.02-.01-.03 0-.03s.02.01.02.03c.01.01.02.03.03.04.01.01.02 0 .02-.06 0-.09-.02-.12-.07-.11-.02 0-.04.02-.05.03-.02.03-.02.03-.02 0s.02-.06.06-.06c.03 0 .03 0 0-.04-.01-.02-.09-.1-.17-.18-.07-.08-.15-.17-.16-.19-.05-.11-.07-.14-.09-.17-.05-.04-.13-.21-.19-.37l-.03-.1-.02.04c-.02.02-.03.04-.04.04s-.01.01-.01.02c0 .02.06.16.13.29l.07.13c.03.04.05.06.07.03.01-.01.02-.02.04-.02.04 0 .03.05-.02.07-.02.01-.03.03-.01.03.02 0 .14.13.21.23.04.06.09.12.12.15.02.02.04.04.03.04-.02 0-.08-.06-.16-.17-.08-.11-.14-.18-.2-.21-.02-.02-.03-.03-.02-.06s0-.04-.02-.04c-.01 0-.04-.04-.08-.12l-.1-.12a.683.683 0 0 1-.09-.25c0-.04 0-.05-.02-.05-.03 0-.07-.05-.07-.09 0-.02.01-.04.02-.05s.02-.04.02-.05c0-.03-.08-.12-.1-.12-.01 0-.03-.05-.02-.07.01-.01 0-.01-.01-.01-.02 0-.04-.07-.03-.1.02-.02-.02-.07-.04-.07-.03 0-.04-.05-.03-.12.01-.04.01-.05-.03-.08-.02-.02-.04-.03-.05-.03-.02.01-.04-.03-.05-.09 0-.03-.01-.07-.02-.07-.01-.01-.02-.04-.01-.07.02-.04-.02-.12-.05-.12-.02 0-.02 0-.02-.02.01-.01 0-.03-.01-.04a.053.053 0 0 1-.01-.08c.01-.01.01-.03.01-.06-.01-.03-.02-.04-.05-.04-.03 0-.04 0-.03-.01.02-.02.02-.05-.01-.05-.02 0-.03-.01-.02-.08 0-.05 0-.08-.01-.08s-.05-.03-.05-.05c0 0-.02-.02-.03-.04-.02-.01-.04-.04-.03-.05 0-.02 0-.02.01 0 0 .01.02.03.04.05.03.03.04.03.1.01.02-.01.04.02.05.07.01.05 0 .05-.04.07-.04.01-.04.03-.03.08.01.03.02.03.04.03s.03 0 .03.02c0 .01 0 .02-.01.03-.01 0-.01.01-.01.02 0 0 .02 0 .03-.02.03-.03.04-.03.06-.02.03.01.03.02.03.04-.01.02 0 .03.01.03.04 0 .02.03-.03.07-.07.04-.06.07 0 .07.03 0 .05.01.05.02s-.01.01-.02.01-.01 0-.01.01.02.01.05 0c.04-.01.05-.01.06.02.02.05 0 .1-.05.11-.03.01-.05.04-.02.04l.02.04c0 .02.01.03.01.02.02-.02.07-.03.07-.01 0 .03-.02.05-.05.05-.04 0-.03.07.02.1.01 0 .02-.01.04-.02.02-.02.03-.02.04-.01 0 .01.02.01.04.01s.03.01.04.02c.01.03-.02.09-.04.09-.01 0-.02.01-.02.04l.01.05c0 .01.03.01.06.01.06.01.07.01.07.04s0 .04-.02.04c-.01 0-.02.01-.02.01-.01.02.01.07.02.07.02 0 .02.01.01.04-.01.02-.01.03.01.03.01 0 .03 0 .05-.01.06-.03.11.02.12.13.01.07.01.07-.03.08-.06.01-.07.04-.05.09.02.03.03.03.05.02.02-.01.05-.01.06-.01.03 0 .03-.01.03-.05l-.02-.12a.518.518 0 0 0-.12-.26.57.57 0 0 1-.11-.22c-.01-.04-.03-.09-.04-.13l-.05-.12-.05-.1a.207.207 0 0 1-.02-.06c0-.02-.02-.08-.04-.15a.584.584 0 0 1-.05-.13s-.02-.06-.05-.12a.542.542 0 0 1-.06-.16c-.05-.17-.12-.34-.17-.4-.03-.04-.04-.04-.14-.05a1.3 1.3 0 0 1-.15-.03c-.02-.02-.08-.03-.13-.03-.09-.01-.09-.01-.13.03-.06.05-.11.16-.14.32-.04.16-.11.28-.27.49-.07.08-.11.16-.11.2 0 .02.02.03.07.06.04.01.07.03.07.02.02-.02.13-.2.16-.26.02-.04.05-.08.07-.09.02-.02.05-.05.1-.14l.03-.04c.01-.01.02-.02.02-.04s.01-.03.03-.03c.05-.01.11-.1.11-.16 0-.02.01-.05.02-.05.01-.01.02.08 0 .11-.02.04-.11.13-.13.12-.01-.01-.02 0-.02.02 0 .01-.01.03-.02.04-.01.01-.02.02-.02.03 0 .01-.01.03-.03.05-.02.02-.03.04-.03.05 0 .01-.01.03-.03.04-.02.01-.05.04-.07.07l-.03.06s-.04.06-.08.13c-.06.1-.07.12-.09.1a.378.378 0 0 0-.08-.05c-.03-.01-.06-.03-.06-.04 0-.02.07-.17.09-.17 0 0 .04-.05.07-.1l.1-.13c.03-.05.09-.17.11-.28.01-.05.03-.1.04-.13.06-.15.08-.19.12-.23.04-.04.04-.04.13-.04.05.01.11.02.14.04.03.02.09.03.15.04.11.02.14.04.18.13l.04.073c.02.03.1.22.12.29.01.03.06.16.1.28.04.12.08.23.08.24 0 .03.06.19.09.23.03.04.1.2.1.23s.03.1.09.17c.03.03.06.08.06.1.01.01.02.04.03.05.02.02.04.11.03.12-.01.01 0 .04.01.08l.04.16c.01.05.03.09.04.09s.01.02.01.03c0 .03.09.21.11.21 0 0 .01.01.01.02s.01.03.03.04c.03.03.04.05.1.16.01.03.09.12.16.19.07.08.14.15.14.16 0 .01.02.04.04.06.03.03.04.04.05.03.006-.01.01.01.02.05 0 .04.02.08.03.1l.04.09c.04.09.1.18.13.19.01 0 .03.03.04.063.006.03.02.05.02.05s.01.01.01.02.02.04.05.07c.03.04.05.08.067.13.01.04.03.08.04.1.02.01.03.03.03.04l.04.07c.02.03.04.07.04.09 0 .016.01.046.02.07.04.06.05.08.08.15.02.04.06.1.11.14a.3.3 0 0 1 .07.09c0 .01.03.04.07.08.04.03.08.07.09.08.01.01.03.04.05.05.02.01.05.04.07.06.01.02.04.04.05.04.01 0 .02.01.02.01l.02.02c.01 0 .06.03.1.05l.13.07c.03.01.09.05.12.09.04.04.077.06.09.06.027 0 .1.05.31.2.02.02.06.03.078.04.03.01.22.18.25.24s.16.22.17.22c.01 0 .01.02.02.04 0 .03.01.04.02.04.02 0 .03.05.01.06-.02.03-.05.03-.06 0zm.05-.03c0-.01-.007-.015-.014-.015 0 0-.01.01-.01.03s.01.02.02.02c.01-.01.02-.02.02-.03zm-.04-.035c0-.02-.015-.05-.033-.07-.018-.02-.033-.04-.033-.05s-.03-.05-.07-.09l-.07-.09c0-.03-.21-.21-.24-.22-.02-.01-.08-.04-.14-.08-.14-.1-.19-.13-.25-.15a.256.256 0 0 1-.11-.08.355.355 0 0 0-.12-.08c-.15-.06-.28-.14-.33-.19a.443.443 0 0 0-.09-.07c-.02-.01-.04-.02-.04-.03 0-.02-.13-.14-.16-.14-.01 0-.02-.01-.02-.03 0-.02-.03-.06-.08-.11s-.09-.1-.12-.16c-.02-.04-.05-.09-.07-.1a.336.336 0 0 1-.04-.1.766.766 0 0 0-.07-.17c-.03-.05-.05-.12-.06-.15s-.03-.07-.08-.12c-.06-.06-.07-.08-.08-.13-.01-.04-.02-.06-.04-.07-.03-.01-.09-.11-.14-.21-.05-.1-.06-.11-.06-.02 0 .04 0 .07.01.07s.12.18.17.26c.06.11.14.29.16.37.03.09.05.12.07.15.03.02.13.19.17.27.02.03.04.06.05.07.01.01.02.03.02.04 0 .01.01.02.03.02.01 0 .03.02.04.05.01.02.02.04.03.04 0 0 .02.02.04.06l.04.06c.01 0 .04.02.07.06.08.07.15.12.22.14.03.01.06.03.07.04l.05.05c.02.02.04.03.06.03s.04.01.05.02c.02.03.07.04.18.08.03.01.07.03.09.05.05.06.07.07.12.09.05.02.11.08.13.13.01.03.02.04.05.04.03 0 .05.01.07.02.01.02.02.03.03.03 0 0 .03.02.07.04.04.03.05.05.05.08 0 .02.01.04.03.05.04.02.17.15.17.17 0 .02.07.09.09.09.01 0 .02-.01.02-.03zm-3.31-4.12c-.004-.06-.033-.11-.06-.11-.015 0-.016.01-.005.04.008.02.017.06.02.08.006.02.014.03.03.03.015 0 .02-.01.016-.05zm-.252-.52c0-.03-.007-.03-.025-.03-.037 0-.045.02-.02.05.028.03.045.02.045-.02zm-.145-.36c-.016-.03-.016-.03-.045-.02-.027.01-.026.03 0 .07.023.02.024.02.04 0 .015-.02.016-.04.005-.06zm-.132-.26c0-.01-.006-.02-.013-.02-.007 0-.013.01-.013.02s.006.02.013.02c.007-.01.013-.02.013-.03zm-.072-.22c.01-.02-.015-.07-.03-.07-.005 0-.02 0-.03.01-.014.01-.015.01-.004.02.01 0 .017.01.017.02 0 .02.034.02.046 0zM1.11 6.4c.005-.03.05-.04.05-.01 0 .01-.01.023-.022.027-.03.012-.034.01-.03-.015zm-.63-.03c-.066-.03-.116-.08-.11-.106.004-.02.018-.026.063-.03a.203.203 0 0 0 .084-.022c.015-.01.04-.015.057-.01.023.005.03 0 .03-.016 0-.022.025-.01.105.055 0 .01-.01.02-.01.02-.01.01-.02.03-.02.05 0 .07-.13.11-.21.07zm.178-.063c0-.017.007-.037.015-.046.045-.04-.1-.06-.178-.02l-.036.02.05.01c.05.01.09.04.09.08 0 .02 0 .03.02.01.01-.01.02-.03.02-.04zm-.178.03a.029.029 0 0 0-.022-.012c-.007 0-.01.006-.005.013.005.007.014.013.022.013.007 0 .01 0 .005-.01zm.085-.017c-.02-.02-.092-.04-.092-.027 0 .018.047.044.08.044.027 0 .03-.002.012-.017zm-.128-.07a.047.047 0 0 0-.033 0c-.01.004-.002.007.016.007.018 0 .026-.003.017-.007zm.374.09c-.01-.015 0-.03.02-.03s.03.006.03.013c0 .015-.03.03-.04.018zm10.65-.155a.24.24 0 0 0-.09-.018c-.05 0-.05-.002-.04-.037.01-.02.02-.058.02-.086l.02-.05c.03 0 .17.16.17.183 0 .028-.02.03-.07.01zm-.01-.093l-.07-.075-.01.042c0 .02-.01.04-.02.04 0 0-.01.01-.01.02s.02.02.05.02c.03 0 .07.01.09.01.07.02.06 0-.02-.08zM.79 6.127c-.006-.007 0-.017.01-.022.03-.01.038 0 .015.02-.012.01-.02.012-.027.002zm-.495-.04c0-.01.006-.01.014-.007 0 .005.01.01.01.014 0 .003-.01.006-.02.006s-.01-.006-.01-.014zm.4 0c0-.01.01-.015.016-.015s.02.007.02.014c0 .008-.01.014-.02.014s-.02-.007-.02-.014zM11.23 6.06c0-.03-.01-.04-.037-.05-.02-.01-.04-.02-.045-.03-.013-.02 0-.05.023-.05.01 0 .02-.01.02-.02 0-.016 0-.02-.01-.006a.057.057 0 0 1-.04.015c-.01 0-.03 0-.03.01s-.03.02-.09.01c-.09 0-.27.02-.3.03-.02.01-.08-.01-.09-.04-.01-.04.01-.06.07-.08.05-.02.13-.05.26-.12l.04-.01.07.03c.08.03.12.07.12.1 0 .01.01.02.02.01.01 0 .03.02.05.06.03.08.03.16-.01.17-.02.01-.03 0-.03-.03zm.013-.12c-.027-.06-.03-.06-.032.018 0 .026.01.043.02.043s.02.01.02.03c0 .04.02.05.03.01.01-.02 0-.06-.02-.09zm-.473 0c.04-.02.082-.03.095-.01.016.028.048.02.048-.01 0-.013.016-.03.038-.04.02-.01.04-.03.04-.048.01-.04.03-.037.04.004.01.037-.01.074-.04.074-.01 0-.02.005-.02.01 0 .02.1.027.12.01.01-.01.04-.02.06-.025.07-.02.04-.074-.07-.12-.05-.022-.06-.023-.1-.01-.02.01-.06.026-.07.036-.02.02-.17.08-.22.09-.02.01-.03.02-.03.03 0 .06.07.07.14.02zm.412.03c.004-.003 0-.01-.007-.01s-.013.007-.013.014 0 .014.004.014.01-.006.014-.014zm.37.06c-.04-.04-.074-.07-.074-.08 0-.012.05 0 .076.02a.09.09 0 0 0 .06.03c.028 0 .037.01.044.04.01.04 0 .066-.02.066a.451.451 0 0 1-.084-.07zm.094.027c-.003-.012-.017-.024-.033-.026-.032 0-.04.01-.013.04.023.03.052.02.047 0zm-.252-.066c-.04-.04-.043-.07-.01-.07.03 0 .07.05.07.08 0 .04-.017.03-.058-.01zm.02-.03a.097.097 0 0 0-.023-.02c-.01.01.01.05.02.05s.01-.01 0-.03zm-10.87.03c0-.01.01-.02.025-.02.01 0 .02.01.01.02 0 .01-.01.02-.02.02S.54 6 .54 5.99zm.236 0s.006-.01.014-.01c.007 0 .013.01.013.02H.792c-.007 0-.014 0-.014-.01zm-.55-.02c-.014-.02.004-.03.02-.01.01.01.01.02 0 .03-.007.01-.016 0-.02 0zm11.132-.21c-.01-.01-.02-.05-.02-.09 0-.06.002-.06.067-.09.03-.01.08-.04.1-.06.02-.02.05-.03.07-.04.02 0 .04-.02.06-.03.01-.01.03-.02.04-.02 0 0 .03-.02.05-.05.04-.05.04-.05.07-.02.04.04.04.07.02.11-.03.05-.11.13-.14.14-.02.01-.03.02-.03.03 0 .03-.05.07-.12.11-.04.02-.08.05-.09.05-.02.02-.07.01-.09-.02zm.12-.07c.043-.04.04-.05-.02-.03-.04.01-.054.02-.06.05-.01.07.01.07.08-.01zm.133-.03c.017-.02.03-.04.03-.05 0-.01.01-.02.026-.02.03-.01.16-.15.16-.16l-.02-.04-.02-.03-.05.06a.21.21 0 0 1-.11.08c-.03.01-.07.03-.08.04-.01.01-.02.03-.03.03s-.03.01-.03.02-.03.03-.06.04c-.04.01-.04.02-.04.06 0 .04.01.04.02.03.01-.01.01-.03.01-.04 0-.02.02-.03.05-.03l.1-.02c.06-.01.07.01.03.03-.01.01-.02.03-.02.04 0 .01-.01.02-.02.04-.02.02-.02.02.03-.01.03-.02.06-.04.08-.06zM9.68 5.61c-.024-.016-.067-.022-.182-.023-.115 0-.153-.006-.162-.02-.01-.017-.018-.016-.057.006-.06.03-.08.02-.08-.03 0-.033 0-.04.06-.054.03-.01.06-.02.07-.01.01 0 .03 0 .05-.01.03-.01.05-.01.11.02.06.02.09.03.19.03.09 0 .13 0 .15.02.03.02.04.07.02.07h-.09c-.05 0-.08 0-.1-.02zm.184-.012c.004-.002-.01-.017-.026-.03-.027-.02-.056-.026-.154-.026a.426.426 0 0 1-.183-.027c-.03-.017-.06-.027-.06-.024 0 .01 0 .02.01.04.01.03.02.04.09.04.05.01.1.01.11.01.02 0 .04 0 .05.02.02.02.04.03.1.02.04 0 .08-.01.08-.01zm-.604-.03c.003-.007.028-.015.056-.018a.15.15 0 0 0 .08-.032l.026-.027-.072.01c-.097 0-.12.01-.12.05 0 .03.02.05.03.02zM.315 5.57c0-.007.006-.013.013-.013.007 0 .013 0 .013.01s0 .01-.01.01-.01-.007-.01-.014zm8.202-.05a.475.475 0 0 0-.06-.055c-.038-.03-.057-.055-.057-.075 0-.03.005-.03.082-.03.107 0 .17.02.17.06 0 .017-.01.03-.027.035-.018.005-.027.018-.027.04 0 .03-.006.036-.038.036-.022 0-.04 0-.043-.01zm.067-.04c0-.02-.005-.027-.01-.015a.117.117 0 0 1-.02.036c-.01.02-.006.02.01.02.014 0 .02-.01.02-.04zm-.04-.03c0-.02-.008-.025-.04-.025-.04 0-.04 0-.018.026.013.02.032.03.042.03.01 0 .017-.01.017-.02zm.073-.02c.02-.008.02-.01-.002-.026-.037-.028-.06-.024-.04.008.01.015.017.027.02.027l.022-.01zm-.126-.04c.02.003.03 0 .03-.006-.01-.02-.1-.015-.1.006 0 .03.02.036.04.013.01-.014.03-.02.05-.014zM.05 5.5c-.01-.013-.01-.02 0-.02.007 0 .017.006.02.013.012.018.034.017.034 0 0-.01.02-.047.047-.086.06-.082.11-.106.21-.094.06.007.07.003.1-.032.04-.04.08-.04.11-.01s.08.03.07 0c-.01-.02.1-.02.16 0 .03.01.05.02.05.01 0 0 .02-.02.05-.03.02-.01.05-.03.06-.04.02-.01.06-.02.15-.02h.14c.01 0 .02-.01.01-.03 0-.02 0-.03.02-.01.02.02.03.02.05-.01.04-.03.06-.04.13-.03.05.01.14 0 .19-.03.02-.01.05-.02.12-.02.07 0 .12-.02.12-.05 0-.01.01-.02.02-.02.02 0 .03.01.03.03s.01.03.03.03c.01 0 .03-.01.03-.02s.01-.02.02-.02c.03 0 .03-.04-.01-.05a.309.309 0 0 0-.11-.02c-.07-.01-.09-.01-.14.02-.04.03-.08.03-.26.03-.24.01-.29.01-.43.05-.08.02-.14.03-.32.03-.12 0-.27.01-.33.01a.81.81 0 0 1-.22 0l-.11-.01H.2c.07 0 .28 0 .47-.01.26-.01.354-.02.44-.04.08-.02.154-.03.333-.03.204 0 .24 0 .29-.03.055-.02.07-.02.16-.01s.15.04.15.07c0 .01-.02.03-.04.05-.03.03-.05.03-.09.03-.03-.01-.06 0-.09.01-.026.02-.043.02-.06.01-.02-.01-.035 0-.063.01-.02.01-.04.02-.04.01s0 0-.01.01c-.02.03-.23.07-.25.05 0-.01-.04 0-.06.02-.03.04-.102.06-.22.06-.06 0-.12 0-.122.01-.005.01-.03.02-.06.04s-.057.03-.06.04c-.01.01-.04 0-.08-.01-.063-.02-.07-.02-.09 0-.03.03-.083.03-.117.01-.04-.03-.05-.03-.1.02-.03.04-.04.04-.1.03-.09-.01-.14.01-.2.09a.19.19 0 0 0-.05.08c0 .03-.04.02-.06 0zm-.01-.324c0-.02.01-.026.053-.026.042 0 .053.005.053.024 0 .018-.01.024-.052.025-.044 0-.052-.01-.052-.03zm11.894.003c-.02-.02-.036-.04-.036-.05 0-.03.133-.19.18-.21.058-.03.36-.37.4-.45.04-.08.126-.17.174-.18.118-.03.156-.04.21-.04.033 0 .09-.01.125-.02s.105-.02.154-.02c.08 0 .1 0 .12.03.03.02.04.04.04.09 0 .06-.03.13-.05.1 0-.01-.02-.02-.03-.02-.01 0-.03-.01-.03-.02s-.01-.01-.02 0-.04.01-.1-.01c-.07-.02-.08-.02-.11 0-.02.01-.04.02-.06.02-.04 0-.17.09-.18.12 0 .01-.01.02-.02.02s-.04.02-.07.04l-.06.04s-.02.01-.03.02c-.12.11-.14.14-.15.16 0 .01-.01.03-.02.04-.05.02-.09.07-.09.11 0 .03-.01.04-.03.04-.03 0-.1.06-.1.09 0 .01-.01.02-.03.02-.01 0-.03.01-.04.02-.02.02-.06.02-.11-.01zm.095-.01c.01-.01.02-.02.03-.02s.02-.02.04-.05a.12.12 0 0 1 .07-.07c.03-.01.05-.03.05-.04 0-.01.01-.04.03-.06.01-.02.03-.05.03-.05 0-.01.01-.03.03-.05.02-.02.05-.05.06-.07.03-.03.14-.13.14-.13.01 0 .15-.1.16-.12.02-.04.13-.1.22-.13.06-.02.08-.02.14-.01.04.01.08.01.1.01.02-.01.05 0 .07.01l.04.02v-.07c0-.06-.01-.08-.03-.1-.03-.03-.04-.03-.12-.02-.05 0-.12.01-.16.02-.04 0-.13.02-.18.02-.17.02-.23.06-.3.2-.04.08-.31.38-.39.43-.06.04-.19.18-.19.21 0 .01.06.05.08.05.01 0 .02-.01.03-.02zM12 5.08c0-.018.028-.035.055-.035.007 0 .012.012.012.026 0 .02-.01.03-.033.03-.02 0-.033-.01-.033-.02zm.558-.533c-.01-.003-.016-.02-.016-.034 0-.026.002-.026.02-.007.025.024.022.05-.004.04zm.05-.1c0-.02.01-.04.023-.047.02-.007.03-.024.03-.037 0-.032.06-.04.07-.01.01.02 0 .03-.08.103-.03.025-.03.025-.03-.01zm-12.16.686c0-.052.02-.082.064-.093.037-.01.08.022.08.058 0 .016-.015.025-.045.03-.025.006-.052.018-.06.03-.027.03-.04.022-.04-.025zm.073-.025c.06-.02.06-.037.01-.037-.02 0-.04.01-.05.03-.01.03-.01.03.05.01zm.33.048c-.01-.02-.03-.02-.11.002-.03.01-.03-.034 0-.088.03-.043.04-.048.08-.02l.05.046c.03.027.04.08.02.08 0 0-.02-.01-.03-.02zm-.05-.04c.03-.008.03-.012.02-.027-.02-.02-.06-.03-.06-.02l-.01.02c-.01.02 0 .02.05.01zm6.92.03c-.03-.038-.04-.134-.01-.146.04-.013.11-.01.12.005.01.007.02.013.04.013.04 0 .06.033.03.064-.01.013-.02.03-.02.04 0 .017-.07.054-.1.054a.08.08 0 0 1-.05-.03zm.11.002c.02-.01.04-.026.04-.04 0-.013.01-.024.01-.024s.02-.01.02-.023-.01-.02-.06-.04c-.08-.02-.11-.01-.12.03 0 .02 0 .05.01.06.01.02.01.02.04-.02.02-.03.04-.04.06-.04.04.01.04.06 0 .09s-.02.04.03.02zm-.05-.02c.01-.006.03-.02.04-.034.02-.02.02-.023-.01-.023-.01 0-.03.02-.04.04-.01.04-.01.04.02.03zm-6.37-.09c0-.01.01-.03.03-.048.03-.027.03-.028.04-.01.02.03.02.045-.02.06-.04.012-.04.012-.04 0zm12.09-.162c-.03-.023 0-.19.03-.187.02 0 .06.03.06.04 0 .01.01.03.03.04.03.03.03.03 0 .07-.03.03-.08.04-.11.02zm.09-.02c.02-.02.02-.06-.01-.107-.03-.06-.05-.06-.06 0-.02.08.03.16.08.1zm-.06-.075c0-.01.01-.02.02-.02s.02.01.02.03-.01.03-.02.03-.02-.01-.02-.02zm-6.76.08a.107.107 0 0 0-.06-.02c-.02 0-.05-.01-.06-.02-.01-.01-.02-.02-.03-.02-.01 0-.02-.01-.03-.03-.02-.02-.04-.03-.09-.04a.29.29 0 0 1-.11-.03.076.076 0 0 0-.04-.02c0 .01-.06 0-.13-.01-.11-.02-.13-.03-.14-.06 0 0-.04-.01-.09-.01-.05 0-.08-.01-.09-.02 0-.01-.02-.01-.08-.01-.06.01-.08.01-.08-.01 0-.01-.01-.02-.03-.02-.02 0-.05-.01-.08-.02-.02 0-.04-.01-.04-.02 0 0-.01-.01-.02-.01s-.02-.01-.03-.02c-.01-.01-.04-.02-.08-.02-.03 0-.07 0-.08-.02-.02-.01-.05-.02-.09-.02s-.08-.01-.12-.02c-.12-.04-.55 0-.64.06-.04.03-.18.06-.29.07-.22.02-.24.03-.43.14-.09.06-.1.06-.15.04-.05-.01-.06-.01-.07.01-.02.03-.06.03-.06 0 0-.01-.01-.02-.01-.02s-.01-.01-.01-.03c.01-.02.03-.04.11-.07l.17-.07c.12-.05.14-.06.24-.06.06 0 .11-.01.15-.02.04-.01.1-.03.13-.03.04 0 .14-.03.22-.06l.16-.05h.27c.28 0 .33.01.46.07.03.02.08.03.12.03.04 0 .1.01.13.02.04.02.1.03.15.04.14.03.25.06.27.07.07.04.25.12.3.14.03.01.1.02.15.03.06.01.11.03.13.04.02.02.04.03.06.03.09 0 .24.12.21.17-.02.03-.09.03-.11.01zm.09 0c.02-.01.01-.02-.02-.06-.04-.05-.07-.07-.17-.09-.03 0-.06-.02-.08-.03-.01-.01-.05-.02-.08-.03a.787.787 0 0 1-.3-.08.594.594 0 0 0-.12-.05c-.01 0-.02 0-.03-.01-.01-.02-.22-.08-.29-.09-.03 0-.07-.02-.09-.03a.783.783 0 0 0-.14-.03l-.14-.02c-.02-.01-.02-.01-.01.01.03.03.02.04-.02.04H5.3l.03.03c.026.03.044.03.11.02.06 0 .07 0 .07.02 0 .03.035.03.045 0 0-.01.01-.02.02-.02.02 0 .017.04-.003.04-.01.01-.01.02-.01.02.01.01.03.02.06.01.04 0 .058 0 .058.01s.01.02.02.02.024.01.03.02c.006.02.02.02.066.02.03-.01.065 0 .07 0 .01.01.06.02.11.02.088.01.1.02.107.04.006.03.033.04.24.05.02.01.053.01.074.02.02.01.046.02.05.01.01 0 .02 0 .03.02.01.01.03.02.046.02s.04.01.056.03c.02.03.03.03.03.01.01-.01.02-.02.06-.01.05.01.09.04.08.07-.01.02.04.06.07.06.01 0 .02 0 .03-.01zm-.15-.04s-.01-.01-.03-.01c-.02 0-.03 0-.02.01.02.02.05.03.05.01zm-3.2-.17c0-.01 0-.03.02-.04.02-.02.02-.02.01-.02-.03 0-.05.02-.04.06l.02.04c.01 0 .01-.01.01-.02zm.29-.08l.04-.02c.01 0 .03-.01.04-.02l.03-.02-.05.01c-.03.01-.05.01-.06.02 0 .01-.04.02-.08.03-.04.01-.09.03-.13.05l-.06.03.06.01c.03.01.06.01.07.02.01.01.12-.05.16-.08zm.01-.08c.07-.02.12-.02.12.01s.01.03.03.02l.1-.02c.23-.02.29-.03.36-.05.04-.01.08-.03.09-.03.01 0 .05-.01.09-.02.04 0 .1-.01.12-.02.03-.01.12-.01.22-.02.21 0 .24 0 .26-.02.01-.01.03-.01.03-.01.04 0 .02-.02-.01-.03-.02 0-.15-.01-.3-.01-.21 0-.27.01-.31.02-.07.03-.22.07-.33.09-.05.01-.1.03-.11.03-.01.01-.07.02-.14.03-.13.01-.2.03-.25.07-.03.03-.03.03.07-.01zm1.51-.14s-.01-.01-.03-.02l-.05-.01c-.02-.01-.04.01-.04.03 0 .01.03.01.07.01.04 0 .07 0 .07-.01zm8.32.01c-.03 0-.04-.02-.03-.09.01-.03.01-.04.03-.04.01 0 .06-.01.11-.04.07-.03.13-.08.26-.21.2-.19.24-.22.29-.2.04.02.04.05.01.12-.01.03-.03.06-.03.07 0 .02-.08.08-.1.08-.01 0-.02.03-.04.06-.02.05-.03.06-.05.06-.02 0-.03.01-.04.03 0 .01-.04.06-.08.1-.06.06-.09.07-.12.07-.02 0-.06.01-.09.01-.02.01-.06.01-.08.01zm.09-.05c.06-.02.05-.05-.01-.03-.06.01-.06.01-.05.04.01.03.02.03.07 0zm.2-.05c.04-.04.08-.09.09-.1.01-.01.03-.03.05-.03.02 0 .04-.01.05-.05.01-.03.03-.05.04-.05.03 0 .09-.05.11-.11.04-.07.04-.1.01-.11-.03-.01-.08.03-.24.19-.17.17-.24.23-.32.25-.07.02-.07.05 0 .04.15-.02.16-.02.16 0 0 .01-.01.03-.03.04-.06.02-.06.04 0 .04.04 0 .06-.01.12-.08zm.4-.61c0-.03.06-.08.08-.07.02.01.02.07 0 .09-.01.01-.03.02-.05.02-.02 0-.03-.01-.03-.03zm.07-.01c.02-.03.02-.04 0-.04s-.05.04-.04.06c.01.02.03.02.05-.01zm.79-.66h.03c.01.01 0 .01-.02.01s-.02-.01-.01-.01zm-.07-.18c-.01-.01-.01-.03 0-.03.01-.01.02.01.01.03 0 .02 0 .02-.01 0z" stroke="#000" stroke-width=".05"/><path d="M501.085 511.444c0 18.323-16.392 33.177-36.61 33.177-20.22 0-36.612-14.85-36.612-33.17s16.39-33.17 36.61-33.17 36.612 14.86 36.612 33.18z" transform="matrix(.0358 0 0 .04175 5.763 -9.263)" stroke="red" stroke-width="7.76" stroke-linecap="round" stroke-linejoin="bevel" fill="none"/><path d="M501.247 511.444c0 18.323-16.464 33.177-36.773 33.177-20.31 0-36.774-14.85-36.774-33.17s16.464-33.17 36.774-33.17c20.31 0 36.773 14.86 36.773 33.18z" transform="matrix(.02065 0 0 .0241 12.796 -.276)" stroke="red" stroke-width="13.445" stroke-linecap="round" stroke-linejoin="bevel" fill="none"/></svg>