<svg xmlns="http://www.w3.org/2000/svg" width="1620.83" height="720.92" viewBox="0 0 1519.53 675.86"><path d="M1.38 595.85c.75 0 2.78-.28 4.5-.62L9 594.6l.24-45.12.24-45.13.27 44.75c.15 24.6.4 44.75.55 44.75.15 0 5.54-1.52 12-3.37L34 587.1V609c0 16.67.3 22.03 1.26 22.4.7.26 6.63-1.33 13.2-3.53 13.6-4.57 14.18-4.65 16.8-2.28 1.82 1.6 1.98 1.6 3.2 0 .7-1 2.14-1.8 3.2-1.8 1.08 0 5.08-1.1 8.9-2.4 5.33-1.8 6.94-2.8 6.94-4.3s1.85-2.6 8.5-4.9l8.5-3 52-.2 52-.3 3.5 6.1c12.3 21.4 38.65 46.3 61.55 58.1l5.04 2.6h514.6c454.6 0 515.9-.2 526.2-1.5 58-7.6 112.1-34.7 160.4-80.2 14.2-13.5 29.1-29.6 35.7-38.9 4.6-6.4 4.6-6.5 2.8-9.2-4.7-7.2-19.6-24.1-32.1-36.3-51.2-50-109-78.7-172.9-85.9-5.6-.7-52.9-1.1-125.5-1.1-64.1 0-152.4-.3-196.3-.7l-79.8-.7v-16.6h4.8c14.4 0 88.4-3.3 104.7-4.6 43.2-3.6 69.6-8 93.5-15.7 19.4-6.3 31.4-13.5 34-20.5 2.9-7.8-.8-19.4-8.1-25.7-7.9-6.8-67.5-35.3-107.8-51.7l-36.3-14.8-14.2-13.3c-15.4-14.5-19.8-17.2-34.2-21.2l-8-2.2-209.5-.7c-115.3-.4-251.7-.8-303.3-.8l-93.8-.1V230c-.1-14.5-22-40.56-81.2-96.7-12-11.3-34.5-32.9-50-48.05-15.6-15.2-38.7-37.4-51.4-49.5-21.9-20.8-23.5-22.17-32-26.15-5-2.3-13.3-5.35-18.5-6.75C92.1.8 88.7.5 65.2-.1 40.2-.7 39.1-.66 36 1.3c-2.1 1.7-3.2 3.3-3.7 6-.64 3.47 2.1 9.24 40.7 86.56l41.4 82.9 9 9 9.03 9 22.9 9c12.6 5 23.12 9.3 23.4 9.5.47.5-.88 7.7-2.95 15.8-.87 3.4-1.3 3.8-4.2 3.8-1.8 0-13.55-4-26.14-9-12.6-4.9-23.5-9-24.2-9-2 0-11.9 21.1-14.9 31.5-3.1 10.8-5.3 23.5-5.7 32.9-.4 7.8-.7 7.5 9.3 9l4.5.7.2-5.8c.3-9.2 2.8-24 5.6-33.73 2.77-9.5 11.2-28.5 12.65-28.5 1.2 0 1.3-.23-3.5 10.1-7.1 15.2-10.8 28.6-12.2 44.4-.4 3.86-.9 8.4-1.1 10.14-.6 3.6-.2 3.88 7.7 4.86l5.5.7.7-9.37c.4-5.16.9-9.5 1.1-9.8 1.3-1.3 1.4 1.54.7 10.26-.7 7.7-.6 9.6.5 9.6.7 0 4.4 1.56 8.2 3.46 5.4 2.75 10.6 4.2 24.6 6.8l17.8 3.37-4.9 2.86c-6 3.5-6.4 4.1-6.4 8.7 0 3.1-.6 4-3.9 6.3-3.7 2.6-4.1 2.6-7.4 1.2l-3.6-1.4-2 4.7c-4 9.2-6.3 19.6-6.9 30.9-.7 12.8-2.3 15.3-2.3 3.5 0-9.4 2.8-23.4 6.5-32.6 2.2-5.6 2.4-7 1.3-7.7-2.7-1.7-3.6-.8-6.6 6-5.2 11.6-8.2 26-8.2 39v4.4l8.8-.3 8.8-.2 6.9 5.6c10.1 8.1 10.3 8.5 6.3 10.3-1.9.8-17.1 3.1-33.9 5.1-38.5 4.5-36.2 4.1-35.8 7.4l.3 2.6 19 2.7c10.4 1.6 48 5.4 83.5 8.6 63.2 5.6 64.5 5.8 64.8 7.9.2 1.8-1.1 2.9-8 6.5-23 12-43.8 33.9-54.5 57.5l-3.8 8.5-48.5-.3-48.5-.3-34-11C51 476 35.2 471.4 34.6 471.8c-.6.34-1 8.34-1 20.1 0 19.4 0 19.5-2.1 18.83-7-2.3-29.6-8.5-30.6-8.5s-1.3 10.03-1.3 47c0 39.2.2 47 1.3 47zM36.74 3.8c2.67-2.1 3.32-2.15 21.75-1.64 19.7.55 29.8 2.12 44.7 6.9 5.5 1.78 7.7 3.2 12.4 7.98l5.7 5.8H100c-19.96 0-21.5.14-24.22 2.1-1.6 1.13-2.67 2.48-2.35 3 .33.54-5.85.9-15.28.9H42.4l-4.17-8.24C33.2 10.62 32.85 6.87 36.7 3.8zM38 623.98c.84 1.42 3.57.6 22.36-6.62 11.78-4.53 21.9-8.55 22.53-8.93 1.6-1 1.3-10.72-.5-13.02-1.5-1.9-1.9-1.8-22.8 2.8-11.7 2.6-21.6 4.7-22 4.7-1 0-1-103 0-103 .4 0 10.3 2.1 22 4.7 20.7 4.6 21.3 4.7 22.7 2.8.8-1.1 1.4-4.2 1.4-7.4v-5.5L61.5 486c-19.6-7.52-22.4-8.35-23.5-7-1.07 1.3-1.26 1.07-1.26-1.64 0-1.75.1-3.2.26-3.16.2 0 15.1 4.6 33.3 10.3l33 10.22.3 56.5.24 56.44L80.6 615c-12.8 4.1-27.87 8.9-33.5 10.7l-10.1 3 .02-3.16c.02-2.44.24-2.8.98-1.52zm-.08-13.63c.7 1.83.35 5.5-.54 5.5-.2 0-.35-1.68-.3-3.74.04-2.8.25-3.2.84-1.7zm-.54-124.5c.85 0 1.22 4.77.52 6.58-.54 1.37-.78.7-.83-2.32-.04-2.3.1-4.2.3-4.2zM59 600.98c10.18-2.28 18.95-4.1 19.5-4.08.83.03-36.3 13.95-37.26 13.95-.73 0-1.97-4.56-1.4-5.12.37-.35 8.98-2.5 19.16-4.77zm-16.73-108.5c2.1.17 36.76 12.7 36.32 13.12-.3.3-34.9-7.15-38.4-8.27-1.8-.57.1-5 2-4.86zm18.2 114.28c10.44-3.8 19.33-6.9 19.76-6.9.42 0 .77 1.5.77 3.35v3.4l-13.25 5.1c-7.3 2.8-16.3 6.3-20.06 7.7l-6.9 2.6.3-4.1.3-4.1 18.9-6.9zm-14.8 10.12C48.4 616.92 75 606.33 75 605.2c0-.75-.16-1.35-.36-1.35-1.8 0-29.15 11.05-29.44 11.9-.2.6 0 1.1.47 1.12zm-2.92-135.54c.96.38 9.18 3.53 18.25 7 9.07 3.48 17.3 6.65 18.25 7.03 1.2.48 1.75 1.8 1.75 4.1 0 1.87-.2 3.4-.4 3.4-.42 0-34.43-12.15-37.85-13.52-1.26-.5-1.75-1.83-1.75-4.7 0-3.4.26-3.9 1.75-3.3zM60 493.27c8.25 3.25 15.3 5.6 15.68 5.23.38-.37.27-1.06-.25-1.52-.88-.78-28.87-12.13-29.93-12.13-.28 0-.5.57-.5 1.25 0 .7 6.76 3.9 15 7.17zm-.25-462.4H75.5l26.36 38.55c14.5 21.2 26.2 38.67 26 38.82-3.73 2.82-33.22 22.62-33.7 22.62-.65 0-50-97.74-50.1-99.25-.03-.4 7.03-.7 15.7-.7zm20.22 586.8c3-1.02 5.04-1.46 4.5-.97-1.14 1.04-10.33 4.2-11.9 4.07-1.2-.08-.34-.45 7.4-3.1zm28.28-592.8h15.25L207 111.9c45.92 47.85 85.4 89.3 87.75 92.06 4.5 5.33 5.5 9.8 3 13.17-1.17 1.57-1.9 1.55-10.75-.3-8.17-1.73-18.85-2.94-49.5-5.64l-6-.6-69.2-92.6c-38.1-51-69.25-92.8-69.27-92.9-.02-.2 6.82-.3 15.2-.3zm3 96.9c8.94-6.15 16.78-11.24 17.42-11.3.64-.07 7.34 8.88 14.87 19.88 7.54 11 16.52 24.1 19.96 29.08 6.05 8.77 6.2 9.16 4.6 11.28-1.54 2.1-3.22 2.4-26.12 4.1-13.47 1.1-24.83 1.7-25.27 1.4-.7-.5-21.5-41.2-21.6-42.5 0-.4 7.3-5.7 16.2-11.9zm24.92 271.3c18.8-2.34 34.7-4.7 35.35-5.24.8-.66.53 2.38-.82 9.27-1.1 5.64-2.08 10.36-2.17 10.5-.4.57-32.65-2.9-48.37-5.2-9.54-1.4-17.53-2.55-17.75-2.55-.2 0-.4-.57-.4-1.27 0-.92 9.5-2.44 34.2-5.5zM597 548.85c326 0 490 .34 490 1s-164 1-490 1-490-.33-490-1 164-1 490-1zm-487.36-287c.84-5.22 3.03-14.07 4.88-19.66 3.7-11.2 10.1-24.7 11.33-24 .44.2-.93 4-3.04 8.3-7.1 14.6-11.6 31.8-13.3 51.5-.3 4.2-1.1 7.7-1.6 7.7-1.1 0-.4-10 1.9-24zm13.86 292H137v53h-27v-53h13.5zm0-59H137v51h-27v-51h13.5zm-7.12-435c.2 0 1 .8 1.75 1.75 1.24 1.6 1.2 1.62-.38.38-1.67-1.3-2.2-2.13-1.37-2.13zm3.54 4.55c.5.52 25.28 33.58 55.05 73.45l54.14 72.5-23.5.27c-16.3.2-23.5.6-23.5 1.37 0 .7-.4.7-1.2.1-.7-.5-11.4-4.9-23.9-9.8l-22.6-8.9-6.3-6.4-6.3-6.4H178l7.6-4.7c4.2-2.6 7.62-5.2 7.62-5.8 0-.6-16.62-24.7-36.94-53.6-20.34-28.9-37-52.7-37-53-.04-.3.35-.1.86.5zm4.63 202.32c.78-4.75 2.6-12.4 4.05-17 3-9.56 10.9-25.87 12.5-25.87.58 0 .9.34.72.75-.18.4-1.96 3.9-3.95 7.75-7.1 13.75-11.83 30.93-13.42 48.75-.38 4.26-1.12 7.75-1.65 7.75-1.1 0-.38-9.1 1.75-22.13zm7.84.13c.2 0 .6.68.9 1.5.3.83.1 1.5-.4 1.5s-1-.67-1-1.5.1-1.5.4-1.5zm4.4-8.52l4.8.66 6.2-7.1 6.2-7.1h27.5l.6 11.2c1 17.6.8 38.7-.4 38.7-1.4 0-35.4-5.1-35.6-5.3-.1-.1-1.2-4.4-2.4-9.5-1.9-7.6-2.6-9.3-4.2-9.3-2.1 0-2.6-1.5-.9-2.5 1.5-1 1.2-6.2-.6-8-2-2-2.4-2-4.6.1-1.7 1.5-1.8 1.5-1.8-.6s.3-2.2 4.8-1.6zm6.2 11.77c2.2 3.87 6.9 1.34 6.9-3.75 0-1.7-.6-3.64-1.2-4.3-4.1-4.04-8.9 2.7-5.8 8.05zm10.4 2.13c.9.9 2 1.62 2.5 1.62 3.8 0 5.1-8.24 1.7-10.4-4.1-2.56-7.9 5.17-4.3 8.78zm9.7 1.42c2.8 2.84 6.8.56 6.8-3.93 0-2.62-2.2-5.87-4-5.87-3.3 0-5.4 7.27-2.8 9.8zm10.7 2.18c2.3 2.36 4.8 1.7 6-1.6 1.1-2.84-.2-6.85-2.5-7.72-2-.7-5.6 2.7-5.6 5.4 0 1.1.9 2.9 1.9 4zM137 249.26c2.6-7.64 9.93-22.4 11.1-22.4 1.3 0 1.3.04-3.6 10.13-2.5 5.1-5.28 11.6-6.2 14.5-.9 2.9-2.02 5-2.5 4.7-1.04-.7-1.13-.2 1.2-7zm2.73 317.28c.17 7.26.17 19.4 0 27-.17 7.6-.3 1.66-.3-13.2s.13-21.05.3-13.8zm0-58.44c.17 7.02.17 18.5 0 25.5-.17 7.02-.3 1.28-.3-12.75s.13-19.76.3-12.75zm.3-230.14c.07-3.34.15-3.43 1.04-1.2 1.15 2.9.07 14.1-1.36 14.1-.6 0-.7-1.78-.3-4.65.4-2.5.7-6.2.7-8.2zm12.45 275.9h9.5v53h-19v-53h9.5zm0-59h9.5v51h-19v-51h9.5zm-.98-255.75c2.5-5.1 4.93-9 5.42-8.7.9.6-7.38 18.1-9.03 19.1-1.7 1-1-.7 3.6-10.3zm4.9 104.7c1.7-7.9 5.45-18.1 6.46-17.5.4.3-.5 4.2-2.03 8.8-2.73 8.2-4.88 21.2-4.88 29.6 0 2.5-.48 4.3-1.15 4.3-1.4 0-.42-15.5 1.6-25zm7.6-109.4c.54-.3 1-.1 1 .4 0 1.6-4.1 8.1-5.12 8.1-1.06 0 2.6-7.5 4.1-8.5zm1.75 332.2c.17 7.3.17 19.4 0 27-.17 7.6-.3 1.7-.3-13.2s.13-21 .3-13.8zm0-58.4c.17 7.1.17 18.5 0 25.5-.17 7.1-.3 1.3-.3-12.7s.13-19.7.3-12.7zM178 553.9h10v53h-20v-53h10zm0-59h10v51h-20v-51h10zm-5.04-100.5c2.7-15.03 14.04-86.74 14.04-88.8 0-.94-.68-1.7-1.5-1.7s-1.5-.45-1.5-1c0-.65 16.17-1 46.5-1H277v35h31v-35l12.75-.07c7-.05 137.4-.17 289.75-.27l277-.18.9-32.25c.48-17.75 1.26-32.26 1.74-32.26.47 0 .86.9.86 2 0 1.8.67 2 7 2 6.72 0 7 .1 7 2.4 0 3.06 1.55 3.6 10.38 3.6 8.34 0 9.62-.83 9.62-6.3v-3.88l8.75.7c10.3.8 21.35 3.4 27.42 6.5 7.7 3.9 7.73 4.2.58 6-5.73 1.4-7.53 1.5-15.37.3-14.88-2.3-13.38-3.1-17.76 10.2-2.1 6.4-3.44 11.9-2.97 12.4.47.4 8.98 3.5 18.92 6.8l18.08 5.9 15.42-5.8c11.87-4.5 15.5-5.5 15.76-4.4.3 1.3-2.14 19.7-3.5 26.5-.46 2.3-.06 3 2.54 4.3 4.44 2.3 21.3 6.6 23.3 6 1.97-.7 3.28-4.3 4.83-13.5.6-3.6 1.57-8 2.15-9.9 1.25-3.9 1.44-3.9 14.32 1.5l8.74 3.6-.6 8.6c-.7 9.4-2.2 15.6-4 17.1-.8.6-6 .3-15.5-1-9.6-1.4-19.8-2-31.1-2-10.5 0-16.8-.4-16.8-1 0-.7-5.6-1-15-1h-15V312c0-2.5 0-2.5-9-2.5-7.3 0-9 .27-9 1.5 0 .9-.9 1.5-2.5 1.5-2 0-2.5.5-2.5 2.5 0 2.1-.4 2.5-3 2.5s-3 .33-3 2.93-.3 2.9-3.7 3.2l-3.7.3v7.5c0 7.42.1 7.5 2.8 7.8 2.8.3 2.8.34 2.8 8.25v7.9h3c2.4 0 3 .44 3 2 0 1.8.7 2 6.5 2h6.5v-3c0-2.66.4-3 3-3 2.5 0 3 .44 3.3 2.74.3 2.3.8 2.8 3.7 3.03 3.3.3 3.3.34 2.7 4.5-.4 2.25-.8 4.25-1 4.42-1.1 1.13-106.6-3.5-183.6-8.1-103.8-6.2-154.1-8.6-179-8.6h-17v-23h-35V352l-21.2 1.3c-29.1 1.74-100.6 9.9-161.2 18.4l-23 3.22-.5 16-.5 16-1.9-3.5c-2.6-4.6-2.7-18.67-.3-24.28 1.2-2.68 1.3-3.77.5-3.76-.6 0-14 1.8-29.7 4s-39.5 5.36-53 7c-13.5 1.6-29.8 3.9-36.2 5-11.4 1.9-25.5 6.5-29.4 9.45-1.8 1.4-1.8 1.5.1 3 3.6 2.7 12.3 4.3 34 6.1 5 .4 8.2.9 7.2 1.1-1.7.4-35.6-2.3-42.9-3.4-2.1-.3-3.8-1.1-3.8-1.7 0-.6.9-6.1 2-12.2zm20.3-58.16c1.1 1.5 3 1.67 15.7 1.4l14.46-.26 5.28-16.5c2.9-9.07 5.28-16.84 5.3-17.25 0-.4-9.45-.76-21-.76h-21v15.8c0 11.13.37 16.33 1.26 17.54zm41.4 7c.37.34 1.95.64 3.5.64 2.58 0 2.84-.32 2.84-3.5 0-3.33-.17-3.5-3.5-3.5-3.18 0-3.5.26-3.5 2.83 0 1.6.3 3.2.67 3.5zm2.84-4.36c.82 0 1.5.68 1.5 1.5s-.68 1.5-1.5 1.5-1.5-.67-1.5-1.5.68-1.5 1.5-1.5zm13 5h7.5v-13h-15v13h7.5zm0-11h5.5v9h-11v-9h5.5zm17.25 10.8l6.75-.3.3-4.25.3-4.26H261v9.1l6.75-.3zm-.25-6.8c5.2 0 5.5.14 5.5 2.5s-.3 2.5-5.5 2.5-5.5-.13-5.5-2.5.3-2.5 5.5-2.5zm405.78 15.56c.7.24 9.6.34 19.75.2l18.47-.3.28-11.74.28-11.77H672v11.54c0 8.46.34 11.67 1.28 12.03zm18.72-21.6h18v20h-36v-20h18zm67.64 27.3c.38.4 5.34.7 11.03.7H781V334.8l-10.75.3-10.75.26-.28 11.05c-.15 6.1.03 11.4.42 11.8zm10.36-21.3h9v20h-18v-20h9zm-575.52-75c5.77 0 13.55-.53 17.3-1.17 5.75-1 7.02-1.6 8.03-3.7.8-1.7 1.2-9.35 1.2-23.5V212.5l16.3.7c17.9.8 36.5 2.75 48.5 5.1 5.5 1.06 11.5 3.37 20.2 7.75 20 10.1 21 11.8 21 35.85 0 13.6-.3 17.84-1.6 20.5-2.9 6.1-8.7 8.57-27.3 11.42-29 4.45-39.2 5.22-76.8 5.76l-37.2.53v-38.2h10.5zm6.52-50h17v22.4c0 19.5-.2 22.47-1.58 23-.87.33-8.52.6-17 .6H184v-46h17zm-9.25 354.7c.17 7.25.17 19.4 0 27-.17 7.6-.3 1.65-.3-13.2s.13-21.06.3-13.8zm0-58.45c.17 7 .17 18.5 0 25.5s-.3 1.3-.3-12.8.13-19.8.3-12.8zM204 553.9h10v53h-20v-53h10zm0-59h10v51h-20v-51h10zm7.48-12.4c8.5-16.67 20.47-30.76 35.52-41.8 7.43-5.47 17.9-11.8 19.48-11.8.45 0 .58 12.6.28 27.96l-.53 28 52.8.25c29.03.1 55.08.1 57.88-.1l5.1-.3v-12.8h-3.9c-3.2 0-10.4-3.6-41.2-20.6-20.5-11.3-38.6-21.4-40.3-22.5-2.9-1.8 4.5-1.8 338.8-1.9H977v66H643.5c-332.83 0-333.5 0-333.5-2 0-1.7-.67-2-5.5-2s-5.5.3-5.5 2c0 2-.67 2-46 2-25.3 0-46-.3-46-.8 0-.4 2.02-4.7 4.48-9.6zm7.77 127.05c2.34-.3 21.24-.57 42-.57H299v2.45c0 2.3.33 2.5 5.5 2.5s5.5-.15 5.5-2.46V609l333.5-.03 333.5-.03v62.94H280.45l-7.47-4.26c-21.22-12.1-40.38-29.6-53.07-48.55-2.7-4.03-4.9-7.7-4.9-8.14 0-.44 1.9-1.05 4.3-1.36zm10.75-55.7h10v53h-20v-53h10zm0-59h10v51h-20v-51h10zm-4.76-82.7c1.24.24.46.45-1.74.46-2.2 0-3.22-.2-2.26-.4s2.75-.2 4 0zm9 1.05c.7.22.13.5-1.24.5s-1.94-.28-1.25-.5c.7-.3 1.8-.3 2.5 0zM256 553.8h10v53h-20v-53h10zm0-59h10v51h-20v-51h10zm12.75 71.7c.17 7.25.17 19.4 0 27-.17 7.6-.3 1.65-.3-13.2s.13-21.06.3-13.8zm0-58.45c.17 7 .17 18.5 0 25.5s-.3 1.27-.3-12.76.13-19.8.3-12.8zm42.23-33.26h42l6.25 3.5 6.27 3.5H269v-7h41.98zm-38-44.2l3 1.7.02 19.7v19.7h-6v-42.9l3 1.7zm-2-8.8c.52 0 .7.7.38 1.5-.32.8-.75 1.5-.97 1.5-.3 0-.4-.7-.4-1.5s.4-1.5.9-1.5zm22.52-125.5c20.34-3 25.4-4.5 30.47-9.3 4.82-4.6 5.32-7.6 4.87-28.8-.28-13.1-.65-16.5-2.1-18.6-.95-1.5-1.74-2.9-1.74-3 0-.2 1.57-.2 3.5 0l3.5.4v62.8l-30.75-.2c-16.9-.1-29.4-.4-27.75-.6 1.65-.2 10.65-1.5 20-2.9zm-8 257.5H299v53h-27v-53h13.5zm0-59H299v51h-27v-51h13.5zm-9.56-74c1.6.1 98.47 54.6 98.77 55.5.2.6-.4 2.1-1.4 3.3l-1.8 2.3-49.5-27.4-49.5-27.4 1.5-3.2c.9-1.8 1.8-3.2 2.1-3.2zm3.6 13.9c.55 0 65.62 35.9 66.38 36.6.23.2-14.74.4-33.25.4H279v-18.5c0-10.2.24-18.5.54-18.5zm12.96-131H306v31h-27v-31h13.5zm-2.5 117l7.5.8-7.58.1c-4.17 0-7.92-.2-8.32-.6-1.22-1.2.57-1.3 8.4-.4zm15 133.1h3v57h-6v-57h3zm0-62h3v54h-6v-54h3zm7 62c1.95 0 2 .6 2 26.5 0 25.8-.05 26.5-2 26.5s-2-.7-2-26.5c0-25.9.05-26.5 2-26.5zm0-59c1.95 0 2 .6 2 25.5 0 24.8-.05 25.5-2 25.5s-2-.7-2-25.5c0-24.9.05-25.5 2-25.5zm5.75 71.7c.17 7.2.17 19.4 0 27-.17 7.6-.3 1.6-.3-13.2s.13-21.1.3-13.8zm0-58.5c.17 7 .17 18.5 0 25.5s-.3 1.2-.3-12.8.13-19.8.3-12.8zM369 553.8h49v53h-98v-53h49zm0-59h49v51h-98v-51h49zM340.25 236l6.75-.3v64.1h-14.03l.27-31.75.26-31.76 6.75-.3zm6.42 144.73l1.68-5.43.77 4c.95 4.95.9 20.94-.08 25l-.72 3-1.04-2.5c-2.7-6.48-2.94-16.5-.6-24.07zM410.5 235.8H472v64H349v-64h61.5zm134.36 181.7c53.84-1.92 68.53-2.72 69.18-3.77.46-.73 1.13-4.56 1.5-8.52.6-6.5.35-10.7-1.17-18.6-.9-4.7 1.24-3 2.98 2.4 2 6.2 2.07 16 .15 21.4-.77 2.2-1.24 4.2-1.04 4.4.2.2 61.73-1.7 136.7-4.2 75-2.5 139.38-4.6 143.1-4.6H903v16l-272.25-.1c-186.46-.1-253.66-.4-213.25-.9 32.45-.4 89.76-1.9 127.36-3.2zm-178.9-46.7c1.63 0 4.04 10.03 3.96 16.43-.08 6.5-1.82 12.7-3.74 13.35-.87.3-1.18-3.53-1.18-14.7 0-8.97.4-15.07.96-15.07zm12.74 105.1c.16-.24.3 1 .3 2.74 0 2.5-.42 3.1-2.02 3.1-1.96 0-1.97-.1-.3-2.76.94-1.5 1.85-2.93 2.02-3.16zm10.43-105.1c1.68 0 4.87 10.3 4.85 15.7-.02 5.6-2.87 14.3-4.68 14.3-.44 0-.8-6.75-.8-15s.28-15 .63-15zM459 360.4c40.38-4.5 54.98-5.4 102-6.2 45.6-.8 59.9-.25 189.9 7.16l97 5.6c.88.02-13.48 3.6-31.9 7.95l-33.5 7.9-31.13.1h-31.13l1.33 3.8c1.78 5 1.77 12.5-.02 16.8-.8 1.9-1.7 3.5-2.03 3.5-.3 0-.28-2.9.08-6.4.36-3.5.34-8.9-.04-12l-.7-5.6h-153.2l-78.08-7c-42.94-3.8-80.33-7.3-83.08-7.7-4.6-.6-3.9-.8 9-2.4 7.7-.9 28.18-3.3 45.5-5.3zm-44.5 27.9c0-2.75-.32-7.36-.7-10.25-.88-6.54.26-6.77 2.5-.5 2.15 5.97 2.2 16 .1 21.22-2.2 5.44-3.52 5.07-2.63-.74.4-2.6.73-7 .73-9.76zm7.25 178.2c.17 7.25.17 19.4 0 27-.17 7.6-.3 1.65-.3-13.2s.13-21.06.3-13.8zm0-58.45c.17 7 .17 18.5 0 25.5s-.3 1.27-.3-12.76.13-19.8.3-12.8zm60.75 45.74H541v53H424v-53h58.5zm0-59H541v51H424v-51h58.5zm-38.77-101.5c.26-4.4.04-10.4-.5-13.3-1.24-6.8.08-7.6 2.43-1.5 3.25 8.4 1.4 26.2-2.72 26.2-.7 0-.87-.7-.4-1.8.4-1 .94-5.4 1.2-9.8zm25.42-16.7c1.54 1.6 3.85 10.6 3.84 15-.1 5.3-1.4 10.9-3.3 13.5-1.1 1.4-1.3-1.1-1.3-13.8 0-8.5.3-15.2.6-14.8zm35.6-140.5c16.9.3 47.06.6 67 .6H608v63H474v-64.3l30.75.6zm-5.6 143.4c1.54 1.6 3.85 10.6 3.84 15-.1 5.3-1.4 10.9-3.3 13.5-1.1 1.4-1.3-1.1-1.3-13.8 0-8.5.3-15.2.6-14.8zm26.35 18.2c0-4.1-.34-9.4-.76-11.8-1.04-5.8.47-5.4 2.7.8 2.3 6.4 2.32 16.1.06 21.7-2.12 5.2-3.6 5.5-2.7.5.4-2.1.7-7.2.7-11.3zm24.5-67h16v20h-32v-20h16zm55 223h58v53H547v-53h58zm0-59h58v51H547v-51h58zm-48.5-94.5c0-3.9-.33-9.2-.73-11.8-1-6.5.57-6 2.72.8 1.9 6.3 1.7 17.9-.6 22.6-1.9 3.9-3 3.4-2.2-1 .4-2.1.7-6.9.7-10.8zm32.8-11.6c2.36 5.4 2.43 15.7.15 20.5-.92 1.9-1.74 3.5-1.8 3.5-.1 0-.16-6.4-.17-14.2v-14.1l1.82 4.2zM680 236.8h70v63H610v-63h70zm-33.76 147.7c1.83 1.13 3.96 11.8 3.3 16.64-.53 4.1-2.9 10.7-3.82 10.7-.12 0-.22-6.24-.22-13.9 0-7.64.33-13.7.74-13.44zm20.5 182.04c.18 7.26.18 19.4 0 27-.16 7.6-.3 1.66-.3-13.2s.13-21.05.3-13.8zm0-58.44c.18 7.02.18 18.5 0 25.5-.17 7.02-.3 1.28-.3-12.75s.13-19.76.3-12.75zm60.76 45.75H786v53H669v-53h58.5zm.25-58.76l58.25-.3v51H668.97l.26-25.3.27-25.3 58.25-.3zM673.8 385.8c.17 0 .95 1.56 1.75 3.47 1.9 4.57 1.87 14.83-.08 18.6-.84 1.6-1.62 2.93-1.75 2.93-.12 0-.22-5.62-.22-12.5 0-6.87.14-12.5.3-12.5zm24-2c1.2 0 3.2 8 3.2 12.82 0 5.7-1.52 12.18-2.85 12.18-.36 0-.65-5.62-.65-12.5s.14-12.5.3-12.5zm122.14-147h67.94l-.43 6.75c-.25 3.7-.72 17.9-1.06 31.5l-.7 24.74H752v-63h67.94zm30.06 317h58v53H792v-53h58zm-21.16-59c20.26 0 46.36.3 58 .66l21.16.66v49.68H792v-51h36.84zm69.16-258c2.75 0 5 .45 5 1s-2.25 1-5 1-5-.45-5-1 2.25-1 5-1zm16.5 0h8.5v8h-7.83c-4.3 0-8.14-.3-8.5-.66-.37-.38-.67-2.18-.67-4v-3.35h8.5zm-2.75 329.7c.17 7.25.17 19.4 0 27-.17 7.6-.3 1.65-.3-13.2s.13-21.06.3-13.8zm0-58.45c.17 7 .17 18.5 0 25.5-.18 7-.32 1.27-.32-12.76s.14-19.8.32-12.8zm57.25 45.8h55v53H914v-53h55zm0-58h55v50H914v-50h55zM930.16 261.2c1.74-4.87 3.5-9.23 3.9-9.7.42-.48 5.4-.3 11.1.4 9.08 1.1 11.23 1.04 17.65-.43l7.3-1.67 11.5 10.7c6.3 5.9 11.5 11 11.5 11.33 0 .33-6.8 3.1-15.2 6.17l-15.2 5.57-17.8-5.95c-9.8-3.27-17.8-6.3-17.8-6.75 0-.45 1.5-4.8 3.2-9.67zm7.6 9.37c2.18 2.78 15.4 8.28 19.9 8.28 4.5 0 5.07-1.88 2.45-8.2-1.1-2.8-1.9-5.3-1.7-5.5.2-.2 1.2 1.55 2.1 3.9 1.9 4.83 6.2 9.8 8.4 9.8.8 0 3-1.15 4.8-2.55 4.9-3.74 4.6-7.27-1.2-13.8-5.4-6.1-7.8-7.57-12-7.6-2.3-.04-3.3.5-3.8 1.97-.6 1.98-.7 1.98-3.3.14-3.8-2.6-10.3-3.3-12.9-1.2-1.9 1.5-4.2 7.7-4.2 11.2 0 .9.8 2.5 1.8 3.7zm19.24-9.72c.53.83.97 1.95.97 2.5s-.44.33-.97-.5c-.53-.82-.97-1.95-.97-2.5s.44-.32.97.5zm17.2 1.4c3.4 3.78 7.74 7.5 9.6 8.3 7.2 3 5.25-1.47-4.83-11.1-4.37-4.18-8.63-7.6-9.46-7.6-3 0-1.3 3.68 4.7 10.4zm7.46 363.94l.65-17.2 65.2-.1 65.2-.1 25.4-8.5c14-4.7 25.5-8.5 25.7-8.5.2 0 .3 18 .3 40v40H981v-14.2c0-7.9.3-22 .66-31.4zm93.84 40.6h19.5v-26h-39v26h19.5zm-.5-23h17v20h-34v-20h17zm-1-14h8v-13h-16v13h8zm-.5-10h5.5v7h-11v-7h5.5zm-.5-193h91v40.5c0 22.3-.34 40.5-.75 40.5-.4 0-11.32-3.3-24.25-7.3l-23.5-7.2-66.75-.3-66.75-.3v-65.9h91zm-79.42-133.6l.63-4.1 12.2 3.4c6.7 1.9 12.3 3.6 12.5 3.8.8.8-1 11.3-2.3 13-1.2 1.7-1.6 1.7-9.4-.4-4.4-1.2-9.7-2.9-11.7-3.7-3.4-1.4-3.6-1.8-3-4.8.3-1.8.9-5.1 1.2-7.4zm7.05 10.5c3.9 3 9.42 4.3 13.28 2.9 7.3-2.6.5-10.9-8.8-10.9-7.2 0-9.4 4-4.4 7.9zm1.68-6.3c3.2-.8 9.4 1.1 12 3.6 2 2 2 2.1.3 3.4-2.4 1.7-4.7 1.7-9.2-.2-5.6-2.4-7.1-5.8-2.9-6.8zm-6.5-19.8l.7-3.7 7 2.9c5.3 2.1 6.1 2.7 3.4 2.3-7.4-1.2-11.4 2.3-7.7 7 2.2 2.7 1.9 2.9-1.8 1.9-2.4-.7-2.8-3.4-1.4-10.5zm8.5 3.1c5.7 0 12 4.3 10.2 7.1-.9 1.4-8.2 1-11.4-.6-5-2.7-4.3-6.6 1.2-6.6zm9 9.6c3.9-.9 4.6-4.2 1.7-7.4-2.1-2.3-2.1-2.5-.3-1.8l4.8 1.7c3.2 1.1 3.2 1.2 1.6 7.1l-1.1 4.3-5.5-1.5c-3-.9-5.1-1.6-4.6-1.8.5-.2 2.1-.5 3.6-.8zm14.8 263.4c.7 0 1 9.5 1 26.5s-.3 26.5-1 26.5-1-9.5-1-26.5.4-26.5 1-26.5zm0-58c.7 0 1 9 1 25s-.3 25-1 25-1-9-1-25 .4-25 1-25zm4.5 58c1.3 0 1.5 3.6 1.5 26.5s-.2 26.5-1.5 26.5-1.5-3.6-1.5-26.5.2-26.5 1.5-26.5zm0-58c1.3 0 1.5 3.4 1.5 25s-.2 25-1.5 25-1.5-3.5-1.5-25 .2-25 1.5-25zm7.9 58c2.6 0 3.5.5 3.9 2 .5 1.9 1.4 2 17.2 2 16 0 16.6-.1 16.6-2 0-1.8.7-2 6-2h6v-8h-6c-4.6 0-6-.4-6-1.5 0-1.3-2.5-1.5-16.5-1.5-13.8 0-16.6.2-17.1 1.5-.4.9-1.9 1.5-4 1.5h-3.4v-50h71v17.8c0 9.8-.3 34.7-.6 55.5l-.6 37.6h-70v-53h3.4zm5.2-238.4c.9-2.7 1.5-8.5 1.5-12.8s.2-7.9.5-7.9 4.9 1.7 10.3 3.9c9.3 3.7 69.3 33.1 67.6 33.1-1.6 0-78.8-10.2-80-10.6-1.5-.5-1.5 0 .3-5.9zm4.3-4.3c2.2 2 15.2 6.5 16.9 5.9.8-.3 1.3-2.5 1.3-6.2 0-3.5-.5-6.3-1.3-6.8-2.5-2.1-15.8-7.2-17.2-6.6-2.3.8-2 11.5.4 13.7zm.6-12.4c1.5 0 15.2 6.3 15.9 7.3.9 1.4 1.1 8.1.3 8.9-.5.5-13.2-3.4-15.4-4.8-.9-.6-1.5-11.5-.6-11.5zm17.9 255.2c4 .2.7.3-7.2.3s-11.2-.2-7.3-.4c4-.2 10.5-.2 14.5 0zm43.3-58.3c1.4 0 1.5 5.9 1.3 54.4-.2 41.9-.6 54.7-1.5 55.7-1 1-1.2-9.9-1.2-54.5 0-49.5.2-55.7 1.6-55.7zm4.7 1.2c.7.2 15 4.5 31.7 9.4l30.4 8.9-.6 23c-.3 12.6-.6 28.1-.6 34.5V584l-29.7 9.86c-16.3 5.46-30.3 10.1-31 10.37-1 .4-1.2-10.8-1.2-53.75s.3-54.1 1.3-53.76zm13.9-142.7c1.2-10.5 2.3-19.2 2.5-19.4.5-.6 7.6 4.8 9.7 7.3 4.6 5.3 7.2 13.2 6.1 18.5-.9 4.4-6.5 10.3-13.2 13.9-3.3 1.7-6.2 3.2-6.6 3.2-.9 0-.7-3.2 1.6-23.5zm42.5 234.4c2.7-.9 3.9-.9 4.7-.1 1.7 1.6 2.7 1.3 2.7-.7 0-1.5 5-3.4 27.3-10.6 28.5-9.2 35.2-12.3 42.3-19.1 8.8-8.4 6.8-15.5-6.7-24.7-5.2-3.5-10.3-5.3-39.6-13.9-18.5-5.5-33.8-9.9-33.9-9.9-.1 0-.3-18.7-.3-41.5v-41.5h61.8c77.5 0 89.7.8 119.8 8.5 36.1 9.2 73.8 28.5 106.9 54.9 11.4 9 32.1 28 32.9 30.1.4.8.6 13.8.6 28.8V576l-12.3 12c-41.6 40.5-92.2 68.4-141.6 78.13-22.3 4.4-23.5 4.44-96.8 4.9l-71.2.4v-82l3.6-1.2zm15-30h7.6l-.3-5.3-.3-5.3-7.2-.3-7.2-.3v-16c0-12.5.3-16 1.3-15.6.7.3 12.9 4 27.2 8.2 27.4 8.1 32.2 10.2 39.2 17.2 5.5 5.5 5.8 8.9 1.1 13.9-6.1 6.5-14.3 10.3-41.3 19-14.3 4.6-26.4 8.4-26.8 8.4-.4 0-.7-5.4-.7-12v-12h7.6zm-1.5-8c6 0 6 0 6 3s0 3-6 3-6 0-6-3 0-3 6-3zm314.1-23c3.3 3.6 8.2 9.7 11 13.7 4.4 6.4 4.9 7.5 3.8 9.5-1.3 2.5-9.5 12.8-16.3 20.2l-4.5 5v-55l6 6.5zM85.6 366.3c1.16 7.8.8 7.5 8.17 7.5 3.7 0 8.42-.3 10.48-.6l3.75-.6v-6.1c0-15.6 4.3-36.4 10.4-50.2l3.44-7.8-3.07-1.3c-1.7-.7-3.16-1.1-3.27-1-.1.2-1.86 4.2-3.9 9-5.46 12.9-8.5 26.1-9.82 43-.64 8.2-1.57 14.8-2.08 14.8-1.16 0-.06-17.2 1.9-29.9 1.54-9.9 5.48-22.8 9.8-32l2.58-5.5-6.24-2.8-6.23-2.8-2.3 2.8c-7.5 9-13.1 28.6-13.6 47.8-.2 7.1-.1 14.3.1 16zm9.82-31.7c2.77-12 9.53-29.9 11.57-30.5.8-.3 1.1.1.7 1-9.6 21.6-13.7 39.1-13.7 58.6 0 6.4-.4 9.3-1.2 9.3-2 0-.3-25.9 2.5-38.2zm16.32 38.3c2.65 0 3.26-1.7 3.26-9.5 0-14.3 3.75-30.4 10.5-45.2 2.73-5.9 3.05-7.3 1.82-7.7-3.1-1.2-4.12-.4-6.6 5.2-6.36 14.3-9.57 28.3-10.43 45.5-.6 11.4-.6 11.8 1.4 11.8zm6.02 0c3.34 0 3.96-1.5 4.67-11.5 1.14-16 4.12-27.8 10.1-40.1 2.38-4.9 3-7 2.15-7.5-2.96-1.9-4.47-.5-7.95 7-6.35 13.8-8.8 24.4-10.17 44.5-.48 6.9-.34 7.8 1.2 7.8zm8.6-1c2.27 0 2.36-.3 2.94-10.7.74-13.2 3.5-24 9.03-35.5l4.23-8.7-2.48-.8c-2.3-.8-2.7-.4-5.83 6.2-1.85 3.9-4.25 9.7-5.34 12.9-2.3 7.1-4.9 23-4.9 31 0 5.4.2 5.8 2.4 5.8zm7.36 0h3l.7-10.2c.88-13 2.85-21.9 7.32-33.1 2.9-7.2 3.3-9 2.15-9.7-.8-.5-1.8-.9-2.2-.9-1.4 0-8.9 17.1-10.9 24.8-1.2 4.2-2.3 12.5-2.6 18.5l-.6 10.8h3z"/><path fill="#fff" d="M752.4 268.86v-30.94h133.8l-.02 19.65c0 10.8-.5 24.73-1.07 30.94l-1 11.3H752.4v-30.9zm-141.98 0v-30.94h138.8v61.88h-138.8v-30.94zm-135.46-1.1v-32.04l28.85 1.1c15.9.6 45.6 1.1 66.1 1.1h37.2v61.88H475v-32.04zm-125.43.26v-31.77H471.6v63.55H349.54v-31.77z"/><path fill="#fff" d="M172.6 402.23l8.14-51.84c4.07-26 7.88-47.3 8.46-47.3.58 0 1.36 6.9 1.73 15.4.37 8.5 1.26 16.4 1.97 17.5.88 1.4 6.08 2.1 16.22 2.1h14.92l5.47-17.6L235 303h41v31l-7.5-.6-7.5-.6v6.04c0 5.95.1 6.03 6.87 6.03 5.4 0 7.04-.7 7.7-3.28.78-3 2.6-3.4 17-3.8l16.1-.5.5-16.9.47-16.9 288.86-1.2c158.85-.7 289.02-1.4 289.25-1.6.24-.2.9-13.9 1.5-30.4l1.1-30.1 6 .7c3.3.4 7.4 2.1 9 3.8 1.9 2 5.3 3.1 9.2 3.1 7.4 0 9.58-1.3 11.1-6.3.8-2.5 2.5-3.8 4.98-3.8 7.36 0 23.6 3.7 29.4 6.7 5.04 2.6 5.45 3.2 2.82 4.2-1.7.7-8.98.8-16.17.2-9.3-.7-13.57-.4-14.75 1-2.9 3.5-7.44 21.5-5.83 23.1.8.8 9.32 4.2 18.9 7.4l17.42 5.8 14.73-5.3c8.1-2.9 15.1-4.9 15.5-4.5.4.4.04 5.2-.85 10.7-3.07 18.7-3.1 18.6 9.4 22.4 18 5.6 16.9 6.4 21.9-15.8 1.7-7.5 2.65-7.7 14.77-2.5 8.38 3.6 8.83 5.2 5.6 20.1-1.8 8.5-1.9 8.6-7.1 7.5-5.9-1.2-59.4-4.2-76.74-4.2-8.9-.1-11.3-.6-11.3-2.6 0-3.9-17.4-3.5-21.42.5-1.7 1.7-4.3 3.5-5.8 4.1-1.5.6-2.8 2.2-2.8 3.6s-1.4 2.5-3.3 2.5c-2.9 0-3.3 1.2-3.3 8.2 0 5.8.8 8.5 2.5 9.2 1.7.6 2.5 3.3 2.6 8.1 0 6.1.7 7.4 4.5 9.2 6.5 3 15.6 2.8 15.6-.4a2.52 2.52 0 0 1 2.5-2.5 2.52 2.52 0 0 1 2.5 2.5c0 1.4 1.5 2.5 3.4 2.5 3.5 0 4.3 2.6 2 6.3-1.1 1.7-9 1.8-40.5.4-83.3-3.6-117.9-5.3-121.5-6.1-3.5-.7-3.7-1.6-3.7-14.28 0-11.7-.3-13.4-2.6-12.5-1.5.5-6.4 1-11 1h-9l.6 12.5.6 12.5-8.3-.9c-19.2-1.9-101.7-6-140.9-7l-42.2-1V328H532v23.17l-12.9 1c-50.1 4.06-117 11.7-182.7 21-18.8 2.67-55 7.56-80.3 10.88-49.6 6.5-63.3 9.1-74.8 14.2-6.3 2.8-7.13 3.7-5.4 5.84 1.7 2 1.6 2.5-.8 2.5-2.2 0-2.7-1.1-2.2-4.6zm539.84-61.46v-12.54h-41.8V337c.05 16.92-.76 16.3 21.92 16.3h19.88v-12.5zm-471.48 2.1c.1-1.68.3-1.68.97 0 .52 1.27 4.05 2.08 9.07 2.08h8.22V329.9h-8.36c-7.78 0-8.37.3-8.37 4.13 0 2.98-.7 3.86-2.5 3.17-4.2-1.6-7.4.54-6.4 4.3.9 3.72 7.1 4.86 7.3 1.36z"/><path fill="#fff" d="M535.16 340.77v-9.2h30.1v18.4h-30.1v-9.2zm-56.02 33.7c-40.47-3.78-72.46-7.06-71.08-7.3 13.92-2.33 82.87-9.16 107.87-10.68 44.5-2.8 121.9-1 225.77 5 47.83 2.8 90.35 5.1 94.5 5.3 5.98.1 1.55 1.7-21.75 7.5l-29.27 7.2-116.23-.2-116.23-.2-73.58-6.9zm194.83-33.7v-9.2h35.12v18.4h-35.2v-9.2zm88.64 6.7v-9.2h15.1v18.4h-15.1v-9.2zM184 281.65V263.5l14.95-.97c8.23-.53 16.4-1.74 18.15-2.68 3.5-1.87 5.34-14.12 5.36-35.78l.03-11.35 7.9.84c4.4.46 14.7 1.27 23 1.8 24.3 1.56 35.9 4.08 50.2 10.87 20.3 9.67 21.6 11.64 22.3 32.84.7 21.74-.9 26.25-10.4 29.78-15 5.58-66.3 10.03-125.3 10.86l-6.3.1v-18.1z"/><path fill="#fff" d="M183.96 234.64v-21.8h33.55l-.4 21.32-.4 21.32-16.3.48-16.3.48v-21.8zM285.98 216c-4.14-.83-17.94-2.54-30.67-3.8-12.7-1.28-23.7-2.97-24.4-3.77C229 206.36 98 30.13 96.4 27.63c-.9-1.62 2-2.1 12.8-2.1h14l82 85.7c95.8 100.13 93 97.02 92.3 101.84-.68 4.5-1.86 4.8-11.43 2.92zm-128.76-14.07c-16.1-6.56-24.23-10.86-28.4-15.03l-5.84-5.84h57.14l7-5.07c4.36-3.2 6.56-5.9 5.82-7.2-.65-1.1-3.4-5.3-6.08-9.3-2.7-4-4.55-7.6-4.13-8 .42-.4 10.66 12.4 22.75 28.5l22 29.3h-18c-9.9 0-20.63.3-23.85.8-4.45.6-11.26-1.4-28.4-8.4z"/><path fill="#fff" d="M107.1 156.13c-5.55-11.1-10.1-20.88-10.1-21.75 0-1.9 28.38-21.9 31.1-21.9 1.62 0 14.66 17.9 35.55 48.86 4.88 7.2 5.07 8 2.36 9.43-1.6.87-10.4 2.06-19.6 2.66-9.2.6-19.5 1.5-22.9 2l-6.2.88-10.1-20.1zM69.44 80.65L44.98 32.1l15.5.47 15.48.48L100.63 69c13.57 19.8 24.7 36.9 24.74 38 .05 1.73-28.28 22.22-30.7 22.22-.44 0-11.8-21.86-25.24-48.57zm-30-59.87C30.52 3.16 33.78 1 65.48 3.48c26.62 2.08 42.1 6.4 49.05 13.64l4.85 5.06H99.34c-14.66 0-20.92.64-23.43 2.4-1.9 1.32-9.8 2.92-17.8 3.56L43.8 29.3l-4.32-8.52zM334.5 268.02v-31.77h11.7v63.55h-11.7v-31.77zm-33.45 30.25l-9.2-.98 13.3-2.3c11.36-1.9 14.1-3.1 18.98-8l5.7-5.7-.6-21.8c-.3-12 0-21.8.68-21.8.7 0 1.3 13.9 1.3 30.9v30.9l-10.4-.3c-5.7-.1-14.6-.7-19.6-1.3zm-21.74 20.76v-14.2h26.8v28.42h-26.8v-14.22zm-120.4-28.1c-11.8-1.85-12.6-2.4-14.2-10.86-.9-4.67-.4-6.18 2.5-8.2 4.7-3.28 4.1-11.37-.8-11.37-2.5 0-3.6 1.43-4.3 5.85l-.9 5.85-.7-5.77c-.6-5.1.2-6.6 7-12.96 7.7-7.15 7.8-7.2 20.3-7.2h12.6l1.1 6.28c.6 3.45 1.1 14 1.1 23.42v17.14l-6.3-.2c-3.4-.1-11.1-1-17.1-1.9zm21.5-18.33c.7-5.5-4.3-8.45-7-4.17-1.5 2.37-1.9 2.28-3.4-.82-2.5-5-6-5.6-7.1-1.1l-1 3.8-1.3-3.6c-.8-2.1-2.8-3.6-4.7-3.6-2.6 0-3.4 1.1-3.4 5.1 0 5.5 4.4 8.7 6.7 4.9 1.1-1.7 2-1.6 4.2.7 2.3 2.3 3.4 2.5 5.4.8 2.1-1.6 2.8-1.5 4.2.9 2.4 4.3 7.2 2.7 7.8-2.7zm-49.5 130.46c-14.9-1.86-26.8-3.74-26.4-4.16.5-.43 15.6-2.83 33.7-5.33L171 389l-1 7.4c-1.7 12.28 1.43 11.74-39.15 6.68z"/><path fill="#fff" d="M60.53 28.1c2.76-.3 6.43-.86 8.15-1.23l4.3-.92c1.28-.27 1.4.1.48 1.33-.72.96-4.8 1.4-13.14 1.37h-4.8l5-.55zm12.54 4.77c-1.84-.16-9.03-.36-16-.44-6.94-.07-12.63-.25-12.63-.4 0-.62 3.46-.78 16.88-.78 14.04 0 14.28 0 14.82.87.3.5.5.92.4.96-.06.04-1.63-.05-3.47-.2zm121 132.08c-5.07-6.54-9.58-12-10.56-12.83-1.3-1.13-1.1-.05.6 3.13 1 1.77 1.7 3.27 1.6 3.35-.1.07-3-4.05-6.5-9.15-3.5-5.1-16.7-24.02-29.4-42.03-12.6-18-22.9-32.83-22.7-32.94.1-.12 13.9 18 30.5 40.26 42.5 56.7 41.4 55.34 41.2 55.57-.1.2-2.1-2.3-4.5-5.3zm-64.97 10.1c1.6-.2 6.88-.64 11.7-1 11.48-.85 16.78-1.4 21.1-2.16 4.44-.8 5.87-1.6 5.87-3 0-1.1-1.2-3.8-2.6-5.8-.46-.7-.74-1.3-.62-1.4.24-.3 2.32 2.7 3.37 4.7 1.02 1.9.87 3.2-.53 4.4-1.9 1.6-5.1 2-26.4 3.6-11.4.9-17.7 1.1-11.9.4zm11.72 20.9c-5.96-2.36-6.4-2.6-9.08-5.27-1.55-1.55-2.76-2.88-2.68-2.96.08-.08 1.42.8 2.96 1.98s5.83 3.63 9.53 5.46c3.7 1.83 6.44 3.3 6.12 3.3-.33 0-3.4-1.14-6.85-2.5zm151.76 21.8c-1.12-.25-1.02-.3.92-.5 1.2-.14 2.46-.47 2.8-.75.34-.3.85-1.55 1.13-2.8.47-2.1.44-2.46-.36-4.1-1.5-3.1-8.87-11.5-24.92-28.38-4.1-4.32-7.38-7.95-7.27-8.07.17-.17 8.72 8.7 26.75 27.74 7.07 7.4 8.94 12.8 5.7 16.2-.96 1-2.24 1.1-4.75.6zm-54.15-6.6c-4.56-.44-6.7-.82-7.2-1.27-1.05-.93-.9-1.4.27-.95.9.34 12.46 2.23 16.13 2.64 1.03.1.85.17-.63.17-1.15 0-5-.26-8.57-.6zm-17.07 17.13c-.05-10.15.08-15.58.35-15.58.5 0 .5 21.48.1 27.4-.2 2.47-.3-1.56-.3-11.82zm-37.28 29.07c0-.68 2.13-.8 23.26-1.42l9.25-.27.2-5.9c.1-3.25.4-12.92.5-21.48l.3-15.58h-16.8c-10.9 0-16.8-.14-16.8-.42 0-.27 5.9-.4 17-.4h17l-.3 21.2c-.2 11.67-.4 21.78-.6 22.45-.3.82-.8 1.33-1.5 1.53-.6.17-8 .44-16.4.6-13.5.28-15.3.24-15.3-.3zm-2.48-2.42c0-.8-.3-3.06-.66-5.02-.34-1.9-.62-3.6-.62-3.6h-11.6c-11.5.2-11.62.2-13.9 1.3-1.27.6-3.2 1.9-4.3 2.9-1.08 1-1.98 1.7-1.98 1.5 0-.1 1.34-1.7 2.97-3.6l3-3.2h27l.3 5.2c.2 2.9.2 5.5.1 5.8-.1.3-.2-.1-.2-.9zm103.66 44.33l-9.83-.22 8.37-1.16c9.08-1.26 9.46-1.3 8.64-.78-.68.44 9.74 1.6 20.2 2.28 3.3.2-16.5.12-27.38-.12zm-109.57-5.3c-10-1.42-26.5-3.94-28.4-4.3l-.9-.2-1.8-6.9c-1.9-7.33-2.3-8.8-3-10.27l-.5-1 .3-2.3.3-2.3.2.9c.4 2 1.5 3.7 2.9 4.1.4.1.9.2 1.2.1l.5-.1-.9.8c-.5.4-1 1.1-1.3 1.5-.4.7-.4.8-.4 2.8 0 1.7.1 2.4.5 4.3.8 3.8 1.3 5.1 2.6 6.3 1.4 1.3 3.7 2 9.1 2.9 8.8 1.4 17.1 2.3 24.3 2.4.8 0 1.5 0 1.5.1a21 21 0 0 1-.2.8l-.2.7h-.7c-.4 0-2.9-.4-5.7-.8zm-20.2-19.56c-.7-.3-1.4-.85-1.8-1.4-.5-.65-.3-.67.4-.06 1.3 1.1 2.1 1.24 3.2.53 1.7-1.07 2.7-4.42 2.1-6.97-.2-.52-.3-1.08-.4-1.24-.1-.2-.1-.25 0-.17.3.1.9 1.6 1.6 3.5.6 1.7.6 1.7.8 1.3.2-.4.2-.4.2.4 0 .4.1 1.2.2 1.6l.2.8c-.1 0-.4-.2-.8-.5-.5-.4-.9-.6-1.3-.6-.6 0-.9.2-2 1.7-.4.6-1.4 1.1-2 1.1-.2 0-.6-.1-.9-.2zm19.5 3.1c-.9-.3-1.4-.8-2.4-2.32-1.1-1.56-1.4-1.9-2.1-1.9-.6 0-1 .2-2.2 1.1-1.4 1-2 1.24-2.8 1-.3-.1-.7-.26-.9-.37-.3-.1-.2-.2.8-.1 1.4.1 2.1-.2 3.1-1.2 1-1.1 1.4-2.3 1.3-4.3l-.1-1.4.6 1c.6 1.1 1 1.4 1.6 1.1.3-.1.3-.1.2.1-.6 1.4-.5 2.6.4 4.1 1 1.9 2.6 3.1 4.1 3.1h.7l-.6.2a3.02 3.02 0 0 1-2.1 0zm-34.3-6.5c-.1-.04-.5-.14-1-.2-.7-.1-1.1-.24-1.3-.5-.5-.5-.4-.94.5-1.83.8-.85 1-1.4 1-3.15 0-2.52-.8-4.4-2.3-5.63-1.4-1.2-1.9-1.1-4.1.9-.6.5-1.1.9-1.2.9-.5 0-.5-2.5-.1-3.1.3-.4 2.1-.4 5.7.1 3.9.5 3.7.4 3.1 1.3-1.2 1.9-1.4 3.7-.8 8.2.2 1.6.3 2.9.3 2.9s-.1 0-.1-.1zm43.3-8.34v-.74h7c8.2 0 13.2-.22 18.3-.83 2.1-.3 6.1-1 7-1.3.8-.4 1-.3.4 0-1.4.7-7.8 1.7-14.4 2.3-2.2.2-17.2 1.2-17.9 1.2h-.5v-.8z"/><path fill="#fff" d="M220.93 246.76c.04-1.6.07-9.95.07-18.5 0-15.5 0-15.58.3-15.58.27 0 .3.06.18.85-.16 1.23-.14 26.65.03 27 .2.27.2.25.3-.2.3-1.4-.3 5.77-.7 8.12-.2 1.24-.2 1.22-.1-1.7zm-38.55 39.02a954.2 954.2 0 0 1-.1-11.98c0-5.28-.18-11.16-.46-15.35-.1-1.66-.1-2.4 0-2.5.1-.1.16-.94.18-2.02.02-1.83.02-1.8.2 1.25.5 8.37.6 11.47.58 22.98 0 6.47-.08 12.35-.16 13.08-.1 1.1-.15.1-.24-5.46zm-1.5-73.62c-1.42-.88-16.45-6.96-32-12.94-1.03-.4-1.57-.68-1.4-.73.28-.2.12-.3-.66-.7-.27-.2-.46-.3-.42-.3.04-.1 1.3.4 2.78 1.1 3.92 1.7 5.08 2.2 9.37 3.9 11.55 4.6 18.1 6.9 22.46 7.6 2.1.3 3 .3 7.2 0 4.3-.4 9.7-.5 24.1-.6 8.4-.1 15.3-.1 15.3-.2s-25.1-33.6-27.9-37.2c-1.2-1.6-2.2-3-2.2-3 0-.1.3.2.7.5.7.7.7.7.6.2v-.3l15.2 20.3 15 20.3-6.9.1-17.9.2c-13.5.2-18.7.4-21.2.9-.7.1-.8.2-.9.6-.2.5-.3.5-1.1 0z"/><path fill="#fff" d="M135.2 193.9c-1.03-.4-1.13-.5-7.2-6.67l-6.17-6.26 28-.04 28-.03 4.4-2.7c4.37-2.66 6.34-3.92 7.85-5.03 1.9-1.4.35.17-1.9 1.92l-4.56 3.3-3.6 2.6h-57.1l3.4 3.4c1.87 1.9 3.25 3.3 3.07 3.3-.2-.1-.4 0-.4 0 0 .2 3.7 4 4.6 4.7.4.3 1.3.9 1.9 1.2 1.2.6 1 .7-.4.1zm55.72-26.87a609.65 609.65 0 0 0-4.18-6.2c-1.24-1.8-2.25-3.34-2.25-3.4 0-.06.2.2.5.55.6.66.6.66.5.23-.1-.2-.1-.3 0-.3.2.2 3.9 5.9 5.7 8.7 1.5 2.5 1.7 2.8 1.5 3.2-.1.2-.7-.6-2.1-2.7zm-74.5 8.56c-2.4-3.9-20.85-40.2-21.15-41.7-.08-.4.03-.5 1.42-1.6 5.7-4.5 23.8-17 30.2-20.9l1.6-1c.5 0 5.2 6 10.8 14 4.1 5.9 25.8 37.5 25.7 37.6 0 0-.2-.1-.3-.2-.3-.3-.4-.3-.5 0 0 .2-1.1-1.3-3.4-4.6-19.8-29.1-31.5-45.1-33.1-45.1-1.4 0-10.2 5.6-19.6 12.4-7.3 5.2-11.5 8.7-11.5 9.5 0 1.1 3.7 9 13.3 28.1 6 12 7.5 15.2 6.1 13zM93.9 130.3c-3.34-5.5-49.9-97.8-49.52-98.17.35-.3 1.3 1.5 12.23 23.23 25.9 51.37 37.2 73.37 38.1 73.9.7.43 11.3-6.52 21.1-13.95 6.4-4.7 9.7-7.6 9.7-8.3 0-.4-.6-1.5-3.1-5.6-2.8-4.5-6.5-10.1-12.3-18.7-5.1-7.5-6.8-10.1-23.6-34.6-9.4-13.7-10-14.6-9.8-14.9.2-.3.8.5 10.8 15.1 27.7 40.5 40 58.7 40.5 59.9.1.2-.8.9-3.9 3-9 6.2-26.4 17.9-29.4 19.7-.1.1-.3 0-.5-.3zm100.53 30.6c-1.05-1.4-8.4-11.26-16.37-21.9C145.58 95.5 100.74 35.4 94.6 27.1l-1.43-1.93 1.72-.1c.9-.04 7.7-.1 15.1-.1h13.4l38.6 40.2c76 79.33 70.1 73.08 70.1 73.7v.56l-1.3-1.25c-.7-.7-11.6-12.1-24.3-25.35a215334.7 215334.7 0 0 0-82.8-86.5l-.9-.94h-6.6c-3.7 0-8.9 0-11.6.1-6.4.1-8 .4-8.6 1.2-.4.5-.4.4 1.6 3.2 6.1 8.4 46 62.1 80.4 108.3a60914.8 60914.8 0 0 1 15.3 20.6l3.2 4.3c.1.1 0 .2-.3.2s-.7-.4-2.3-2.6zM131.4 80.14c-1.63-2.16-3.87-5.05-4.36-5.65-.03-.1-.1-.1-.13 0 0 0 .9 1.4 2.1 3.1 1.2 1.7 2.1 3.1 2 3.1 0 0-8.2-11.7-10.8-15.5-.8-1.2-.9-1.5-.4-1.1.5.4 14.1 18.5 14 18.6 0 0-1-1.2-2.2-2.7zM42.28 28.37c-.6-1.04-5.52-11.02-6.13-12.46C33.65 10 33.6 7.1 36 4.7c1.42-1.45 2.6-2.1 4.35-2.4 1.9-.34 9.23-.3 20.2.06 18 .6 28 2.17 41.7 6.53 7.02 2.2 8.44 3.2 15.93 10.8l3.04 3.1H103.6c-15.6 0-18.9.1-22.4.3h-.9l.8-.2c1-.2 3.8-.5 6.35-.6 1.17-.1 7.86-.2 16.86-.2 8.4 0 14.9-.1 14.9-.2-.1-.2-5.4-5.7-6.2-6.4-8.5-7.2-25.3-11-56.2-12.9-4.1-.3-11.4-.3-13.5 0-7.6.9-9.5 3.5-7.3 10 .8 2.5 1.6 4.3 4.6 10.3l2.9 5.7H43c-.44 0-.5-.1-.73-.5z"/><path fill="#fff" d="M74.08 26.18c0-.33-.22-.4-.83-.34-.36.05-.18-.04.7-.34.63-.22 1.53-.62 2-.9 1.12-.64 1.27-.62.26.06-.4.3-1.1.82-1.4 1.16-.6.58-.6.6-.6.36zm-29.87 5.7l-.1-.32.7-.1c2.2-.4 8.3-.55 20.5-.55l10.3.1.3.4.3.4c0 .1-.2 0-.4-.1-.8-.3-3.1-.3-13.6-.3-14.5 0-17.4.2-17.5.8 0 .1 0 .1-.1-.1zm156.1 267.76l10.2-.3c40.2-1.1 76.3-4.07 95.1-7.84 7.5-1.5 11.6-2.86 14.5-4.8 4.2-2.8 5.7-6.76 6-16.83.2-3.94-.2-15.18-.5-19.34-.9-10.38-3.3-14.4-11.8-19.22-4.2-2.4-12-6.1-16.8-8.1-9.3-3.7-19.2-5.8-33.4-7.1-1.9-.1-7.5-.6-12.4-.9-9.9-.7-17.9-1.3-21.6-1.7-2.3-.2-2.3-.2-.9-.3 1.9 0 12.9.5 19.3.9 15.9 1.1 33.3 3.3 40.7 5.1 5 1.3 11 3.8 19.7 8.3 9.8 5 13.2 7.5 15.5 11 1.5 2.3 2.3 4.8 2.8 8.4.7 4.6.8 22.9.2 29.8-.3 4.4-1.2 6.7-3.3 9-3.9 4.3-9.9 6.1-30.5 9.1-26.5 4-39.6 4.8-84.5 5.1-5.4.1-8.9.1-7.8 0zm13.2-113.3l-16.9-22.7c0-.1.1-.18.3-.18s1.9 2.14 3.8 4.76a22407.94 22407.94 0 0 0 16.8 22.42c7.3 9.72 13.3 17.76 13.3 17.87.1.2 0 .3-.1.3-.1.1-7.7-10-17-22.4zm52.7-12.1c-.6-.64-1.2-1.06-1.2-.95-.1.2-32.5-33.6-32.5-34.1-.1-.8.3-.5 2.2 1.5 10.2 10.6 32.9 34.5 32.9 34.5s-.6-.5-1.2-1.1z"/><path fill="#fff" d="M331.1 273.8c-.1-24.66-.24-30.78-.78-34.42-.27-1.87-.5-2-.88-.52-.12.45-.28 5.18-.36 10.84-.08 5.52-.16 8.57-.2 6.8-.05-4.9-.4-10.96-.77-13.07-.3-2.07-.8-3.27-2.1-5.33l-.8-1.36.7-.08c.4-.04 2 .05 3.5.2l2.8.25v31.4c0 30.7 0 31.3-.4 31.3s-.4-.6-.5-25.9z"/><path fill="#fff" d="M326.83 283.88l.65-1.6c1.16-2.8 1.56-6.6 1.6-15.33.04-5.5.05-5.44.33 4.38l.3 9.92-1.5 1.47c-.8.8-1.4 1.33-1.3 1.16zm6.28 7.9c.1-4.4.2-16.57.3-27.03.2-23.4.3-28.33.7-28.33.3 0 .3 4.8.3 31.67v31.6H333l.12-8zm-156.5 81.4c.5-1.94 9.6-60.2 10.4-66.13.3-2.12 0-3-1-3.2-1.2-.25-1.6-.45-1.6-.75 0-.2.4-.35 1.2-.45 3.1-.4 18.5-.6 53.3-.73l38.1-.13.1 17.5.1 17.5h31.3v-35.1h67.9c37.4 0 70.7-.1 74-.2l6.1-.1v1.3H451c-14.4 0-141.15.6-141.2.7-.06 0-.3 7.5-.55 16.7-.23 9.1-.5 16.7-.55 16.8-.1.1-3.97.2-8.6.4-22.3.6-23.4.8-24.5 4.1-.65 1.8-.7 1.3-.4-2.6.1-1.6.2-3.3.2-3.7v-.7H261v-.9c0-.5.1-.8.15-.8.36 0 13.3 1 14.05 1.1l.9.1v-31H235l-5.45 17.5-5.46 17.5h-8.5c-4.7 0-10-.1-11.9-.2-3.1-.2-2.5-.2 6.6-.3 5.5-.1 10.7-.2 11.7-.3l1.6-.1 2.1-6.8c3.1-9.7 7.5-23.7 8-25.5.2-.8.3-1.6.2-1.6-.6-.3-8.7-.6-24.4-.7l-17.7-.1v28.6c-.2-.1-.8-8.3-1.1-13.2-.5-9.7-1.2-15-1.8-15-.5 0-2.2 8.6-5.4 27.9-1.6 9.5-6.7 41.7-6.7 42.3 0 .1-.2.2-.3.2-.2 0-.3-.2-.2-.4z"/><path fill="#fff" d="M279.1 304.36c0-.4.14-.4 13.38-.4s13.38 0 13.38.4-.14.42-13.38.42-13.38 0-13.38-.42zM346.2 268v-31.8h-2.56c-3.1-.04-2.83-.15.63-.25l2.56-.07v31.94c0 28.26-.03 31.94-.3 31.94s-.32-3.67-.32-31.77zm-101.17 69.4V333h10.87v8.78h-10.87v-4.4zm-2.8 5.62c-.3-.35-.55-.77-.55-.93 0-.2-.13-.4-.3-.5-.2-.1-.3-.8-.36-2.1-.06-1.7-.02-2 .27-2.1.8-.3 1-.9 1.2-3.3.1-1.3.2-2.4.3-2.5 0-.1.1 2.6.1 5.9s-.1 6-.1 6-.3-.3-.6-.7zm-5.7-1.77c-.9-.9-.3-2.25.97-2.25s1.86 1.36.97 2.25c-.68.68-1.26.68-1.94 0zm27 .33c-1.1-.22-1.36-.66-1.36-2.3 0-2.22-.05-2.2 5.33-2.2s5.33-.02 5.33 2.2c0 1.67-.25 2.07-1.48 2.3-1.12.22-6.67.22-7.8 0z"/><path fill="#fff" d="M247.3 344.68c-1-.1-2.2-.32-2.7-.48-.84-.25-.17-.3 6.34-.3l7.26-.03-.05-6.53-.06-6.53-7.3-.1c-6.4-.1-7.1-.1-6.1-.3.7-.2 3.1-.2 7.7-.2h6.6V345l-5-.04c-2.8-.02-5.8-.1-6.8-.2zM279.1 334v-.68l13.38.05 13.38.06v1.25H279.1V334zm-15.4 10.7c-.58-.08-1.23-.25-1.45-.37-.36-.2-.35-.22.13-.32.7-.1 11.75-.5 11.87-.4.04.1-.3.3-.76.5-1.5.8-6.8 1.1-9.8.7zm-26.57 0a6.86 6.86 0 0 1-1.3-.6c-.6-.36-.6-.36 1.64-.27 1.48.06 2.42 0 2.7-.15.6-.32.6 0-.02.57-.56.54-2.02.75-3.02.44zm-70.93 62.8c-6.7-.5-21.46-2.06-33.34-3.53-7.68-.95-30.37-4.16-30.53-4.32-.05-.05-.12-.32-.15-.6-.04-.37.1-.57.56-.8 1.5-.73 10.7-2.2 26.56-4.2 24.77-3.16 37-4.9 41.97-6 .56-.1.57-.1.57.8 0 .5-.14 1.85-.3 3-.4 2.53-2.8 14.6-3.06 15.3-.2.5-.14.5-2.28.34zm-.2-1.45c1.5-.46 2.57-1.5 3-3.02.38-1.34 2.08-13.8 1.9-13.97-.12-.12-10.27 1.26-33.24 4.5-20.74 2.9-32.72 4.82-33.2 5.28-.3.3 1.07.63 6.22 1.47 10.47 1.8 38.73 5.3 48.62 6.2 1.8.2 5.56-.1 6.7-.4zm47.76 5.4c-2.97-.13-16.52-1.13-23.52-1.74-14.34-1.2-17.9-1.7-18.87-2.8-.38-.4-.25-1.4 1.9-13.8a2294 2294 0 0 0 2.26-13.3c.62-3.7 1.1-6.1 1.24-6.1.17 0 .18.4.05 1.2l-2.4 15.2c-2.3 14.7-2.37 15.5-1.52 16.4.53.6 2.04.8 3.17.5.76-.2.82-.2.7-.7-.1-.3-.42-.8-.76-1.3-.8-1-.7-1.2.1-.5 1.6 1.3 4.6 2.5 8.8 3.3 5 1 10 1.7 21.9 2.8 7.6.7 10.7 1.1 10.9 1.3.1.1-.9.1-3.8 0zm111.35-6.78c-1.8-3.34-2.4-6.78-2.4-13.24 0-5.82.5-8.62 1.9-12.28.4-1 .8-2.16.8-2.56 0-.8 0-.8-.8-.8-.9 0-6.2.7-26.7 3.5-20.2 2.8-32.8 4.4-48.6 6.4-17.4 2.2-25.1 3.2-31.1 4.1-4.5.6-6.2.8-5.6.6 1-.4 19.6-3 50.9-7.2 32.5-4.4 49.7-6.7 70.9-9.6 32.8-4.6 57.9-7.9 82.5-10.8 8.9-1.1 8.5-1 8.5-.8 0 .1-.6.2-1.4.3-3.6.3-37.7 4.6-49.6 6.2-12.9 1.7-46.4 6.4-46.5 6.4l-.5 15.5c-.3 8.5-.5 15.5-.6 15.6 0 .1-.6-.7-1.2-1.8z"/><path fill="#fff" d="M347.3 404.53c-2.1-5.4-2.67-12.7-1.54-19.3.4-2.24 2.17-8.66 2.5-9 .32-.35 1.07 5.1 1.3 9.36.24 4.5.12 12.8-.24 16.1-.2 1.9-.78 4.6-1.02 4.9-.07.1-.53-.9-1-2.1zm18.42-4.58l-.23-.9c-.1-.16-.2-3.07-.3-6.45-.3-8.83.1-20.9.7-21.52.3-.3 1.1 1.18 1.7 3.06 1.2 3.85 2.1 9.1 2.1 12.9 0 5.35-1.4 11.34-3 12.96-.7.68-1 .67-1.1-.05zm23.45.28c-.3-1.2-.54-7.87-.53-14.76 0-7.03.25-14.12.5-14.37.23-.23.97.68 1.55 1.92.8 1.73 1.9 5.44 2.5 8.2.6 2.96.7 7.46.1 10.1-.8 3.9-2.3 7.78-3.4 8.95-.6.6-.7.6-.9-.04zm24.65 2.1l-.2-.67c-.07-.2.1-2.05.34-4.13.64-5.22.65-13.3.02-19.06-.42-3.84-.43-5.33-.03-5.33.58 0 2.44 4.56 3.08 7.53 1.2 5.58 1.02 12.63-.4 17.12-.55 1.6-1.7 3.9-2.26 4.4-.4.3-.45.3-.55 0zM515 378.23c-11.85-1.06-34.05-3.07-49.34-4.46-47.23-4.27-62.16-5.7-63.05-6.03-.7-.27-.2-.4 2.9-.86 10.7-1.55 62.7-7.47 80-9.1 24.1-2.26 49.1-3.26 90.5-3.6l16.4-.13v1.28l-17.8-.1c-27.3-.18-46.4.3-64.8 1.62-26.2 1.88-84.8 7.72-99.3 9.9-2.1.33-2.5.45-1.7.63 3 .67 38.1 4.15 101.4 10.04 30.6 2.85 29.7 2.76 27.9 2.77-.7 0-10.9-.9-22.8-2zm-72.56 26.2c-.06-.17.03-.8.2-1.42 1.33-4.8 1.66-16.8.63-23.2-.38-2.4-.5-4.8-.22-5.1.5-.5 2.2 2.7 3.1 5.8 1.35 4.7 1.33 13.9-.04 19.3-.5 2.1-1 3.3-1.8 4.2-.7.8-1.6 1-1.8.5zm26.53.13c-.28-1.28-.2-26.62.08-27.24.22-.5.24-.5.76.66.8 1.7 1.8 4.93 2.4 7.8 1 4.77.9 9.23-.3 14.02-.6 2.32-1.9 5.32-2.4 5.48-.1.05-.3-.25-.4-.72zm30 3.07c-.22-.74-.27-3.42-.25-13.06 0-6.67.1-12.74.22-13.5l.2-1.34.76 1.6c.82 1.7 2 5.93 2.58 9.16 1 5.6-.43 14.6-2.8 17.5l-.43.5-.28-1z"/><path fill="#fff" d="M425 362.24c0-.25.4-.3 7.42-1.1 38.6-4.37 72.07-7.64 96.48-9.43a39.8 39.8 0 0 0 2.25-.2l.68-.1v-23h36.8v22.8l3.38.2c1.9.1 6.6.2 10.4.3l7.1.2-10.6.1h-10.7v-23h-35.3v11.9c0 11.1 0 11.8-.3 11.8-.9 0-25 1.5-28.8 1.8-17.1 1.3-51.9 4.9-77.3 8-.7.1-1.4.1-1.4 0z"/><path fill="#fff" d="M534.12 340.84v-9.93h31.78v19.9h-31.78v-9.9zm31.15 0v-9.3h-30.1v18.6h30.1v-9.3zm-9.47 73.55c-.24-.3-.16-1.6.2-3.9.54-3.2.54-17.1.02-21-.4-2.9-.48-5.4-.2-5.4.82 0 2.48 4.2 3.3 8.3.46 2.3.65 10.1.3 12.9-.33 2.8-.98 5.3-1.8 6.9-1 1.9-1.4 2.4-1.82 1.9zm-31-2.1c-.15-.4 0-2.5.34-5.2.62-4.7.45-16.1-.32-21.1-.35-2.3-.4-3.7-.12-3.9.52-.3 2.3 3.2 3.14 6.3 1.5 5.3 1.6 12.4.3 17.5-.53 2.1-2.06 5.5-2.77 6.1-.4.4-.44.4-.57 0zm62.86-13.4v-13.6l.53 1.1c1.9 4.2 2.5 6.8 2.7 11.5.2 5.5-.4 8.9-2.3 12.5l-1.1 2v-13.6z"/><path fill="#fff" d="M719.42 406.3c-.07-.2.04-2.62.24-5.4.48-6.63.28-11.92-.64-17.46l-.12-.68h-76.87l-76.86-.03-6.17-.58-6.17-.6 60-.02c33 0 75.73.04 94.96.1l34.9.15v.98h-11.3c-10.7 0-11.3.02-11.2.36l.9 2.78c1.1 3.36 1.5 5.5 1.5 9.4 0 4.06-.5 6.28-1.8 9.05-1 2.05-1.3 2.5-1.6 1.94zm17.06-45.1c-53.2-3.07-89.44-4.56-138.75-5.74l-5.5-.13v-1.28l8.32.14c18.88.3 50.67 1.6 83.77 3.5 3 .2 11.5.6 18.92 1 28.03 1.5 39.38 2.2 39.48 2.3.36.3-.9.3-6.24 0z"/><path fill="#fff" d="M645.68 408c-.28-7.56 0-21.72.46-22.96.16-.45.2-.44.6.25.63.9 1.42 3.4 1.92 5.9 1.27 6.3 1.15 10.1-.5 15.3-.62 1.9-1.8 4.6-2.14 4.8-.12.1-.25-1.2-.34-3.5zm28.02.03c-.17-3.1-.14-15.58.04-19.3l.13-2.73.77 1.58c1.68 3.5 2.13 5.9 2.12 11.27 0 4.75-.4 6.98-1.7 9.52-.47.92-.94 1.8-1.04 1.94-.12.2-.24-.6-.32-2.2zm24.24-.44c-.23-1.9-.4-17.3-.24-20.6.15-3.1.16-3.1.53-2.7.9 1.1 2.1 5.9 2.53 10 .42 4-.5 11-1.74 13.3-.68 1.2-.93 1.2-1.08-.1zM680.07 353c-1.65-.1-3.06-.23-3.13-.3-.08-.08.9-.08 2.16 0 1.95.12 32.28-.23 32.43-.38.03-.03.15-4.37.27-9.66.12-5.3.26-10.58.3-11.75l.1-2.1h-40.3v8.3c0 4.6.1 9.4.2 10.8.08 1.4.12 2.5.08 2.5-.2.2-.9-1.9-1.1-3.3-.12-.8-.27-5.4-.34-10l-.13-8.5h41.9v24.9h-14.7c-8.1 0-16-.1-17.7-.2z"/><path fill="#fff" d="M674.2 350.46c0-.28 2.06-.3 17.44-.3h17.46v-18.62h-17.46c-15.37 0-17.45-.04-17.45-.3 0-.3 2.1-.33 17.8-.33h17.8v19.9H692c-15.74 0-17.86 0-17.86-.3zm70.02 8.76c-33.2-2.02-76.47-4.38-110.48-6.02-3.22-.15-5.1-.3-4.18-.3 4.2-.07 46.1 1.76 73.8 3.2 26.56 1.4 42.35 2.46 51.62 3.44 5.36.57 2.3.48-10.76-.32zm-1.47 23v-.5h42.4l19.73-4.9c19.98-4.98 26.7-6.73 30.26-7.88 3.1-1 4.1-1.6 3.25-1.94-.2-.07-3.2-.27-6.6-.44-12.9-.66-36-1.95-70.6-3.94-14-.8-18.7-1.14-18.6-1.33.1-.2 2.3-.2 9.1.2l38.3 2.1 20.3 1.1c5.1.2 10.9.6 12.8.7 8.6.5 14.3.8 18.8 1 2.7.1 4.8.3 4.7.4-.3.3-14.7 3.8-45.7 11.1l-19 4.5h-39.4v-.5zm18.4-35.3v-9.94h17.77v19.86h-1.25v-18.6H762.6v18.6h-1.45v-9.93z"/><path fill="#fff" d="M931.32 368.4c-36.17-1.2-103.57-4.35-150.52-7.07l-15.36-.88c-3.57-.2-6.23-.4-5.9-.44.5 0 .57-.1.57-.8v-.7l.9.2c.5.1 5.2.2 10.5.3l9.6.2.1-1.6V356l.2 1.2c.4 2.5 1.3 3.5 3.7 3.9 4.3.7 28.5 1.96 83.6 4.4l28.2 1.25c15.8.7 24.4 1.06 32.5 1.27 7.2.16 9.3.14 13-.1 1.2-.1 1.2-.06 1.2.4v.5l-5.1-.03a443.03 443.03 0 0 1-6.9-.1zm-156.58-33.75c.98-.1 2.32-.33 3-.5 1.58-.4 1.96-.4 2.2.08.2.36.08.4-1.8.52a53.2 53.2 0 0 1-3.6.1l-1.58-.02 1.78-.18z"/><path fill="#fff" d="M943.8 368.6c-.2-.05-.36-.3-.36-.57 0-.42.14-.5 1-.63 1.8-.27 2.26-.6 3-2.03.55-1.07.68-1.58.7-2.64 0-1.24-.04-1.37-.67-1.93-.65-.58-.94-.67-3.02-.93-1.4-.18-2.3-.86-2.66-2-.6-1.86-.8-2.14-1.4-2.52a2.73 2.73 0 0 0-2.6-.1c-.9.43-1.1.8-1.4 2.05l-.3 1.1v-1.5c-.1-1.9.2-2.46 1-2.76.8-.3 2.3-.3 3.3 0 .9.24 1.3.83 1.5 2.38.3 2.43.9 2.9 3.8 3.24 2.4.3 2.5.35 2.8 1 .2.57-.2 3.5-.8 6.37l-.3 1.4-1.3.02c-.7 0-1.5.04-1.7.08-.3.05-.6.04-.8-.02zm-23.05-10.92c-.92-.45-1.86-1.02-2.1-1.27l-.4-.4 1.93.1c2.2.1 2.53.3 2.7 1.6.16 1.1.05 1.1-2.13.1zm-4.2-9.2c-.33-5.73-.7-6.87-2.63-8.08-.46-.3-.78-.58-.72-.64.07-.07.65-.05 1.3.03 1.7.2 2.1.6 2.28 2.6.07.8.1 3.5.07 5.9l-.06 4.4-.3-4.3zm-3.7-24.64c.3-.25.96-.44 1.86-.53 2.3-.2 3.3-1 3.6-2.6.1-.5.3-1.1.5-1.4.3-.5.3-.4.3 1.4 0 1.1-.2 2.1-.3 2.4-.3.6-1.2.9-3.2 1l-2.3.3-.7.1.5-.4zm7.1-6.12c.04-.1.68-.45 1.4-.8a18.8 18.8 0 0 0 2.33-1.36l1.05-.75.06.9c0 1.1-.4 1.8-1.3 2-1.4.2-3.7.3-3.6.1zm7.7-5.4a9.9 9.9 0 0 1 1.42-.74c.64-.26.78-.27.78-.04 0 .53-.8 1.03-1.82 1.12l-1 .1.63-.43zM884.2 299.1l.6-6.23c1.03-11.18 1.32-18.64 1.5-39.36l.14-15.6H823.7c-62.62 0-62.76 0-62.76-.4s.14-.4 63.44-.4h63.44l-.1.9c-.3 2.7-.75 13.3-1.14 26.8-.34 11.7-.84 31.6-.84 33.4v1.6h-.82c-.8 0-.82 0-.73-.7zm3.66-5.4c-.07-3.73.98-37.2 1.45-46.2.4-7.5.7-10.45 1.1-10.45.3 0 .6 1.37.6 2.2 0 .36.1.77.3.92.2.22.2.24-.4.13l-.6-.14-.1 2.58-.4 11.56c-.7 20.05-1.5 39.64-1.6 40.55 0 .23-.1-.28-.1-1.15zm16.28-49.9c-1.07-.77-3.5-1.87-5.14-2.34l-1.44-.4 2.7-.02c3.52-.02 4.2.16 4.52 1.2.12.42.2 1.06.16 1.42l-.07.66-.73-.52zm-9.5-5.3c-1.47-.3-1.77-.6-1.02-1 .8-.45 6.63-.58 8.1-.2 2.36.62.9 1.22-3.22 1.33-1.56.04-3.3-.02-3.87-.14zm15.1 6.07c-2.88-.22-3.03-.27-3.3-1.2-.12-.43-.28-2.03-.35-3.55l-.2-2.77h17v7.74l-5.6-.1c-3.1 0-6.5-.1-7.6-.2zm43.32 6.34c-1.63 0-4-.3-9.5-1.2-2.66-.4-5.2-.7-5.66-.8-1.38-.1 5.86.1 8.58.3 13.22 1 20.08 0 17.1-2.5-1.23-1-5.94-3.2-8.85-4.2-9.9-3.2-23.75-5.4-26.45-4.2-1.14.5-2.27 1.9-2.74 3.2l-.4 1.1-.05-2.8c-.1-1.5-.1-2.8 0-2.9.1-.1 10.3.7 13.4 1.2 5.7.8 11.9 2.2 16.9 3.8 2.9 1 8.8 3.8 10.4 4.9 1.6 1.3 1.2 1.7-3 2.9s-7.2 1.6-9.9 1.4zm-40.56-3.2c-1.3-.1-3.97-.7-3.97-.8h5.8c3.2 0 6.27 0 6.85-.1l1.04-.1-.83.4c-1.6.7-5.9 1.2-8.9.9z"/><path fill="#fff" d="M949.82 279.2c-12.2-4.13-18.7-6.45-21.4-7.67-1.3-.6-1.32-.6-1.17-1.3.44-2.03 5.32-15.5 6.42-17.7.37-.74.62-.98 1.2-1.13.9-.23 6.42.12 11.46.74a64.3 64.3 0 0 0 7.56.47c4.2.1 4.5 0 11.6-1.6 2.2-.5 4.1-.9 4.3-.9.2 0 5.7 5.1 12.5 11.5 3.1 3 10.3 10.2 10.3 10.3 0 .2-3.2 1.6-7.7 3.4-5 2-22.5 8.4-22.7 8.4-.1 0-5.8-1.9-12.7-4.2zm10.55-.7c.46-.23.9-.68 1.14-1.2.4-.8.4-.9.1-2.4-.2-.87-.9-3.04-1.6-4.82-1.3-3.37-1.7-4.75-1.3-4.52.1.07.6 1.04 1.1 2.17 2.4 5.46 4.8 8.86 7.3 10.5.9.58 1.2.67 2 .58 2.2-.2 6.6-3.5 7.6-5.7 1.4-2.9.1-6-5-11.6-4.7-5.2-7.2-6.6-11.4-6.6-2.3 0-3.3.6-3.8 2.4-.4 1.3-.8 1.3-2.7.1-2.9-1.9-5.2-2.6-8.7-2.6-2 0-2.5.1-3.5.5-1.8.9-2.9 2.5-4.2 6.1-1 3-1.4 5.3-1 6.6.8 2.9 3.3 4.9 9 7.5 7.4 3.3 13 4.5 15.3 3.4zm27.6-7.27c.94-1.13-1.66-4.68-7.87-10.77-4.34-4.24-8.4-7.7-10.07-8.55-.7-.3-1.88.1-2.05.8-.33 1.4 1.36 4.2 5.15 8.6 3.3 3.8 8.02 8.1 10.1 9.2 2.2 1.1 4.23 1.5 4.74.9zm-61.55-4.6c.2-1.73 1.73-7.5 2.74-10.43 1.07-3.1 2.15-5.37 2.9-6.1.72-.74 1.03-.6.44.17-.28.38-.74 1.15-1.03 1.73-.56 1.15-2.8 7.76-4.25 12.6-.6 2-.88 2.7-.8 2.03z"/><path fill="#fff" d="M990.06 300.9c0-1.72.5-5.84 1.37-11.25 1.35-8.44 1.7-12.76 1.02-13.02-.94-.36-7.67 1.7-20.27 6.2l-9.82 3.5-10.87-3.65c-13.1-4.38-24.4-8.56-23.4-8.62.1 0 1.6.52 3.4 1.16 1.7.65 9.4 3.27 17.1 5.83l13.9 4.66 9.7-3.6c10.8-4 17.6-6.4 19.6-6.8 1.8-.3 2-.1 1.8 1.7-.8 7.6-3.2 24.7-3.6 25.1-.1.1-.1-.4-.1-1.1zm-42 12.6c.02-1.16.04-1.23.2-.62.26.84 1.08 1.3 2.92 1.65l1.35.25-2.24.02-2.3.02v-1.3zm42.83 3.18c-9.3-.15-12-.35-12.9-.92-.4-.3-.4-.3 1.1-.2.8.05 3.8.2 6.5.3 5.6.25 16.8.82 17.9.9 1.1.1-2.9.08-12.8-.08zm20.7-6.57c-2.9-.6-8.6-2.2-12-3.3-5.3-1.7-7.2-2.6-7.4-3.8-.1-.4 1.8-13.4 2-13.6 0-.1 19.1 5.4 22.2 6.4l2.3.8v1.3c0 2.5-1.1 8.2-1.9 10.6-.5 1.4-1.6 2.4-2.6 2.4-.4 0-1.7-.2-2.8-.5zm2.9-3.5c.8-.4 1.5-.9 1.8-1.3 1.1-1.6.6-3.8-1.6-5.8-2.4-2.2-5.3-3.4-9-3.5-4.9-.2-8.1 1.3-8.1 3.9 0 1.8 2.4 4.3 5.5 5.9 2.8 1.4 4.5 1.8 7.4 1.8 2.2 0 2.5-.1 3.8-.7zM998 288.4c-2.57-.6-3.25-2.08-2.8-6.16.23-2.15 1.18-7.66 1.34-7.82.1-.1 7.6 2.94 10.1 4.1.75.32 1.34.66 1.3.72-.07.06-1 0-2.1-.13-5.58-.6-9.27 1.8-8.03 5.2.2.5.8 1.6 1.4 2.4.6.8 1.1 1.6 1.1 1.8 0 .4-.6.4-2.2 0z"/><path fill="#fff" d="M1007.13 288.48c-3.87-.7-6.9-2.6-7.35-4.6-.2-.86.38-1.8 1.4-2.35.78-.4 1.2-.47 3.2-.46 1.95 0 2.55.1 3.97.6 4 1.37 6.58 3.76 6.2 5.72-.17.9-.93 1.1-3.8 1.2-1.43 0-3.06-.1-3.62-.2z"/><path fill="#fff" d="M1015.3 293.18c-3.95-1.14-6.08-1.93-5.28-1.97.23 0 1.35-.2 2.48-.5 3.08-.7 4.1-1.7 4.1-3.8 0-1.3-.62-2.6-2.1-4.2-.6-.6-1.02-1.2-.95-1.3.2-.2 7.16 2.5 7.65 2.9.23.2.48.7.55.9.16.7-2 9.3-2.3 9.3-.13 0-2-.5-4.14-1.1zm-6.95 12.13c-2.58-.7-5.4-2.1-6.83-3.4-1.55-1.4-1.83-2.6-.8-3.4.98-.8 1.93-1 4.16-.9 3.6.2 7.62 1.9 9.7 4.1.54.6.98 1.3.98 1.5 0 .5-1.26 1.6-2.54 2.2-1.08.5-3.1.6-4.67.1z"/><path fill="#fff" d="M930.27 367.56c-4.34-.1-19.7-.68-31.57-1.2l-24.3-1.1-13.12-.56v-63.63l13.07-.1c7.88-.04 13.14-.15 13.26-.27.4-.37 1-13.55 2.1-43.64.4-9.07.7-16.5.7-16.56.2-.17 7.1.77 8.6 1.16 2.3.62 4.8 1.88 6.3 3.23 2.6 2.2 5.2 3 9.8 3 3.5 0 5.2-.3 6.8-1 1.9-.8 2.8-2.1 3.9-5.2.6-1.6 1.5-2.8 2.7-3.3 1.7-.8 6.6-.5 13.7.9 7.8 1.5 13.8 3.3 17.9 5.3 4.4 2.1 5.2 3 3.4 3.8-1.9.8-9.3 1-17.2.4-3.9-.3-10.3-.4-11.7 0-1.8.4-2.4.9-3.4 2.8-3 5.7-6.2 20.2-4.7 21.4 1.4 1.2 9.9 4.4 26.4 9.9l10 3.3 8.4-3c12.5-4.5 19.7-6.8 21.3-6.8h.6v1.6c0 2-.4 5.7-1.3 11.3-1 6.4-1.2 8.1-1.3 10.6 0 4.9 1.4 6.3 8.6 8.6 11.7 3.8 14.9 4.5 17.2 3.9 2.7-.8 3.9-3.4 6.2-13.4 1.6-6.8 2.1-8.8 2.7-9.9 1.3-2.4 3.1-2.3 10.2.6 6.5 2.6 8.7 4 9.8 6 .4.8.45 1.1.4 4.1 0 3.4-.2 5.1-1.9 12.4-.8 3.8-1.4 5.4-2 6.1-.6.5-1.8.6-4.35.1-5.9-1-34.4-2.8-63.8-4-1.63-.1-6.85-.2-11.6-.3-4.7-.1-9.13-.3-9.85-.4-1.7-.3-2.6-.9-2.9-1.9-.6-2-2.4-2.7-7.54-2.8-3.8-.1-6.8.2-9.82 1.1-2.3.7-3.1 1.1-4.7 2.5s-3.2 2.5-5.2 3.6c-1.8.9-2.77 2.1-3 3.7-.26 1.6-1.6 2.6-3.7 2.6-1.3 0-2 .5-2.4 1.6-.36.9-.4 1.7-.4 6.1 0 6.9.4 8.6 2.3 9.7 1.1.6 1.54 1.3 2 3 .4 1.3.4 1.4.3.4-.2-1.5-.86-2.8-1.86-3.5l-.9-.6h.7c.3-.1.9 0 1.3.2 1 .4 1.2 1.2 1.1 4.6-.1 2.4-.1 2.7-.2 1.6-.1-.8-.1.2-.1 2.2.1 4.1.3 5.5 1 6.7 2 3.5 13 6 17.5 4.1 1.1-.5 1.5-1 1.7-2 .2-1.1.6-1.7 1.3-2 1.1-.5 2.4-.2 3.2.8.1.2.2.2.2.1 0-.2-.3-.5-.6-.8-1.3-1.1-3.5-.6-4.1.9l-.3.7-.07-1.1c0-1.6.36-1.9 2.4-1.9 1.7 0 2.7.4 2.9 1l.4 1.8s.5 1.6.66 1.9c.2.2.2.4.1.4-.3 0-.65-.5-1.1-1.6l-.4-1 .1.8c.2 1.7 1.3 2.5 3.44 2.7 3.1.3 3.9 1.9 2.4 5-.7 1.4-.74 1.5-1.83 1.8-.6.1-2.5.4-4.3.5-3.02.1-4.62.2-10.9 0z"/><path fill="#fff" d="M1033.75 319.72c-1.44-.16-4.83-.57-7.53-.93-2.7-.4-5.62-.8-6.48-.9-1.4-.2-1.28-.2.94-.1 3.8.1 12.28.9 14.64 1.3 1.15.2 2.77.4 3.6.4 1.44.1 1.53 0 2.1-.5.86-.9 1.36-2.4 2.42-7.3 2.3-10.8 2.4-14.2.46-16.7-1.06-1.4-3.2-2.6-9.32-5.1-5.4-2.2-7.7-2.7-9.15-1.8-1.04.6-1.77 2.4-2.77 6.9-2.1 9.3-3.72 15.1-4.1 14.7-.07-.1.03-.5.2-1 .57-1.5 1.33-4.7 2.33-10.1s2-9.8 2.5-11c.7-1.8 1.8-2 4.9-1 1.6.5 17.3 6.9 17.5 7.2.1.1-.8 10.6-1.1 13.6-.8 6.4-2.3 11.2-3.7 12-.6.3-4.4.2-7.6-.1zm86.55 11.48l-16.83-2.18c-34.18-4.43-57.63-7.6-58.63-7.96-.35-.12-.64-.35-.64-.5 0-.15.34-1.43.75-2.85 1.57-5.4 1.9-8 2.17-16.3.1-3.3.24-6.1.3-6.2.27-.4 9.86 3.4 17.48 6.9 16.54 7.7 55.17 26.7 59.26 29.2 1.02.7 1.12.7-3.87 0zm-53.14-14.4c.67-.85.94-3.12.82-6.9-.16-4.9-.45-5.62-2.87-6.96-3-1.66-11.8-4.98-14.3-5.43-1.4-.2-2 .2-2.5 1.8-.5 1.8-.4 6.7.2 8.9.6 2.1 1 2.8 2.1 3.6 2.6 1.8 13.2 5.5 15.9 5.6.3 0 .7-.2.9-.5z"/><path fill="#fff" d="M1063.08 314.4c-5.13-1.34-11.84-3.75-12.17-4.36-.4-.75-.7-4.04-.7-7.38 0-1.92.1-3.55.2-3.64.5-.48 14.5 5.87 15.6 7.1.3.25.6.96.7 1.58.3 1.42.3 6.1 0 6.8-.2.67-.5.67-3.5-.1zm-51.07-1.6c-2.9-.53-16.5-4.8-18.1-5.68-.7-.43.1-.25 1.7.4 4.8 1.82 16.9 4.85 20.2 5 .2.02.2.1-.1.2-.4.2-2.7.23-3.6.07zm116.3 64.62c-.2-.66.2-6.3.9-13.27 1.6-14.3 3.3-28.77 3.6-29.02.4-.33 4.3 2.46 7.5 5.2 3.5 3.1 6.3 7.75 7.7 12.95.5 1.63.6 2.48.6 4.7 0 3.12-.2 4.16-1.8 6.6-2.8 4.35-7.1 7.84-13.8 11.22-3.9 2-4.2 2.1-4.4 1.62zm41.9 253.1l.5-40.74h4.4c2.4 0 5.4-.84 6.7-1.86 1.3-1.03 12.2-5.07 24.1-8.98 38.1-12.48 49.4-19.42 49.4-30.58 0-6.44-8.6-14.83-19.6-19.02-4.4-1.68-20.8-6.9-36.4-11.57l-28.4-8.5-.4-40.44-.4-40.43h67.4c73.1 0 86.3.96 114.1 8.34 46.2 12.23 84.1 34.17 129.5 74.97l9.1 8.2.8 27.5.8 27.5L1476 590c-41.7 39.8-87.8 65.1-139.5 76.3-15.2 3.3-22.7 3.7-91.4 4.4l-74.87.8.46-40.7zm324.1-82.13l.1-25.5 7.4 8.3c4.1 4.6 8.7 10.7 10.3 13.6l2.9 5.3-9.7 11.8c-5.3 6.5-9.9 11.8-10.3 11.8-.3 0-.6-11.5-.5-25.5z"/><path fill="#fff" d="M1181.48 570.47v-11.63h7.7c6.34 0 7.53-.47 6.7-2.64-.56-1.46-1.02-4.1-1.02-5.85 0-2.63-1.2-3.2-6.7-3.2h-6.68V531.9c0-11.5.5-15.03 2.1-14.43 1.14.44 12.62 3.97 25.5 7.84 25 7.6 36.02 12.9 40.34 19.4 2.44 3.8 2.45 4.5.07 8.1-4.3 6.5-12.1 10.3-40.9 20.1l-27.2 9.2v-11.6zM1116.26 551c0-49.42.18-52.7 2.93-51.97 1.6.43 15.6 4.45 31 8.94l28.1 8.17-1 5.88c-.6 3.24-1 18.43-1 33.75v27.87l-30.1 10.05-30.1 10V551z"/><path fill="#fff" d="M1137.16 499.35l-23.4-7.33-65.65-.03-65.6-.1v-63.5h180.6v39.3c0 21.6-.5 39.2-1.2 39.1-.7-.1-11.8-3.5-24.6-7.5z"/><path fill="#fff" d="M1037.66 579.75c0-14.26.6-25.92 1.35-25.92.8 0 2.9 1.1 4.6 2.45 4.6 3.44 32.1 3.44 36.6 0 1.8-1.35 5-2.45 7.1-2.45 3 0 3.9-.93 3.9-4.18 0-3.65-.7-4.2-5.7-4.2-3.1 0-6.2-.74-6.8-1.66-1.3-2.2-33.7-2.2-35.1 0-.6.9-2.1 1.6-3.4 1.6-2 0-2.4-4.3-2.4-24.3v-24.2h70.8l-1.1 22.8c-.6 12.6-1.1 37-1.1 54.3v31.5h-68.5v-25.9zm-122.1-58.53v-24.25h107.04v48.5H915.57V521.2zm0 58.53v-25.92h107.04v51.84H915.57v-25.92z"/><path fill="#fff" d="M982.47 639.95V609h133.1l22.43-7.5c12.34-4.15 23.03-7.54 23.76-7.54.73 0 1.32 17.3 1.32 38.47v38.46H982.5v-31zm113.72 14.22V640.8H1056v26.75h40.14v-13.38zm-13.4-31.03v-7.6l-8.8.5c-8.3.47-8.8.78-9.3 5.24-.9 8.06.5 9.48 9.7 9.48h8.4v-7.62z"/><path fill="#fff" d="M1059.4 653.33v-9.2h31.77v18.4h-31.77v-9.2zm12.15-27.08c1.63-.42 3.9-.4 5.02.06 1.13.5-.2.9-2.96.8-2.7 0-3.6-.4-2-.8z"/><path fill="#fff" d="M1068.32 623.42v-3.2h10.45v6.38l-1.56-.35c-1.9-.43-4.3-.42-6.9.03l-1.9.34v-3.2zm112.76-67.03c-.63-.2-.73-.6-.62-2.6l.12-2.4h10.87l.13 2.1c.2 2.9-.3 3.1-5.54 3.1-2.3-.1-4.54-.2-4.96-.3zm-70.26 47.7c-.16-.9-.4-21.1-.53-44.8-.3-40.2 0-61.7.9-63 .2-.4.4-.3.7.3 1 1.8.6 102.9-.5 107.6l-.4 1.4-.3-1.7zm-79.16.3c-.44-2.6-.44-45.7 0-48.4.4-2.4 1.2-2.4 1.62-.1.36 2 .34 47.1-.02 48.8-.43 2-1.22 1.8-1.6-.5zm-4-1.2c-.4-4.3-.4-41.8 0-46.1l.3-3.3.28 2.1c.38 2.7.38 45.8 0 48.5l-.3 2.1-.3-3.3zm4.22-58.6c-.78-1.8-.8-45.9-.02-47.7.42-1 .65-1.1 1.04-.7.72.7.74 47.5.02 48.7-.47.8-.52.8-1.04-.4zm-4.23-2.1c-.38-3.8-.38-39.7 0-43.5l.3-3 .3 1.8c.38 2.4.38 43.1 0 45.6l-.3 1.8-.3-3zm-235.27 37.9v-26.3h115.4v52.7h-115.4v-26.3zm0-60v-25.3h37.52c34.32 0 67.25.5 74.84 1.1l3.03.2v49.2h-115.4v-25.2zm-123.04 2.4c.07-12.6.24-23.9.36-25l.22-2.2 19.73-.3c10.86-.2 36.9-.3 57.9-.3h38.14v50.6H669.2l.14-22.9zm-.3 57.6v-26.3H785.7v52.7H669.03v-26.3zm-214.9 59.8v-31.3h522.62v62.7H454.14v-31.3zm7-89.8c-5.83-.2-7-.3-7-.8 0-.6 31.3-.6 262.25-.6 144.2.1 284.1.2 310.9.4l48.7.2-44.1.3c-45.1.3-558.1.7-570.8.4zm86.23-30v-25.3h115.4v50.6h-115.4v-25.3zm-123.33 60v-26.3h116.64v52.7H424.04v-26.3zm123.33 0v-26.3h115.4v52.7h-115.4v-26.3zm-123.33-60v-25.3h116.64v50.6H424.04v-25.3zm-103.7 0v-25.3h97.42v50.6h-97.4v-25.3zm0 60v-26.3h97.42v52.7h-97.4v-26.3zm-51-102V475h83.73l5.07 2.8c2.78 1.5 5.43 3.02 5.9 3.32.68.46-7.08.55-46.94.55h-47.76v-3.34zm53.3-23.6l-49.26-27.3c-.73-.5-.7-.7.73-3.5.9-1.6 1.7-3 1.8-3 1.4 0 85.3 47 98.4 55.1.5.3.4.7-.5 2.2-.6 1-1.4 2.1-1.8 2.5-.7.7-3.4-.8-49.2-26.1zm-52.46-4.3c0-11.7.1-21.2.23-21.2.2 0 1.4.6 2.8 1.3l2.5 1.3v39.5h-5.4v-21.1zm9.2 2.9c0-13.9.1-18.2.5-18.2.55 0 14.44 7.5 44.84 24.4L345.2 471l-9.2.24c-5.1.13-19.9.3-32.9.3l-23.8.06v-18.2z"/><path fill="#fff" d="M217.84 492.33c-5.44-.13-10.05-.4-10.24-.6-.54-.54 6.64-14.28 10.68-20.42 9.05-13.7 20.66-25.2 35.2-34.8 6.1-4 12.42-7.5 12.85-7.1.36.4.3 31.6-.1 45.5l-.3 10.4h56.58c31.2 0 57.3-.1 58.2-.2l1.6-.2V472H380c-1.24 0-3.27-.3-4.5-.7-4.5-1.4-19.98-9.65-59.8-31.84-9.07-5.05-17.1-9.55-17.85-10-1.33-.8-1.34-.83-.4-1.12 2.22-.64 74.13-1 209.9-1.03h144.57V493l-162.95-.27c-89.62-.2-166.32-.46-170.44-.67-7.77-.4-7.55-.3-8.8-2.3-.53-.8-4.64-1.3-7.93-.86-2.16.3-2.43.4-2.82 1.55-.24.7-.92 1.45-1.53 1.72-1.22.5-62.08.74-79.56.3z"/><path fill="#fff" d="M302.37 518.84v-26.96h5.43v53.93h-5.43v-26.9zm-30.1 1.67v-25.2h26.34v50.6h-26.3v-25.3zm0 60v-26.3h26.34v52.7h-26.3v-26.4zm30.1 1.9v-28.2h5.43v56.5h-5.43v-28.2zm8.73 23.8c-.47-.5-.6-5-.7-24.2-.06-12.9.03-24.4.22-25.5.3-1.7.47-2 1.36-2 .85 0 1.07.3 1.36 1.7.2 1 .3 12.5.23 25.6-.1 19.5-.23 24-.7 24.6-.72.9-1.05.9-1.77 0zm0-61c-.47-.5-.6-4.9-.7-23.5-.06-12.5.04-23.5.23-24.5.3-1.4.52-1.6 1.36-1.6.8 0 1 .3 1.3 1.7.2.9.3 12 .2 24.5-.1 18.6-.3 23-.7 23.5-.7.9-1.1.9-1.8 0zM139.94 550c-16.77-.17-6.4-.3 42.6-.53 64.1-.3 276.8-.32 273.38 0-.98.08-1.78.33-1.78.55 0 .4-271.9.4-314.2-.02zM37.3 625.85c0-2.12.06-2.27.65-1.68.84.84 1.05.83 4.58-.15 5.4-1.5 39.7-14.77 40.76-15.77.4-.47.6-1.66.6-5.5-.1-7.44-1.2-9.23-5.6-8.62-1.5.2-32.4 6.7-39.6 8.33-.9.2-.9.13-1.2-9.5-.4-12.35-.1-92.13.3-92.55.3-.3 5.3.7 25.6 5.1 13 2.9 17.1 3.5 18.1 2.9 1.6-1 2.3-3.5 2.5-9l.1-5.2-4.2-1.6c-31-11.9-38-14.4-40.2-14.4-.6 0-1.5.3-1.9.7-.8.7-.8.6-.8-1.9 0-1.4.1-2.5.3-2.5.2 0 15 4.6 33 10.1l32.7 10.2.3 56.2c.2 30.9.2 56.3.1 56.4-.3.3-65.5 21.1-66 21.1-.2 0-.3-1-.3-2.3zm72.74-105.34v-25.2h26.76v50.6h-26.76v-25.3zm0 60v-26.3h26.76v52.7h-26.76v-26.4zm33.03 0v-26.3h18.82v52.7H143v-26.4zm25.1 0v-26.3h19.64v52.7h-19.6v-26.4zm25.9 0v-26.3h19.66v52.7h-19.65v-26.4zm25.93 0v-26.3h19.65v52.7H220v-26.4zm26.34 0v-26.3H266v52.7h-19.66v-26.4zm0-60v-25.2H266v50.6h-19.66v-25.3zm-26.34 0v-25.2h19.65v50.6H220v-25.3zm-25.92 0v-25.2h19.65v50.6h-19.65v-25.3zm-25.92 0v-25.2h19.65v50.6h-19.6v-25.3zm-25.1 0v-25.2h18.83v50.6H143v-25.3z"/><path fill="#fff" d="M70.53 503.93c-15.75-3.47-28.2-6.25-29.26-6.54-1.6-.5-1.86-2-.6-3.6 1.24-1.6 1.3-1.6 16.7 3.9 20.07 7.1 22.2 8.1 13.17 6.1zm2.93-3.73c-21.1-7.5-30.6-11.02-31.22-11.55-1.3-1.14-1.48-7.24-.2-7.22.26 0 8.76 3.2 18.88 7.1 12.24 4.7 18.64 7.38 19.13 7.98.5.7.73 1.7.73 3.4 0 2.1-.12 2.5-.73 2.5-.4 0-3.37-.9-6.6-2.1zm2.72-2.25c0-.94-1.16-1.53-11-5.6-14.18-5.9-19.45-7.82-20-7.27-.26.26-.35.78-.2 1.15.45 1.2 11.86 6.25 23.26 10.3 5.96 2.1 7.94 2.46 7.94 1.42zM40.63 609.53c-.23-.6-.46-1.67-.52-2.4l-.1-1.32 5.3-1.3c6.4-1.6 25-5.8 27.6-6.2 1.3-.1 1.7-.1 1.3.2-1.1.8-32.1 12.2-32.9 12.2-.1 0-.3-.4-.5-1zm.7 8.3c.15-2.02.37-3.78.5-3.94.25-.3 24.58-9.2 34.28-12.5 4.6-1.6 4.8-1.6 4.6 2.4l-.1 2.6-5.4 2.1c-12.3 4.7-33.7 12.9-33.9 12.9-.1 0 0-1.7.1-3.7zm14.77-4.15c8.9-3.33 17.53-7.08 18.47-8.02.4-.4.57-1 .42-1.4-.3-.65-.6-.62-3.5.34-8.5 2.85-26.8 10.6-26.8 11.35 0 1.55 2.3 1.08 11.3-2.27zM37.28 492.64c-.1-.5-.1-6.05 0-6.43.1-.3.27-.3.46.2.4 1 .6 3.6.35 5.1-.2.8-.5 1.6-.7 1.6-.1 0-.2-.1-.2-.4zM72.3 620.66c-.12-.18.7-.5 5.36-2.13 3.35-1.17 5.5-1.83 6.3-1.93.72-.1.6.06-.48.6-3.05 1.54-10.88 3.96-11.18 3.46zm-35-5.1c-.1-.2-.13-1.04-.13-2.76 0-2.37.05-3.24.24-3.24.2 0 .6 1 .8 1.82.3 1.5.1 3.62-.5 4.25l-.2.25-.1-.3z"/><path fill="#fff" d="M40.87 605.42c2-.64 11.6-2.95 20.17-4.86 7.7-1.7 16.54-3.56 16.93-3.54.2 0-1.2.6-4.22 1.78-1.32.5-2.44.92-2.5.9-.05-.02.37-.2.94-.44 1.4-.56 2.1-.9 2.1-1.02 0-.2-1.8 0-4.2.5-7.9 1.62-21.4 4.72-27.6 6.36-2.4.62-3.1.75-1.7.32zm-3.8 21.05c.05-3.1.13-3.47.63-2.85.3.38.3.5.04.34-.4-.25-.47 0-.47 1.6 0 1.73.1 2.48.32 2.57.1.07.7-.1 5.7-1.66 2-.63 3.7-1.12 3.7-1.1.1.02-8.9 2.93-9.9 3.18-.2.03-.2-.24-.2-2.08zm43.56-20.53c.04-.4.08-1.62.1-2.7 0-1.75 0-2.04-.17-2.34-.27-.5-.6-.6-1.48-.45-.4.07-.74.1-.76.08-.07-.07 1.75-.6 1.94-.57.1.02.25.26.38.6.18.52.2.87.2 3.3 0 2.2-.02 2.7-.13 2.75-.1.1-.1 0 0-.6zM76.36 505.2c-1.54-.28-1.7-.33-1.23-.36.3 0 .55-.07.55-.13 0-.1-1.37-.7-2.76-1.3-.57-.2-.98-.4-.93-.4.1 0 5.4 2 6.1 2.4.4.3.3.2-1.8-.1z"/><path fill="#fff" d="M37.46 531.2c.08-14.64.23-27.97.34-29.7l.06-1.07h.44c1.14 0 5 .77 20.47 4.1 15.1 3.22 18.57 3.9 20.95 4.02 1.45.08 1.9-.06 2.54-.77 1.32-1.5 1.7-3.76 1.94-11.44.06-1.85.04-2.26-.07-2.3-.08-.04-3.4-1.3-7.36-2.84-27.64-10.62-34.68-13.14-36.74-13.14-.74 0-1.5.27-2.05.72-.27.23-.43.3-.5.22-.13-.13-.15-3.36-.03-4.1.06-.32.14-.5.24-.5l2.9.85c10.3 3.13 62.3 19.23 62.5 19.35.1.07.3 31.58.3 47.1v3.05h-66V531.2z"/><path fill="#fff" d="M78.26 502.03c-1.25-.44-2.26-.8-2.23-.84.02-.1.8.2 1.7.5 1.08.3 1.85.5 2.23.5.57 0 .57 0 .7-.4.16-.5.18-3.1.02-4-.14-.8-.4-1.3-.8-1.7-.58-.5-5.7-2.7-11.6-5-1.24-.5-2.2-.9-2.15-.9.1-.1 12.82 4.8 13.4 5.1.4.2.8.7 1.1 1.4.18.4.2.8.25 2.4.04 1.7-.1 3.2-.27 3.3 0 0-1.1-.3-2.3-.8zm61.28 25.63c-.03-4.37-.03-11.02 0-14.8.05-6.2.06-6.64.15-4.75.1 2.6.1 24.5-.1 26.3-.1.9-.1-1.1-.2-6.7zm-22.8-32.43h13.38c3.66.02.63.03-6.73.03-7.4 0-10.4 0-6.7-.03zm-6.68 25.32V495.3h26.66v50.5h-26.66v-25.25z"/><path fill="#fff" d="M136.82 520.5v-25.3h-13.38c-11.82 0-13.38 0-13.38-.15 0-.14 1.57-.16 13.44-.16h13.43v25.4c0 14-.03 25.4-.06 25.4s-.05-11.4-.05-25.3zm6.27-25.45c0-.14 1.1-.16 9.4-.16s9.4 0 9.4.1-1.1.1-9.4.1-9.4 0-9.4-.2zm-3.6 92.76a1496.97 1496.97 0 0 1 0-15.5c0-6.5.1-7.3.1-5.7.1 2.3.1 25.9-.1 27.9-.1 1.1-.1-.6-.2-6.6zm26 4c-.1-5.7-.1-16.8 0-22.9.1-4.4.1-4.6.1-2.6.1 2.8.1 24.8 0 27.8-.1 2.3-.1 2.3-.2-2.2zm-28.7-11.2v-26.4h-13.4c-8.9 0-13.4 0-13.4-.1s4.5-.1 13.4-.1h13.4v26.5c0 14.6-.1 26.5-.1 26.5s-.1-11.8-.1-26.3zm10.9-26.3a921.6 921.6 0 0 1 9.4 0h-9.5zm0 0a921.6 921.6 0 0 1 9.4 0c2.6 0 .4.1-4.8.1h-4.7zm-4.7-.1s3.2-.1 9.4-.1 9.4.1 9.4.1-3.2.1-9.4.1-9.4 0-9.4-.1zm232.7-72.7c0-.2.6-1.4 1.4-2.6l1.4-2.3v2c0 2.7-.3 3.3-1.7 3.3-.7 0-1.2-.1-1.2-.3zM274.3 668.2c-11.1-6.48-18.95-12.04-28-19.84-11.2-9.65-24.13-24.84-29.88-35.12l-1.35-2.4 1.2-.42c2-.8 16.7-1.12 50.4-1.15l32.03-.02.12 1.98c.16 2.75 1 3.14 6.3 2.96 4.63-.2 4.87-.4 4.9-3.2v-1.8h143.8V672l-86.65-.03-86.6-.02-6.26-3.64zm377.6-208.6V427h324.5v65.2H651.93v-32.6zM914 580.35V554h1.46v51.85l53.56-.05 53.57-.06V554h1.2v52.68H914v-26.34zm0-59.47v-25h110v49.93H914.04v-24.9zm108.65.33v-24.3H915.5v48.7h53.57l53.57-.1.05-24.3zm-41.5 133.7c.1-15.9.22-21.5.84-36.4.2-6 .2-4.5.3 23.1v29.6H1163v-28.8c0-27.5-.2-38.1-.8-44.8-.3-3-.4-3.5-.8-3.5-.8 0-10.4 3.1-28.2 9.1-16.2 5.4-18.3 6.1-19.3 6-1-.1.8-.7 24.12-8.5 13.9-4.6 25.3-8.4 25.4-8.3.1.1.2 18 .2 39.9l.1 39.7H981l.13-16.7z"/><path fill="#fff" d="M1058.07 653.82v-9.93h33.87v19.8h-33.87v-10zm33.2-.47l.04-9.25h-31.9v18.6l16-.04 16-.06.1-9.25z"/><path fill="#fff" d="M1056.2 667.2c0-.27 2.3-.3 19.43-.3h19.44v-25.93h1.05v26.55h-19.97c-17.6 0-19.96-.04-19.96-.32zm9-39.2c-.38-.7-.52-1.35-.6-2.7-.1-1.97.37-5.82.82-6.8.26-.58.3-.4.34 2.14.03 1.52.03 4 0 5.54l-.06 2.77-.5-.94zm5.3 2.5c-1.03-.1-2.1-.26-2.4-.38-.36-.14 1.72-.2 6.75-.22h7.26v-13.2l-6.8-.03c-4.3-.02-6.4-.1-5.7-.2 1-.15 11.5-.83 12.7-.83h.5v15.05l-5.1-.1c-2.8 0-6-.1-7-.2zm-33.33-50.16V554h.75c.75 0 .75 0 .63.8-.7 4.44-.96 13.88-.96 33.75v17.3l34.3-.05 34.3-.06.1-29.68c0-16.33.2-32.88.3-36.8l.2-9.14c0-1.9 0-2.04.4-2.04s.4.14.4 1.2c0 5.18-1 63.84-1.2 72.13l-.2 5.3H1037v-26.3z"/><path fill="#fff" d="M1077.92 556.74c.12-.23.22-.74.22-1.15 0-1.3.6-1.5 3.96-1.6l2.83-.1-1.42.5c-.7.3-2 .9-2.8 1.3-2.1 1.3-3.1 1.6-2.7.9zm12.14-7.13c0-3.1.03-3.4.33-3.1.4.5.7 1.7.7 3.1s-.3 2.7-.8 3.2c-.3.3-.3 0-.3-3.1zm-8.8-3.9c-2.18-.1-3.12-.5-3.12-1.2 0-.2-.2-.5-.46-.7-.35-.2-.38-.3-.14-.3.2 0 .7.3 1.12.7.44.4 1.26.8 1.83 1 1 .4 4.3.7 6.9.8.8.1.2.1-1.4.1-1.6 0-3.8 0-4.9-.1zm-44.1-24.7v-25h70.67v1h-70.28l.1 21c.1 21 .18 23.3.88 25.8.42 1.5.75 1.9 1.63 1.9 1.16 0 2.17-.4 3.16-1.3 1-.8 1.7-1 5.66-1.5 2.74-.3 21.2-.3 23.83 0 1.2.2-1.1.2-7.8.1-10.3-.1-17.6.2-19.3.7-.7.2-1.1.5-1.4.9-.5.9-1.7 1.3-4.6 1.5l-2.4.1v-25zm5.02 34.3l-1.98-1.2 1.28.1c1.54.2 2.27.6 2.6 1.6.13.4.2.8.16.8-.04.1-.96-.5-2.06-1.2zm73.7 48.4c-.46-2.7-.57-10.3-.67-45.4-.1-43.4.2-59.5.9-60.7.1-.1.6 0 1.1.2 1.8.5 40.1 11.8 50.8 15 6.9 2 10.3 3.1 10.3 3.3 0 .2-.1.3-.3.2l-55-15.9c-2.3-.6-4.3-1.1-4.5-1-.9.3-1.3 2.1-1.7 7.4-.2 3.7-.5 97.5-.2 97.5.1 0 13.7-4.5 30.2-10l30-10 .2-24.2c.1-26.6.4-35.1 1.2-39.1l.2-.8v1c0 .6-.1 5.4-.3 10.9-.3 11.1-.7 28.3-.9 43.2l-.1 9.8-30.1 10c-16.5 5.5-30.2 10-30.3 10-.1 0-.3-.3-.4-.7zm-58.75-44.9c-1.46-.1-8.12-.7-8.2-.8h12.9c7.1 0 12.9 0 12.9.1-.04.1-1.44.2-3.13.4-3.03.4-11.6.6-14.47.4zm123.35 23.2c-.07-.4-.2-5.7-.25-11.8l-.12-11h1.3l.1 11.6.1 11.6 17.7-6 21.8-7.5c19.9-7.1 26.4-11 29.8-17.8.7-1.4.8-2.7.1-4-2.2-4.4-5.9-7.6-12.5-10.9-7.4-3.7-14.3-6.2-36.2-12.8-7.2-2.2-14.3-4.3-15.7-4.8-1.4-.4-2.8-.8-3.1-.7-1.4.2-1.7 3.8-1.7 19v10.9l5.6.1c4.8.1 5.7.1 6.3.4.7.4.7.4-3 .3-2 0-5.2-.1-6.9-.2l-3.2-.1.1-14.7c.1-13.8.2-16.1.7-16.6.1-.1 2.6.6 5.6 1.5l19.3 5.8c29.1 8.7 33.3 10.4 40.2 16.4 1.9 1.7 4.3 4.5 5.1 6 .6 1 .7 1.6.8 2.8.1 1.5.1 1.6-.7 3.2-1.1 2.2-4.8 6-8.1 8.2-4.3 2.8-11.4 6-20.8 9.3-10 3.5-40.4 13.3-41.3 13.3-.2 0-.3-.3-.4-.8z"/><path fill="#fff" d="M1195.13 557.4c-.14-.87-.14-4.15 0-3.5l.52 1.84c.42 1.45.4 2.1-.1 2.3-.2.08-.33-.13-.42-.66zm-26.05 66.15v-33.52l2.56-.8c3.26-1.03 4.63-1.16 5.45-.52.4.4.5.6.3.7-.1.2-1.7.3-3.6.3l-3.3.1-.2 7c-.1 3.8-.3 17.7-.4 30.9-.3 26.8-.3 29.5-.8 29.5-.3 0-.3-4.9-.3-33.5zm11.08-35.46c0-1.5 4.17-3.1 26.9-10.5 13.14-4.3 19.65-6.6 24.38-8.4 1.47-.6 2.72-1 2.77-1 .2.1-.7.5-5.6 2.4-5.1 2-10.5 4-21.7 7.7-15.1 5-22 7.6-24.9 9.2-.8.4-1.5.8-1.6.8 0 0-.1-.2-.1-.4zm70.8-47.8c-2.38-2.7-8.2-7.1-11.67-8.8-5.5-2.8-18-6.7-66.1-20.7l-3.9-1.2-.2-6.6c-.1-3.7-.2-18.4-.2-32.7 0-22.7 0-26.1.3-26.1.1 0 .3.2.4.6 0 .4.2 12.8.3 27.5.1 14.8.3 29.1.3 31.8l.1 4.9 10.3 3.1c35 10.5 51.8 15.7 56.5 17.9a43.32 43.32 0 0 1 8.4 4.9c2.5 1.9 6.9 6.4 6.3 6.4 0 0-.6-.6-1.3-1.4zm-88.36-32.8c-.3-.1-2.83-.9-5.65-1.7-5.74-1.7-15.1-4.6-30.73-9.4l-10.56-3.3-32.82-.2c-18.05-.1-38.3-.2-45-.2-12.03 0-12.17 0-12.17-.4s.14-.4 44.04-.4h44.1l15.7 4.9c29.3 9.1 32.3 10 32.6 9.7.7-1.1 1.3-21.4 1.3-47.1 0-13.4.1-15.2.3-15.2.6 0 .4 59.1-.2 62.4-.1.7-.2.8-.6.6zm-55.35 16.2c.1-2.4.24-5.7.34-7.4.1-2.8.1-2.3.2 4.2 0 6.9 0 7.3-.4 7.3s-.4-.3-.2-4.2zm283.4-73.6c-19.82-9.3-50.76-17.8-72.3-20-14.6-1.5-19.1-1.6-84.08-1.8l-64.96-.2.4 7.9c.2 5.7.2 7.9-.1 7.9s-.4-2.6-.4-8.6V427l62.6.2c67.1.23 74.9.45 91.3 2.64 14.8 1.97 35.5 7.24 51.1 12.98 6.3 2.3 17.6 7 19.9 8.27 2.3 1.2-.1.6-3.1-.9zm-363.15-21.9c24.8-.1 65.5-.1 90.38 0h-45.1s-70 0-45.2-.1z"/><path fill="#fff" d="M990.2 492.75l-8.1-.06V427H1164l-.04 11.76c-.03 6.47-.08 10.5-.1 8.94-.08-3-.2-3.84-.5-2.93-.08.3-.16-3.3-.17-8l-.1-8.5H982.3v63.75l22.5.03c12.4 0 22.15.06 21.66.1-.6.06-.9.2-.9.4 0 .3-7.9.33-35.37.13zm503.92 56.18c0-15.02.03-27.3.07-27.3.1 0 6.6 7.14 8.1 8.94 5 5.84 10.9 13.86 12.3 16.84 1 2.3.8 3-2.5 7.4-3.7 4.9-8.9 11.1-14.6 17.5-1.7 1.9-3.2 3.5-3.3 3.7-.3.3-.3-1.1-.3-27zm2.1 23.73c2.02-2.1 5.55-6.3 13.4-15.93a3731.12 3731.12 0 0 0 5.22-6.38c.16-.2-2.87-5.8-4.3-7.95-2.9-4.3-5.62-7.67-12.5-15.44l-3.7-4.2-.04 19.87c-.05 21.78.12 31.32.56 31.32.06 0 .66-.58 1.35-1.3zm-14-59.7c-19.55-17.55-34.45-29.3-50.94-40.2-11.54-7.62-23.57-14.47-34.04-19.38-2.38-1.12-2.8-1.38-2.56-1.62.24-.23 1.1.13 5.45 2.26 22.57 11.1 44.23 25.24 63.08 41.2 10.2 8.62 25.9 23.05 25 22.98 0 0-2.7-2.36-5.9-5.25zm-250.32 158.1v-.46h6.43c8.56 0 37.63-.36 50.95-.63 26.08-.53 34.54-1.2 45.78-3.58 32.22-6.9 62.67-19.4 90.94-37.4 15-9.6 30.34-21.4 44.13-34.1 1.7-1.6 7.1-6.7 11.94-11.3 8.02-7.7 8.84-8.4 8.84-7.9s-.9 1.5-7.1 7.6c-10 9.7-14.1 13.5-20.2 18.8-36.9 31.7-79.5 53.9-121.2 63.2-5.5 1.2-13.6 2.8-17.9 3.4-11.6 1.8-22.8 2.2-67.6 2.4l-24.8.1v-.4zm-62.84-8.1c0-4.96.06-8.3.1-7.45.1 1.6.28 2 .5 1.1.05-.2.07 3 .04 7.2l-.06 7.6 7.64-.1c12.63-.1 48.37-.5 51.58-.5h3v.9l-20.15.1-31.4.2-11.2.1.1-9zm64.3-94.54c.02-.02.68-.3 1.48-.64 6.98-2.97 11.3-5.78 15.48-10.06 1.17-1.2 1.8-1.97 2.56-3.1 2.08-3.08 2.54-6 1.42-9.1-.36-1-1.23-2.54-1.96-3.48-.22-.27-.22-.3-.1-.4.18-.1.22-.07.85.94.9 1.46 1.5 3.12 1.8 4.46.1.83.1 2.77-.1 3.82-.5 2.9-1.9 5.3-4.3 7.76-2.4 2.35-5.2 4.28-9.7 6.68-1.8.92-6.5 3.15-6.7 3.15v-.23l-.4.1c-.3.12-.5.16-.5.1zM283.92 421.45c-1.7-.16-2.56-.44-2.56-.82 0-.6 2.25-.53 9.2.25 3.6.4 4.1.5 3.23.62-1.4.2-7.8.16-9.9-.05zm-13.73 2.66c-.2-.9 0-1.7.5-2 .8-.4.8 1.6-.1 2.5-.3.3-.3.2-.5-.4zm8.8 37.6c0-14 .2-25.1.5-26.4v-.3l1.4.8 5.8 3.2c-.1.1-1-.4-2-1-2.7-1.4-4.7-2.4-4.9-2.4-.1 0-.2.1-.2.2-.3.7-.3 4.4-.4 19.6-.1 14.2-.1 16.7-.2 16.7-.2 0-.2-1.5-.2-10.1zm-3.4-9.6c0-15.7 0-19.7.1-19.7.1.1.1 4.1.1 19.8 0 17.5 0 19.7-.2 19.7s-.2-2.2-.2-19.7zm-6.6 26.4V475h42c33.4 0 42 0 42.2.12.1.1-8.3.13-41.9.1h-42.1v3.33c0 2.14-.1 3.33-.1 3.33-.1 0-.1-1.22-.1-3.45z"/><path fill="#fff" d="M266 484.32c.02-.47.1-3.03.16-5.67.06-2.65.13-5.02.14-5.28.02-.26.02 1.72 0 4.4-.03 2.66-.07 5.35-.1 5.96l-.07 1.1 11.43.1 26.07.14c14.37.08 14.17.08-11.54.1h-26.2v-.85zm38.4-47.7c-16.85-9.4-27.97-15.4-28.48-15.4-.23 0-.86 1.03-1.97 3.24-1.12 2.24-1.24 2.63-.88 2.98.13.13 4.3 2.48 9.26 5.22 4.96 2.75 9 5 8.97 5.04-.03.03-4.3-2.3-9.47-5.15-8.56-4.73-9.4-5.22-9.34-5.42 0-.12.6-1.3 1.2-2.62 1.1-2.3 1.8-3.4 2.1-3.4.3 0 3.5 1.7 12.3 6.5 6.5 3.6 19.4 10.8 19.5 10.9.3.3-.4-.1-3.4-1.7zm-6.32-7c-.86-.5-1.63-.97-1.72-1.05-.2-.2-.03-.35.48-.4.33-.05.37-.04.17.04-.5.3-.2.6 1.8 1.7.6.4 1.1.6 1.1.7 0 .1-.2 0-1.7-.8zm63.53 47.02c-5.3-2.96-9.7-5.4-9.7-5.44.1-.02 2.2 1.13 4.9 2.57 8.7 4.74 12.8 6.85 14.2 7.28.3.1.7.16.9.12.4-.08.4 0 0 .48l-.3.38-9.7-5.4z"/><path fill="#fff" d="M377.05 471.7c-3.05-.52-9.9-3.88-26.87-13.15-12.27-6.7-50.1-27.7-50.4-27.95-.02-.03-.02-.08 0-.1.05-.02.36.12.7.3a9524.23 9524.23 0 0 0 24.1 13.45c23.73 13.18 36.06 19.84 43.75 23.67 5.8 2.88 7.38 3.48 10.1 3.8l.8.1h-.78a9.78 9.78 0 0 1-1.4-.1zm-1.26 10.02c-.6-.18-.4-.53 1.3-3.2 1.3-2.16 1.6-2.57 1.6-2.48.1.17.2 1.95.1 3-.1 2.3-.5 2.78-2.2 2.77h-1zm2.1-.26c.6-.3.7-.82.8-3.2 0-1.22 0-1.84-.1-1.84-.2 0-2.7 4.14-2.9 4.7-.1.23 0 .38.4.44l.4.07c.2.06 1-.05 1.3-.17zm4-3.23c0-5.63 0-6.4.1-6.4s.1.77.1 6.4c0 5.63 0 6.4-.1 6.4s-.1-.77-.1-6.4zm-24 3.5c3.3-.05 5.5-.16 5.9-.3.1-.05.2-.08.1-.17-.2-.14-3.4-1.96-7.5-4.2-2-1.07-3.5-1.94-3.4-1.96.1-.02 11.8 6.48 12 6.65 0 .04-2.2.06-5.2.05h-5.3l3.2-.06zm-54.6-9.94c8.1-.1 24.8-.2 29-.3 6.6-.2 12.6-.3 12.6-.4 0-.1.1 0 .3.1l.3.2h-.4c-1.5.2-21.5.3-37.8.3-5.7 0-7.6 0-4.2-.1zM456 302.3v-.6l29.8-.1c16.4-.1 58.44-.1 93.4-.1 54.04 0 63.6 0 63.6.2 0 .3-6.5.3-52.82.5-68.24.23-106.9.4-120.65.5l-13.34.1v-.6zm17.9-29.8v-27.3h.9v54.5h-.9v-27.2zm.95-32c0-2.8.02-4 .1-2.6a77.25 77.25 0 0 1 0 5c-.08 1.4-.1.3-.1-2.5zm-.73-.2c0-3 .1-4.77.3-4.77s.3 1.77.3 4.73c0 2.97-.1 4.75-.3 4.75s-.3-1.7-.3-4.7zm133.05 28.4v-31l-37-.2c-34.48-.15-54-.5-67.37-1.1-4.9-.2-4.6-.2 3.2-.1 4.8.06 29.65.2 55.2.3l46.5.2v31.43c0 20.77-.1 31.45-.3 31.45-.2 0-.3-10.55-.3-31zm141.9-.07v-31h-69.4c-61.56 0-69.48-.05-69.48-.45s7.9-.43 69.7-.43h69.7v31.47c0 20.8-.1 31.5-.3 31.5-.2 0-.3-10.56-.3-31.06zm7.4-30.98c2.95-.06 4.34-.2 4.5-.45.17-.3.22-.3.23 0 0 .25.8.4 2.6.46 1.4.07-.6.1-4.5.1s-5.2-.04-2.8-.1z"/><path fill="#fff" d="M752.17 268.38l-.04-31.52 36.33.03h36.33H793c-30.06 0-31.74.1-32.2.3-.4.2-1.07.3-3.48.4-1.64.1-3.47.1-4.06.1h-1.07l-.1 31-.1 31v-31.5zm-109.3 33.53c.17-.1.1-.1-.28-.2h26.7c15 0 41.7 0 59.3-.1 28.5 0 29.9 0 12.5.1-29.5.2-82.4.5-91 .5-4.6 0-7.5 0-7.4-.1z"/></svg>