<svg xmlns="http://www.w3.org/2000/svg" width="720.916" height="1620.831" viewBox="0 0 675.859 1519.529"><path d="M595.852 1518.154c0-.756-.28-2.78-.625-4.5l-.625-3.125-45.125-.24-45.125-.24 44.75-.27c24.613-.15 44.75-.4 44.75-.55 0-.15-1.52-5.55-3.376-11.99l-3.376-11.72h21.907c16.664 0 22.023-.3 22.39-1.26.265-.69-1.324-6.64-3.53-13.21-4.57-13.6-4.65-14.19-2.278-16.81 1.64-1.82 1.64-1.99 0-3.19-.96-.7-1.74-2.15-1.74-3.22 0-1.07-1.06-5.07-2.35-8.89-1.8-5.33-2.79-6.95-4.24-6.95-1.49 0-2.54-1.85-4.83-8.5l-2.93-8.5-.24-52-.24-52 6.1-3.5c21.44-12.31 46.31-38.65 58.11-61.55l2.6-5.05.01-514.62c.01-454.67-.17-515.97-1.52-526.21-7.61-58.07-34.65-112.16-80.19-160.45-13.45-14.26-29.64-29.14-38.91-35.75-6.42-4.58-6.44-4.59-9.16-2.83-7.19 4.63-24.06 19.55-36.3 32.08-49.93 51.14-78.66 108.96-85.9 172.86-.64 5.61-1.02 52.89-1.02 125.5 0 64.07-.3 152.38-.67 196.25l-.67 79.75h-16.67v-4.8c0-14.45-3.22-88.43-4.55-104.7-3.55-43.24-7.96-69.62-15.65-93.5-6.24-19.42-13.44-31.4-20.48-34.07-7.71-2.93-19.33.75-25.65 8.13-6.74 7.87-35.32 67.51-51.64 107.76l-14.73 36.33-13.31 14.14c-14.48 15.38-17.17 19.73-21.16 34.19l-2.21 8-.69 209.5c-.38 115.22-.75 251.68-.81 303.25l-.12 93.75-3.25.02c-14.5.1-40.57 21.97-96.69 81.13-11.31 11.92-32.94 34.42-48.07 50-15.13 15.58-37.37 38.68-49.43 51.33-20.81 21.82-22.15 23.46-26.13 32-2.31 4.95-5.35 13.27-6.75 18.5-2.32 8.6-2.62 11.96-3.2 35.5-.62 24.98-.56 26.12 1.38 29.19 1.46 2.3 3.07 3.39 5.75 3.89 3.48.65 9.25-2.06 86.56-40.69l82.84-41.39 8.98-9.02 8.98-9.02 9.01-22.9c4.95-12.6 9.23-23.13 9.5-23.4.47-.47 7.67.87 15.76 2.94 3.36.86 3.75 1.293 3.75 4.2 0 1.78-4.05 13.54-9 26.13s-9 23.48-9 24.21c0 1.93 21.05 11.86 31.5 14.85 10.78 3.09 23.47 5.284 32.91 5.693 7.77.33 7.49.622 8.97-9.3l.68-4.56-5.79-.21c-9.23-.34-24.04-2.816-33.78-5.65-9.49-2.76-28.5-11.19-28.5-12.637 0-1.2-.24-1.286 10.1 3.51 15.2 7.06 28.62 10.72 44.39 12.11 3.85.34 8.41.83 10.13 1.1 3.61.56 3.88.13 4.87-7.76l.69-5.507-9.32-.7c-5.12-.39-9.52-.908-9.76-1.15-1.27-1.27 1.55-1.46 10.26-.71 7.7.67 9.62.57 9.62-.48 0-.72 1.56-4.41 3.47-8.2 2.74-5.436 4.17-10.63 6.81-24.64l3.35-17.75 2.85 4.91c3.45 5.94 4.04 6.38 8.64 6.4 3.06.01 4.02.61 6.31 3.9 2.57 3.72 2.63 4.05 1.22 7.416l-1.48 3.52 4.71 2.03c9.18 3.95 19.53 6.24 30.87 6.85 12.76.67 15.26 2.3 3.5 2.28-9.45-.016-23.41-2.787-32.63-6.476-5.6-2.24-7.02-2.49-7.72-1.374-1.69 2.66-.82 3.63 5.95 6.66 11.55 5.16 25.99 8.2 38.96 8.2h4.4l-.28-8.81-.28-8.81 5.54-6.94c8.05-10.086 8.48-10.35 10.25-6.287.8 1.84 3.08 17.07 5.06 33.85 4.53 38.44 4.07 36.19 7.38 35.803l2.65-.31 2.79-19c1.53-10.45 5.36-48.02 8.51-83.5 5.61-63.24 5.76-64.51 7.88-64.81 1.79-.26 2.88 1.08 6.46 7.97 11.94 22.96 33.89 43.78 57.44 54.48l8.5 3.864-.33 48.5-.33 48.5-10.77 34.26c-5.926 18.85-10.498 34.71-10.16 35.25.364.6 8.364.99 20.12.99 19.4 0 19.5.01 18.84 2.11-2.23 7.03-8.47 29.59-8.47 30.636 0 .987 10.04 1.25 47 1.25 39.21 0 47-.23 47-1.37zM3.814 1482.78c-2.12-2.67-2.168-3.32-1.653-21.75.55-19.702 2.12-29.87 6.9-44.696 1.79-5.534 3.21-7.76 7.99-12.49l5.82-5.752v21.314c0 19.973.13 21.498 2.08 24.23 1.14 1.604 2.49 2.66 3 2.346.55-.34.93 5.837.93 15.266v15.837l-8.25 4.163c-9.98 5.035-13.73 5.377-16.79 1.53zm620.155-1.257c1.42-.83.61-3.56-6.62-22.356-4.54-11.776-8.55-21.912-8.93-22.525-1.01-1.632-10.72-1.315-13.02.426-1.92 1.45-1.87 1.85 2.75 22.73 2.58 11.69 4.7 21.587 4.7 21.993 0 .98-103 .97-103.02-.01-.02-.41 2.08-10.32 4.66-22.02 4.57-20.75 4.64-21.3 2.77-22.72-1.12-.84-4.22-1.46-7.46-1.48l-5.55-.03-8.55 22.25c-7.54 19.61-8.37 22.4-7.01 23.5 1.31 1.06 1.06 1.25-1.65 1.25-1.76 0-3.18-.11-3.17-.25.01-.14 4.64-15.1 10.29-33.25l10.26-33 56.46-.26 56.46-.25 7.41 23.26c4.07 12.79 8.87 27.87 10.65 33.51l3.25 10.25-3.16-.03c-2.47-.02-2.81-.24-1.54-.97zm-13.64.09c1.83-.714 5.51-.36 5.51.532 0 .21-1.69.352-3.75.313-2.86-.053-3.28-.254-1.77-.845zm-124.49.533c0-.85 4.76-1.222 6.57-.514 1.36.535.68.777-2.32.827-2.34.03-4.25-.11-4.25-.32zm115.11-21.617c-2.28-10.18-4.11-18.95-4.08-19.5.05-.83 13.96 36.3 13.96 37.25 0 .73-4.56 1.97-5.13 1.39-.35-.36-2.49-8.97-4.76-19.15zm-108.49 16.72c.17-2.11 12.69-36.76 13.12-36.32.3.3-7.15 34.85-8.27 38.32-.57 1.75-5.01-.09-4.86-2.01zm114.28-18.21c-3.8-10.44-6.9-19.33-6.9-19.75 0-.43 1.51-.78 3.35-.78h3.35l5.11 13.25c2.81 7.28 6.26 16.31 7.66 20.05l2.55 6.81-4.12-.31-4.12-.31-6.9-18.98zm10.11 14.81c.05-2.73-10.54-29.34-11.68-29.34-.74 0-1.34.16-1.34.35 0 1.8 11.04 29.16 11.89 29.44.61.2 1.12 0 1.12-.47zm-135.54 2.91c.38-.97 3.53-9.18 7.01-18.25 3.47-9.08 6.63-17.29 7.02-18.25.48-1.19 1.8-1.75 4.1-1.75 1.86 0 3.39.18 3.39.41 0 .41-12.15 34.41-13.52 37.83-.5 1.26-1.82 1.75-4.7 1.75-3.41 0-3.9-.26-3.31-1.75zm11.94-17.26c3.25-8.25 5.61-15.3 5.23-15.68-.37-.38-1.06-.26-1.52.25-.79.88-12.13 28.87-12.13 29.94 0 .27.56.49 1.25.49s3.91-6.75 7.16-15zm-462.41.25l.01-15.75 38.55-26.36c21.2-14.5 38.67-26.2 38.82-26 2.82 3.73 22.62 33.22 22.62 33.7 0 .65-97.74 49.99-99.25 50.1-.42.03-.75-7.03-.75-15.7zm586.82-20.22c-1.03-3.01-1.47-5.04-.98-4.5 1.04 1.14 4.19 10.33 4.07 11.9-.09 1.21-.46.34-3.1-7.4zm-592.81-28.26v-15.25l87.03-83.5c47.87-45.93 89.3-85.41 92.08-87.75 5.33-4.49 9.81-5.51 13.17-3 1.56 1.16 1.54 1.89-.32 10.75-1.72 8.16-2.93 18.84-5.63 49.5l-.53 6-92.66 69.21c-50.97 38.07-92.78 69.23-92.91 69.25-.14.02-.25-6.82-.25-15.21zm96.92-3c-6.16-8.94-11.26-16.78-11.32-17.42-.07-.65 8.88-7.34 19.88-14.87 11-7.54 24.09-16.52 29.08-19.96 8.77-6.05 9.16-6.21 11.28-4.61 2.05 1.55 2.32 3.22 4.07 26.13 1.03 13.46 1.65 24.83 1.39 25.26-.49.79-41.23 21.56-42.5 21.66-.38.03-5.73-7.26-11.89-16.2zm271.28-24.92c-2.34-18.79-4.69-34.7-5.23-35.35-.66-.8 2.38-.53 9.26.82 5.64 1.1 10.35 2.08 10.48 2.17.57.4-2.89 32.65-5.19 48.37-1.4 9.54-2.55 17.53-2.55 17.75 0 .22-.57.41-1.27.41-.92 0-2.44-9.45-5.52-34.17zm155.79-460.83c0-326 .34-490 1-490s1 164 1 490-.33 490-1 490-1-164-1-490zm-287 487.36c-5.22-.84-14.07-3.03-19.66-4.88-11.2-3.71-24.69-10.1-23.93-11.34.27-.44 4 .93 8.29 3.04 14.62 7.18 31.82 11.64 51.55 13.37 4.27.37 7.75 1.12 7.75 1.66 0 1.15-9.96.38-24-1.86zm292-13.86v-13.5h53v27h-53v-13.5zm-59 0v-13.5h51v27h-51v-13.5zm-435 7.12c0-.21.79-1 1.75-1.75 1.59-1.25 1.62-1.21.38.37-1.31 1.67-2.13 2.2-2.13 1.38zm4.55-3.54c.53-.51 33.58-25.28 73.45-55.06l72.5-54.14.27 23.55c.19 16.36.61 23.55 1.37 23.55.72 0 .77.43.16 1.25-.52.69-4.92 11.45-9.77 23.92l-8.83 22.67-6.35 6.29-6.35 6.29v-56.21l-4.66-7.61c-2.56-4.19-5.15-7.62-5.75-7.62-.61 0-24.72 16.63-53.6 36.95-28.88 20.32-52.7 36.97-52.95 37-.25.02-.02-.37.5-.87zm202.32-4.63c-4.75-.78-12.4-2.6-17-4.06-9.56-3.02-25.87-10.89-25.87-12.49 0-.59.34-.92.75-.74.41.19 3.9 1.97 7.75 3.96 13.75 7.1 30.93 11.83 48.75 13.41 4.26.38 7.75 1.12 7.75 1.65 0 1.1-9.11.38-22.14-1.75zm.13-7.85c0-.22.67-.65 1.5-.97.82-.32 1.5-.14 1.5.39s-.68.97-1.5.97-1.5-.18-1.5-.39zm-8.52-4.44l.66-4.84-7.07-6.27-7.07-6.27v-27.49l11.25-.65c17.61-1.02 38.75-.81 38.75.37 0 1.38-5.09 35.4-5.32 35.56-.1.07-4.34 1.14-9.43 2.38-7.61 1.85-9.25 2.59-9.25 4.14 0 2.01-1.48 2.54-2.5.89-.96-1.56-6.18-1.18-7.93.57-1.97 1.96-1.96 2.34.08 4.6 1.56 1.72 1.52 1.83-.59 1.83s-2.21-.29-1.59-4.84zm11.77-6.25c3.86-2.25 1.33-6.92-3.75-6.92-1.71 0-3.64.54-4.3 1.2-4.05 4.05 2.7 8.84 8.05 5.72zm2.12-10.43c.89-.89 1.62-2.01 1.62-2.48 0-3.79-8.25-5.18-10.4-1.75-2.57 4.1 5.16 7.84 8.77 4.24zm1.42-9.68c2.84-2.84.55-6.8-3.93-6.8-2.62 0-5.87 2.22-5.87 4 0 3.26 7.27 5.34 9.8 2.8zm2.17-10.77c2.35-2.36 1.7-4.81-1.62-6.08-2.83-1.08-6.83.22-7.71 2.5-.77 2.01 2.64 5.56 5.34 5.56 1.1 0 2.89-.89 3.97-1.98zm-26.57 36.95c-7.64-2.62-22.41-9.92-22.41-11.08 0-1.31.04-1.29 10.14 3.62 5.1 2.48 11.63 5.26 14.52 6.17 2.88.91 5.01 2.03 4.73 2.48-.66 1.06-.15 1.15-6.99-1.2zm317.28-2.72c7.25-.17 19.4-.17 27 0 7.59.17 1.66.31-13.19.31s-21.07-.14-13.81-.31zm-58.44 0c7.01-.17 18.49-.17 25.5 0 7.01.17 1.27.31-12.75.31s-19.76-.14-12.75-.31zm-230.14-.32c-3.35-.06-3.43-.14-1.19-1.03 2.89-1.16 14.08-.08 14.08 1.35 0 .62-1.77.76-4.64.37-2.55-.35-6.27-.66-8.25-.7zm275.89-12.44v-9.5h53v19h-53v-9.5zm-59 0v-9.5h51v19h-51v-9.5zm-255.74.96c-5.13-2.5-9.09-4.93-8.79-5.42.56-.91 18.05 7.37 19.07 9.03 1.01 1.64-.78 1.01-10.29-3.62zm104.69-4.91c-7.93-1.68-18.14-5.44-17.51-6.45.25-.41 4.2.49 8.76 2.02 8.19 2.73 21.19 4.88 29.52 4.88 2.53 0 4.28.46 4.28 1.13 0 1.41-15.49.42-25.05-1.59zm-109.44-7.53c-.35-.56-.18-1.01.37-1.01 1.6 0 8.11 4.1 8.11 5.12 0 1.06-7.55-2.59-8.49-4.11zm332.18-1.76c7.25-.17 19.4-.17 27 0 7.6.17 1.66.31-13.19.31s-21.06-.14-13.81-.31zm-58.44 0c7.01-.17 18.49-.17 25.5 0 7.01.17 1.27.31-12.75.31s-19.76-.14-12.75-.31zm45.75-12.25v-10h53v20h-53v-10zm-59 0v-10h51v20h-51v-10zm-100.5 5.04c-15.03-2.71-86.75-14.04-88.82-14.04-.93 0-1.68.67-1.68 1.5s-.45 1.5-1 1.5c-.65 0-1-16.17-1-46.5v-46.5h35v-31h-35l-.07-12.75c-.03-7.02-.15-137.4-.25-289.75l-.18-277-32.25-.89c-17.73-.49-32.25-1.28-32.25-1.75 0-.48.9-.86 2-.86 1.81 0 2-.67 2-7 0-6.72.1-7 2.4-7 3.06 0 3.6-1.55 3.6-10.38 0-8.35-.83-9.62-6.29-9.62h-3.89l.72-8.75c.83-10.3 3.47-21.36 6.52-27.42 3.88-7.7 4.21-7.73 6.02-.58 1.44 5.72 1.48 7.52.3 15.36-2.24 14.87-3.1 13.38 10.22 17.76 6.38 2.1 11.95 3.43 12.37 2.96.43-.47 3.47-8.99 6.76-18.93l5.99-18.08-5.77-15.43c-4.44-11.87-5.44-15.51-4.35-15.76 1.28-.3 19.68 2.13 26.49 3.49 2.3.46 2.99.06 4.33-2.54 2.3-4.44 6.65-21.3 6.01-23.31-.62-1.96-4.29-3.28-13.44-4.82-3.58-.61-8-1.57-9.83-2.15-3.95-1.25-3.93-1.44 1.46-14.32l3.66-8.75 8.6.68c9.41.75 15.58 2.2 17.11 4.04.65.79.31 6.01-1.02 15.53-1.35 9.68-2 19.82-2 31.16 0 10.54-.37 16.81-1 16.81-.62 0-1 5.67-1 15v15h-2.5c-2.48 0-2.5.07-2.5 9 0 7.33.28 9 1.5 9 .93 0 1.5.94 1.5 2.5 0 2 .5 2.5 2.5 2.5 2.11 0 2.5.47 2.5 3 0 2.65.34 3 2.94 3 2.68 0 2.97.34 3.25 3.75l.31 3.75h7.5c7.44 0 7.5-.02 7.82-2.75.32-2.74.34-2.75 8.25-2.75h7.93v-3c0-2.33.45-3 2-3 1.8 0 2-.67 2-6.5v-6.5h-3c-2.65 0-3-.34-3-2.93 0-2.46.45-2.99 2.75-3.25 2.32-.27 2.8-.85 3.07-3.68.32-3.36.34-3.37 4.46-2.71 2.28.36 4.28.8 4.44.96 1.14 1.14-3.52 106.65-8.11 183.61-6.19 103.86-8.61 154.11-8.61 179.05v16.95h-23v35h23.65l1.26 21.25c1.73 29.15 9.88 100.68 18.37 161.25l3.22 23 15.99.5 16 .5-3.5 1.96c-4.59 2.57-18.65 2.74-24.25.28-2.67-1.17-3.75-1.3-3.75-.45.002.66 1.81 14.03 4.01 29.7 2.203 15.68 5.362 39.53 7.02 53 1.66 13.48 3.91 29.77 5.01 36.21 1.932 11.38 6.51 25.54 9.49 29.39 1.44 1.86 1.5 1.86 2.99-.07 2.75-3.56 4.312-12.28 6.11-34.03.41-4.95.92-8.2 1.132-7.22.38 1.76-2.28 35.64-3.38 42.962-.31 2.062-1.09 3.76-1.73 3.76-.64.01-6.11-.88-12.16-1.97zm-58.16-20.3c1.51-1.11 1.68-3 1.44-15.71l-.28-14.45-16.5-5.28c-9.08-2.9-16.84-5.28-17.25-5.29-.41-.01-.75 9.44-.75 20.99v21h15.81c11.12 0 16.32-.37 17.53-1.26zm6.99-41.41c.37-.37.67-1.94.67-3.5 0-2.57-.32-2.83-3.5-2.83-3.33 0-3.5.17-3.5 3.5 0 3.18.26 3.5 2.83 3.5 1.56 0 3.13-.3 3.5-.67zm-4.33-2.83c0-.83.67-1.5 1.5-1.5s1.5.67 1.5 1.5-.68 1.5-1.5 1.5-1.5-.68-1.5-1.5zm5-13v-7.5h-13v15h13v-7.5zm-11 0v-5.5h9v11h-9v-5.5zm10.8-17.25l-.3-6.75-4.25-.31-4.25-.31v14.12h9.09l-.29-6.75zm-6.8.25c0-5.2.14-5.5 2.5-5.5s2.5.3 2.5 5.5-.13 5.5-2.5 5.5-2.5-.3-2.5-5.5zm15.56-405.78c.27-.71.37-9.6.22-19.75l-.27-18.47-11.75-.28-11.75-.28v40.06h11.53c8.46 0 11.66-.34 12.02-1.28zm-21.55-18.72v-18h20v36h-20v-18zm27.3-67.64c.38-.39.69-5.35.69-11.03v-10.33h-24.07l.28 10.75.28 10.75 11.05.28c6.08.15 11.37-.04 11.75-.42zm-21.3-10.37v-9h20v18h-20v-9zm-75 575.52c0-5.77-.53-13.56-1.17-17.31-.99-5.74-1.58-7.01-3.7-8.02-1.71-.8-9.33-1.19-23.48-1.19h-20.95l.71-16.25c.77-17.83 2.73-36.48 5.08-48.49 1.06-5.45 3.37-11.46 7.75-20.19 10.06-20.07 11.76-21.07 35.81-21.07 13.58 0 17.83.33 20.48 1.58 6.11 2.9 8.57 8.79 11.43 27.34 4.46 29 5.22 39.25 5.76 76.83l.53 37.25h-38.26v-10.48zm-50-6.52v-17h22.39c19.49 0 22.47.2 23 1.58.33.87.6 8.52.6 17v15.42h-46v-17zm354.69 9.25c7.25-.17 19.4-.17 27 0 7.59.17 1.66.31-13.19.31s-21.07-.14-13.81-.31zm-58.44 0c7.01-.17 18.49-.17 25.5 0 7.01.17 1.27.31-12.75.31s-19.76-.14-12.75-.31zm45.75-12.26v-10h53v20h-53v-10zm-59 0v-10h51v20h-51v-10zm-12.42-7.49c-16.64-8.49-30.73-20.46-41.78-35.51-5.46-7.43-11.81-17.91-11.81-19.48 0-.45 12.59-.58 27.98-.29l27.98.53.27-52.8c.14-29.04.11-55.09-.08-57.89l-.35-5.09h-12.81v3.94c0 3.26-3.58 10.43-20.61 41.25-11.34 20.52-21.45 38.66-22.48 40.31-1.83 2.93-1.87-4.46-1.89-338.75l-.02-341.75h66V876c0 332.83 0 333.5-2 333.5-1.76 0-2 .663-2 5.5s.24 5.5 2 5.5c1.97 0 2 .663 2 46 0 25.3-.37 46-.82 46-.44 0-4.76-2.02-9.6-4.49zm127.08-7.76c-.31-2.34-.57-21.24-.57-42v-37.75h2.45c2.3 0 2.45-.33 2.45-5.5 0-5.18-.15-5.5-2.46-5.5h-2.46l-.02-333.5-.03-333.5h62.96v696.54l-4.26 7.47c-12.1 21.22-29.63 40.37-48.57 53.06-4.03 2.7-7.69 4.91-8.14 4.91-.44 0-1.05-1.91-1.36-4.25zm-55.67-10.75v-10h53v20h-53v-10zm-59 0v-10h51v20h-51v-10zm-82.71 4.76c.24-1.25.44-.46.45 1.74.01 2.2-.19 3.21-.44 2.26s-.26-2.76-.02-4zm1.04-9.01c.27-.69.5-.13.5 1.25s-.22 1.93-.5 1.25c-.28-.69-.28-1.82 0-2.5zm140.66-21.75v-10h53v20h-53v-10zm-59 0v-10h51v20h-51v-10zm71.69-12.75c7.25-.17 19.4-.17 27 0 7.59.17 1.66.31-13.19.31s-21.07-.14-13.81-.31zm-58.44 0c7.01-.17 18.48-.17 25.5 0 7.01.17 1.27.31-12.75.31s-19.77-.14-12.75-.31zm-33.25-42.24v-41.98l3.49-6.27 3.48-6.27.01 48.25.01 48.25h-7v-41.98zm-44.21 37.99l1.7-2.99 19.75-.01 19.75-.01v6h-42.9l1.71-2.99zm-8.8 2.03c0-.53.68-.71 1.5-.39.83.32 1.5.76 1.5.97 0 .22-.67.39-1.5.39s-1.5-.43-1.5-.97zM296.26 1226c-2.94-20.34-4.49-25.41-9.3-30.47-4.6-4.83-7.55-5.33-28.8-4.87-13.11.28-16.42.65-18.61 2.09-1.47.96-2.82 1.75-3 1.75-.188 0-.15-1.58.07-3.5l.41-3.5h62.78l-.15 30.75c-.08 16.91-.33 29.4-.55 27.75-.22-1.65-1.5-10.65-2.85-20zm257.55 8v-13.5h53v27h-53V1234zm-59 0v-13.5h51v27h-51V1234zm-73.95 9.57c.15-1.62 54.62-98.476 55.55-98.777.6-.197 2.12.472 3.37 1.49l2.27 1.84-27.38 49.532-27.37 49.534-3.25-1.53c-1.78-.84-3.22-1.78-3.2-2.09zm13.95-3.604c0-.55 35.88-65.62 36.6-66.38.22-.22.39 14.74.39 33.25v33.67h-18.5c-10.17 0-18.5-.24-18.5-.54zm-131-12.96v-13.5h31v27h-31v-13.5zm116.87 2.5l.87-7.5.13 7.586c.07 4.17-.2 7.91-.6 8.316-1.23 1.22-1.31-.57-.4-8.4zm133.12-15v-3h57v6h-57v-3zm-62 0v-3h54v6h-54v-3zm62-7c0-1.95.67-2 26.5-2s26.5.05 26.5 2-.665 2-26.5 2-26.5-.05-26.5-2zm-59 0c0-1.95.67-2 25.5-2s25.5.05 25.5 2-.665 2-25.5 2-25.5-.05-25.5-2zm71.69-5.744c7.26-.17 19.41-.17 27 0 7.6.17 1.66.31-13.19.31s-21.06-.14-13.81-.31zm-58.44 0c7.015-.17 18.49-.17 25.5 0 7.015.17 1.28.31-12.75.31s-19.76-.14-12.75-.31zm45.75-51.25v-49h53v98h-53v-49zm-59 0v-49h51v98h-51v-49zm-258.794 28.75l-.3-6.75h64.09v14.03l-31.75-.266-31.75-.26-.3-6.75zm144.73-6.425l-5.44-1.68 4-.77c4.95-.95 20.94-.9 25 .074l3 .72-2.5 1.04c-6.48 2.69-16.49 2.94-24.07.61zm-144.94-63.83v-61.5h64v123h-64v-61.5zm181.7-134.37c-1.91-53.846-2.71-68.537-3.76-69.18-.74-.458-4.57-1.13-8.52-1.5-6.53-.62-10.7-.35-18.66 1.17-4.72.9-3.01-1.25 2.36-2.98 6.194-2.01 15.96-2.08 21.344-.16 2.18.77 4.13 1.24 4.337 1.03.2-.21-1.7-61.72-4.23-136.71-2.53-74.98-4.59-139.37-4.59-143.08l.01-6.75h16l-.18 272.25c-.12 186.45-.42 253.65-.95 213.25-.42-32.45-1.86-89.768-3.19-127.36zm-46.69 178.9c0-1.628 10.02-4.046 16.43-3.966 6.5.08 12.7 1.82 13.34 3.75.29.87-3.54 1.18-14.69 1.18-8.98 0-15.08-.39-15.08-.96zm105.08-12.74c-.23-.17 1.01-.304 2.75-.304 2.51 0 3.162.42 3.162 2.022 0 1.952-.09 1.962-2.75.3-1.51-.95-2.94-1.86-3.17-2.026zm-105.08-10.42c0-1.69 10.294-4.87 15.686-4.85 5.6.02 14.317 2.87 14.317 4.68 0 .435-6.75.794-15 .794s-15-.28-15-.62zm-10.4-69.876c-4.516-40.38-5.404-54.97-6.21-102-.784-45.59-.24-59.91 7.17-189.9 2.993-52.47 5.475-96.12 5.516-97 .04-.88 3.63 13.48 7.97 31.9l7.89 33.5.03 31.14.03 31.14 3.75-1.34c4.98-1.78 12.5-1.77 16.786.02 1.91.79 3.47 1.71 3.47 2.02 0 .32-2.88.28-6.4-.08-3.52-.36-8.92-.34-12 .04l-5.6.7v153.19l-6.997 78.08c-3.84 42.94-7.31 80.33-7.69 83.08-.64 4.6-.83 3.89-2.44-9-.96-7.7-3.33-28.17-5.27-45.5zm27.9 44.5c-2.75 0-7.36.32-10.25.71-6.53.88-6.76-.27-.5-2.51 5.98-2.14 15.985-2.18 21.23-.08 5.446 2.17 5.074 3.51-.73 2.62-2.61-.4-7-.73-9.75-.73zm178.19-7.24c7.256-.17 19.406-.17 27 0 7.6.17 1.66.31-13.19.31s-21.06-.14-13.81-.31zm-58.44 0c7.014-.17 18.49-.17 25.5 0 7.014.17 1.276.31-12.75.31s-19.76-.14-12.75-.31zm45.75-60.75v-58.5h53v117h-53v-58.5zm-59 0v-58.5h51v117h-51v-58.5zm-101.5 38.77c-4.4-.26-10.37-.03-13.27.5-6.79 1.25-7.6-.07-1.49-2.43 8.4-3.24 26.25-1.39 26.25 2.72 0 .72-.67.88-1.75.42-.96-.41-5.35-.95-9.75-1.21zm-16.7-25.42c1.656-1.54 10.65-3.85 14.986-3.84 5.31.01 10.96 1.35 13.53 3.23 1.41 1.04-1.07 1.26-13.75 1.26-8.51 0-15.16-.29-14.77-.65zm-140.46-35.6c.36-16.91.66-47.06.66-67v-36.25h63v134H235.5l.66-30.75zm143.46 5.6c1.66-1.54 10.65-3.85 14.99-3.84 5.31.01 10.96 1.35 13.53 3.23 1.41 1.04-1.067 1.26-13.748 1.26-8.51 0-15.158-.29-14.77-.65zm18.2-26.35c-4.12 0-9.41.34-11.75.76-5.81 1.04-5.35-.47.82-2.69 6.4-2.3 16.09-2.33 21.68-.07 5.26 2.13 5.534 3.61.5 2.69-2.06-.38-7.12-.69-11.25-.69zm-67-24.5v-16h20v32h-20v-16zm223-55v-58h53v116h-53v-58zm-59 0v-58h51v116h-51v-58zm-94.5 48.5c-3.85 0-9.135.33-11.75.73-6.48 1-5.99-.57.854-2.72 6.307-1.98 17.896-1.72 22.65.52 3.92 1.84 3.4 2.97-1 2.16-2.06-.38-6.9-.69-10.75-.69zm-11.58-32.8c5.413-2.36 15.735-2.44 20.55-.15 1.94.93 3.53 1.74 3.53 1.82 0 .08-6.36.15-14.14.16l-14.136.02 4.197-1.83zM236.83 839.5v-70h63v140h-63v-70zm147.645 33.76c1.134-1.83 11.802-3.96 16.65-3.315 4.11.54 10.71 2.902 10.71 3.83 0 .12-6.26.22-13.9.22s-13.7-.332-13.45-.737zm182.044-20.51c7.25-.17 19.4-.17 27 0 7.59.17 1.66.31-13.19.31s-21.07-.135-13.81-.31zm-58.44 0c7.01-.17 18.48-.17 25.5 0 7.01.175 1.27.315-12.75.315s-19.77-.14-12.75-.316zM553.83 792v-58.5h53v117h-53V792zm-58.76-.25l-.26-58.25h51.017v117.04l-25.25-.267-25.25-.266-.26-58.25zM385.83 845.7c0-.168 1.56-.955 3.466-1.75 4.57-1.91 14.83-1.868 18.585.075 1.62.84 2.95 1.625 2.95 1.75s-5.62.222-12.5.222-12.5-.138-12.5-.3zm-2-24c0-1.207 7.99-3.2 12.82-3.2 5.695 0 12.18 1.515 12.18 2.847 0 .36-5.628.654-12.5.654s-12.5-.13-12.5-.3zm-147-122.14v-67.94l6.75.44c3.71.24 17.886.712 31.5 1.05l24.75.61V767.5h-63v-67.95zm317-30.06v-58h53v116h-53v-58zm-59 21.16c0-20.26.295-46.36.66-58l.656-21.16h49.685v116h-51v-36.84zm-258-69.16c0-2.75.45-5 1-5s1 2.25 1 5-.45 5-1 5-1-2.25-1-5zm0-16.5v-8.5h8v7.832c0 4.31-.3 8.134-.67 8.5-.365.367-2.165.667-4 .667h-3.332V605zm329.69 2.752c7.253-.17 19.403-.17 27 0 7.594.17 1.66.31-13.19.31s-21.066-.14-13.81-.31zm-58.44 0c7.01-.172 18.486-.172 25.5 0 7.01.172 1.273.312-12.75.312s-19.764-.14-12.75-.316zm45.75-57.253v-55h53v110h-53v-55zm-58 0v-55h50v110h-50v-55zM261.2 589.37c-4.87-1.74-9.236-3.498-9.707-3.908-.472-.41-.294-5.386.397-11.088 1.1-9.083 1.05-11.235-.41-17.65l-1.67-7.304 10.71-11.445c5.89-6.295 10.99-11.445 11.32-11.445.34 0 3.11 6.838 6.18 15.196l5.57 15.196-5.94 17.804c-3.27 9.792-6.31 17.804-6.75 17.804-.45 0-4.79-1.423-9.66-3.16zm9.365-7.612c2.785-2.172 8.284-15.38 8.284-19.897 0-4.5-1.88-5.06-8.19-2.44-2.82 1.17-5.3 1.96-5.51 1.75-.21-.21 1.54-1.15 3.9-2.08 4.83-1.91 9.8-6.17 9.8-8.39 0-.81-1.15-2.97-2.55-4.81-3.74-4.9-7.27-4.58-13.8 1.27-6.09 5.46-7.56 7.8-7.61 12.08-.02 2.33.51 3.36 1.98 3.82 1.99.63 1.99.69.15 3.32-2.68 3.84-3.33 10.32-1.29 12.92 1.52 1.94 7.66 4.27 11.14 4.23.82-.01 2.5-.79 3.71-1.74zm-9.716-19.228c.82-.533 1.95-.97 2.5-.97s.32.437-.5.97c-.83.533-1.95.97-2.5.97s-.33-.437.5-.97zm1.4-17.202c3.78-3.41 7.51-7.734 8.29-9.608 3-7.19-1.47-5.24-11.1 4.835-4.18 4.374-7.6 8.633-7.6 9.464 0 3.03 3.68 1.37 10.4-4.69zm363.94-7.455l-17.16-.65-.08-65.192-.08-65.19-8.52-25.33c-4.68-13.93-8.51-25.47-8.51-25.65 0-.18 18-.32 40-.32h40v183H657.6c-7.83 0-21.97-.29-31.4-.65zm40.66-93.843v-19.5h-26v39h26v-19.5zm-23 .5v-17h20v34h-20v-17zm-14 1v-8h-13v16h13v-8zm-10 .5v-5.5h7v11h-7v-5.5zm-193 .5v-91h40.5c22.27 0 40.49.337 40.48.75-.01.412-3.26 11.325-7.23 24.25l-7.21 23.5-.29 66.75-.29 66.75h-65.97v-91zm-133.6 79.422l-4.11-.63 3.42-12.132c1.88-6.673 3.59-12.305 3.81-12.517.81-.812 11.34 1.037 13.06 2.293 1.73 1.268 1.72 1.64-.36 9.4-1.19 4.442-2.85 9.722-3.69 11.733-1.41 3.37-1.78 3.61-4.78 3.07-1.79-.33-5.1-.87-7.36-1.22zm10.52-7.053c3.07-3.91 4.3-9.43 2.96-13.28-2.53-7.25-10.88-.46-10.88 8.85 0 7.24 3.96 9.45 7.92 4.42zm-6.29-1.68c-.8-3.19 1.06-9.4 3.58-11.91 2.01-2.02 2.13-2.03 3.43-.25 1.75 2.39 1.7 4.68-.19 9.2-2.34 5.59-5.79 7.08-6.83 2.94zm-19.79 6.5l-3.65-.69 2.89-7c2.17-5.26 2.74-6.09 2.3-3.34-1.2 7.42 2.37 11.37 6.99 7.74 2.71-2.14 2.98-1.9 1.97 1.84-.66 2.43-3.35 2.8-10.52 1.44zm3.14-8.42c0-5.7 4.32-11.94 7.09-10.23 1.43.88 1.06 8.24-.57 11.4-2.62 5.07-6.52 4.36-6.52-1.18zm9.58-8.97c-.84-3.83-4.13-4.58-7.33-1.66-2.33 2.12-2.51 2.15-1.82.34a370.9 370.9 0 0 0 1.75-4.75c1.13-3.14 1.24-3.16 7.11-1.59l4.33 1.16-1.53 5.48c-.84 3.01-1.62 5.08-1.74 4.59l-.8-3.58zm263.41-14.82c0-.64 9.5-1 26.5-1s26.5.36 26.5 1-9.5 1-26.5 1-26.5-.36-26.5-1zm-58 0c0-.64 9-1 25-1s25 .36 25 1-9 1-25 1-25-.36-25-1zm58-4.5c0-1.3 3.61-1.5 26.5-1.5s26.5.2 26.5 1.5-3.61 1.5-26.5 1.5-26.5-.21-26.5-1.5zm-58 0c0-1.3 3.44-1.5 25-1.5s25 .2 25 1.5-3.44 1.5-25 1.5-25-.21-25-1.5zm58-7.89c0-2.54.5-3.51 2-3.91 1.9-.5 2-1.37 2-17.12 0-15.93-.08-16.6-2-16.6-1.78 0-2-.67-2-6v-6h-8v6c0 4.67-.33 6-1.5 6-1.27 0-1.5 2.5-1.5 16.53 0 13.77.25 16.63 1.5 17.11.93.35 1.5 1.87 1.5 3.97v3.39h-50v-71h17.84c9.81 0 34.78.3 55.5.66l37.66.66v69.68h-53v-3.39zM315.42 474c-2.7-.82-8.433-1.49-12.75-1.49-4.31 0-7.84-.215-7.84-.48s1.76-4.895 3.91-10.293c3.7-9.29 33.09-69.254 33.097-67.534.01 1.665-10.158 78.86-10.54 80.06-.49 1.515.054 1.54-5.876-.26zm-4.24-4.32c1.99-2.2 6.517-15.152 5.913-16.92-.277-.806-2.48-1.25-6.22-1.25-3.43 0-6.21.51-6.807 1.25-2.07 2.56-7.14 15.838-6.59 17.267.89 2.314 11.54 2.044 13.702-.345zm-12.35-.53c0-1.486 6.316-15.22 7.28-15.83 1.427-.906 8.12-1.075 8.97-.227.535.536-3.35 13.154-4.747 15.417-.557.904-11.5 1.51-11.5.64zm255.27-17.88c.19-3.99.346-.725.346 7.25s-.156 11.237-.345 7.25c-.19-3.99-.19-10.513 0-14.5zm-58.257-43.29c0-1.373 5.954-1.51 54.45-1.25 41.91.223 54.74.578 55.7 1.54 1 1-9.89 1.25-54.45 1.25-49.496 0-55.7-.172-55.7-1.54zm1.25-4.71c.252-.69 4.463-14.93 9.36-31.653l8.89-30.4 23 .65c12.65.36 28.18.65 34.514.653h11.51l9.88 29.75c5.434 16.363 10.09 30.313 10.344 31 .37.99-10.8 1.25-53.75 1.25s-54.12-.26-53.75-1.25zm-142.736-13.9c-10.458-1.184-19.19-2.297-19.403-2.474-.552-.453 4.786-7.52 7.295-9.66 5.35-4.56 13.22-7.14 18.55-6.073 4.41.884 10.28 6.46 13.86 13.173 1.75 3.28 3.18 6.24 3.18 6.58 0 .964-3.22.753-23.49-1.54zm234.456-42.442c-.868-2.628-.888-3.89-.078-4.7 1.63-1.63 1.35-2.708-.695-2.708-1.473 0-3.39-4.92-10.59-27.25-9.19-28.474-12.22-35.228-19.013-42.316-8.392-8.758-15.512-6.807-24.738 6.78-3.51 5.17-5.33 10.336-13.95 39.6-5.45 18.51-9.91 33.77-9.91 33.92 0 .145-18.68.27-41.5.27h-41.5v-61.86c0-77.48.87-89.69 8.54-119.79 9.2-36.12 28.58-73.792 54.95-106.852 9.06-11.36 28.06-32.114 30.12-32.905.85-.33 13.83-.598 28.83-.598h27.27l11.99 12.32c40.49 41.61 68.42 92.24 78.14 141.67 4.38 22.29 4.44 23.51 4.86 96.75l.4 71.25H590l-1.186-3.6zm-29.97-14.96v-7.553l-5.25.303-5.25.303-.294 7.25-.3 7.25H531.7c-12.546 0-15.956-.27-15.576-1.26.267-.7 3.945-12.96 8.173-27.25 8.116-27.43 10.196-32.18 17.168-39.15 5.487-5.49 8.905-5.75 13.877-1.08 6.522 6.13 10.276 14.27 19.053 41.32 4.65 14.33 8.457 26.37 8.457 26.75 0 .38-5.4.68-12 .68h-12v-7.55zm-8 1.552c0-6 0-6 3-6s3 0 3 6 0 6-3 6-3 0-3-6zm-23-314.083c3.575-3.294 9.753-8.243 13.73-11 6.412-4.443 7.487-4.876 9.5-3.83 2.57 1.336 12.797 9.57 20.27 16.32l5 4.515-27.5-.01-27.5-.01 6.5-5.99zM366.35 1433.92c7.82-1.157 7.5-.81 7.49-8.164-.007-3.7-.29-8.416-.63-10.48l-.62-3.75h-6.12c-15.665-.01-36.423-4.3-50.226-10.386l-7.84-3.456-1.292 3.075c-.71 1.69-1.173 3.16-1.027 3.27.145.1 4.193 1.86 8.994 3.9 12.86 5.46 26.1 8.48 43 9.81 8.12.64 14.77 1.57 14.77 2.08 0 1.16-17.26.06-29.96-1.9-9.96-1.55-22.83-5.48-32.05-9.8l-5.5-2.58-2.82 6.23-2.82 6.23 2.81 2.35c9.02 7.53 28.6 13.12 47.81 13.64 7.15.19 14.35.15 16-.09zm-31.744-9.817c-12.027-2.765-29.91-9.527-30.588-11.566-.28-.84.07-1.104.942-.716 21.643 9.62 39.072 13.69 58.636 13.7 6.32 0 9.25.38 9.25 1.16 0 2.01-25.88.27-38.244-2.57zm38.24-16.318c0-2.653-1.773-3.26-9.51-3.26-14.333 0-30.46-3.75-45.17-10.508-5.922-2.72-7.28-3.04-7.75-1.816-1.193 3.11-.4 4.13 5.18 6.61 14.266 6.35 28.26 9.56 45.5 10.43 11.365.58 11.75.53 11.75-1.45zm-.014-6.024c-.03-3.33-1.556-3.95-11.485-4.66-15.987-1.14-27.818-4.12-40.15-10.11-4.89-2.37-7.036-2.98-7.57-2.14-1.88 2.96-.558 4.46 6.972 7.95 13.72 6.35 24.4 8.79 44.5 10.17 6.9.48 7.74.35 7.73-1.2zm-.985-8.58c0-2.28-.303-2.37-10.75-2.95-13.207-.73-24.03-3.49-35.49-9.03l-8.74-4.22-.826 2.47c-.77 2.32-.36 2.7 6.19 5.84 3.86 1.85 9.66 4.26 12.89 5.34 7.03 2.37 22.99 4.9 30.98 4.91 5.37.01 5.75-.15 5.75-2.34zm0-7.36v-3l-10.25-.69c-13.005-.88-21.94-2.86-33.104-7.33-7.26-2.9-9.014-3.29-9.736-2.15-.484.77-.887 1.72-.896 2.11-.02 1.36 17.08 8.89 24.79 10.92 4.24 1.11 12.54 2.28 18.45 2.59l10.75.57v-3z"/><path fill="#fff" d="M268.86 767.123h-30.94v-133.79l19.65.01c10.81.01 24.73.493 30.94 1.08l11.29 1.065v131.635h-30.94zm0 141.986h-30.94V770.3h61.88v138.808h-30.94zm-1.1 135.46h-32.038l1.094-28.85c.602-15.87 1.097-45.59 1.1-66.06l.005-37.21h61.88v132.12h-32.04zm.264 125.43h-31.776v-122.09H299.8V1170h-31.775z"/><path fill="#fff" d="M402.233 1346.923c-2.53-.4-25.858-4.06-51.84-8.133-25.983-4.072-47.243-7.88-47.245-8.46-.002-.58 6.957-1.36 15.465-1.73 8.51-.374 16.41-1.26 17.56-1.97 1.42-.88 2.09-6.084 2.09-16.22v-14.924l-17.56-5.464-17.56-5.463v-40.98h30.964l-.598 7.52-.6 7.52h6.02c5.93 0 6.02-.1 6.02-6.85 0-5.4-.7-7.03-3.29-7.71-2.94-.77-3.34-2.58-3.77-16.99l-.48-16.13-16.91-.48-16.92-.48-1.23-288.85c-.68-158.87-1.41-289.04-1.63-289.27-.21-.23-13.9-.91-30.41-1.5l-30.02-1.08.67-6.02c.37-3.31 2.08-7.37 3.81-9.01 1.99-1.89 3.13-5.27 3.12-9.2-.03-7.4-1.24-9.55-6.25-11.11-2.44-.76-3.76-2.5-3.76-4.94 0-7.38 3.71-23.63 6.71-29.42 2.61-5.04 3.23-5.45 4.26-2.82.67 1.69.76 8.96.2 16.15-.71 9.29-.42 13.56 1.02 14.75 3.52 2.9 21.49 7.43 23.09 5.83.82-.83 4.14-9.34 7.37-18.92l5.86-17.42-5.27-14.73c-2.9-8.1-4.93-15.08-4.51-15.5.42-.42 5.23-.03 10.69.86 18.65 3.05 18.54 3.1 22.4-9.4 5.56-18.02 6.36-16.92-15.82-21.93-7.52-1.7-7.68-2.64-2.48-14.76 3.59-8.37 5.18-8.81 20.13-5.61 8.52 1.82 8.6 1.91 7.54 7.11-1.21 5.91-4.17 59.42-4.24 76.76-.04 8.9-.58 11.29-2.56 11.29-3.91 0-3.47 17.44.55 21.45 1.68 1.68 3.54 4.32 4.13 5.86.59 1.54 2.23 2.8 3.63 2.8 1.45 0 2.57 1.45 2.57 3.34 0 2.89 1.12 3.35 8.18 3.35 5.73 0 8.47-.76 9.14-2.51.65-1.69 3.31-2.51 8.13-2.52 6.13-.02 7.46-.66 9.25-4.52 2.98-6.42 2.73-15.54-.42-15.54a2.516 2.516 0 0 1-2.51-2.51 2.516 2.516 0 0 1 2.51-2.51c1.39 0 2.51-1.49 2.51-3.35 0-3.47 2.63-4.28 6.33-1.93 1.73 1.1 1.81 9.01.45 40.53-3.61 83.25-5.35 117.91-6.08 121.53-.72 3.53-1.6 3.77-14.29 3.77-11.65 0-13.39.36-12.51 2.64.56 1.46 1.01 6.41 1.01 11v8.35l12.51-.55 12.51-.55-.84 8.37c-1.92 19.22-5.99 101.68-6.95 140.9l-1.04 42.23H328.2v36.79h23.13l1.04 12.96c4.04 50.07 11.73 116.97 20.99 182.71 2.66 18.85 7.55 54.98 10.87 80.27 6.53 49.67 9.12 63.3 14.25 74.89 2.8 6.33 3.69 7.16 5.82 5.39 2.07-1.72 2.51-1.57 2.51.82 0 2.23-1.064 2.73-4.595 2.17zm-61.46-539.83H328.23v41.81l8.78-.023c16.913-.044 16.305.772 16.305-21.913v-19.874h-12.542zm2.09 471.48c-1.672-.105-1.672-.3 0-.975 1.275-.514 2.09-4.053 2.09-9.066v-8.222h-15.05v8.362c0 7.776.29 8.362 4.128 8.362 2.99 0 3.86.696 3.17 2.508-1.6 4.177.55 7.35 4.31 6.365 3.72-.97 4.85-7.112 1.36-7.333z"/><path fill="#fff" d="M340.773 984.366h-9.2v-30.103h18.398v30.102h-9.19zm33.697 56.024c-3.78 40.473-7.063 72.457-7.294 71.077-2.332-13.914-9.163-82.87-10.686-107.87-2.712-44.51-.966-121.892 5.094-225.77 2.79-47.83 5.162-90.35 5.272-94.49.16-5.99 1.685-1.555 7.48 21.74l7.277 29.267-.134 116.23-.14 116.23-6.88 73.587zm-33.697-194.832h-9.2v-35.12h18.398v35.12h-9.19zm6.69-88.637h-9.2v-15.05h18.397v15.05h-9.198zm-65.813 578.65h-18.148l-.97-14.94c-.53-8.22-1.738-16.38-2.68-18.14-1.875-3.5-14.124-5.33-35.786-5.36l-11.346-.01.84-7.94c.463-4.37 1.274-14.71 1.804-22.99 1.552-24.28 4.08-35.95 10.863-50.17 9.677-20.28 11.64-21.62 32.844-22.31 21.74-.71 26.25.86 29.79 10.36 5.58 15 10.02 66.27 10.86 125.26l.09 6.27h-18.15z"/><path fill="#fff" d="M234.637 1335.567h-21.802v-33.548l21.323.46 21.323.47.48 16.3.48 16.3h-21.8zm-18.652-102.016c-.815 4.14-2.522 17.94-3.795 30.67-1.272 12.73-2.964 23.74-3.76 24.47-2.074 1.9-178.3 132.96-180.812 134.47-1.606.97-2.09-1.98-2.09-12.73v-13.99l85.71-82.01c100.124-95.8 97.01-92.98 101.828-92.27 4.5.66 4.803 1.84 2.92 11.41zm-14.06 128.76c-6.554 16.11-10.854 24.24-15.023 28.41l-5.842 5.84v-57.14l-5.074-7c-3.155-4.35-5.843-6.55-7.108-5.82-1.118.65-5.285 3.39-9.26 6.08-3.973 2.69-7.566 4.55-7.984 4.14-.418-.42 12.428-10.66 28.548-22.75l29.308-21.99.02 18c.01 9.9.373 20.63.808 23.85.6 4.45-1.412 11.27-8.392 28.42z"/><path fill="#fff" d="M156.133 1412.417c-11.097 5.563-20.888 10.114-21.757 10.114-1.91 0-21.884-28.38-21.884-31.09 0-1.63 17.9-14.66 48.843-35.56 7.217-4.87 8-5.07 9.438-2.36.864 1.63 2.06 10.49 2.662 19.68.6 9.2 1.493 19.51 1.984 22.92l.89 6.2-20.18 10.12zm-75.48 37.683l-48.563 24.447.482-15.49.482-15.49 35.956-24.67c19.776-13.57 36.877-24.7 38.003-24.734 1.713-.052 22.203 28.28 22.203 30.702 0 .434-21.854 11.79-48.563 25.236zm-59.868 29.99c-17.623 8.93-19.79 5.67-17.306-26.035 2.08-26.615 6.39-42.096 13.64-49.044l5.06-4.84v20.01c0 14.67.64 20.93 2.39 23.43 1.32 1.89 2.92 9.87 3.56 17.8l1.16 14.37-8.53 4.32zm247.24-295.038h-31.777v-11.706H299.8v11.706h-31.775zm30.247 33.448l-.98 9.198-2.257-13.293c-1.93-11.37-3.08-14.117-7.944-18.982l-5.69-5.69-21.74.587c-11.95.322-21.74.022-21.74-.67 0-.69 13.93-1.253 30.94-1.253h30.94l-.27 10.452c-.15 5.75-.71 14.59-1.25 19.65zm20.76 21.74h-14.216v-26.757h28.43v26.758h-14.214zm-28.09 120.413c-1.858 11.87-2.427 12.614-10.868 14.197-4.67.876-6.187.42-8.214-2.476-3.275-4.675-11.362-4.09-11.362.822 0 2.524 1.436 3.58 5.853 4.31l5.86.964-5.77.707c-5.11.626-6.6-.18-12.96-6.99-7.14-7.657-7.18-7.77-7.18-20.27v-12.568l6.27-1.04c3.45-.57 13.99-1.05 23.42-1.06l17.14-.02-.23 6.27c-.13 3.45-1 11.16-1.93 17.14zm-18.343-21.435c-5.52-.636-8.46 4.32-4.17 7.023 2.37 1.5 2.27 1.9-.83 3.46-5.05 2.54-5.6 6-1.14 7.16l3.81 1-3.64 1.35c-2.1.78-3.64 2.78-3.64 4.75 0 2.67 1.09 3.4 5.07 3.4 5.47 0 8.7-4.38 4.93-6.7-1.74-1.07-1.61-1.93.65-4.19 2.29-2.29 2.44-3.31.77-5.33-1.69-2.03-1.52-2.8.87-4.14 4.32-2.42 2.68-7.13-2.71-7.76zm130.46 49.49c-1.87 14.97-3.74 26.87-4.17 26.444-.43-.427-2.83-15.583-5.33-33.68l-4.55-32.902 7.37 1.012c12.27 1.68 11.73-1.453 6.67 39.127z"/><path fill="#fff" d="M28.095 1458.997c-.302-2.76-.853-6.428-1.223-8.153l-.918-4.285c-.276-1.29.088-1.43 1.322-.5.963.72 1.39 4.8 1.377 13.14l-.007 4.8-.55-5.02zm4.77-12.543c-.16 1.84-.355 9.035-.432 15.99-.077 6.954-.258 12.645-.4 12.647-.624.01-.785-3.46-.785-16.88 0-14.04.014-14.28.877-14.82.482-.3.912-.48.955-.41.043.08-.053 1.64-.214 3.48zm132.09-121.005c-6.548 5.08-12.016 9.58-12.832 10.57-1.13 1.36-.054 1.18 3.125-.54 1.768-.96 3.275-1.67 3.35-1.6.074.07-4.044 3.03-9.15 6.57-5.108 3.54-24.02 16.77-42.028 29.4-18.008 12.63-32.833 22.87-32.944 22.76-.112-.11 18.008-13.84 40.267-30.5 56.703-42.44 55.334-41.43 55.563-41.2.114.11-2.294 2.15-5.352 4.52zm10.085 64.98c-.186-1.61-.632-6.88-.99-11.71-.848-11.47-1.392-16.78-2.164-21.08-.796-4.45-1.505-5.89-2.903-5.89-1.1 0-3.75 1.2-5.745 2.61-.646.45-1.27.73-1.388.61-.24-.24 2.677-2.32 4.736-3.37 1.984-1.02 3.246-.87 4.425.53 1.6 1.89 2.03 5.04 3.64 26.37.86 11.37 1.07 17.71.39 11.91zm20.917-11.73c-2.363 5.96-2.61 6.39-5.282 9.08-1.542 1.55-2.87 2.76-2.952 2.67-.08-.08.81-1.42 1.98-2.96s3.625-5.83 5.456-9.52c1.83-3.69 3.31-6.45 3.3-6.13-.02.32-1.14 3.4-2.51 6.84zm21.794-151.76c-.25 1.12-.31 1.02-.51-.93-.12-1.2-.46-2.46-.74-2.8-.28-.34-1.54-.85-2.8-1.13-2.08-.47-2.45-.44-4.09.36-3.11 1.51-11.48 8.86-28.37 24.92-4.32 4.11-7.95 7.38-8.06 7.26-.17-.17 8.69-8.72 27.74-26.75 7.47-7.07 12.82-8.94 16.27-5.69 1.01.94 1.17 2.23.59 4.74zm-6.61 54.14c-.43 4.56-.8 6.69-1.26 7.21-.92 1.04-1.4.9-.95-.28.35-.91 2.24-12.46 2.65-16.13.12-1.04.17-.85.18.62.01 1.15-.26 5-.6 8.57zm17.14 17.07c-10.15.04-15.57-.08-15.57-.35 0-.49 21.48-.51 27.39-.02 2.48.2-1.54.33-11.81.37zm29.07 37.28c-.67 0-.8-2.13-1.42-23.26l-.27-9.25-5.9-.26c-3.24-.14-12.91-.38-21.47-.53l-15.57-.28v16.78c0 10.91-.14 16.78-.42 16.78-.27 0-.41-5.95-.41-16.99v-16.99l21.22.23c11.67.13 21.77.4 22.45.6.82.25 1.33.74 1.53 1.49.17.61.44 7.98.61 16.38.27 13.44.23 15.27-.32 15.27zm-2.41 2.47c-.8.02-3.06.31-5.01.66-1.95.34-3.61.62-3.69.62-.07 0-.07 5.22 0 11.6.14 11.51.15 11.62 1.23 13.9.6 1.26 1.89 3.19 2.86 4.28.98 1.09 1.64 1.99 1.48 1.99-.16 0-1.77-1.34-3.59-2.97l-3.29-2.98v-27l5.19-.3c2.86-.16 5.44-.2 5.75-.07.31.12-.1.24-.9.26zm44.33-103.66l-.22 9.82-1.16-8.36c-1.26-9.09-1.29-9.47-.77-8.65.44.68 1.61-9.74 2.28-20.21.21-3.29.13 16.51-.12 27.38zm-5.29 109.56c-1.43 9.98-3.95 26.49-4.32 28.37l-.17.88-6.9 1.73c-7.33 1.84-8.8 2.27-10.27 2.98l-.92.45-2.23-.35-2.23-.35.91-.19c2.06-.42 3.68-1.58 4.08-2.91.14-.46.19-.96.13-1.28l-.1-.53.79.86c.43.47 1.13 1.04 1.54 1.26.72.37.85.39 2.82.38 1.75-.01 2.42-.09 4.29-.49 3.84-.83 5.12-1.37 6.36-2.69 1.3-1.39 2.03-3.65 2.94-9.09 1.48-8.82 2.33-17.12 2.48-24.27.02-.84.05-1.52.07-1.52.02 0 .38.07.79.16l.75.16-.01.69c-.01.38-.34 2.95-.74 5.71zm-19.59 20.17c-.3.69-.85 1.39-1.4 1.78-.65.46-.67.28-.06-.46 1.1-1.32 1.24-2.16.54-3.27-1.07-1.69-4.42-2.73-6.97-2.17-.53.12-1.09.27-1.24.33-.2.08-.25.07-.17-.06.17-.27 1.61-.95 3.55-1.66 1.73-.64 1.75-.65 1.33-.83-.41-.18-.4-.19.39-.19a7.76 7.76 0 0 0 1.63-.22c.45-.12.83-.19.86-.16.03.02-.19.35-.48.73-.39.51-.53.84-.53 1.25 0 .59.24.87 1.69 1.98.59.45 1.11 1.4 1.11 2.01 0 .2-.1.6-.22.88zm3.13-19.48c-.31.87-.81 1.39-2.33 2.42-1.56 1.04-1.89 1.4-1.89 2.01 0 .6.19.98 1.1 2.19 1.01 1.34 1.24 1.99 1.01 2.77-.09.3-.26.68-.37.84-.18.25-.2.16-.13-.78.1-1.44-.18-2.16-1.24-3.13-1.13-1.04-2.34-1.4-4.29-1.3l-1.39.07.98-.59c1.09-.66 1.38-1.08 1.1-1.6-.16-.3-.15-.33.1-.23 1.42.55 2.59.43 4.11-.43 1.82-1.02 3.02-2.66 3.05-4.15l.02-.74.2.52c.26.66.26 1.41.02 2.09zM271 1378.8c-.04.046-.14.5-.21 1.01-.09.675-.23 1.03-.49 1.29-.49.496-.93.365-1.82-.544-.85-.86-1.41-1.05-3.145-1.05-2.524 0-4.41.766-5.636 2.28-1.14 1.4-1.04 1.83.91 4.09.48.564.88 1.116.88 1.226 0 .45-2.45.46-3.06.01-.39-.287-.34-2.12.16-5.764.54-3.97.43-3.718 1.34-3.15 1.92 1.2 3.71 1.38 8.2.81 1.59-.2 2.9-.35 2.92-.33.02.02 0 .07-.05.12zm-8.34-43.345h-.74v-6.986c0-8.23-.22-13.21-.83-18.37-.25-2.18-.99-6.11-1.31-7.03-.3-.86-.26-1.06.09-.4.73 1.37 1.77 7.76 2.35 14.38.19 2.17 1.19 17.19 1.19 17.9v.5h-.74z"/><path fill="#fff" d="M246.764 1298.6c-1.62-.04-9.95-.07-18.514-.07-15.496 0-15.572-.002-15.572-.298 0-.276.06-.29.85-.185 1.233.163 26.657.14 27.014-.024.262-.12.237-.148-.22-.25-1.384-.304 5.78.302 8.13.69 1.24.203 1.22.205-1.688.136zm39.01 38.55c-3.74.06-9.127.108-11.972.11-5.286 0-11.164.173-15.357.452-1.658.11-2.394.11-2.505 0-.092-.093-.927-.167-2.013-.178-1.826-.02-1.807-.023 1.25-.21 8.374-.506 11.477-.583 22.985-.57 6.464.01 12.35.074 13.082.15 1.088.115.09.16-5.47.247zm-73.618 1.513c-.872 1.41-6.955 16.44-12.94 31.974-.404 1.045-.677 1.58-.73 1.427-.102-.29-.257-.138-.656.648-.138.272-.284.46-.324.42-.04-.04.457-1.293 1.104-2.784 1.702-3.923 2.187-5.08 3.918-9.365 4.674-11.558 6.897-18.095 7.64-22.468.347-2.038.348-2.986.003-7.17-.35-4.28-.47-9.633-.55-24.057-.04-8.394-.1-15.262-.14-15.262-.07 0-33.53 25.11-37.19 27.915-1.6 1.24-2.97 2.24-3.02 2.24-.05 0 .2-.3.56-.68.66-.68.66-.68.22-.58-.24.06-.39.05-.32-.01s9.21-6.91 20.33-15.21l20.21-15.09.1 6.96.27 17.9c.2 13.54.42 18.76.91 21.19.14.68.22.81.59.94.52.18.53.32.06 1.08z"/><path fill="#fff" d="M193.906 1384.34c-.406 1.02-.497 1.117-6.673 7.196l-6.262 6.163-.03-28.01-.04-28.01-2.68-4.4c-2.67-4.37-3.93-6.34-5.04-7.85-1.39-1.9.17-.35 1.92 1.89.41.53 1.92 2.58 3.35 4.56l2.61 3.6v57.1l3.42-3.4c1.88-1.87 3.37-3.25 3.32-3.07-.05.19-.03.33.06.33.23 0 4.03-3.73 4.75-4.66a16.16 16.16 0 0 0 1.2-1.88c.66-1.25.72-1.07.13.41zm-26.874-55.73a610.154 610.154 0 0 0-6.2 4.177c-1.812 1.24-3.344 2.254-3.404 2.254-.06 0 .19-.26.557-.59.65-.58.656-.59.222-.49-.284.06-.39.05-.296-.04.21-.19 5.86-3.96 8.66-5.76 2.43-1.56 2.82-1.76 3.16-1.56.15.09-.61.67-2.69 2.04zm8.553 74.496c-3.813 2.407-40.132 20.856-41.647 21.156-.385.076-.51-.035-1.6-1.42-4.516-5.744-17-23.864-20.87-30.295-.514-.85-.933-1.592-.933-1.648 0-.53 6.066-5.19 14.072-10.82 5.94-4.18 37.55-25.84 37.612-25.78.03.03-.05.14-.17.24-.31.25-.29.41.06.47.19.03-1.32 1.13-4.62 3.37-29.11 19.73-45.05 31.44-45.05 33.1 0 1.34 5.58 10.17 12.39 19.59 5.21 7.22 8.74 11.45 9.53 11.45 1.13 0 9.07-3.75 28.14-13.29 11.99-6 15.18-7.5 13.05-6.16zm-45.278 22.52c-5.507 3.345-97.83 49.915-98.184 49.525-.315-.35 1.49-1.3 23.222-12.23 51.376-25.85 73.37-37.16 73.894-38.01.44-.71-6.51-11.23-13.94-21.11-4.78-6.35-7.61-9.62-8.3-9.62-.46 0-1.58.63-5.63 3.15-4.56 2.85-10.13 6.49-18.78 12.29-7.57 5.08-10.12 6.82-34.61 23.63-13.77 9.45-14.6 10-14.94 9.82-.34-.17.43-.72 15.09-10.75 40.44-27.66 58.66-39.95 59.89-40.42.18-.07.87.84 2.97 3.87 6.21 9 17.88 26.45 19.67 29.41.06.11-.09.29-.38.47zm30.598-100.522c-1.403 1.045-11.264 8.41-21.915 16.367-43.467 32.48-103.595 77.33-111.9 83.47l-1.92 1.42-.09-1.71c-.05-.94-.1-7.77-.108-15.17l-.015-13.45 40.222-38.58c79.32-76.08 73.07-70.14 73.7-70.14h.55l-1.26 1.24c-.69.68-12.1 11.61-25.35 24.28a215334.695 215334.695 0 0 0-86.51 82.76l-.93.9v6.57c0 3.62.06 8.8.14 11.53.17 6.42.39 8.01 1.21 8.62.47.35.44.37 3.22-1.65 8.43-6.13 62.13-45.97 108.35-80.38l20.62-15.34c2.28-1.69 4.22-3.14 4.32-3.22.13-.11.18-.05.18.24 0 .33-.4.68-2.55 2.28zM80.13 1388.12c-2.16 1.643-5.048 3.876-5.65 4.372-.034.028-.03.084.012.125.04.04 1.455-.862 3.143-2.006 1.687-1.14 3.1-2.05 3.137-2.01.056.06-11.634 8.26-15.488 10.87-1.207.82-1.526.95-1.076.45.406-.45 18.547-14.06 18.632-13.98.04.04-1.18 1.03-2.71 2.19zm-51.758 89.142c-1.042.61-11.02 5.52-12.46 6.13-5.92 2.51-8.878 2.55-11.295.16-1.448-1.435-2.104-2.624-2.406-4.36-.33-1.9-.3-9.232.07-20.204.61-17.986 2.18-27.996 6.53-41.705 2.23-7.013 3.19-8.432 10.83-15.927l3.1-3.036.07 17.634c.06 15.6.11 18.895.32 22.338l.06.836-.14-.803c-.17-.995-.43-3.8-.59-6.357-.07-1.165-.13-7.862-.16-16.86-.03-8.347-.09-14.912-.14-14.894-.22.078-5.74 5.44-6.37 6.194-7.19 8.56-11.05 25.374-12.92 56.29-.25 4.107-.25 11.463 0 13.56.89 7.568 3.52 9.497 10.02 7.345 2.47-.815 4.3-1.644 10.31-4.672l5.67-2.85v.46c0 .44-.02.48-.44.73z"/><path fill="#fff" d="M26.18 1445.452c-.328 0-.414.212-.336.828.045.357-.042.183-.342-.687-.22-.64-.623-1.545-.893-2.01-.66-1.123-.63-1.276.05-.268.29.444.82 1.107 1.16 1.472.57.614.6.665.36.665zm5.71 29.863l-.33.118-.11-.645c-.378-2.206-.537-8.314-.536-20.504v-10.243l.364-.23c.2-.13.382-.23.405-.23.023 0-.025.2-.107.43-.288.84-.345 3.09-.345 13.63 0 14.53.14 17.39.82 17.54.11.02.05.08-.16.16zm267.748-156.075c-.037-1.093-.167-5.656-.29-10.14-1.105-40.197-4.082-76.29-7.846-95.117-1.487-7.442-2.866-11.615-4.794-14.516-2.8-4.212-6.763-5.62-16.837-5.983-3.94-.142-15.17.17-19.33.54-10.39.92-14.39 3.377-19.22 11.794-2.4 4.193-6.16 12.008-8.09 16.835-3.74 9.37-5.86 19.272-7.17 33.454-.17 1.897-.6 7.494-.94 12.438-.69 9.91-1.34 17.947-1.76 21.637-.26 2.3-.27 2.34-.3.94-.03-1.828.5-12.842.92-19.232 1.05-15.886 3.24-33.274 5.12-40.705 1.26-4.953 3.78-10.993 8.24-19.71 4.99-9.762 7.42-13.172 10.99-15.465 2.27-1.454 4.81-2.31 8.36-2.813 4.57-.646 22.88-.772 29.79-.205 4.43.363 6.7 1.212 9 3.362 4.24 3.968 6.02 9.953 9.08 30.526 3.93 26.488 4.72 39.65 5.1 84.52.05 5.404.06 8.932.02 7.84zm-113.308-13.16c-12.378 9.25-22.587 16.85-22.685 16.887-.1.038-.18-.06-.18-.216s2.14-1.88 4.756-3.82 12.71-9.48 22.42-16.75c9.72-7.26 17.76-13.22 17.87-13.24.12-.02.23.05.27.15.04.1-10.06 7.75-22.44 17zm-12.1-52.69c-.628.62-1.05 1.185-.936 1.256.264.163-33.573 32.482-34.1 32.57-.715.12-.42-.294 1.537-2.18 10.63-10.23 34.49-32.923 34.56-32.857.05.04-.43.59-1.05 1.21z"/><path fill="#fff" d="M273.79 1188.435c-24.647.094-30.775.23-34.413.77-1.863.274-1.988.49-.514.884.45.12 5.175.27 10.835.36 5.52.08 8.576.16 6.794.18-4.89.06-10.955.42-13.066.78-2.064.35-3.27.83-5.33 2.15l-1.36.86-.073-.68c-.04-.37.044-1.93.188-3.45l.27-2.77h31.33c30.67 0 31.33.01 31.33.39 0 .39-.6.4-25.97.5z"/><path fill="#fff" d="M283.877 1192.7c-.172-.066-.89-.36-1.592-.652-2.797-1.163-6.618-1.564-15.34-1.612-5.48-.03-5.434-.034 4.382-.32l9.922-.29 1.47 1.498c.81.823 1.33 1.442 1.15 1.376zm7.892-6.282c-4.4-.073-16.56-.18-27.02-.24-23.41-.133-28.33-.246-28.33-.648 0-.247 4.78-.29 31.67-.29h31.67v1.31l-8-.132zm81.42 156.528c-1.95-.453-60.22-9.556-66.14-10.333-2.13-.28-3.01 0-3.22 1.002-.24 1.19-.44 1.616-.73 1.616-.22 0-.35-.34-.46-1.15-.39-3.08-.6-18.48-.73-53.25l-.14-38.1 17.54-.05 17.54-.05.05-15.62.05-15.62h-35.12v-67.89c0-37.34-.06-70.64-.14-74l-.14-6.11h1.32v5.49c0 14.39.63 141.13.69 141.19.04.04 7.57.28 16.73.54 9.16.25 16.74.51 16.83.57.09.06.28 3.93.41 8.58.64 22.28.82 23.36 4.16 24.49 1.83.63 1.31.71-2.59.41-1.63-.12-3.31-.23-3.72-.23h-.76v14.22h-.84c-.46 0-.84-.06-.84-.12 0-.36 1.05-13.3 1.14-14.05l.1-.89h-31.1v41.09l17.5 5.45 17.51 5.45.05 8.46c.02 4.65-.03 10.01-.12 11.9-.15 3.1-.18 2.44-.34-6.58-.1-5.52-.23-10.77-.31-11.68l-.14-1.65-6.8-2.18c-9.64-3.09-23.68-7.49-25.45-7.98-.83-.23-1.56-.34-1.61-.24-.33.54-.56 8.66-.67 24.34l-.13 17.74 14.33-.07c7.88-.04 14.32-.06 14.3-.04-.13.12-8.34.75-13.21 1.01-9.68.53-14.95 1.15-14.95 1.78 0 .52 8.67 2.2 27.91 5.42 9.55 1.6 41.77 6.71 42.29 6.71.13 0 .24.14.24.3 0 .17-.15.26-.37.21z"/><path fill="#fff" d="M304.364 1240.428c-.414 0-.418-.14-.418-13.38s.004-13.378.418-13.378.418.14.418 13.38-.004 13.378-.418 13.378zm-36.374-67.104h-31.776l-.024 2.56c-.03 3.115-.135 2.835-.237-.627l-.075-2.56h31.943c28.26 0 31.95.035 31.95.313 0 .277-3.67.314-31.77.314zm69.403 101.18h-4.39v-10.872h8.78v10.87h-4.39zm5.63 2.802c-.355.298-.774.542-.93.542-.16 0-.364.13-.456.292-.12.208-.725.314-2.103.366-1.642.062-1.953.022-2.044-.265-.262-.82-.863-1.05-3.253-1.25-1.29-.1-2.395-.23-2.453-.29-.057-.06 2.592-.1 5.888-.1s5.993.04 5.993.09c0 .05-.29.33-.643.63zM341.25 1283c-.887.886-2.254.298-2.254-.97 0-1.27 1.367-1.86 2.254-.97.676.674.676 1.263 0 1.94zm.328-27.015c-.215 1.115-.653 1.376-2.31 1.376-2.21 0-2.188.05-2.188-5.33s-.02-5.33 2.187-5.33c1.688 0 2.083.25 2.32 1.48.216 1.13.21 6.67-.01 7.81z"/><path fill="#fff" d="M344.678 1272.225c-.102.99-.316 2.212-.474 2.718-.258.822-.29.154-.31-6.35l-.02-7.266-6.533.055-6.53.055-.1 7.212c-.09 6.36-.13 7.08-.36 6.1-.18-.77-.26-3.15-.26-7.68v-6.58h14.84l-.02 4.96c-.01 2.73-.11 5.77-.21 6.76zm-10.682-31.797h-.68l.056-13.38.056-13.378h1.248v26.758h-.68zm10.714 15.39c-.086.587-.255 1.244-.375 1.46-.203.362-.227.352-.325-.13-.143-.7-.574-11.753-.462-11.864.048-.05.28.29.516.752.733 1.437 1.086 6.78.646 9.78zm-.016 26.585a6.855 6.855 0 0 1-.582 1.3c-.37.61-.373.596-.28-1.646.06-1.483.01-2.416-.15-2.712-.317-.594 0-.578.572.03.533.567.745 2.024.44 3.028zm62.8 70.927c-.49 6.702-2.05 21.463-3.522 33.343-.952 7.678-4.166 30.37-4.324 30.53-.048.047-.313.112-.588.144-.375.043-.576-.097-.802-.56-.74-1.506-2.197-10.695-4.215-26.56-3.15-24.767-4.896-37.007-5.982-41.966-.12-.56-.1-.57.79-.57.5 0 1.86.14 3.01.32 2.53.38 14.61 2.78 15.3 3.04.51.2.5.15.35 2.29zm-1.448.206c-.45-1.52-1.51-2.573-3.02-3.003-1.332-.38-13.788-2.08-13.962-1.906-.12.12 1.252 10.274 4.486 33.238 2.922 20.745 4.832 32.728 5.294 33.202.296.305.622-1.073 1.47-6.218 1.726-10.47 5.3-38.73 6.15-48.62.154-1.79-.082-5.57-.418-6.7zm5.412-47.764c-.135 2.97-1.14 16.52-1.745 23.518-1.238 14.336-1.78 17.895-2.867 18.873-.42.376-1.38.244-13.845-1.91a2293.99 2293.99 0 0 0-13.32-2.253c-3.77-.623-6.11-1.098-6.11-1.243 0-.167.35-.18 1.21-.047.66.103 7.51 1.177 15.21 2.388 14.69 2.31 15.42 2.378 16.32 1.53.57-.53.8-2.04.5-3.172-.2-.754-.27-.813-.77-.688-.3.076-.9.414-1.32.75-1 .798-1.2.78-.51-.044 1.33-1.573 2.48-4.614 3.33-8.79 1.01-4.942 1.64-9.95 2.73-21.87.7-7.55 1.06-10.67 1.28-10.886.09-.09.08.942-.05 3.844zm-6.785-111.357c-3.34 1.805-6.778 2.436-13.24 2.43-5.82-.01-8.624-.435-12.283-1.878-1.007-.398-2.16-.723-2.56-.723-.71 0-.73.024-.73.812 0 .955.702 6.278 3.537 26.783 2.798 20.23 4.472 32.78 6.487 48.6 2.22 17.42 3.23 25.09 4.098 31.12.65 4.51.836 6.25.604 5.67-.387-.98-3.017-19.58-7.2-50.91-4.333-32.46-6.67-49.68-9.617-70.87-4.56-32.77-7.83-57.87-10.76-82.5-1.06-8.89-1.02-8.44-.77-8.44.1 0 .25.63.33 1.41.37 3.64 4.68 37.75 6.26 49.62 1.72 12.91 6.37 46.44 6.46 46.52.02.02 7 .25 15.51.51 8.5.25 15.54.53 15.64.62.09.08-.71.62-1.78 1.2z"/><path fill="#fff" d="M404.53 1172.236c-5.408 2.09-12.686 2.666-19.31 1.53-2.23-.382-8.648-2.166-9.004-2.503-.334-.316 5.102-1.065 9.377-1.292 4.56-.24 12.82-.12 16.107.24 1.903.21 4.665.78 4.936 1.02.083.08-.865.53-2.106 1.01zm-4.578-18.43c-.316.07-.716.172-.89.228-.17.055-3.08.188-6.462.295-8.828.28-20.915-.15-21.525-.76-.307-.31 1.18-1.17 3.06-1.78 3.855-1.24 9.1-2.09 12.908-2.09 5.346 0 11.34 1.39 12.957 3.01.676.67.665.92-.048 1.08zm.28-23.45c-1.19.3-7.87.543-14.757.537-7.03-.01-14.13-.253-14.377-.5-.232-.232.683-.97 1.926-1.56 1.727-.815 5.437-1.972 8.2-2.556 2.954-.625 7.458-.68 10.105-.12 3.88.817 7.77 2.272 8.93 3.342.59.54.59.7-.04.85zm2.1-24.648l-.677.215c-.185.058-2.043-.102-4.13-.358-5.212-.64-13.304-.647-19.053-.018-3.837.42-5.33.43-5.33.034 0-.58 4.555-2.44 7.525-3.07 5.583-1.19 12.63-1.02 17.12.41 1.695.54 3.98 1.69 4.493 2.26.355.4.36.45.052.55zm-24.088-101.175c-1.075 11.843-3.087 34.044-4.47 49.336-4.276 47.22-5.706 62.15-6.036 63.05-.265.72-.396.28-.854-2.87-1.55-10.65-7.475-62.69-9.1-79.95-2.267-24.1-3.262-49.09-3.6-90.47l-.132-16.36h1.276l-.11 17.82c-.17 27.34.312 46.48 1.632 64.85 1.882 26.21 7.725 84.82 9.898 99.28.33 2.19.455 2.54.632 1.76.67-2.95 4.15-38.09 10.042-101.36 2.85-30.61 2.762-29.72 2.77-27.91.004.69-.873 10.95-1.948 22.79zm26.175 72.56c-.16.06-.8-.03-1.42-.2-4.85-1.336-16.82-1.664-23.23-.635-2.39.382-4.84.49-5.11.223-.51-.5 2.64-2.19 5.78-3.09 4.71-1.35 13.86-1.34 19.27.04 2.12.54 3.29 1.06 4.22 1.88.79.7 1.02 1.59.47 1.8zm.14-26.53c-1.28.272-26.62.197-27.24-.08-.51-.226-.5-.245.65-.76 1.7-.768 4.93-1.733 7.81-2.338 4.76-1 9.21-.9 14.01.31 2.31.584 5.32 1.93 5.48 2.45.04.147-.26.32-.72.42zm3.06-30.007c-.75.225-3.42.278-13.06.257-6.67-.014-12.74-.117-13.49-.228l-1.36-.2 1.59-.76c1.7-.81 5.94-2.003 9.17-2.576 5.68-1.01 14.68.42 17.55 2.79l.52.43-.94.28z"/><path fill="#fff" d="M362.238 1094.528c-.25 0-.31-.392-1.104-7.42-4.37-38.61-7.638-72.07-9.426-96.477a39.806 39.806 0 0 0-.22-2.24l-.106-.68h-22.977v-36.79h22.742l.136-3.39c.074-1.87.21-6.55.303-10.4l.167-7 .033 10.61.033 10.61h-23v35.33h11.81c11.11 0 11.81.02 11.81.37 0 .92 1.49 25.07 1.78 28.8 1.32 17.12 4.92 51.93 8 77.3.09.78.09 1.41 0 1.41z"/><path fill="#fff" d="M340.844 985.405h-9.93V953.63h19.86v31.775h-9.93zm0-31.148h-9.303v30.102h18.61v-30.11h-9.3zm73.55 9.477c-.233.233-1.556.158-3.848-.218-3.182-.522-17.097-.524-20.924 0-2.83.385-5.4.472-5.4.183 0-.81 4.208-2.47 8.36-3.29 2.347-.47 10.104-.66 12.913-.32 2.877.34 5.367.99 6.948 1.81 1.957 1.01 2.376 1.4 1.95 1.82zm-2.046 31c-.38.144-2.49 0-5.132-.345-4.714-.62-16.056-.45-21.113.32-2.304.35-3.688.39-3.86.11-.316-.51 3.273-2.28 6.368-3.14 5.35-1.49 12.41-1.61 17.53-.31 2.14.54 5.54 2.07 6.18 2.78.37.4.37.44.03.57zm-13.39-62.868H385.37l1.15-.53c4.206-1.93 6.794-2.542 11.5-2.724 5.525-.213 8.882.384 12.502 2.225l2.027 1.03h-13.59z"/><path fill="#fff" d="M406.287 800.11c-.182.07-2.61-.04-5.397-.24-6.618-.478-11.914-.283-17.453.642l-.68.113-.012 76.87-.013 76.867-.587 6.166-.588 6.167-.027-59.996c-.014-33 .036-75.73.113-94.96l.14-34.97h.975v11.31c0 10.67.02 11.3.366 11.2.2-.06 1.45-.49 2.78-.96 3.355-1.18 5.494-1.53 9.397-1.52 4.06.01 6.28.44 9.06 1.75 2.05.97 2.49 1.32 1.94 1.53zm-45.098-17.063c-3.06 53.195-4.56 89.44-5.74 138.755l-.13 5.488h-1.28l.14-8.31c.32-18.884 1.68-50.674 3.58-83.776.17-2.99.64-11.503 1.05-18.92 1.54-28.025 2.2-39.377 2.3-39.475.36-.36.37.88.06 6.23z"/><path fill="#fff" d="M407.992 873.845c-7.55.286-21.708.005-22.955-.456-.442-.17-.433-.19.25-.61.998-.62 3.48-1.42 5.937-1.91 6.318-1.28 10.112-1.15 15.365.5 1.94.61 4.67 1.8 4.87 2.13.08.12-1.23.25-3.47.34zm.04-28.012c-3.114.167-15.58.14-19.316-.044l-2.718-.14 1.587-.77c3.498-1.69 5.884-2.14 11.27-2.13 4.748.01 6.978.41 9.515 1.7.918.47 1.79.93 1.94 1.04.17.11-.69.23-2.28.32zm-.442-24.244c-1.894.22-17.25.4-20.54.24-3.062-.16-3.12-.17-2.662-.54 1.09-.88 5.95-2.11 10.013-2.53 4.06-.42 11.06.5 13.29 1.74 1.22.68 1.2.92-.09 1.08zm-54.534 17.86c-.09 1.65-.225 3.06-.302 3.13-.076.07-.075-.9.003-2.17.12-1.96-.23-32.29-.374-32.43-.028-.03-4.376-.15-9.662-.27-5.28-.13-10.57-.27-11.75-.32l-2.14-.09v40.32l8.31-.01c4.57-.01 9.39-.09 10.72-.19 1.32-.1 2.44-.14 2.49-.1.22.2-1.91.9-3.32 1.1-.86.11-5.4.27-10.08.34l-8.52.13v-41.83h24.88l-.03 14.68c-.02 8.07-.1 16.03-.19 17.68z"/><path fill="#fff" d="M350.46 845.343c-.276 0-.314-2.08-.314-17.456v-17.455H331.54v17.455c0 15.377-.036 17.456-.313 17.456-.276 0-.313-2.125-.313-17.874v-17.88h19.86v17.87c0 15.75-.038 17.87-.314 17.87zm8.764-70.03c-2.026 33.204-4.384 76.467-6.02 110.48-.156 3.22-.294 5.1-.31 4.18-.065-4.192 1.76-46.104 3.217-73.792 1.4-26.57 2.45-42.36 3.44-51.63.57-5.35.48-2.3-.32 10.77zm23.01 1.462h-.522v-42.41l-4.904-19.716c-4.97-19.98-6.716-26.7-7.87-30.26-1.003-3.11-1.605-4.12-1.935-3.26-.07.18-.27 3.12-.446 6.54-.66 12.9-1.95 35.96-3.94 70.53-.806 14.02-1.14 18.71-1.323 18.6-.184-.12-.12-2.34.263-9.14.638-11.31 1.373-24.27 2.177-38.36.345-6.04.863-15.16 1.15-20.28.29-5.12.62-10.9.736-12.86.51-8.64.834-14.35 1.07-18.87.14-2.68.333-4.79.427-4.69.345.34 3.846 14.68 11.156 45.68l4.485 19.01v39.45h-.523zm-35.328-18.396h-9.93v-17.77h19.86v1.25H338.23v15.05h18.606v1.46h-9.93z"/><path fill="#fff" d="M368.4 588.214c-1.187 36.164-4.35 103.567-7.068 150.514-.283 4.887-.68 11.8-.885 15.365-.204 3.565-.4 6.222-.437 5.906-.058-.51-.154-.58-.806-.58h-.74l.128-.89c.07-.49.186-5.2.257-10.46l.12-9.57-1.65-.03-1.65-.03 1.23-.18c2.51-.37 3.48-1.3 3.87-3.69.69-4.31 1.97-28.49 4.4-83.56.46-10.46 1.02-23.16 1.25-28.22.71-15.8 1.04-24.39 1.24-32.52.18-7.13.16-9.31-.08-13-.08-1.15-.06-1.2.42-1.2h.5l-.05 5.17a443.033 443.033 0 0 1-.1 6.95zM334.646 744.79c-.1-.977-.324-2.325-.495-2.995-.4-1.588-.39-1.963.08-2.214.36-.19.4-.06.52 1.83.08 1.12.13 2.74.11 3.6l-.03 1.57-.18-1.78z"/><path fill="#fff" d="M368.612 575.723c-.06.214-.3.366-.584.366-.416 0-.504-.14-.63-1-.27-1.8-.585-2.27-2.028-3.01-1.066-.55-1.58-.68-2.645-.69-1.232-.01-1.365.03-1.923.66-.58.65-.672.94-.936 3.02-.178 1.4-.856 2.3-1.992 2.66-1.87.58-2.14.73-2.526 1.36a2.732 2.732 0 0 0-.094 2.6c.428.83.8 1.08 2.047 1.38l1.11.27-1.5.02c-1.89.03-2.46-.19-2.76-1.04-.29-.85-.3-2.36-.01-3.38.26-.92.85-1.29 2.4-1.51 2.43-.35 2.89-.89 3.24-3.8.29-2.41.35-2.58 1-2.82.57-.22 3.48.14 6.37.78l1.42.31v1.29c.01.71.04 1.48.09 1.71.05.23.04.58-.01.78zm-10.932 23.053c-.447.923-1.018 1.863-1.27 2.09l-.455.413.074-1.93c.08-2.22.27-2.54 1.61-2.72 1.09-.15 1.09-.04.03 2.14zm-9.206 4.21c-5.724.326-6.86.695-8.077 2.624-.29.457-.576.78-.64.715-.062-.063-.047-.65.035-1.302.212-1.698.676-2.098 2.642-2.272.85-.07 3.52-.1 5.935-.07l4.39.07-4.29.25zm-24.633 3.69c-.25-.294-.44-.953-.53-1.856-.23-2.257-1-3.264-2.68-3.527-.49-.076-1.12-.28-1.41-.453-.48-.29-.38-.307 1.37-.227 1.04.048 2.09.193 2.34.322.56.3.84 1.19 1 3.166.07.87.17 1.9.23 2.3l.1.74-.39-.45zm-6.11-7.083c-.09-.06-.45-.69-.79-1.406a18.81 18.81 0 0 0-1.37-2.343l-.74-1.045.86-.07c1.11-.09 1.82.37 1.95 1.26.21 1.34.28 3.7.1 3.59zm-5.39-7.728a9.915 9.915 0 0 1-.75-1.41c-.26-.636-.27-.778-.04-.778.53 0 1.03.81 1.12 1.82l.1 1.002-.42-.64zm-13.25 43.475c-.37-.055-3.17-.33-6.22-.61-11.17-1.04-18.63-1.32-39.35-1.506l-15.62-.137v62.75c0 62.607 0 62.747-.42 62.747s-.42-.14-.42-63.442V631.7l.89.1c2.74.304 13.24.753 26.81 1.146 11.68.336 31.6.835 33.4.836h1.62v.823c0 .807-.01.82-.68.73zm-5.38-3.676c-3.73.067-37.21-.98-46.2-1.445-7.5-.39-10.45-.68-10.45-1.04 0-.24 1.38-.62 2.21-.62.35 0 .76-.12.91-.26.23-.22.25-.15.14.39l-.14.66 2.58.13c1.42.07 6.62.27 11.56.44 20.05.7 39.64 1.49 40.56 1.64.23.03-.29.08-1.15.09zM243.8 615.39c-.767 1.074-1.867 3.497-2.337 5.144l-.41 1.44-.014-2.717c-.02-3.51.16-4.197 1.19-4.506.42-.12 1.07-.2 1.43-.16l.65.07-.52.73zm-5.31 9.505c-.297 1.468-.59 1.767-1 1.015-.44-.808-.573-6.63-.187-8.1.62-2.36 1.216-.91 1.325 3.224.04 1.552-.02 3.29-.137 3.86zm6.08-15.103c-.218 2.876-.274 3.03-1.197 3.294-.43.122-2.03.282-3.552.355l-2.77.14v-17h7.74l-.03 5.59c-.01 3.08-.1 6.51-.18 7.63zm6.344-43.32c-.093 1.628-.395 3.994-1.214 9.512-.392 2.645-.756 5.185-.808 5.644-.157 1.378.087-5.862.29-8.576.983-13.227-.02-20.083-2.5-17.096-1.01 1.22-3.25 5.93-4.2 8.842-3.233 9.916-5.433 23.75-4.205 26.447.52 1.14 1.834 2.272 3.188 2.743l1.126.392-2.79.06c-1.54.03-2.84.01-2.9-.05-.14-.136.71-10.285 1.13-13.46.76-5.78 2.13-11.974 3.76-16.965.96-2.94 3.74-8.84 4.9-10.4 1.24-1.664 1.67-1.198 2.83 3.015 1.15 4.206 1.58 7.156 1.42 9.893zm-3.2 40.56c-.127 1.302-.728 3.967-.896 3.968-.025 0-.046-2.61-.046-5.8s-.064-6.273-.142-6.848l-.14-1.045.39.836c.717 1.53 1.126 5.886.834 8.89z"/><path fill="#fff" d="M279.2 569.713c-4.126 12.206-6.45 18.69-7.674 21.393-.592 1.31-.606 1.322-1.283 1.176-2.046-.444-15.508-5.327-17.716-6.425-.74-.37-.973-.618-1.122-1.197-.233-.912.12-6.418.735-11.458a64.29 64.29 0 0 0 .467-7.566c.017-4.24-.023-4.518-1.666-11.67-.51-2.222-.92-4.17-.92-4.33 0-.25 5.03-5.745 11.47-12.535 2.94-3.1 10.15-10.34 10.3-10.34.22 0 1.62 3.19 3.34 7.63 1.93 4.97 8.36 22.43 8.35 22.64 0 .08-1.92 5.79-4.25 12.69zm-.705-10.557c-.23-.457-.677-.884-1.194-1.136-.79-.385-.9-.39-2.4-.077-.86.18-3.03.89-4.81 1.58-3.37 1.305-4.74 1.715-4.52 1.35.07-.113 1.05-.606 2.17-1.096 5.46-2.38 8.86-4.748 10.52-7.32.58-.894.66-1.19.57-1.98-.24-2.13-3.59-6.573-5.69-7.553-2.98-1.388-6.02-.08-11.62 5.01-5.18 4.713-6.67 7.266-6.67 11.446 0 2.32.58 3.28 2.33 3.862 1.31.435 1.32.8.05 2.69-1.96 2.924-2.66 5.21-2.67 8.693 0 2.075.06 2.555.49 3.503.82 1.844 2.41 2.957 6.06 4.242 2.97 1.047 5.28 1.408 6.61 1.036 2.89-.808 4.9-3.24 7.43-8.99 3.25-7.36 4.51-13.024 3.39-15.26zm-7.265-27.595c-1.133-.94-4.68 1.66-10.768 7.88-4.247 4.34-7.695 8.4-8.555 10.07-.357.69.064 1.88.723 2.05 1.35.34 4.162-1.35 8.543-5.14 3.815-3.3 8.09-8.01 9.154-10.1 1.127-2.21 1.512-4.23.903-4.73zm-4.6 61.55c-1.733-.21-7.508-1.73-10.427-2.74-3.09-1.07-5.372-2.15-6.11-2.89-.732-.73-.608-1.04.18-.44.374.28 1.15.75 1.725 1.03 1.15.57 7.76 2.8 12.595 4.26 1.996.6 2.715.89 2.038.8z"/><path fill="#fff" d="M300.897 529.47c-1.717 0-5.842-.5-11.25-1.367-8.44-1.352-12.758-1.693-13.013-1.028-.364.948 1.69 7.678 6.19 20.27l3.51 9.825-3.65 10.87c-4.385 13.053-8.567 24.404-8.62 23.387-.006-.13.516-1.682 1.16-3.45.644-1.767 3.265-9.472 5.826-17.123l4.655-13.91-3.634-9.713c-4.04-10.8-6.4-17.62-6.77-19.58-.34-1.8-.16-2 1.67-1.82 7.6.74 24.68 3.16 25.08 3.56.06.05-.46.1-1.14.1zm12.613 42c-1.168-.016-1.235-.038-.63-.214.84-.242 1.306-1.065 1.646-2.902l.25-1.36.02 2.248.02 2.248-1.306-.02zm3.174-42.835c-.152 9.23-.35 11.994-.924 12.812-.294.42-.31.336-.21-1.11.06-.86.202-3.774.318-6.476.24-5.6.808-16.88.905-17.97.1-1.14.072 2.87-.09 12.75zm-6.57-20.763c-.674 2.914-2.255 8.553-3.36 11.982-1.708 5.305-2.66 7.16-3.79 7.377-.476.1-13.39-1.85-13.61-2.04-.084-.07 5.34-19.09 6.333-22.21l.75-2.35h1.27c2.48 0 8.186 1.04 10.565 1.92 1.366.51 2.37 1.59 2.35 2.54-.008.37-.237 1.63-.508 2.8zm-3.583-2.88c-.39-.844-.91-1.562-1.32-1.856-1.65-1.177-3.8-.605-5.81 1.545-2.24 2.4-3.38 5.32-3.55 9.03-.22 4.85 1.3 8.03 3.84 8.03 1.77 0 4.31-2.39 5.83-5.48 1.4-2.84 1.8-4.55 1.73-7.48-.05-2.19-.11-2.52-.7-3.78zm-18.18 16.474c-.61 2.576-2.09 3.25-6.17 2.807-2.16-.236-7.66-1.182-7.83-1.346-.08-.084 2.96-7.59 4.09-10.084.36-.78.69-1.368.75-1.308.06.06.01 1.003-.12 2.097-.65 5.567 1.74 9.253 5.21 8.017.5-.18 1.58-.8 2.39-1.38.82-.58 1.61-1.05 1.76-1.05.34 0 .33.58-.07 2.24z"/><path fill="#fff" d="M288.477 512.4c-.688 3.873-2.592 6.91-4.61 7.353-.848.186-1.786-.383-2.337-1.418-.41-.77-.47-1.185-.46-3.184.01-1.94.1-2.55.59-3.97 1.378-3.99 3.766-6.58 5.732-6.2.94.18 1.186.94 1.227 3.79.02 1.44-.05 3.08-.15 3.64z"/><path fill="#fff" d="M293.178 504.22c-1.136 3.954-1.93 6.086-1.968 5.287-.01-.23-.25-1.346-.533-2.48-.767-3.08-1.733-4.105-3.87-4.105-1.335 0-2.61.63-4.245 2.098-.667.6-1.27 1.03-1.34.96-.193-.194 2.448-7.16 2.9-7.646.217-.233.627-.483.912-.554.64-.16 9.303 1.995 9.282 2.31-.008.12-.52 1.98-1.138 4.13zm12.13 6.96c-.704 2.58-2.106 5.392-3.408 6.833-1.4 1.548-2.595 1.825-3.457.802-.83-.987-1.04-1.934-.93-4.165.182-3.59 1.89-7.623 4.108-9.697.58-.542 1.24-.986 1.47-.986.49 0 1.53 1.26 2.12 2.54.49 1.08.54 3.1.11 4.672z"/><path fill="#fff" d="M367.56 589.26c-.09 4.343-.68 19.703-1.208 31.565-.274 6.15-.76 17.087-1.078 24.302l-.58 13.118h-63.622l-.088-13.065c-.053-7.88-.167-13.144-.287-13.264-.37-.368-13.552-.998-43.642-2.088-9.06-.328-16.51-.63-16.552-.673-.173-.174.767-7.09 1.16-8.54.62-2.276 1.874-4.716 3.224-6.27 2.253-2.593 3.036-5.112 3.033-9.762-.002-3.44-.253-5.184-.983-6.81-.812-1.813-2.055-2.743-5.204-3.895-1.587-.58-2.737-1.51-3.24-2.62-.77-1.69-.423-6.552.976-13.713 1.51-7.77 3.29-13.74 5.3-17.867 2.15-4.4 2.99-5.15 3.78-3.362.87 1.97 1.03 9.32.39 17.264-.33 3.942-.33 10.285-.01 11.746.39 1.782.94 2.447 2.85 3.445 5.75 3.01 20.19 6.18 21.47 4.73 1.18-1.34 4.38-9.85 9.94-26.39l3.33-9.93-3-8.36c-4.5-12.52-6.77-19.67-6.77-21.25v-.59h1.62c2.07 0 5.7.43 11.35 1.34 6.4 1.03 8.17 1.24 10.65 1.26 4.9.04 6.32-1.37 8.64-8.55 3.8-11.76 4.51-14.92 3.89-17.16-.75-2.67-3.4-3.89-13.38-6.15-6.8-1.54-8.82-2.08-9.88-2.66-2.36-1.28-2.25-3.14.61-10.19 2.62-6.48 3.99-8.71 6-9.78.78-.42 1.14-.46 4.1-.44 3.45.02 5.09.27 12.42 1.89 3.81.85 5.43 1.4 6.12 2.09.58.59.63 1.81.18 4.37-1.05 5.97-2.83 34.44-3.99 63.87-.07 1.67-.21 6.89-.31 11.6-.11 4.72-.3 9.16-.44 9.88-.3 1.67-.92 2.59-1.89 2.87-1.98.57-2.67 2.39-2.84 7.53-.13 3.78.21 6.78 1.1 9.85.68 2.34 1.11 3.15 2.52 4.73 1.44 1.62 2.54 3.22 3.59 5.22.93 1.79 2.12 2.75 3.71 2.99 1.65.25 2.59 1.61 2.59 3.73 0 1.24.47 1.94 1.61 2.38.87.33 1.65.38 6.12.38 6.9 0 8.62-.41 9.69-2.3.62-1.09 1.33-1.57 3.01-2.03 1.35-.37 1.37-.38.38-.27-1.5.16-2.76.85-3.42 1.85l-.56.85-.07-.69a3.29 3.29 0 0 1 .19-1.32c.42-1 1.21-1.21 4.62-1.16 2.4.03 2.72.07 1.63.18-.75.08.24.1 2.19.05 4.11-.1 5.51-.31 6.73-1.02 3.49-2.01 6.06-13.04 4.06-17.49-.5-1.11-.98-1.52-2-1.7-1.02-.18-1.67-.6-1.98-1.28-.51-1.1-.18-2.4.79-3.17.19-.15.22-.25.08-.26-.14 0-.49.28-.79.64-1.06 1.26-.58 3.43.91 4.05l.74.31-1.1.01c-1.62.02-1.94-.38-1.94-2.4 0-1.68.35-2.7.99-2.89.2-.06 1.02-.26 1.82-.44s1.62-.48 1.83-.67c.21-.18.38-.24.38-.12 0 .33-.5.67-1.61 1.13l-1.01.41.83-.12c1.71-.26 2.52-1.29 2.73-3.47.31-3.1 1.95-3.88 5.05-2.39 1.46.7 1.5.74 1.83 1.83.18.61.42 2.57.53 4.35.18 3.06.19 4.66.06 10.87z"/><path fill="#fff" d="M319.716 485.78a434.87 434.87 0 0 1-.924 7.526c-.354 2.702-.73 5.618-.836 6.48-.17 1.39-.18 1.28-.09-.94.157-3.805.89-12.28 1.27-14.634.183-1.15.38-2.77.434-3.6.096-1.444.074-1.535-.5-2.11-.856-.855-2.358-1.35-7.312-2.413-10.784-2.32-14.114-2.41-16.665-.46-1.39 1.06-2.554 3.2-5.052 9.31-2.2 5.39-2.65 7.7-1.76 9.15.63 1.03 2.45 1.76 6.9 2.76 9.31 2.09 15.16 3.72 14.76 4.12-.06.06-.48-.04-.94-.23-1.4-.56-4.7-1.33-10.06-2.33-5.37-1.01-9.71-2.01-10.97-2.53-1.77-.75-1.97-1.79-.93-4.89.55-1.63 6.99-17.32 7.2-17.53.11-.11 10.67.76 13.6 1.12 6.45.79 11.28 2.25 12.02 3.63.29.53.23 4.33-.11 7.53zm11.484-86.546l-2.18 16.828c-4.427 34.18-7.61 57.625-7.958 58.626-.123.352-.348.64-.5.64-.152 0-1.436-.336-2.854-.745-5.45-1.574-8.028-1.917-16.312-2.17-3.3-.1-6.095-.243-6.212-.315-.416-.257 3.36-9.847 6.88-17.466 7.638-16.546 26.643-55.173 29.16-59.265.623-1.015.623-1.117-.024 3.867zm-14.402 53.13c-.847-.665-3.12-.933-6.883-.812-4.928.16-5.638.452-6.974 2.87-1.66 3.007-4.98 11.8-5.43 14.38-.25 1.44.15 1.988 1.81 2.494 1.78.544 6.67.475 8.91-.124 2.09-.558 2.8-.977 3.53-2.067 1.75-2.6 5.47-13.207 5.57-15.87.01-.252-.22-.64-.51-.87z"/><path fill="#fff" d="M314.398 456.446c-1.34 5.13-3.745 11.847-4.357 12.175-.74.4-4.04.73-7.38.74-1.91.01-3.55-.05-3.63-.14-.48-.48 5.87-14.46 7.1-15.61.26-.24.97-.53 1.58-.64 1.42-.27 6.09-.27 6.79-.01.69.26.68.56-.09 3.49zm-1.61 51.074c-.516 2.95-4.785 16.578-5.67 18.105-.426.73-.25-.017.4-1.7 1.822-4.73 4.847-16.895 5.013-20.167.01-.21.08-.175.2.105.19.43.23 2.73.06 3.658zm64.634-116.303c-.665.254-6.305-.11-13.27-.86-14.307-1.536-28.774-3.313-29.024-3.563-.33-.33 2.464-4.308 5.216-7.43 3.092-3.51 7.73-6.258 12.933-7.66 1.63-.44 2.482-.54 4.71-.553 3.113-.01 4.152.28 6.584 1.85 4.37 2.82 7.86 7.11 11.24 13.82 1.99 3.95 2.09 4.22 1.62 4.4zm253.096-41.85l-40.736-.45v-4.33c0-2.384-.84-5.394-1.866-6.69-1.027-1.297-5.068-12.14-8.98-24.1-12.477-38.132-19.42-49.335-30.573-49.335-6.44 0-14.83 8.645-19.025 19.605-1.682 4.394-6.888 20.783-11.57 36.42l-8.51 28.43-40.43.45-40.43.446v-67.387c0-73.118.96-86.248 8.34-114.126 12.23-46.19 34.17-84.083 74.97-129.483l8.153-9.07 27.46-.752 27.46-.752 15.03 15.727c39.82 41.666 65.05 87.812 76.3 139.527 3.31 15.214 3.67 22.74 4.38 91.448l.78 74.87-40.73-.45zM548.39 25.247l-25.503-.065 8.362-7.4c4.59-4.07 10.74-8.693 13.65-10.274l5.29-2.876 11.84 9.692c6.51 5.33 11.84 9.983 11.84 10.34 0 .355-11.48.617-25.51.58z"/><path fill="#fff" d="M570.47 338.047h-11.627v-7.704c0-6.34-.47-7.525-2.645-6.69-1.455.558-4.09 1.015-5.853 1.015-2.628 0-3.208 1.21-3.208 6.69v6.69h-15.23c-11.496 0-15.036-.513-14.433-2.09.44-1.15 3.963-12.628 7.832-25.505 7.512-25.008 12.81-36.024 19.4-40.342 3.73-2.44 4.466-2.45 8.095-.07 6.44 4.22 10.31 12.09 20.08 40.87l9.22 27.14h-11.63zm-19.476 65.223c-49.417 0-52.698-.184-51.967-2.926.428-1.61 4.453-15.603 8.944-31.095l8.17-28.17 5.89.97c3.24.53 18.43.98 33.76.99l27.87.02 10.05 30.1 10.05 30.1H551z"/><path fill="#fff" d="M499.347 382.366l-7.322 23.413-.04 65.64-.037 65.64h-63.55V356.44h39.3c21.616 0 39.227.564 39.136 1.254-.09.69-3.46 11.79-7.487 24.667z"/><path fill="#fff" d="M579.748 481.873c-14.257 0-25.922-.61-25.922-1.353 0-.744 1.105-2.814 2.455-4.6 3.44-4.54 3.44-32.053 0-36.595-1.35-1.785-2.45-4.984-2.45-7.108 0-3.003-.93-3.86-4.18-3.86-3.65 0-4.18.73-4.18 5.754 0 3.17-.75 6.22-1.67 6.79-2.19 1.36-2.19 33.77 0 35.12.92.57 1.67 2.12 1.67 3.45 0 1.99-4.25 2.41-24.25 2.41h-24.25v-70.76l22.85 1.1c12.56.61 37.02 1.1 54.35 1.1h31.51v68.57h-25.92zm-58.533 122.084h-24.25V496.924h48.5v107.033h-24.25zm58.533 0h-25.922V496.924h51.844v107.033h-25.922z"/><path fill="#fff" d="M639.954 537.06h-30.94V403.968l-7.525-22.438c-4.14-12.34-7.53-23.034-7.53-23.762 0-.73 17.31-1.324 38.46-1.324h38.46v180.618h-30.94zm14.215-113.72h-13.38v40.136h26.75V423.34h-13.37zm-31.03 13.38h-7.62l.5 8.78c.47 8.256.79 8.81 5.24 9.32 8.06.924 9.47-.52 9.47-9.687v-8.415h-7.62z"/><path fill="#fff" d="M653.333 460.132h-9.198v-31.776h18.396v31.776h-9.19zm-27.08-12.157c-.425-1.627-.397-3.885.06-5.017.46-1.133.806.2.772 2.958-.034 2.76-.41 3.686-.833 2.06z"/><path fill="#fff" d="M623.424 451.207h-3.193v-10.453h6.37l-.34 1.568c-.42 1.938-.41 4.298.03 6.9l.34 1.985h-3.19zM556.39 338.445c-.165.632-.574.732-2.566.627l-2.37-.124v-10.87l2.077-.13c2.89-.184 3.17.31 3.11 5.54-.02 2.313-.13 4.544-.24 4.957zm47.745 70.266c-.92.17-21.052.4-44.737.53-40.19.22-61.636-.09-62.947-.9-.35-.22-.27-.44.29-.77 1.82-1.07 102.89-.59 107.61.51l1.46.34-1.67.3zm.338 79.16c-2.62.45-45.72.45-48.34 0-2.398-.41-2.42-1.19-.045-1.61 2.034-.36 47.17-.34 48.848.03 1.992.43 1.764 1.22-.463 1.6zm-1.133 4.02c-4.296.39-41.778.39-46.074 0l-3.303-.3 2.09-.29c2.725-.38 45.775-.38 48.5 0l2.09.29-3.303.3zm-58.575-4.23c-1.807.78-45.844.8-47.627.02-.954-.41-1.108-.64-.71-1.04.72-.72 47.535-.73 48.755-.01.8.48.78.52-.418 1.04zm-2.09 4.24c-3.808.39-39.676.39-43.483 0l-2.926-.29 1.88-.3c2.454-.39 43.12-.39 45.574 0l1.88.3-2.926.3zm37.837 235.27h-26.34v-115.4h52.68v115.39h-26.34zm-59.997 0H495.22v-37.53c-.002-34.31.475-67.24 1.083-74.84l.243-3.03h49.264v115.39h-25.295zm2.405 123.04c-12.59-.08-23.85-.24-25.02-.36l-2.126-.22-.276-19.73c-.152-10.85-.277-36.9-.277-57.88v-38.15h50.59v116.5l-22.89-.14zm57.592.3h-26.34V733.84h52.68v116.65h-26.34zm59.788 214.9h-31.357V542.77h62.714v522.62H640.3zm-89.76-7c-.126 5.83-.255 7.01-.768 7.01-.543 0-.61-31.3-.557-262.25.033-144.24.174-284.17.314-310.96l.25-48.71.31 44.11c.32 45.04.72 558.1.44 570.81zm-30.025-86.23H495.22v-115.4h50.59v115.39h-25.295zm59.997 123.34h-26.34V978.85h52.68v116.65h-26.34zm0-123.34h-26.34v-115.4h52.68v115.39h-26.34zm-59.997 123.34H495.22V978.85h50.59v116.65h-25.295zm0 103.69H495.22v-97.41h50.59v97.42h-25.295zm59.997 0h-26.34v-97.41h52.68v97.42h-26.34zm-102.015 51.01h-3.345v-83.73l2.79-5.06c1.532-2.78 3.037-5.43 3.343-5.89.465-.69.556 7.07.556 46.93v47.76h-3.34zm-23.575-53.31c-14.756 26.68-27.03 48.85-27.274 49.27-.42.73-.617.69-3.438-.73-1.646-.83-2.993-1.63-2.993-1.78 0-1.35 47.065-85.29 55.142-98.35.3-.49.68-.4 2.19.48 1 .59 2.13 1.42 2.51 1.85.65.73-.8 3.47-26.15 49.28zm-4.23 52.47c-11.61 0-21.113-.1-21.113-.23s.61-1.35 1.36-2.71l1.35-2.47 19.75-.01h19.76v5.44h-21.11zm2.928-9.19c-13.832 0-18.187-.12-18.187-.5 0-.56 7.554-14.44 24.403-44.85l11.344-20.47.26 9.18c.144 5.05.285 19.86.314 32.91l.053 23.73H453.62z"/><path fill="#fff" d="M492.334 1301.686c-.137 5.442-.405 10.05-.594 10.24-.545.543-14.29-6.642-20.426-10.68-13.753-9.048-25.258-20.66-34.862-35.184-4.037-6.106-7.525-12.433-7.092-12.865.363-.362 31.553-.286 45.478.11l10.348.296-.005-56.582c0-31.12-.12-57.28-.26-58.15l-.26-1.56h-12.85v2.25c0 1.24-.32 3.26-.7 4.5-1.42 4.51-9.65 19.98-31.83 59.81-5.05 9.07-9.55 17.1-10 17.84-.81 1.33-.83 1.34-1.11.4-.66-2.22-1.02-74.13-1.05-209.9l-.02-144.55h65.74l-.25 162.96c-.13 89.63-.41 166.33-.62 170.45-.39 7.78-.33 7.56-2.34 8.82-.84.53-1.3 4.63-.89 7.93.27 2.16.42 2.42 1.55 2.82.7.24 1.46.92 1.72 1.53.52 1.23.79 62.09.35 79.56z"/><path fill="#fff" d="M518.843 1217.16h-26.967v-5.436h53.934v5.436h-26.967zm1.672 30.103H495.22v-26.34h50.59v26.34h-25.295zm59.997 0h-26.34v-26.34h52.68v26.34h-26.34zm1.882-30.103h-28.222v-5.436h56.443v5.436h-28.22zm23.767-8.727c-.56.468-5.02.596-24.21.695-12.93.067-24.43-.032-25.54-.22-1.77-.296-2.02-.465-2.02-1.356 0-.85.28-1.074 1.68-1.364.92-.192 12.42-.294 25.55-.228 19.49.098 24 .226 24.57.694.87.72.87 1.058 0 1.78zm-61.04 0c-.56.468-4.92.596-23.52.694-12.55.066-23.58-.036-24.5-.228-1.39-.29-1.67-.52-1.67-1.36 0-.84.28-1.07 1.67-1.36.92-.19 11.94-.3 24.5-.23 18.61.09 22.96.22 23.53.69.87.72.87 1.06 0 1.78zM550 1379.59c-.163 16.765-.29 6.393-.53-42.61-.31-64.102-.315-276.794-.006-273.366.09.977.34 1.777.556 1.777.407 0 .39 271.89-.02 314.2zm75.85 102.643c-2.12 0-2.27-.06-1.674-.657.833-.833.826-1.052-.153-4.578-1.5-5.397-14.772-39.7-15.77-40.756-.464-.49-1.655-.62-5.49-.602-7.453.038-9.24 1.194-8.634 5.583.19 1.422 6.71 32.365 8.33 39.604.2.887.12.897-9.52 1.195-12.34.38-92.12.11-92.54-.316-.32-.318.67-5.326 5.06-25.595 2.83-13.06 3.47-17.12 2.87-18.11-1-1.64-3.49-2.34-8.98-2.52l-5.26-.16-1.59 4.13c-11.93 30.99-14.45 38.01-14.45 40.16 0 .61.31 1.46.69 1.88.66.74.59.77-1.88.77-1.42 0-2.58-.14-2.58-.31-.01-.17 4.54-15.01 10.11-32.98l10.12-32.66 56.17-.31c30.9-.17 56.28-.21 56.4-.08.25.25 21.05 65.5 21.05 66.03 0 .17-1.05.32-2.33.32zm-105.332-72.75H495.22v-26.757h50.59v26.758h-25.295zm59.997 0h-26.34v-26.757h52.68v26.758h-26.34zm0-33.03h-26.34v-18.813h52.68v18.814h-26.34zm0-25.084h-26.34v-19.66h52.68v19.65h-26.34zm0-25.93h-26.34v-19.65h52.68v19.65h-26.34zm0-25.92h-26.34v-19.65h52.68v19.65h-26.34zm0-26.34h-26.34v-19.65h52.68v19.65h-26.34zm-59.997 0H495.22v-19.65h50.59v19.65h-25.295zm0 26.34H495.22v-19.65h50.59v19.65h-25.295zm0 25.92H495.22v-19.65h50.59v19.65h-25.295zm0 25.92H495.22v-19.65h50.59v19.65h-25.295zm0 25.08H495.22v-18.82h50.59v18.81h-25.295z"/><path fill="#fff" d="M503.93 1448.994c-3.466 15.754-6.25 28.212-6.54 29.267-.44 1.62-1.97 1.87-3.587.59-1.557-1.22-1.544-1.28 3.954-16.68 7.163-20.07 8.157-22.19 6.173-13.17zm-3.726-2.926c-7.507 21.113-11.02 30.61-11.55 31.218-1.144 1.31-7.24 1.49-7.225.21 0-.27 3.19-8.768 7.09-18.886 4.72-12.246 7.38-18.64 7.98-19.128.63-.512 1.63-.73 3.36-.73 2.07 0 2.46.114 2.44.73-.01.403-.96 3.366-2.1 6.586zm-2.256-2.718c-.943 0-1.533 1.155-5.612 10.984-5.89 14.193-7.802 19.47-7.256 20.017.258.26.775.35 1.15.21 1.2-.46 6.248-11.87 10.29-23.26 2.115-5.96 2.47-7.94 1.428-7.94zm111.586 35.552c-.595.226-1.675.456-2.4.512l-1.32.1-1.357-5.225c-1.66-6.4-5.83-25.01-6.182-27.6-.17-1.26-.124-1.68.14-1.26.72 1.14 12.2 32.11 12.2 32.91 0 .07-.486.32-1.08.55zm8.293-.715c-2.012-.133-3.78-.36-3.932-.502-.246-.234-9.125-24.568-12.504-34.27-1.6-4.6-1.53-4.726 2.47-4.563l2.66.108 2.09 5.435c4.75 12.34 12.89 33.737 12.89 33.88 0 .085-1.64.045-3.66-.088zm-4.143-14.76c-3.333-8.9-7.083-17.532-8.022-18.465-.402-.4-.988-.575-1.4-.418-.652.247-.624.53.34 3.405 2.85 8.5 10.592 26.75 11.35 26.75 1.548 0 1.075-2.36-2.268-11.28zm-121.04 18.82c-.504.105-6.05.108-6.43 0-.395-.112-.36-.267.105-.46.97-.41 3.62-.59 5.11-.347.72.116 1.6.456 1.6.616 0 .057-.18.14-.39.187zm128.02-35.015c-.184.114-.508-.7-2.133-5.365-1.16-3.35-1.82-5.503-1.93-6.292-.09-.727.07-.6.61.472 1.54 3.05 3.96 10.88 3.47 11.185zm-5.098 34.992c-.22.092-1.047.134-2.77.14-2.366.01-3.24-.06-3.24-.248 0-.17 1-.557 1.83-.708 1.5-.272 3.614-.032 4.248.485l.245.2-.32.13z"/><path fill="#fff" d="M605.42 1478.66c-.64-1.992-2.952-11.596-4.855-20.173-1.707-7.694-3.56-16.533-3.547-16.928.006-.21.594 1.18 1.78 4.21.517 1.31.924 2.44.905 2.49-.018.05-.215-.37-.438-.93-.56-1.43-.9-2.13-1.026-2.13-.21 0 .01 1.8.49 4.18 1.63 7.92 4.72 21.33 6.36 27.57.61 2.32.74 3.02.31 1.7zm21.048 3.787c-3.097-.04-3.464-.12-2.845-.616.373-.29.506-.31.334-.03-.245.4.006.47 1.618.47 1.717 0 2.467-.09 2.554-.32.06-.18-.09-.7-1.66-5.72-.63-2-1.13-3.69-1.11-3.75.02-.07 2.93 8.92 3.18 9.85.03.14-.24.16-2.08.13zm-20.532-43.55c-.395-.037-1.612-.078-2.704-.09-1.738-.02-2.03 0-2.33.165-.493.268-.594.6-.45 1.473.065.396.1.74.078.762-.07.07-.605-1.75-.57-1.936.02-.1.263-.25.607-.37.512-.18.867-.2 3.283-.21 2.197 0 2.718.02 2.756.14.04.12-.09.13-.67.08zm-100.73 4.277c-.287 1.54-.336 1.704-.363 1.228-.017-.302-.075-.55-.128-.55-.118 0-.77 1.37-1.31 2.757-.223.56-.42.98-.438.92-.05-.15 2.01-5.41 2.41-6.14.225-.42.213-.3-.172 1.77z"/><path fill="#fff" d="M531.19 1482.07c-14.625-.078-27.963-.23-29.686-.337l-1.072-.067v-.432c.002-1.146.773-5.01 4.084-20.47 3.237-15.112 3.904-18.578 4.036-20.957.08-1.445-.062-1.91-.772-2.535-1.506-1.326-3.757-1.71-11.435-1.943-1.85-.06-2.268-.05-2.315.07-.03.08-1.304 3.38-2.828 7.35-10.62 27.64-13.138 34.68-13.138 36.74 0 .74.268 1.5.718 2.05.225.27.29.42.216.5-.13.13-3.357.15-4.096.02-.32-.06-.496-.14-.496-.23s.38-1.41.845-2.95c3.13-10.34 19.23-62.35 19.35-62.48.08-.09 31.58-.33 47.1-.37l3.06-.01v66.09l-13.56-.08z"/><path fill="#fff" d="M502.026 1441.27c-.433 1.25-.807 2.255-.832 2.23-.025-.025.2-.79.496-1.7.354-1.083.547-1.856.557-2.23.014-.566.01-.575-.35-.7-.467-.16-3.097-.177-3.925-.024-.757.14-1.3.408-1.635.807-.484.574-2.686 5.684-5.004 11.608-.48 1.23-.89 2.19-.907 2.14-.036-.1 4.84-12.81 5.13-13.38.22-.42.74-.82 1.447-1.1.473-.19.83-.23 2.406-.26 1.71-.04 3.25.09 3.36.28.02.04-.32 1.1-.75 2.35zm25.634-61.278c-4.368.027-11.024.025-14.79 0-6.21-.047-6.652-.062-4.755-.153 2.502-.13 24.446-.11 26.235.02.883.06-1.1.1-6.69.13zm-32.428 22.8a1988.86 1988.86 0 0 1 0-13.378c.016-3.66.028-.634.028 6.724 0 7.36-.012 10.353-.028 6.655zm25.32 6.673h-25.24v-26.654h50.484v26.66h-25.243z"/><path fill="#fff" d="M520.5 1382.707h-25.294v13.38c0 11.822-.018 13.378-.157 13.378-.14 0-.16-1.562-.16-13.43V1382.6h25.45c14 0 25.45.024 25.45.052 0 .03-11.39.052-25.3.052zm-25.45-6.272c-.14 0-.157-1.115-.157-9.407s.018-9.407.156-9.407.15 1.12.15 9.41-.02 9.41-.16 9.41zm92.765 3.56c-4.398.026-11.407.023-15.575-.01-6.514-.044-7.314-.065-5.696-.152 2.31-.123 25.9-.104 27.856.023 1.05.068-.628.103-6.585.137zm3.92-26.006c-5.77.1-16.874.1-22.953 0-4.403-.08-4.592-.09-2.604-.15 2.814-.09 24.794-.09 27.75 0 2.275.06 2.25.06-2.194.14zm-11.237 28.71h-26.34v13.38c0 8.85-.036 13.38-.105 13.38s-.104-4.55-.104-13.43v-13.43h26.44c14.54 0 26.44.02 26.44.05 0 .03-11.86.05-26.34.05zm-26.314-10.96a945.137 945.137 0 0 1 0-9.41c.016-2.57.028-.44.028 4.73s-.012 7.27-.028 4.67z"/><path fill="#fff" d="M554.184 1371.75a945.137 945.137 0 0 1 0-9.407c.016-2.57.028-.437.028 4.737s-.012 7.276-.028 4.67zm-.13 4.685c-.07 0-.105-3.205-.105-9.407s.03-9.407.1-9.407.1 3.21.1 9.41-.04 9.41-.11 9.41zM481.28 1143.75c-.184 0-1.36-.655-2.614-1.454l-2.28-1.452 1.952-.01c2.7-.016 3.274.284 3.274 1.705 0 .66-.15 1.21-.333 1.21zm186.877 101.388c-6.47 11.115-12.024 18.962-19.824 28.012-9.657 11.204-24.843 24.124-35.12 29.88l-2.4 1.344-.48-1.188c-.8-1.976-1.143-16.69-1.173-50.395l-.03-32.06 1.977-.13c2.73-.17 3.12-1.01 2.94-6.32-.157-4.62-.314-4.87-3.14-4.88l-1.776-.01v-143.83h62.72l-.02 86.65-.02 86.65-3.65 6.28zM459.56 867.582h-32.612V543.14h65.223v324.44h-32.61zm120.784-262.09h-26.34v-1.464h51.844l-.052-53.568-.053-53.57-25.87-.052-25.87-.053v-1.253h52.68v109.96h-26.34zm-59.474 0h-24.982v-109.96h49.963v109.96h-24.98zm.365-108.654l-24.302-.053v107.243h48.71l-.053-53.568-.053-53.57-24.302-.052zm133.687 41.487c-15.947-.115-21.5-.247-36.427-.865-6.042-.25-4.482-.27 23.048-.298l29.528-.03-.05-90.36-.05-90.36-28.74.015c-27.5.015-38.17.188-44.8.723-3.02.244-3.49.353-3.49.814 0 .723 3.09 10.377 9.01 28.153 5.42 16.252 6.06 18.33 6 19.337-.06 1.044-.69-.76-8.5-24.122-4.64-13.888-8.37-25.318-8.29-25.4.08-.082 18.02-.18 39.85-.216l39.71-.067v182.79l-16.78-.13z"/><path fill="#fff" d="M653.824 461.457h-9.93v-33.865h19.86v33.865h-9.93zm-.47-33.188l-9.25-.06v31.99h18.607l-.05-15.94-.05-15.94-9.25-.06z"/><path fill="#fff" d="M667.203 463.34c-.276 0-.313-2.3-.313-19.443v-19.44h-25.922v-1.046h26.55v19.97c0 17.61-.038 19.97-.315 19.97zm-39.193-9.014c-.712.38-1.364.522-2.717.59-1.96.1-5.813-.355-6.798-.804-.573-.26-.39-.29 2.143-.343 1.523-.04 4.016-.04 5.54 0l2.77.05-.938.5zm2.488-5.305c-.092 1.04-.262 2.12-.376 2.41-.144.36-.21-1.71-.22-6.74l-.014-7.26h-13.17l-.026 6.85c-.016 4.37-.086 6.43-.193 5.7-.15-1.01-.83-11.46-.83-12.7v-.47h15.05l-.03 5.18c-.02 2.85-.11 6.02-.2 7.06zm-50.154 33.35h-26.34v-.75c0-.75 0-.75.784-.63 4.452.69 13.894.96 33.76.96h17.3l-.052-34.33-.053-34.33-29.685-.13c-16.327-.07-32.883-.24-36.792-.36-3.91-.12-8.025-.23-9.146-.23-1.897 0-2.038-.03-2.038-.42 0-.37.138-.41 1.202-.41 5.172.01 63.837.96 72.12 1.17l5.28.14v69.35h-26.34z"/><path fill="#fff" d="M556.735 441.605c-.222-.12-.738-.216-1.145-.216-1.236 0-1.47-.61-1.54-3.97l-.06-2.83.514 1.42c.283.78.893 2.05 1.355 2.82 1.28 2.12 1.6 3.15.87 2.76zm-7.12-12.132c-3.126 0-3.406-.03-3.107-.33.426-.425 1.66-.705 3.106-.705s2.68.28 3.105.706c.3.3.01.33-3.11.33zm-3.967 8.81c-.15 2.162-.53 3.106-1.254 3.106-.22 0-.547.2-.726.46-.24.34-.326.38-.326.13 0-.19.283-.69.628-1.12.345-.44.767-1.26.937-1.83.317-1.07.698-4.37.803-6.95.032-.81.063-.19.068 1.36.005 1.55-.054 3.73-.13 4.84zm-24.747 44.08h-25.01v-70.66h1.05v70.28l20.96-.102c20.97-.1 23.31-.18 25.77-.87 1.5-.42 1.87-.75 1.84-1.63-.03-1.16-.45-2.17-1.3-3.16-.87-1-1.06-1.7-1.52-5.66-.32-2.74-.34-21.21-.03-23.83.14-1.17.18 1.15.12 7.84-.09 10.3.17 17.64.68 19.34.23.75.49 1.15.93 1.41.92.54 1.29 1.73 1.44 4.58l.12 2.48H520.9zm34.32-5.018l-1.26 1.986.11-1.28c.13-1.54.57-2.27 1.55-2.59.4-.13.76-.2.8-.16.04.04-.49.97-1.19 2.06zm48.39-73.7c-2.72.46-10.31.572-45.47.673-43.47.124-59.53-.105-60.77-.867-.09-.06-.04-.55.13-1.1.54-1.72 11.81-40.05 14.94-50.8 2-6.84 3.1-10.29 3.28-10.29.17 0 .23.15.17.37-.63 2.12-13.96 48.26-15.91 55.09-.65 2.28-1.12 4.31-1.05 4.53.29.89 2.1 1.32 7.33 1.72 3.72.29 97.52.53 97.52.25 0-.09-4.5-13.67-10-30.17l-10-29.99-24.23-.13c-26.66-.14-35.06-.4-39.07-1.22l-.83-.17.94-.02c.52-.01 5.41.11 10.87.28 11.08.34 28.33.7 43.15.91l9.81.15 10 30.1c5.5 16.56 10 30.22 10 30.35.01.14-.34.31-.78.38zM558.69 462.4c-.078 1.462-.71 8.12-.777 8.187-.02.02-.035-5.78-.035-12.89s.02-12.907.046-12.883c.024.024.19 1.43.366 3.122.32 3.027.556 11.595.402 14.464zm23.177-123.35c-.43.076-5.745.19-11.81.253l-11.027.116v-1.3l11.582-.06 11.58-.06-6.012-17.67c-3.306-9.72-6.672-19.5-7.48-21.74-7.17-19.93-11.01-26.35-17.81-29.79-1.43-.73-2.713-.76-3.996-.11-4.386 2.24-7.6 5.92-10.95 12.54-3.77 7.46-6.212 14.34-12.872 36.27-2.2 7.24-4.376 14.32-4.834 15.74-.46 1.41-.804 2.82-.768 3.13.16 1.38 3.8 1.72 18.92 1.72h10.91l.063-5.59c.056-4.84.115-5.7.43-6.33.36-.72.366-.66.26 3.03a607.38 607.38 0 0 1-.242 6.97l-.13 3.2-14.65-.09c-13.8-.09-16.13-.19-16.64-.7-.1-.1.54-2.56 1.47-5.62.91-2.99 3.5-11.65 5.76-19.23 8.68-29.13 10.39-33.33 16.39-40.22 1.62-1.86 4.46-4.28 5.95-5.07.98-.53 1.59-.69 2.79-.77 1.45-.1 1.63-.06 3.15.69 2.24 1.09 6.02 4.86 8.18 8.14 2.81 4.26 5.98 11.38 9.28 20.8 3.52 10.05 13.32 40.43 13.32 41.27 0 .17-.33.34-.78.42z"/><path fill="#fff" d="M557.385 324.4c-.86.14-4.14.134-3.486-.01a44.67 44.67 0 0 0 1.84-.51c1.45-.424 2.11-.393 2.3.11.07.192-.14.32-.66.407zm66.16 26.053H590.03l-.804-2.56c-1.024-3.264-1.153-4.638-.512-5.45.323-.41.532-.524.683-.373.124.123.26 1.65.314 3.54l.1 3.32 6.93.134c3.81.073 17.7.23 30.86.35 26.81.24 29.48.31 29.48.747 0 .25-4.95.3-33.52.3zm-35.455-11.08c-1.434 0-3.058-4.172-10.47-26.894-4.292-13.16-6.53-19.67-8.39-24.39-.58-1.48-1.01-2.72-.958-2.78.11-.11.5.78 2.45 5.66 2.035 5.08 3.98 10.54 7.744 21.74 5.074 15.09 7.63 22 9.213 24.92.45.82.81 1.55.81 1.62 0 .06-.19.11-.41.11zm-47.767-70.813c-2.67 2.387-7.056 8.206-8.805 11.678-2.763 5.486-6.652 17.935-20.628 66.034l-1.124 3.867-6.573.12c-3.615.07-18.31.14-32.652.15-22.69.02-26.07-.01-26.07-.28 0-.19.27-.35.68-.41.38-.06 12.77-.22 27.54-.35 14.78-.14 29.07-.31 31.78-.38l4.91-.13 3.09-10.35c10.48-35.06 15.77-51.8 17.87-56.56a43.316 43.316 0 0 1 4.95-8.41c1.91-2.53 6.4-6.93 6.4-6.27 0 .03-.6.59-1.34 1.26zm-32.744 88.373c-.09.288-.84 2.828-1.66 5.645-1.69 5.745-4.54 15.115-9.34 30.73l-3.26 10.557-.17 32.82c-.1 18.05-.18 38.3-.19 44.998-.02 12.033-.02 12.177-.43 12.177-.42 0-.42-.14-.42-44.045V405.77l4.9-15.69c9.13-29.254 10.04-32.328 9.71-32.536-1.13-.7-21.38-1.23-47.06-1.235-13.38 0-15.21-.04-15.21-.32 0-.59 59.11-.34 62.43.26.78.14.83.19.69.67zm16.27 55.342a505.955 505.955 0 0 1-7.37-.335c-2.79-.155-2.31-.178 4.23-.205 6.89-.03 7.37-.01 7.37.335 0 .34-.28.355-4.24.205zm-73.54-283.382c-9.25 19.802-17.82 50.744-20.02 72.278-1.49 14.62-1.59 19.12-1.77 84.09l-.19 64.96 7.97-.3c5.77-.22 7.97-.18 7.97.16 0 .33-2.56.47-8.61.47h-8.61l.2-62.61c.22-67.04.44-74.82 2.63-91.25 1.96-14.74 7.23-35.49 12.96-51.06 2.29-6.21 7.01-17.55 8.27-19.88 1.21-2.23.59.09-.84 3.16zM428.35 492.02a46391.9 46391.9 0 0 1 0-90.31c.03-24.872.053-4.584.053 45.086s-.02 70.02-.05 45.224z"/><path fill="#fff" d="M492.745 529.318l-.058 8.1H427.05v-181.87l11.76.046c6.468.025 10.49.073 8.937.107-2.99.07-3.837.21-2.927.49.288.09-3.31.17-7.996.18l-8.518.02v180.82h63.76l.036-22.52c.02-12.39.072-22.12.116-21.63.054.59.18.88.382.88.306 0 .34 7.92.145 35.38zm56.19-503.912c-15.02 0-27.31-.026-27.31-.062 0-.104 7.145-6.644 8.943-8.185 5.842-5.01 13.862-10.88 16.842-12.32 2.248-1.09 3-.84 7.354 2.42 4.905 3.67 11.093 8.84 17.47 14.58 1.857 1.67 3.52 3.15 3.694 3.29.302.24-1.092.25-26.992.26zm23.724-2.083c-2.12-2.03-6.31-5.563-15.93-13.428a3731.12 3731.12 0 0 0-6.38-5.206c-.21-.17-5.81 2.87-7.95 4.3-4.31 2.89-7.68 5.61-15.44 12.48l-4.2 3.71 19.86.04c21.77.05 31.32-.13 31.32-.56 0-.06-.59-.67-1.3-1.35zm-59.71 13.974c-17.55 19.566-29.29 34.46-40.19 50.948-7.63 11.542-14.48 23.57-19.39 34.047-1.12 2.382-1.38 2.793-1.62 2.556-.24-.237.12-1.113 2.26-5.452C465.1 96.83 479.24 75.168 495.2 56.32c8.625-10.19 23.06-25.842 22.99-24.93-.002.03-2.366 2.688-5.253 5.907zm158.1 250.335h-.46v-6.437c0-8.553-.36-37.625-.63-50.947-.53-26.077-1.19-34.542-3.59-45.78-6.87-32.22-19.37-62.67-37.34-90.937C619.5 78.52 607.67 63.19 595 49.4c-1.573-1.71-6.66-7.085-11.3-11.942-7.666-8.018-8.388-8.833-7.827-8.833.538 0 1.533.94 7.59 7.168 9.745 10.02 13.557 14.12 18.8 20.22 31.7 36.897 53.95 79.56 63.21 121.227 1.224 5.52 2.79 13.672 3.45 17.967 1.78 11.633 2.182 22.823 2.44 67.608l.145 24.825h-.453zm-8.1 62.842c-4.95-.016-8.31-.066-7.45-.11 1.53-.082 1.97-.273 1.11-.482-.25-.06 2.97-.08 7.14-.05l7.59.057-.1-7.64c-.16-12.64-.53-48.37-.53-51.58v-3h.84l.1 20.14c.05 11.07.14 25.21.19 31.41l.09 11.27-9-.03zm-94.54-64.31a51.848 51.848 0 0 1-.64-1.47c-2.97-6.984-5.78-11.306-10.06-15.488-1.2-1.167-1.97-1.806-3.09-2.56-3.09-2.077-6.02-2.533-9.12-1.42-1.01.364-2.54 1.23-3.48 1.967-.27.213-.29.216-.39.083-.13-.17-.09-.207.92-.837 1.46-.92 3.12-1.59 4.46-1.83.83-.15 2.76-.1 3.81.08 2.91.52 5.3 1.84 7.76 4.31 2.35 2.35 4.28 5.14 6.67 9.66.92 1.74 3.15 6.43 3.15 6.64 0 .01-.05.01-.11-.01s-.11-.01-.11.03.05.21.11.38c.1.29.14.5.08.43zM421.45 1235.62c-.164 1.695-.446 2.573-.826 2.573-.59 0-.527-2.25.253-9.198.402-3.612.5-4.12.62-3.24.184 1.416.153 7.75-.05 9.863zm2.657 13.74c-.95.176-1.768-.033-2.03-.52-.47-.88 1.568-.817 2.46.08.264.26.208.317-.434.44zm37.523-8.844c-13.992 0-25.144-.204-26.447-.478l-.293-.06.747-1.43c1.44-2.752 3.16-5.874 3.21-5.825.026.027-.42.934-.998 2.014-1.4 2.633-2.43 4.698-2.43 4.882 0 .08.09.18.2.21.7.22 4.32.28 19.52.33 14.16.04 16.64.07 16.64.2 0 .12-1.53.14-10.17.14zm-9.597 3.347c-15.766 0-19.756-.026-19.72-.13.033-.104 4.098-.137 19.762-.158 17.485-.023 19.72-.01 19.72.13s-2.25.158-19.764.158zm26.347 6.585h-3.45v-42c0-33.434.028-42.035.13-42.177.106-.14.127 8.22.106 41.9l-.027 42.08h3.34c2.16 0 3.34.04 3.34.11s-1.22.11-3.45.11z"/><path fill="#fff" d="M484.32 1253.543c-.475-.033-3.027-.11-5.67-.172-2.646-.06-5.02-.12-5.28-.14-.258-.02 1.717-.01 4.39.01 2.673.03 5.36.07 5.97.11l1.112.07.074-11.43c.04-6.28.11-18.01.152-26.06.078-14.37.08-14.17.096 11.54l.018 26.17-.863-.06zm-47.7-38.423c-9.39 16.858-15.407 27.98-15.407 28.484 0 .232 1.033.86 3.246 1.972 2.24 1.127 2.63 1.242 2.98.883.13-.14 2.48-4.31 5.22-9.27s5.01-9 5.04-8.97c.03.02-2.29 4.28-5.15 9.46-4.73 8.56-5.22 9.41-5.43 9.34-.12-.04-1.31-.6-2.63-1.25-2.35-1.16-3.42-1.82-3.48-2.16-.06-.3 1.63-3.52 6.49-12.37 3.56-6.49 10.75-19.43 10.85-19.54.28-.31-.09.42-1.75 3.39zm-7.003 6.326c-.494.86-.964 1.634-1.044 1.718-.2.21-.352.037-.416-.475-.042-.34-.032-.37.053-.18.235.53.52.23 1.62-1.73.332-.59.62-1.07.644-1.07.112 0-.028.28-.857 1.72zm47.023-63.526c-2.965 5.363-5.413 9.728-5.44 9.702-.025-.026 1.13-2.203 2.565-4.836 4.746-8.7 6.85-12.784 7.286-14.126.11-.315.16-.69.12-.862-.07-.385 0-.38.48.04l.39.334-5.39 9.75z"/><path fill="#fff" d="M471.713 1142.48c-.537 3.05-3.895 9.904-13.163 26.866-6.705 12.27-27.69 50.1-27.955 50.394-.03.034-.074.033-.096 0-.03-.036.11-.346.31-.69a9524.122 9524.122 0 0 0 13.44-24.09c13.17-23.74 19.84-36.07 23.66-43.756 2.88-5.797 3.48-7.38 3.81-10.1l.09-.8v.775a9.555 9.555 0 0 1-.11 1.4zm10.007 1.256c-.18.526-.525.386-3.205-1.298-2.156-1.355-2.564-1.634-2.472-1.69.168-.104 1.947-.205 3-.17 2.29.073 2.78.465 2.77 2.212-.003.378-.045.804-.094.946zm-.26-2.138c-.304-.617-.82-.745-3.21-.798-1.215-.027-1.83-.015-1.83.034 0 .132 4.137 2.69 4.693 2.902.234.09.386-.056.446-.428a6.74 6.74 0 0 1 .07-.385c.06-.236-.05-1.084-.17-1.326zm-3.23-4.07c-5.632 0-6.392-.013-6.392-.11s.76-.112 6.393-.112c5.64 0 6.4.013 6.4.11 0 .1-.76.112-6.39.112zm3.506 23.933c-.057-3.32-.17-5.54-.297-5.88-.07-.16-.09-.17-.18-.08-.15.15-1.97 3.37-4.22 7.45-1.06 1.92-1.94 3.45-1.95 3.39-.02-.09 6.47-11.86 6.64-12.05.03-.04.05 2.22.05 5.18l-.01 5.24-.06-3.23zm-9.95 54.56c-.018-8.08-.16-24.83-.244-29.04-.132-6.59-.318-12.6-.392-12.65-.043-.03 0-.16.104-.33l.177-.28.05.41c.19 1.49.37 21.45.34 37.73-.01 5.65-.02 7.53-.03 4.18zm-169.402-152.66h-.575l-.1-29.82c-.06-16.4-.1-58.44-.1-93.42 0-54.01.03-63.6.2-63.6.29 0 .35 6.49.53 52.85.26 68.24.43 106.91.52 120.66l.08 13.34h-.58zm-29.818-17.88h-27.273v-.88h54.545v.89h-27.272zm-31.983-.93c-2.764 0-3.934-.04-2.6-.1a76.96 76.96 0 0 1 5.025 0c1.43.06.34.1-2.425.1zm-.147.72c-2.957 0-4.73-.11-4.73-.29s1.773-.29 4.73-.29c2.956 0 4.73.11 4.73.3s-1.774.3-4.73.3zm28.424-133.04h-31l-.178 37.03c-.16 34.45-.476 54-1.09 67.33-.223 4.89-.237 4.55-.126-3.25.066-4.8.207-29.64.31-55.21l.19-46.49h31.443c20.76 0 31.44.1 31.44.3 0 .2-10.53.3-31 .3zm-.047-141.9H237.77v69.47c0 61.56-.05 69.47-.443 69.47s-.443-7.95-.443-69.77v-69.77h31.485c20.79 0 31.48.1 31.48.3 0 .2-10.55.3-31.05.3zm-30.967-7.37c-.065-2.96-.204-4.34-.454-4.5-.28-.17-.28-.23-.003-.23.24 0 .39-.82.45-2.59.05-1.42.09.61.09 4.51s-.05 5.17-.1 2.82z"/><path fill="#fff" d="M268.383 767.36l-31.522.037.04-36.326.04-36.32.08 31.71c.08 30.06.09 31.74.34 32.19.21.39.29 1.07.41 3.48.08 1.65.14 3.48.15 4.07l.01 1.07 31.01.04 31.01.04-31.52.04zm33.527 109.286c-.1-.156-.15-.08-.196.295-.033.28-.072-11.76-.085-26.76-.02-15-.06-41.7-.09-59.35-.06-28.51-.05-29.9.06-12.56.19 29.5.44 82.39.44 90.99 0 4.62-.06 7.53-.14 7.4z"/></svg>