<svg xmlns="http://www.w3.org/2000/svg" width="721.742" height="1620.146" viewBox="0 0 .67663 1.51889"><path d="M.22 1.517l.001-.004a.007.007 0 0 0 .002-.004l.001-.003v-.002c-.001 0-.002-.001-.002-.003v-.003l-.009-.001H.2c-.004 0-.004 0-.004-.004 0-.003.001-.004.015-.015l.014-.011V1.46l.001-.016.001-.011-.003-.003-.003-.003.002-.003c.002-.004.002-.004 0-.005-.001-.002 0-.003.002-.006a.023.023 0 0 0 .003-.01 1.01 1.01 0 0 0 .012-.077 32.865 32.865 0 0 0 .03-.231 1.546 1.546 0 0 0 .01-.067c0-.005 0-.006.002-.007.002-.002.003-.004.005-.019A.068.068 0 0 0 .29.985C.287.984.288.982.29.981.292.981.293.979.293.976A6.434 6.434 0 0 0 .295.551H.293C.29.552.29.55.293.547L.296.544.292.536C.291.53.29.528.289.53H.28c0-.002 0-.003.004-.004A.017.017 0 0 0 .292.519C.296.514.296.513.293.511.29.511.29.508.293.504L.296.5V.451L.29.447.287.442l.004-.02a.576.576 0 0 1 .003-.02L.298.4.3.399V.325L.31.308A.13.13 0 0 1 .322.291C.324.29.324.287.324.277V.265L.32.263.318.26.321.255.324.248c0-.002 0-.004.002-.006C.33.24.33.24.33.222.33.206.33.205.328.204.324.203.324.2.327.197L.328.174V.153L.331.15C.335.145.338.145.341.149l.002.003v.02c0 .022 0 .022.002.025.003.004.003.005 0 .008C.343.207.343.207.343.223V.24l.003.004.003.006c0 .002 0 .004.002.006.004.003.004.005 0 .008L.35.265V.29l.003.001c.002 0 .004.003.013.018l.01.018V.37l.002.048c0 .002.001.003.004.004.003 0 .005.003.004.007 0 .003 0 .004-.003.005L.38.436V.5l.002.003c.003.004.003.007 0 .008C.38.512.38.515.384.52a.016.016 0 0 0 .008.006c.003 0 .004.002.004.003 0 .002 0 .003-.003.002C.385.53.386.529.383.538L.381.546l.002.001c.002.002.003.006 0 .006L.38.552C.377.548.377.553.377.664l.001.108c.003 0 .004.004.004.01 0 .004 0 .005-.002.005L.378.785V.78C.376.78.376.782.376.786a5.552 5.552 0 0 1 .009.196v.003l.003.019c.003.013.004.015.006.017.002.002.003.003.003.008v.01c0 .001.001.01.006.028l.006.027.012.107a1.019 1.019 0 0 0 .02.153.484.484 0 0 1 .006.044l.002.02c0 .012.001.018.002.019v.032l.015.01c.012.01.014.012.014.014 0 .003 0 .004-.017.005h-.01v.003l-.001.003c-.002 0-.002.001 0 .003v.005l.002.002c.002 0 .002.004 0 .004H.446v-.011.006l-.002.006H.442c-.002-.001-.003-.004 0-.004.001-.001.001-.007-.001-.012C.439 1.5.438 1.5.436 1.5c-.001 0-.002 0-.001.002a.055.055 0 0 1 .003.014v.003H.391v-.003l.003-.013L.393 1.5l-.007.001c-.004.001-.004.002-.004.005 0 .002 0 .003-.002.003v.003c0 .002.002.003.002.003l.001.002c0 .003-.004.003-.004 0s-.001-.003-.002-.003c-.002 0-.002.003 0 .003h.001s-.002.002-.005.002c-.005 0-.007-.001-.004-.003.002-.002.002-.005 0-.008s-.002-.003-.002-.001a.01.01 0 0 1-.001.004l-.002.004-.003.002H.358c0 .001-.002.002-.005.002l-.005-.001-.002-.001H.344s-.002.002-.006.002l-.005-.001-.002-.001H.329l-.004.002c-.004 0-.005 0-.005-.002s0-.002 0 0-.002.002-.002 0H.315c-.003 0-.004-.002-.005-.008v-.005l-.003.003c-.002.004-.002.008 0 .008l.001.001c0 .002 0 .002-.002.002H.303v-.001H.297L.3 1.514H.298l-.002.002c0 .001 0 .002-.002.002s-.003-.003 0-.004l.002-.004v-.003H.295c0-.002 0-.001-.002 0-.003.002-.005 0-.005-.004s0-.004-.004-.004H.281l.002.005a.032.032 0 0 1 .001.009v.004h-.01c-.01 0-.012 0-.013-.002 0-.002 0-.002 0 0 0 .001-.001.002-.012.002H.24v-.005l.001-.01.002-.004H.239c-.001 0-.002 0-.004.004-.003.006-.003.011-.001.011s.002.003 0 .004H.22zm.006-.003v-.002l-.002.004.002-.002zm.11-.002c0-.002 0-.002 0 0l-.002.001v.002h.002v-.003zm.116.002c0-.002-.001-.002-.002-.002v.003l.002.001v-.002zM.353 1.51c.002 0 .002 0 .002.002v.002-.002C.357 1.51.358 1.51.36 1.51c.003 0 .006-.003.005-.005 0-.001 0-.001 0 0 0 .003-.003.004-.009.004L.35 1.51v.003c0 .001 0 0 0 0l.003-.003zm.06 0H.412l-.005.002H.404h.004c.003 0 .004 0 .004.002v-.002zm.023.002zm-.116 0c0-.001 0-.002.002-.002s.001 0 .001.002l.007.002H.329C.326 1.512.324 1.51.325 1.508H.32c-.005 0-.005 0-.006-.003v-.003l-.001.002c-.002.003 0 .005.004.005.003 0 .003 0 .003.002v.001l.001-.002zm.02.002v-.001.001h.002zm.076-.004zm-.114.001V1.51L.3 1.511l.001.002.001-.002zm.07 0v-.003.002zm-.055 0H.316v.001h.002zM.231 1.51L.23 1.507v.002zm.039.002H.268.27zm.012 0h-.01.01zm.119 0H.398h.003zm-.15-.004l-.001.001v-.001zM.262 1.5c0-.001 0-.002-.002-.002s-.002 0-.001.001v.006l.001.004.001-.004.001-.005zm.077.008H.338.34zm.036-.002l-.003-.001H.371c0 .001.001.002.002.001.002 0 .002 0 .002.002h.001v-.002zm-.128 0l.001-.004c.002-.004.002-.004 0-.004s-.003.002-.005.007c-.001.003-.001.003.001.003l.003-.001zm.008 0c0-.003-.001-.004-.003-.001-.001.002 0 .003.001.003.002 0 .002 0 .002-.002zm.014.002l-.003-.004v.002l.001.002H.27zm.008-.002c0-.004-.003-.007-.005-.007s-.002 0 0 .004a.017.017 0 0 1 .002.004l.002.001c.002 0 .002 0 .001-.002zm.024.001h.002v-.003L.3 1.505v.002c0 .001.002.002.001 0zm.031-.002zm.068.001s0-.003.002-.004v-.003c-.003 0-.004.003-.006.007 0 .002 0 .002.002.002s.002 0 .002-.002zm.008 0v-.003H.407c-.002.002-.001.005.001.005s.002 0 .001-.002zm.014 0c0-.004-.002-.006-.002-.003v.003l.001.002c.003 0 .003 0 .002-.003zm.01.001L.43 1.502c0-.003-.002-.004-.004-.004s-.002 0 0 .002l.001.005c0 .003.001.003.003.003h.002zM.33 1.505c0-.002-.001-.003-.003-.003C.325 1.5.325 1.5.325 1.504c0 .002.001.003.003.003s.002-.001.002-.002zm.01 0l-.003-.002c-.001 0-.002 0-.003.002l.003.001.003-.001zm.009-.001c0-.003 0-.003-.002-.002-.003 0-.003.004 0 .004l.001-.002zM.29 1.5c0-.002 0-.002-.001.001l.001.003V1.5zm.124.002A.01.01 0 0 1 .416 1.5c.001-.002 0-.002-.002-.002s-.002 0-.001.004c0 .004.002.005.002.002zm-.061 0H.352s0 .001 0 0h.002zm.092 0v-.001L.444 1.5c-.002 0-.002 0-.001.002l.001.002.002-.002zM.233 1.5v-.002L.23 1.5l-.001.002H.228c0 .002.004 0 .005-.001zm.09.002v-.001H.32v.002l.002-.001zM.379 1.5H.374l-.004.002H.367h.011zm-.074 0H.301c0-.002 0-.002-.004-.001C.29 1.5.293 1.5.303 1.5h.002zm.012 0s0-.001 0 0H.314c0 .002.001.002.002 0zm.107.001L.422 1.5c-.001 0-.001 0 0 0l.002.002zm-.168-.003v-.002l-.001.002v.001l.001-.001zm.012 0v-.002c-.001 0-.002 0-.002.002v.001l.002-.001zm.056 0H.321h.003zm-.031 0H.289h.004zm.02 0c.002-.001.002-.001 0-.001H.307L.305 1.5h.003l.005-.001zm.033 0c.003-.002.003-.002 0-.002a.07.07 0 0 0-.019 0c-.002.002.012.003.018.001zm.008 0H.352h.002zm.013 0H.365h.002zM.4 1.496H.395l.002.002.003-.002zm-.17 0h.006L.23 1.495l-.006.001c0 .002 0 .002 0 0H.23zm.051 0H.275.28zm.152 0L.43 1.494H.428l.002.002.003-.002zm.015 0c.003 0 .004 0 .003-.004V1.49v.002c0 .003-.001.003-.007.003H.441l.004.002.003-.001zm-.202 0l-.004-.001H.237h.004a.04.04 0 0 1 .004.002v-.001zm.049-.003c0-.004-.001-.007-.003-.007s-.002.001-.002.005l.001.004c.003.001.004 0 .004-.002zm.059.001H.351c-.002 0-.002 0 0 0l.002.001zm.022-.018v-.019l-.002-.003C.372 1.452.372 1.45.372 1.446L.37 1.441v.006c0 .005 0 .005-.004.006-.002 0-.002 0 0 0 .003 0 .005.003.005.008s-.001.007-.005.007H.364h.003l.004.003v.01c-.001.002-.005.002-.01 0L.358 1.48v-.006c0-.006 0-.006.004-.006.001 0 .002-.001 0-.001-.003 0-.004-.002-.004-.007 0-.003 0-.004-.002-.004-.004 0-.006-.003-.006-.009 0-.005.002-.008.006-.008.003 0 .005.004.005.009l.001.005c.001 0 .002 0 0-.002l.001-.01c.002-.001 0-.002-.015-.003H.342c.003.004 0 .01-.005.01s-.009-.006-.005-.01h-.01a.072.072 0 0 0-.022.004l-.003.001v.017c0-.004 0-.005.004-.006a.017.017 0 0 1 .006-.001H.31v.013H.306c-.003.002-.005.002-.007.002H.297c0 .002 0 .002.004.001a.023.023 0 0 1 .006-.001c.003 0 .003 0 .003.006v.007H.306L.3 1.483c-.002 0-.002 0-.002.005 0 .007 0 .008.008.006l.01-.002.002-.004c0-.003.001-.004.003-.004l.001.004v.004h.005c.007 0 .008 0 .006-.004a.092.092 0 0 1 0-.027c.002-.003.006-.004.007-.001a.064.064 0 0 1 0 .03c-.002.002 0 .002.004.002H.35v-.004c0-.004 0-.004.002-.004s.003.001.003.006c0 .002.001.003.005.003a.084.084 0 0 1 .014.004l.001-.02zm-.061 0c-.002-.004.002-.014.006-.014.001 0 .002 0 .002.007v.008c0 .002-.008.001-.008 0zm.005 0H.318.32zM.317 1.47zm.004-.005H.319l-.001.001h.001l.002-.001zm.004-.007c0-.003 0-.005.003-.005.002 0 .003.002.002.005 0 .003-.004.003-.005 0zm.003-.003zm-.014-.001l-.002-.006c0-.006.002-.01.005-.01s.006.004.006.009l-.002.006c-.002.003-.005.003-.007.001zm.006-.003v-.005c0-.002 0-.002 0 0l-.003.002s-.002 0-.002-.002l-.001-.002v.002c0 .005.003.009.006.005zm.064.044V1.49c0-.004 0-.004-.002-.004s-.002 0-.002.004c0 .005 0 .006.004.005zm-.164 0v-.003c0-.002 0-.001 0 0v.003zm.068-.002zm.17.002H.455h.003zm-.259-.001c-.002 0-.002-.002 0-.004H.198c-.003.003-.002.004.002.004.002 0 .002 0 0 0zm.086-.005V1.48c0-.003.001-.005.003-.006l.002-.002H.283v.006l-.001.007H.27V1.48l-.001-.005-.009.007-.008.007-.005-.001H.242v.005h.03l.013.001v-.005zm.037.005L.32 1.493l.001.001c.001 0 0 0 0 0zm.112-.001V1.49c-.001-.002-.001-.002-.006-.002-.004 0-.004 0-.013-.006l-.008-.006v.003c0 .007 0 .007-.007.007s-.008 0-.008-.008v-.006H.39c-.003 0-.003 0-.002.002.002.001.002.004.003.011v.01h.022l.022-.002zm.038 0H.469l.002.001c.002 0 .001 0 0 0zM.237 1.49v-.004H.232c-.004 0-.004 0-.004.003l-.001.004.005.001h.005V1.49zm.211 0v-.004H.443c-.005 0-.005 0-.005.002 0 .006 0 .006.006.006h.004V1.49zm.031.004l-.002-.002c-.002-.002-.002-.002 0 0 0 .002.002.003.002.002zm-.262-.007V1.48l-.008.006-.007.006h.003l.007.002h.004v-.007zm.006 0v-.013c-.002.002-.003.02-.001.02l.001-.007zm.25.005l-.008-.006-.007-.006v.014h.007l.008-.002zM.24 1.49H.239zm.139-.003v-.005l-.001.004c0 .007 0 .007.001 0zm.009 0zm-.05.001H.337h.001zm-.112-.005zm.227-.004zm.003.004zm-.16.001zM.26 1.476l.01-.008v-.013h.014v.012h.01v-.01l-.002-.01-.008-.001-.01.001c-.001.002-.005.002-.007 0l-.001-.003v.003a.005.005 0 0 1-.005.005c-.003 0-.006-.002-.006-.006v-.002H.237v.004c0 .005 0 .005.002.005h.003v.015H.235l-.006.001.006.001h.006v.006c0 .007 0 .007.007.008l.012-.008zm-.014-.021a.005.005 0 0 1 0-.007H.25c.004 0 .006.002.004.006 0 .002-.006.003-.008 0zm.033.029l-.004-.001H.272h.007zm.122 0H.399h.002zm.03 0l.004-.001V1.47h.013c0-.001-.003-.002-.008-.002H.433v-.007l.001-.007H.44c.006 0 .007-.001.007-.003 0 0 0-.002-.002-.002s-.003-.002-.003-.005 0-.003-.003-.002a.04.04 0 0 1-.007 0c-.004 0-.005 0-.005.002 0 .004-.007.005-.01.002-.002-.002-.002-.002-.016-.001-.02.002-.019.001-.019.006 0 .004 0 .004.003.004h.003v.006c0 .006 0 .007.002.007.001 0 .002 0 .002-.006v-.007h.014v.013l.01.009c.01.008.01.008.017.007zm-.194-.002H.232l.002.001h.003zm.052-.002zm.158-.003c0-.006-.001-.005-.002.002v.004c.001 0 .002-.002.002-.006zm-.153.002c0-.003 0-.003-.002-.002l-.001.003.001.002c.001 0 .002 0 .002-.003zm.09.001a.013.013 0 0 0-.002-.004C.38 1.474.38 1.474.38 1.478s0 .004.003.004c.002 0 .002 0 .002-.002zm-.106-.002c0-.003 0-.003-.002-.003s-.002.002-.002.004 0 .002.002.002.002 0 .002-.003zm.018-.002zm.008.005H.302h.002zm.065 0H.367.37zm.033-.002v-.003H.398c-.002-.001-.002 0-.002.002 0 .003 0 .003.002.003s.003 0 .003-.002zm-.166-.001c0-.003 0-.003-.002-.003s-.003 0-.003.003c0 .002 0 .003.003.003s.002-.001.002-.003zm.208 0c0-.003 0-.003-.002-.003s-.002 0-.002.003c0 .002 0 .003.002.003s.001-.001.001-.003zm-.106-.006zm-.033.006l.002-.003c0-.002 0-.002-.002-.002H.303v.003c0 .003 0 .003.002.002zm.062-.002v-.002H.365c-.001-.001-.002 0-.002.001 0 .002.001.003.003.003l.001-.002zm.081-.002v.003a.01.01 0 0 0 0-.003zm.002 0v.001zM.296 1.47H.289a.02.02 0 0 1-.007-.002H.271l.005.001h.011l.007.001-.003.004-.003.003.004-.003a.02.02 0 0 0 .004-.004zm-.076.003c.003-.003.002-.003 0 0l-.002.003.002-.003zm.051 0V1.47c-.002 0-.002.001 0 .003zM.28 1.47H.276.28zm.122 0H.4h.002zm.05 0H.448.45zm-.059 0l.01-.001c0-.001-.001-.002-.005-.002H.394v-.005c0-.005 0-.005 0 0v.006H.385c-.004 0-.007.001-.007.002h.014zm-.167-.003c0-.002 0-.002 0 0l-.001.002c-.001 0-.001 0 0 0l.001-.002zm.047-.008v.006a.02.02 0 0 0 0-.006zm-.045.003zm.14.004c-.002 0-.001 0 0 0 0 0 .001 0 0 0zm-.087-.004c0-.003 0-.003-.003-.003s-.003 0-.003.003 0 .003.003.003c.002 0 .003 0 .003-.003zm.099-.007l.001-.01c.002 0 .002 0 0-.001L.38 1.442a.056.056 0 0 0-.002-.014v.002l-.002.007H.374c0 .001 0 .001 0 0l.003.002c.002.002 0 .004-.001.003l-.001.005c0 .004 0 .006.002.007l.001.007v.004l.001-.01zm.021.007c0-.003 0-.003-.002-.003-.003 0-.003 0-.003.003s0 .003.003.003.003 0 .003-.003zM.237 1.46c0-.002 0-.002-.002-.002s-.002 0-.002.002c0 .003 0 .003.002.003s.002 0 .002-.003zm.07 0l-.001-.002H.304v.003l.001.002.002-.003zm.06.001v-.002H.364c0 .003 0 .004.003.004v-.002zm.015-.001zm.062 0c0-.002 0-.002-.003-.002s-.003 0-.003.003 0 .003.003.003.003 0 .003-.003zm-.215 0c.001 0 .001 0 0 0l-.002-.003v.004l.002-.001zm.11.002H.337.34zm.11-.003zm-.002-.002zm-.216 0v-.001H.23v.002l.001-.001zm.078 0H.307.31zm.05-.008c0-.003 0-.003 0 0-.001.002-.005.002-.005-.001 0-.002 0-.002 0 0v.006l.002.002.002-.002a.01.01 0 0 0 .002-.005zm-.127.003l-.002.001c0 .001 0 .001 0 0h.002zm.063-.004v.005a.01.01 0 0 0 0-.005zm.072.003V1.45l-.001.001c0 .002 0 .002 0 0zm-.138-.007l.003-.001c.002 0 .002 0 .003.003v.003-.003l.001-.004H.232c-.003 0-.004 0-.004.003v.004l.001-.005zm.138.002v.001c0 .002 0 .002 0 0zm-.134 0H.232s-.001 0 0 0c0 .002 0 .002 0 0zm.215-.002c0-.004 0-.005-.003-.005H.442l.003.002c.002 0 .003.002.003.004v-.001zm-.176.001L.27 1.443l-.001.001.002.002.001-.002zm.15.001h.002zm-.159-.002c.002 0 .001-.001-.001-.001l-.003.001.001.002c.001 0 .003 0 .003-.002zM.3 1.441l.003-.002L.3 1.437c-.002-.002-.003-.002-.002 0l.001.001H.296c.002 0 .002 0 0 0v-.01c0-.005-.001-.004-.001.005v.01L.3 1.44zm-.018.002H.278h.003zm.058 0H.337.34zm-.048-.001H.29h.002zm.094 0H.383h.002zm.015 0H.398.4zm-.155-.001H.243h.002zm.032 0H.27h.006zm.117 0H.391h.003zm.018 0H.41c-.001 0 0 0 0 0h.002zm.012 0H.42c-.002 0-.002 0 0 0h.004zM.26 1.44a.02.02 0 0 0-.006 0H.26zm.027 0H.284h.002c.002 0 .001 0 0 0zm.118 0H.403h.002zm-.164-.001H.237.24zm.03 0H.268c-.001 0 0 0 0 0h.003zm.021 0H.29h.002zm.124 0H.412h.004zm.018 0H.432h.002zm-.18 0H.251h.001zm.028 0H.28h.003zm.024 0s0-.002-.002-.002c-.002-.001-.002-.001 0 0l.002.001zm.085 0H.388h.003zm.017 0H.406h.002zm.02 0H.426h.002zM.23 1.43v-.009L.229 1.41v.002l-.003.004v.004c.002.002.002.002 0 .006l-.003.003.003.002c.002 0 .002.002.002.005 0 .005.001.003.002-.004zm.036.006H.263h.003zm.026 0c-.001-.001-.006-.002-.006 0h.006zm.098 0c.006 0 .004 0-.002-.001H.383l.001.002H.39zm.011 0H.4zm.018 0H.417.42zm.02 0H.435c-.001 0 0 0 0 0h.002zm-.193-.001a.1.1 0 0 0-.01 0h.01zm.028 0H.271h.003zm.14 0H.412h.002zm.016 0c-.001 0 0 0 0 0zm-.17-.001H.256.26zm.055 0H.313c-.001 0 0 0 0 0h.002zm.024 0H.336.34zm.066 0H.403h.002zm.019 0H.422h.002zm.018 0H.44h.002zm-.194 0l-.001-.002H.246v.002h.002zm.039-.005l.005-.004.001-.006c0-.006 0-.006-.002-.006H.282l-.004-.001c0-.002 0-.002-.002 0s-.004.002-.007 0H.266a.054.054 0 0 0-.002.02l.008.001h.01l.005-.003zm.04.004H.324h.003zm.027 0H.35h.003zm.061 0L.413 1.43v-.003.004c0 .003 0 .004.002.004.001 0 .002 0 0 0zm.02 0H.433h.002zm-.174-.002c0-.001 0 0 0 0V1.43zm.043-.002c0-.003 0-.004-.002-.002-.002.003-.002.005 0 .005s.002-.001.002-.003zm.084.003l-.001-.001c-.002-.002-.002-.002 0 0l.001.001zm.007-.009v-.01H.388l-.002.002C.38 1.414.38 1.414.38 1.419v.005c.002 0 .004.002.006.005s.005.005.006.005c.002 0 .002-.001.002-.01zm.002.003zm.021 0v.001zm.01.006H.426h.002zm.017 0H.442h.003zm-.187-.001l.001-.009v-.01c-.001-.002-.001-.002-.002 0H.242l-.009-.001c0-.002-.002-.001-.002 0s.001.002.004.002H.24v.007l-.002.008-.004.002h.003c.007 0 .008 0 .008-.002s.001-.003.005-.003h.005c.002 0 .002.004 0 .004l-.001.001c0 .001 0 .002.002.002l.002-.001zm.072 0H.326.33zm.019 0H.346.35zM.41 1.43v-.003c-.002-.001-.003-.003-.001-.004l.004-.001c.005 0 .007 0 .007.006v.003h.013a.346.346 0 0 0 .013-.003c0-.001-.002-.002-.005-.002H.437l-.002-.009V1.41h.009c0-.003 0-.003-.003-.002H.436l-.003.001H.43l-.004.001H.418l-.002.001c-.002.001-.002.003-.002.004 0 .004-.002.005-.005.005-.004 0-.006-.002-.005-.005 0-.002 0-.002-.002-.002H.4c-.001-.001-.001-.001 0 0v.02h.005L.41 1.43zm.028.002H.437.44zM.292 1.43H.29c-.002.001-.002.002 0 .002V1.43zm.002 0c0-.001 0 0 0 0zM.3 1.426a.012.012 0 0 1 .006-.002c.004 0 .004 0 .004.002l-.001.002h.008v-.01C.32 1.412.32 1.41.318 1.41l-.004.001a.006.006 0 0 1-.005.003H.305L.3 1.416H.298v.015l.003-.004zm.02.005c-.001 0 0 0 0 0h.002zm.035 0h.001zM.25 1.429c0-.001 0 0 0 0zm.091.001H.338h.005zm-.017-.001H.322h.003zm.027 0H.35c-.001 0 0 0 0 0h.002zm.02 0L.37 1.427c-.002 0-.003-.004-.001-.005h.004l.004.001V1.42C.375 1.413.373 1.412.37 1.412H.366L.363 1.41c-.003 0-.006 0-.006-.002H.356v.018h.006c.008.002.01.002.01.001zm.012 0l-.002-.002s0 .003.002.003v-.002zm-.051-.004c0-.003.002-.007.005-.007.001 0 .003 0 .004.002v-.004l-.004.001c-.005 0-.007-.003-.004-.007l.003-.002c.002 0 .002 0 .001-.003l-.002.001c-.002.003-.004.004-.007.001H.325c-.002 0-.001.002.002.002H.33v.009c0 .008 0 .009.002.009v-.002zm.016.002l-.003-.001H.343h.006zm.025-.001H.372c-.001 0-.001 0 0 0h.002zm-.14-.003c.002-.004 0-.006 0-.003-.002.001-.002.006 0 .006v-.003zm.028 0c0-.002-.001-.001-.001 0 0 0 0 .001 0 0zm.185-.004c0-.006-.001-.007-.001-.002v.004c0 .002-.006.003-.007.001 0 .002 0 .002.005.002h.004l-.001-.005zm-.121 0l-.001-.005c-.002 0-.002 0-.002.004l.001.005c.002 0 .002-.001.002-.005zm.002-.004zm.023.003c0-.003 0-.004-.002-.004l-.001.003c0 .004 0 .005.002.005l.001-.004zm.091 0c0-.004 0-.005-.002-.004 0 0 0 .007.002.007v-.003zM.38 1.41l-.002-.003v.002c0 .003 0 .004.001.003V1.41zm-.083.001L.296 1.41H.295c-.001 0 0 .003.002.003s.002 0 0 0zm.041-.002H.336c0 .002 0 .002.001.001h.001zm.059 0H.394v.002l.001-.001zm-.132-.004c.002-.001.003 0 .006.002.002.002.002.002.003 0s.005-.002.006 0h.011l.002-.002-.022-.001-.03-.002H.23c0 .002.005.005.005.003h.007c0 .002 0 .002.002 0a.005.005 0 0 1 .006.002h.002c.002-.003.008-.002.008.001 0 .002 0 .002.001 0a.01.01 0 0 1 .002-.003zm.037.003c0-.001.001-.002.003-.002s.004 0 .005-.002c.002-.002.005-.002.008 0 .001 0 .002 0 .003-.002.002-.002.008-.002.01 0h.001c0-.003.007-.005.01-.002.001.002.002.002.002.001 0-.002.006-.002.007 0s.002.002.002.001c.002-.002.007 0 .008.001v.001c.002-.002.006-.001.007 0 .001.002.002.002.005.002.004 0 .003-.002-.002-.005a.135.135 0 0 0-.07 0c-.003 0-.004.001-.004.004s0 .004.002.004l.003-.002zm.046 0c0-.002-.001-.003-.002-.001v.001h.002zm.041-.002l.003.001h.002c.003-.003.005-.003.007-.001s.002.002.003 0c.001-.004.006-.004.007 0 .001.001.001.001.002-.001 0-.002.002-.003.004-.003.001 0 .003 0 .004.002h.002c0-.003.005-.004.006-.002H.43a.006.006 0 0 1 .008 0c0 .001 0 .001 0 0L.442 1.4c.002 0 .002 0 0 0s-.014 0-.027.002l-.034.004c0 .002.004.002.006.001H.39zm-.022 0H.365h.002zm.08-.002l-.002-.002v.002c.002.002.002.002.002 0zm-.012-.002l-.002.001c-.001.001 0 .001 0 0h.002zm-.108 0H.325l.001.001h.001zm-.04 0H.284h.003zm.01-.002c-.002-.001-.002-.003 0-.004L.3 1.395h.002c.001.001.001.001 0 0-.002-.004-.008.002-.007.007h.002v-.001zm.086 0v-.002L.382 1.4zm-.113 0H.268l.001.001H.27zm-.016 0H.251h.003zm.03 0H.282h.002zm.096 0H.378l-.002-.002-.001-.003c-.002-.001-.002 0-.002.002v.002h.001c0 .002 0 .002.002.002A.01.01 0 0 0 .38 1.4zm.025 0H.402v.001h.001zm-.136 0H.266h.002zm.127 0a.01.01 0 0 0-.003 0h.003zm.02 0H.413h.002zm-.164-.001H.248.25zm.03 0H.278h.003zm.106 0H.385h.002zm.02 0H.402h.003zm.02 0H.423h.002zm-.162 0H.262h.002s.001 0 0 0zm.026 0H.29h.002zm.105 0H.395c-.001 0-.001 0 0 0h.001zm.022 0H.415c-.001 0 0 0 0 0h.002zm.019 0H.435h.002zm.008-.001l-.002-.001c.002.002.003.002.002 0zm-.213-.005c0-.003 0-.003 0 0zm.014.004H.243h.003zm.031 0H.274h.003zm.113 0H.388c-.001 0 0 0 0 0H.39zm.017 0H.406c-.001 0 0 0 0 0h.001zm.02 0H.427h.002zm-.167 0H.257.26zm.026 0H.284h.002zm.098 0H.382h.002zm.017 0H.397h.004zm.018 0H.417.42zm.02 0H.436.44zm-.2-.003zm.029 0H.268c-.001 0 0 0 0 0H.27zm.056 0H.323h.003zm.02 0H.344h.004zm.047 0H.391h.002zm.019 0H.41h.002zm.017 0H.427.43zm-.175 0a.01.01 0 0 0-.004 0h.003zm.04-.01v-.009a.59.59 0 0 0-.042-.002l-.002.018a5.462 5.462 0 0 0 .042.003l.002-.01zm.022.01H.314h.002zm.04 0H.353h.003zm.023-.004v-.01c-.001-.004-.001-.005-.003-.005s-.004 0-.006-.002l-.003-.002v.009l.002.009.005.002a.025.025 0 0 0 .004.003L.38 1.39zm.024.003H.401h.002zm.019 0H.42h.002zm.018 0H.438.44zm-.1 0zm.075-.003a.465.465 0 0 0 .025-.003L.436 1.37l-.054.004v.019h.004a.617.617 0 0 1 .028-.003zm0 .002H.412c-.001 0 0 0 0 0h.002zm.018 0H.43h.003zm-.008 0H.423h.002zm-.18-.002l.001-.01v-.008H.243c-.005 0-.005 0-.006.002a.326.326 0 0 0-.002.016h.012zm.069 0H.312h.002zm.022 0H.332h.004zm.045-.001c0-.001 0 0 0 0zm.055.001c-.001 0 0 0 0 0h.001zm-.14-.002zm.012 0a.275.275 0 0 1 .05-.002l.006.001V1.38l-.002-.008C.36 1.367.328 1.367.315 1.37c-.012.002-.016.004-.016.007v.013a.132.132 0 0 1 .008-.002zm.016.001H.322h.002zm.027 0H.348h.003zm-.02-.001H.328.33zm.015 0H.34h.004zm-.096-.006zm.117-.004v.002c0 .002 0 .001 0 0v-.002zm-.07 0c0-.001 0 0 0 0 0 .001 0 .002.001.001v-.002zm.085-.002c0-.001 0 0 0 0v-.001zm-.083-.003H.296c-.004 0-.004.001-.001.001l.003-.001zm.083 0H.378h.003zm-.101 0H.277.28c.002 0 .001 0 0 0zM.244 1.37h-.01.01zm.02 0H.263l.001.001h.002zm.134 0H.397v.001h.001zm-.102-.01a.16.16 0 0 0 .001-.012 1.131 1.131 0 0 0-.056-.003.341.341 0 0 1-.003.021v.003l.024.001.029.002h.004l.001-.012zm.082.003a.395.395 0 0 1-.003-.015L.37 1.345a.042.042 0 0 0-.009-.004.161.161 0 0 0-.037-.001H.319v.024h.014c.016 0 .028.001.037.005.009.004.009.004.008-.006zm.03.009H.41zm0-.003a.33.33 0 0 0 .018-.002v-.012l-.002-.012H.42a1.8 1.8 0 0 1-.04.004l.001.012v.012h.004l.021-.001zm.012.002H.418.42zm-.112-.003l.005-.002v-.024l-.005.002c-.006.002-.006.001-.007.018v.008l.007-.002zm.121 0v.001zm-.13 0H.297v-.001zm.141 0v.001zm-.11-.001H.328.33zm.016 0H.344h.002zm.09 0v-.012a.146.146 0 0 0-.002-.013H.43c-.003.001-.003.002-.002.013.002.013.002.013.004.012h.003zM.38 1.363c0-.001 0 0 0 0zm-.064-.007zm-.017 0c0-.002 0-.001 0 0 0 0 0 .001 0 0zm.08-.007v.002c0 .002 0 .002 0 0V1.35zM.3 1.344H.294l.003.001H.3zm-.017 0H.28h.002zm.104 0H.385h.002zm-.12-.002H.266h.002zm.13 0H.393l.001.001h.001zm-.15 0H.243h.002zm.05-.001H.294C.29 1.34.29 1.34.29 1.338H.287c-.003.002-.003.001-.005 0H.28c-.002.002-.008.001-.008-.001s0-.001-.002 0c-.002.002-.005.002-.007 0S.26 1.333.259 1.335c0 .002-.005.002-.007 0H.247l-.003-.001c0-.001-.002.001-.002.003l.023.002c.032.002.032.002.032 0zm.11-.002c.025-.002.026-.002.026-.004H.432l-.003-.001H.426l-.022.002H.387c0 .002-.001.002-.003.002H.38l-.003.001s-.002 0-.002.002H.38a.612.612 0 0 1 .027-.002zm0 .003H.404c-.001 0 0 0 0 0h.001zm.01-.001H.415h.002zm-.11-.004c-.002-.001-.003-.001-.004.001 0 .002 0 .002.002.001.003 0 .004-.001.002-.002zm.059 0H.364c-.001 0-.001 0 0 0 .002.002.002.001.002 0zm.008-.003c-.001 0-.002 0-.002.003h.002v-.003zm-.073.002v-.001l-.002.001v.001l.002-.001zm.015-.001v-.001l-.002.002c-.001 0-.001.001 0 0l.002-.001zm.014.002H.327.33zm.016 0H.343h.003zm-.079-.001H.265h.002zm.06-.003c-.002-.003-.003-.003-.004 0 0 .002 0 .002.002.002.003 0 .003 0 .002-.002zm.054 0l-.002.001c0 .001 0 .001 0 0h.002zm-.104 0l-.001-.001-.001.001s0 .001 0 0h.002zm.013-.001h.005l.003-.001H.295c-.003 0-.003 0-.003-.003 0-.002 0-.002-.003-.002-.002 0-.002 0-.002-.004v-.004h.008a.074.074 0 0 0-.008-.002H.283l.001.007v.009c.001.002.002.002.002.001l.004-.001zm.048 0l-.002-.001-.002.002.002.001c.002 0 .003 0 .002-.001zm.01.001H.344v.001h.002zm.022 0l-.001-.001v.001zm.03 0c-.002-.002-.004-.002-.005 0h.004zM.241 1.33l-.002.003.001-.001.001-.002zm.026-.006v-.009H.265L.26 1.312v.006a.016.016 0 0 1-.003.007c-.002.002-.005 0-.005-.003v-.001l-.002.004c-.002.002-.002.002.001.002l.003.001c0 .003.002.003.002.001s.005-.003.007-.002l.002.003.002-.007zm.046.005H.32l-.001-.002c-.003 0-.003 0-.003-.006v-.005l.004-.001c.006-.002.007-.002.007.004l-.001.006.002.002c.003.002.003.002.004 0 .002-.002.002-.002 0-.004v-.01c.002-.002.002-.002 0-.002-.007 0-.03.006-.025.006v.006c0 .008.002.01.005.007l.002-.002zm.072.002h.008v-.017H.388c-.01.002-.013.002-.013.004h.012v.01H.383c-.003 0-.004.001-.005.002 0 .001 0 .002.003.002l.005-.001zm-.023 0l.001-.007c0-.005 0-.005.003-.006l.002-.001a.06.06 0 0 0-.019-.004c-.002 0-.002 0-.001.001v.011H.337c-.002 0-.002 0 0 0l.002.002h.002c.001-.001.007 0 .008.002h.002v-.001c-.001 0-.002-.006 0-.01 0-.004.002-.005.007-.003.002 0 .002.001.002.007v.008l-.001.001h.003zm-.06-.001v-.006c0-.003 0-.004.002-.004v-.01l-.001.005c-.001.003-.002.004-.004.005-.002 0-.002 0-.002.004l.001.005H.3v.001h.001zm.073 0c-.002 0-.002-.001-.002-.004s0-.004.002-.004H.374C.37 1.32.37 1.32.37 1.324s0 .005.003.005.003 0 0 0zm.039-.002c.005 0 .005 0 .005-.007v-.007h.005l.006-.001c0-.002 0-.002-.006-.001H.409v.01c0 .007 0 .008.001.007l.004-.001zm.007.002H.419c-.001 0 0 0 0 0h.002zm.014 0v-.002l-.001.001v.001zm-.141-.004c0-.001 0 0 0 0zm.112-.008l-.002-.002v.009c0 .004 0 .004.002-.001v-.007zm.025.01v-.01.004l-.002.004v.002h.002zM.397 1.32zm-.117.004c0-.004-.003-.005-.004-.001 0 .003 0 .004.002.004l.001-.003zm.089 0zm.01-.001c-.001-.001-.001 0-.001.001v-.001zm.022 0v-.004s-.002.001-.002.004l.001.004.001-.004zm-.157-.001v-.006s-.002.001-.002.003l-.001.005c0 .001 0 .002.001.001l.001-.003zm.052 0v.001zm.057.002c0-.001 0 0 0 0zm.032-.001V1.32c-.001 0-.002.002-.001.003zm-.065.001H.318.32zM.256 1.32v-.004c-.002 0-.002 0-.002.004 0 .006.002.006.002 0zm.038.003c0-.002 0-.002-.003-.002-.002 0-.002 0-.002.002s0 .002.002.002c.001 0 .002 0 .002-.002zm.063-.002l-.001.002c0 .002 0 .002 0 0V1.32zm-.02.002v-.004c0-.001 0-.001 0 0H.335l-.001.002c0 .003.002.004.003.002zm.088-.001v-.003l-.002.003.001.002.001-.002zm-.103 0V1.32H.32l.001.001h.001zm.023-.002v-.002l-.002.002.001.001.001-.001zm.027-.006c0-.006-.002-.006-.002 0l.001.004v-.005zm-.095.002H.273c0 .002.001.002.004 0zm-.004-.003H.272c-.002 0-.002 0-.002.002h.001l.002-.002zm.071 0H.338l.002.001h.004zm.058.002a.01.01 0 0 0-.004 0h.004zm-.146-.001H.254h.002zm.028 0H.282h.002zM.3 1.309v-.004H.294a.568.568 0 0 0-.048-.003v.006l.019.001a.274.274 0 0 1 .035.004v-.004zm.082.004H.38c-.001 0 0 0 0 0h.001zm-.13-.001h-.01.01zm.14 0c-.001 0 0 0 0 0h.002zM.316 1.31a.09.09 0 0 1 .02-.002c.013 0 .02 0 .03.003.003 0 .003 0 .003-.003s0-.003-.004-.004a.12.12 0 0 0-.052 0c-.006.002-.006.002-.007.005 0 .003 0 .003.002.003a.227.227 0 0 1 .008-.002zm.081 0a.29.29 0 0 1 .022-.002c.01 0 .01 0 .01-.004V1.3l-.046.005c-.009.001-.009.001-.009.004s0 .003.004.002l.02-.001zm.007.002H.402h.002zm.011-.001H.413h.002zM.34 1.309H.336.34zm-.052-.007H.285h.002zm-.012-.001H.273h.003zm.028-.014a.3.3 0 0 1 .002-.018c0-.002 0-.002-.002-.003a.537.537 0 0 0-.036-.003l-.004.035.018.001.019.002h.002l.002-.015zm.002.011V1.3c0 .002 0 .001 0 0v-.002zM.39 1.3l.024-.002.012-.003a.4.4 0 0 0-.003-.034l-.043.005H.372v.017l.002.018h.003A.142.142 0 0 1 .39 1.3zm.004.002c-.001 0 0 0 0 0h.001zM.26 1.3v-.002L.259 1.3c.001 0 .002-.001.001-.002zm.057 0a.164.164 0 0 1 .038-.002h.007v-.005a.57.57 0 0 1-.002-.017v-.011l-.004-.001a.115.115 0 0 0-.047.003l-.001.012-.002.017c0 .005 0 .006.002.005l.01-.002zm.037 0H.353h.002zm.013-.015a.07.07 0 0 0-.001-.018v.012c0 .015 0 .022.002.022v-.016zm.048.015H.414h.002zm-.157-.005a.212.212 0 0 0 .003-.028v-.003H.257c-.006 0-.005-.002-.008.018a.236.236 0 0 1-.002.014c0 .002 0 .002.004.002.007.001.007.001.008-.003zm.112-.007zm-.065 0c0-.002 0-.001 0 0v-.001zm.059-.004zm-.058-.01zm.063-.009zm-.006 0v-.001zm-.055-.002c0-.003-.001-.003-.002 0l.001.002v-.002zm-.01.001H.3zm-.01 0l-.002-.001H.29zm-.01-.004H.276h.002zm.028-.005l.001-.014v-.008l-.002-.001a.39.39 0 0 0-.036-.003H.256l-.001.008-.002.014v.006h.014a.55.55 0 0 1 .037.003c.001 0 .002-.002.002-.005zm.086.005H.39h.002zm.035-.001c0-.001 0-.001 0 0zm-.17 0H.254h.003zm.11-.014v-.014L.363 1.23a.054.054 0 0 0-.025-.005.07.07 0 0 0-.011 0l-.001.016v.014H.34l.02.002.008.002v-.014zm.029.012a.202.202 0 0 0 .021-.002.165.165 0 0 0-.004-.03.24.24 0 0 0-.04.005c-.002 0-.002.002-.002.01 0 .013.002.02.003.02l.022-.003zm.006.002H.4c-.001 0 0 0 0 0h.002zm-.086.001l.004-.001.001-.015V1.23H.317l-.004.002v.007c-.003.025-.003.022.004.02zm.007-.007zm.088.007H.409h.002zm.011-.02l-.003-.015v.002a.3.3 0 0 0 .004.028l-.001-.016zm-.113.008zm.06-.005zM.31 1.235zm0-.01a.246.246 0 0 1 .003-.026v-.027l-.002.02v.019-.014L.31 1.183v.014a.23.23 0 0 0 0 .034v-.006zm-.019.004H.29h.002zm-.01-.001H.279h.002zm.026-.012a.08.08 0 0 0-.001-.013L.273 1.2l-.004.025h.012a.436.436 0 0 1 .025.003v-.012zm-.045.011H.26h.002zm.005 0v-.002l-.002.002h.002zM.4 1.223l.02-.003-.003-.025-.045.006v.026l.007-.001a.587.587 0 0 1 .024-.003zm-.147.001zm.068 0a.078.078 0 0 1 .037 0l-.003-.025s-.004-.002-.01-.002a.065.065 0 0 0-.027.002C.314 1.2.314 1.2.313 1.215v.011h.002a.105.105 0 0 1 .007-.003zm.044-.004c0-.01-.001-.02-.003-.02v.009c0 .013 0 .017.002.017V1.22zm.031.006c-.001 0 0 0 0 0h.002zm.019-.001l-.001-.002v.002zm-.152 0l.002-.013.001-.012H.26v.01a.79.79 0 0 1-.003.012v.003h.008zm.143 0H.405h.002zM.368 1.22zm.054 0zM.36 1.213zm.06-.01zm-.06-.005v-.001c-.002-.002-.003-.001-.002.001V1.2l.002-.001zm.006-.013a.069.069 0 0 1 0-.018c0 .001 0 .002-.002.001H.363l.002.005.002.027v-.015zm-.084.013H.281h.002zm.022-.012v-.013l-.01-.001a.341.341 0 0 0-.02-.002H.262l-.001.01a.43.43 0 0 1-.002.012v.003h.012l.033.004v-.013zm-.04.011a.01.01 0 0 0-.004 0h.004zm.098-.011v-.013c0-.002-.001-.003-.005-.004a.071.071 0 0 0-.024-.003l-.006.001-.001.013v.012h.02l.01.002.005.001h.002l-.001-.01zm.028.007a.613.613 0 0 1 .016-.002l-.003-.025-.033.004-.001.014v.012h.002l.018-.002zm-.072.001H.32l.001-.013v-.013H.32l-.003.002v.01l-.002.012c0 .004 0 .004.004.002zm.005-.006zm.089.005H.41h.002zm.002-.004l-.001-.013-.002-.012H.41c-.001.001-.002.002-.001.003a.61.61 0 0 1 .005.024v-.002zm-.108-.005zm.007-.012l-.001-.003c-.001 0-.002-.002-.001-.017v-.018l-.001.02v.017c.001-.002.002-.001.002.001v.003l.001-.003zm-.028-.003H.284h.002zM.27 1.166H.267h.004zm.033-.01v-.014L.302 1.14H.29l-.013-.002c-.002 0-.002.002-.004.013a.113.113 0 0 0 0 .014l.01.001a.25.25 0 0 1 .017.002h.003v-.01zm-.043.008zm.105-.004v.005a.01.01 0 0 0 0-.005zm.032.001l.013-.002v-.003a.248.248 0 0 0-.003-.024s-.028.002-.035.004H.37v.029l.007-.001a.978.978 0 0 1 .021-.003zm.008.002zm-.138.001l.002-.014.001-.013c-.002 0-.002 0-.004.012a.737.737 0 0 1 0 .015h.003zm.093-.012a.08.08 0 0 0-.002-.014c-.001-.002-.001-.002-.001.005 0 .011 0 .021.002.021v-.012zm-.032.01a.029.029 0 0 1 .016-.001h.008v-.027l-.007-.001a.063.063 0 0 0-.024.001c-.004.001-.004.001-.005.02v.01l.002-.001.01-.002zm.008 0H.335l.001.001h.001zM.313 1.16zm-.007-.003v.005a.01.01 0 0 0 0-.005zm.058.003zm-.05 0zm.002-.013zm.047 0v.001zm-.055-.022zm.047.012zm-.041.003zm.05 0c0-.001 0 0 0 0v-.001zM.3 1.136H.298.3zm-.028-.002H.264h.008zm.015.001H.286c-.001 0 0 0 0 0h.002zm.075-.002c0-.001 0-.001 0 0l-.001.002.001-.002zM.305 1.13zm.012.006H.314h.003zm.05 0v-.001.001h.001zm-.064-.008v-.013C.301 1.11.3 1.11.298 1.11a.35.35 0 0 0-.028-.003l-.002.013-.002.013.013.001.017.001h.006v-.007zm.013-.009c0-.009 0-.009-.002-.008-.002.001-.002.003-.001.015 0 .01.002.007.002-.007zm.05.003c0-.009-.001-.01-.002-.01s-.002 0-.001.006c0 .011.001.016.002.016V1.12zm-.007.006v-.012l-.002-.008H.353c-.008-.002-.017-.003-.021-.002H.328v.024h.004a.1.1 0 0 1 .026.003l.001-.005zm.028.003a.102.102 0 0 0 .012-.002l-.003-.022H.384a.282.282 0 0 1-.013.002L.37 1.12v.012h.002a.208.208 0 0 1 .014-.002zm.023 0c0-.001 0-.001 0 0l.001.001V1.13zm-.087 0v-.024c-.001 0-.002.002-.003.01v.014h.003zm.08-.001v-.002L.4 1.129v.002l.002-.002zm.004-.003v-.012c-.002-.01-.002-.01-.004-.01-.003 0-.003-.001 0 .012 0 .006.002.011.002.011h.002zm-.09-.006zm.01-.004l-.001.002v-.002zm.034.004zm-.04-.015H.32s-.002.001-.002.003 0 .002 0 0l.002-.003zm.04.002v-.001c-.001 0-.002 0-.001.002v.001l.002-.002zm-.057-.001zm.104 0zm-.093-.001l.001-.003c0-.002 0-.002-.002-.002l-.002.003c0 .002 0 .002.003.002zm.05-.003c0-.002 0-.002-.002-.002s-.002 0-.001.002l.003.003v-.003zm.034.002c0-.001 0-.002-.003-.002-.002 0-.002 0 0 .001l.002.001zm-.119 0H.278.28zm.02 0h.002zm.075-.001H.373h.002zm-.063-.005c-.002 0-.003 0-.002.002v.001l.002-.003zm.058.003H.367.37zm.012 0H.38l.001.001h.001zm-.049 0H.33h.003zm.013 0H.344h.002zm.045 0H.388h.003zM.294 1.1c.002 0 .002 0 0-.001-.006-.002-.02-.002-.019 0L.29 1.1h.005zm-.022-.002H.269L.27 1.1h.002zM.34 1.1H.338.34zm.055 0h.012c0-.002 0-.002-.01-.002H.38c-.006.001-.006.001-.002.002h.004l.012-.001zm-.061-.002a.09.09 0 0 1 .015 0c.007.002.006.002.004-.01l-.001-.01-.015-.003a.025.025 0 0 0-.008.002l-.005.003-.001.008c-.002.011-.002.012 0 .011h.011zm.034 0H.363h.002l.003.002v-.002zm-.048 0c0-.002 0-.002-.002 0H.32zm.039-.011V1.08c.001-.002.002-.003.004-.003.001 0 .001 0 0 0L.36 1.074l.002-.013v-.01h.005L.37 1.05H.366c-.004 0-.005 0-.005-.003v-.002.002c0 .002-.002.003-.006.003H.349.36l-.001.012a.36.36 0 0 0-.002.013H.354l.001.001c.002 0 .002.001.002.002s0 .001 0 0c-.002-.002-.003.002-.002.008.002.01.002.011.003.005v-.007zm-.002-.001v-.001.001zm-.076.002c.002-.012.002-.012-.001-.012s-.003 0-.004.004a.325.325 0 0 1-.002.01l-.001.007H.28l.001-.01zm.019 0l-.002-.01-.005-.001H.287v.008l-.002.01c0 .002.002.002.008.002h.008L.3 1.086zm.017.008l.002-.014-.005-.001H.31v.009c.002.007.002.007.004.006h.003zm.049-.002v-.008c.001-.005 0-.005-.001-.005-.002 0-.003 0-.003.004l-.001.007c0 .003 0 .004.002.004l.003-.002zm.038 0l-.005-.021-.024.003c-.003 0-.003 0-.004.008v.01l-.001.002h.016l.018-.001zm-.035-.006zm0-.009v.001zm-.046-.001c.002-.001.002-.002 0-.002l-.001.001-.007.002H.308h.007l.008-.001zM.32 1.072a.332.332 0 0 0 .003-.017l-.009-.001H.306v.002l.002.011.001.008h.006c.005 0 .005 0 .006-.003zm.048-.004l.001-.01-.001-.004H.365l-.001.01-.001.011h.002c.002 0 .003 0 .003-.007zm-.072.006H.293h.002c.002 0 .002 0 0 0zm-.014-.001H.279h.003zm.02-.005zm.025 0v-.003l-.001.004zm.022-.008l-.002-.013H.342l-.006-.001c-.002 0-.002.002-.004.017v.007h.015l.004.002-.002-.013zm-.052.01a.28.28 0 0 0-.003-.022H.288l-.006-.001v.003a.682.682 0 0 1-.002.012l-.002.009h.005c.013.001.014.001.014-.001zm.009-.002zm.065.001zm.01 0c.008 0 .008.001.005-.014a.208.208 0 0 1 0-.01c0-.002-.008-.001-.01 0l-.002.008-.001.013v.005l.008-.001zm.012.002H.391h.002zm-.035-.014c0-.003 0-.003-.001 0a.05.05 0 0 0 0 .01v.004-.014zm.043.012H.398L.4 1.07zm-.004-.001l-.002-.014c-.001-.007-.003-.012-.004-.012v.016c.002.01.002.01.006.01zm-.043-.004L.352 1.06v.004c0 .003.002.004.002 0zm-.052-.002zm.003-.001zm.022-.001zm.045 0c0-.002 0-.001 0 0v-.001zM.3 1.054zm.014-.003h.011-.023v-.005.008-.003h.012zm.038.003c0-.001 0 0 0 0zm.002 0l-.001.001zm-.027-.002c0-.001 0 0 0 0zm.003-.003zm.042 0H.37v.001l.002-.001zm-.049-.001a.534.534 0 0 1 .004-.03l-.014-.001H.301v.003l.003.015.001.013h.019zm.03-.015l.002-.015H.348l.004.03.003-.015zm.007-.001a.066.066 0 0 0 0-.015l-.001.014c-.002.013-.002.019-.001.017l.002-.016zm.01.013l.002-.026c0-.002 0-.003-.002-.003l-.003.001-.002.013a.355.355 0 0 1-.002.015c0 .003 0 .003.003.003s.003 0 .004-.003zm-.015 0zM.301 1.04zm-.02 0l-.001.002c0 .002 0 .002 0 0v-.001zm.012-.002c0-.003 0-.004-.001-.003v.007h.001V1.04zm-.005-.006L.29 1.02H.289c-.001 0-.002 0-.002.005a.125.125 0 0 1-.002.012v.006c.002 0 .002-.002.004-.01zm.046.008v-.005c-.002 0-.005.003-.005.005 0 .001 0 .002.002.001l.003-.001zm.011 0l-.002-.014a.05.05 0 0 0-.003-.013H.337c-.002 0-.003 0-.004.003v.005c.001.002.001.002.002 0 0-.003.001-.004.003-.004s.002.001.003.004c.001.004.002.014 0 .014 0 0 0 .005.002.006l.002.001c.002 0 .002 0 .002-.002zm.028 0v.001zm-.011 0c0-.001 0 0 0 0zm-.023 0v-.001H.336l.001.002H.34zm-.056-.004v-.004l-.002.004v.003c0 .002.001.001.002-.003zm.102.003c.006-.001.008-.003.002-.003-.004 0-.004-.002-.002-.01l.002-.006H.384c-.005 0-.006.001-.007.007v.013l.008-.001zm.01 0v-.003C.393 1.034.39 1.024.392 1.023L.39 1.021c-.002 0-.002 0-.004.006l-.001.006h.003c.003.001.003.001.004.004 0 .003.001.004.002.002zM.3 1.028a.052.052 0 0 1 0-.011v-.002H.298l-.002.003c-.002 0-.002.001-.001.001.002 0 .002.002.004.011a.03.03 0 0 0 .001.01v-.01zm.057.008zm-.022-.003l.001-.004v-.003c-.002.003-.004.001-.005-.003L.33 1.02v.007l-.002.009h.003c.002-.003.003-.003.004-.002zm.028-.003zm.011 0zm-.09-.003c0-.001 0 0 0 0zm.074 0H.357zm-.063-.004L.294 1.02c0-.002-.001-.002-.001 0v.006l.002-.002zm.07-.001H.363zm-.08 0V1.02v.002zm.054 0L.337 1.02l-.001.002v.002c.001 0 .002 0 .001-.002zm.037-.001zm-.017-.004zm-.062-.003s-.006-.002-.008 0h.008zm.035-.001l-.002.001c0 .002 0 .002 0 0h.002zm.052.001h.002c0-.002-.003-.002-.006 0l.002.001h.003zM.33 1.012c.002-.004.002-.004-.014-.004H.301v.006h.014c.012 0 .014 0 .014-.002zm.02-.001c0-.003 0-.003-.002-.003-.001 0-.002 0-.001.001v.003c.001.003.004.002.004-.001zm.008 0l-.001-.003c-.001 0-.002 0-.002.003 0 .002 0 .003.002.003s.001-.001.001-.003zM.365.994a.69.69 0 0 1-.003.018v.002l.001-.002A.19.19 0 0 0 .366.994zm.01.018v-.004l-.003-.001-.003.001v.003c-.001.002-.001.003.002.003s.003 0 .003-.002zm.007 0c.002 0 .003 0 .002-.001l-.001-.002c0-.002 0-.002 0 0-.001.003-.004.002-.005 0 0-.002 0-.003.002-.003s.002 0 0 0l-.002-.002v.003l-.001.006c0 .001 0 .001 0 0h.005zm-.084-.003c0-.004 0-.004-.004-.004-.002 0-.002 0 0 0 .002.001.003.006 0 .006s-.004 0 0 0l.004.001V1.01zm.034 0v.002c0 .001 0 .002 0 0V1.01zm.007.002H.336h.002c.002 0 .001 0 0 0zm0-.003H.335l.002.001h.001zm.003-.005L.34 1.001c0 .002-.001.002-.003.002S.335 1.003.335 1c0-.004.002-.005.006-.003l.003.001L.342.996C.341.993.342.991.344.991L.346.99c0-.001 0-.003-.001-.002C.343.99.34.99.34.987.34.982.347.977.347.98c0 .002 0 .002 0 0h.008c.006 0 .007 0 .007.002V.976c0 .002 0 .002-.012.002-.011 0-.012 0-.012-.002V.974v.002c0 .002 0 .002-.014.002H.32C.332.98.333.98.334.986L.333.988.33.987v.002c0 .004 0 .004.001.003.003-.002.005 0 .003.003v.01h.003c.005 0 .005 0 .005.002l.001.001v-.005zm-.014-.001zm.022.001l-.001-.002-.001.002v.002c.001 0 .002 0 .002-.002zm.019-.002L.37.998V.996L.367.992v.002l-.001.008v.001c0-.002.001-.002.002-.002zM.294 1C.294.996.293.996.292.998v.004c.003 0 .003 0 .002-.003zm.03 0L.325.995C.327.99.327.988.326.984L.325.98h-.02L.304.984C.302.99.302.99.304.994.308.996.308.998.308 1v.003h.017v-.002zM.358.997L.36.985V.981H.355C.35.98.35.98.35.984.347.988.347.99.349.994A.012.012 0 0 1 .353 1c0 .003 0 .003.003.003h.003V.997zM.383 1L.382.998.38 1c0 .002 0 .002.002.002.001 0 .002 0 .001-.002zM.3.998C.297.996.296.991.298.991c0 0 .002 0 .003.002.001 0 .001 0 0 0V.99C.3.987.3.986.299.987.298.99.296.99.296.986S.299.979.3.979s.002 0 0-.001L.316.977h.02-.02L.296.975.293.979c0 .002 0 .004-.002.004v.002c0 .002 0 .002.001 0 .002-.002.002 0 .003.006 0 .005.001.007.003.008s.002.001 0 0zm.08 0C.38.995.38.995.378.997v.002-.002zM.373.995c.001-.001.001-.001 0 0a.007.007 0 0 0-.002.001h.002zM.38.988c0-.003 0-.004.002-.003h.002L.382.984V.975C.38.978.38.978.375.978H.371C.369.978.368.983.369.987V.985L.371.982h.001C.373.976.378.98.378.984c0 .003 0 .003-.002.003-.001 0-.002 0-.002.002s0 .002.003.002C.379.992.38.992.38.988zM.346.976H.344h.002zm.011 0H.354h.004zm.02 0h.002zM.336.97V.965H.298v.008h.037V.969zm.025 0V.965H.34v.008h.02V.969zM.375.963h.006-.013v.01V.97L.37.964h.006zM.38.97C.38.966.38.966.376.966S.37.965.37.97s0 .004.004.004.004 0 .004-.004zM.363.966V.963H.336h.026v.003zM.295.96V.958zm.067 0zM.335.942V.923H.3V.93L.298.949V.96h.037V.94zM.36.955V.936L.358.923H.34v.038h.02V.955zM.377.944v-.02H.37v.014a.32.32 0 0 0 0 .019C.372.96.372.96.376.96h.003V.943zm.003.01c0-.001 0-.001 0 0zM.368.936zM.38.935c0-.001 0 0 0 0zM.296.93zM.361.923v.005a.02.02 0 0 0 0-.005zM.338.92H.337v.001zm.04-.005zM.335.898v-.02H.301v.01l-.002.02v.01h.036v-.02zM.36.905L.358.885V.878H.34v.04h.02L.358.905zm.017.001L.374.886V.878H.368v.014l.001.02v.006h.007V.906zm-.01.001zM.297.902v.004a.01.01 0 0 0 0-.004zm.08-.006zM.362.88zM.366.877zm.01 0zM.299.874v.004a.01.01 0 0 0 0-.004zm.037-.02V.836H.302v.009A.52.52 0 0 1 .3.864v.01h.034v-.02zm.023.008V.835H.34v.039h.018V.862zm.016.006L.373.848V.835H.366v.018l.002.02h.006V.868zm.002-.01zm-.01-.01V.85a.01.01 0 0 0 0-.004zM.298.844zM.36.838v.006a.02.02 0 0 0 0-.006zm.016 0zM.356.833H.331a.2.2 0 0 0 .025 0zm.016 0H.37h.002zM.336.81V.79H.304V.8L.301.82v.01h.033V.811zm.021.015a.446.446 0 0 0-.002-.03V.792H.34V.83h.017V.826zM.371.818V.792H.366a.01.01 0 0 0-.003 0l.001.011.002.02V.83h.005V.818zM.361.815zm.003.003V.817zm.01.001zM.3.816zM.36.81v.001V.81zM.363.807c0-.001 0 0 0 0zM.361.804zM.373.8zM.329.79c.025 0 .027 0 .027.002 0 .001 0 .001 0 0C.358.79.362.789.362.792.361.79.364.79.368.79h.007-.006C.363.788.363.788.363.785c0-.002 0-.003-.002-.003V.79H.333V.765v.024H.3v.005V.79h.03zm0-.002H.325h.002zM.316.778V.77H.303v.017h.014V.78zm.029 0V.77h-.01v.017h.01V.78zm.007.006c0-.003.001-.003.004-.003S.36.78.36.775V.77H.35v.009c0 .006 0 .008.002.008L.353.784zM.37.785C.37.784.37.783.367.783s-.003 0-.003.002 0 .002.003.002S.37.787.37.785zM.32.777V.768L.321.766.322.764H.321c-.002 0-.002 0-.002.01v.004zm.002.001zm.01 0L.33.78V.777zM.327.78c0-.003 0-.003-.002-.003S.324.778.324.78s0 .003.002.003.002 0 .002-.003zm.046 0H.366h.008zM.379.778zM.331.771L.326.77.321.771c0 .002.001.002.005.002S.331.773.331.77zm.04 0L.368.77.365.771c0 .001 0 .002.003.002C.37.773.37.773.37.77zM.313.767c.002 0 .002 0 0 0H.307c-.003 0-.004 0-.004-.002V.764C.301.764.3.764.3.766s0 .002.005.002h.007zM.35.766V.763L.353.762H.347L.345.76c.002 0 .004.005.002.006l.001.001C.35.768.35.768.35.766zM.374.755V.74H.331V.717L.33.7v.005H.326c-.002 0-.003 0-.003.002s0 .002.003.002H.33V.74h.007l.036.001v.005H.337a.445.445 0 0 0-.025.002h.001c.001.001.001.001 0 0H.32c.006 0 .006 0 .006.002v.002L.328.75c0-.002 0-.002.007-.002L.34.749V.75h.002c0-.002.001-.002.006-.002s.006 0 .005.002l.001.002c.001 0 .002 0 .001-.002 0-.002 0-.002.005-.002s.006 0 .005.001l.001.002L.37.75V.748c.002 0 .002 0 .002.005V.76c.002.005.001.007 0 .007L.361.765V.764C.36.764.358.764.36.766.36.768.36.77.367.77h.007V.755zm-.045.01H.326.33zm.016 0C.345.762.338.762.337.764l.004.001h.004zM.313.763c.003 0 .003 0 0-.007 0-.003 0-.002-.004.004C.306.764.306.765.308.764L.313.763zm.057 0L.369.759C.368.755.367.755.366.759v.005L.37.763zM.332.762L.33.76c-.001 0-.001 0 0 0v.001zM.336.76c.002-.002.002-.002 0 0L.334.762.337.76zm.02 0C.356.755.355.755.354.758c0 .002 0 .003.002.003V.759zM.323.751C.323.75.323.749.32.749S.316.75.317.751c0 0 0 .003.002.005V.76L.322.757.323.752zm.005.007L.327.757H.326V.76L.328.759zM.307.754L.309.749H.306C.303.75.303.75.303.754V.76L.308.754zm.035.002c0-.002 0-.002-.001 0v.002c.002.001.002 0 0-.002zM.351.754L.352.75H.345l.001.005.002.005L.35.754zM.363.75H.361C.358.75.358.75.36.755v.003L.363.755V.75zM.336.753L.338.75H.33v.004c.002.006.003.006.006 0zM.307.743H.304l.001.001h.002zm.011 0H.314c-.001.001 0 .001.002.001h.002zm.013 0H.326c-.001.001 0 .001.002.001h.003zm.032 0zM.32.739H.314V.723h.014V.71H.324C.321.71.321.71.321.706s0-.004.003-.004S.328.702.328.7V.697H.313v.008c.003 0 .003.003.003.01V.72H.303v.019h.012c.008 0 .01 0 .006-.001zM.353.724V.71H.35C.347.71.347.71.347.706s0-.004.003-.004L.353.701V.699S.35.7.35.697V.696H.332V.74h.021V.724zm.018 0V.71H.368C.365.71.365.71.365.706s0-.004.003-.004S.371.702.371.7V.696H.366C.36.696.36.696.36.698L.359.699.358.711v.011h.01v.014H.362c-.004 0-.005 0-.005.002l.006.001H.37V.724zM.328.728v.006a.03.03 0 0 0 0-.006zm-.002 0V.73zM.324.732c0-.003 0-.003-.003-.003S.318.728.318.73s0 .003.003.003.003 0 .003-.003zm.033 0c0-.007 0-.008-.001-.002v.005L.358.73zM.363.728c0-.002 0-.002-.002-.002S.36.727.36.729.359.73.36.73h.003zM.312.712C.312.71.312.71.309.71S.307.71.307.712c0 .003 0 .003.002.003s.003 0 .003-.003zM.356.704V.701C.354.703.353.704.35.704c-.002 0-.003 0-.003.002 0 .001 0 .002.003.002h.004V.705zm.018.002c0-.002 0-.003-.004-.002-.004 0-.004.003 0 .004h.003V.706zM.31.707H.307h.004zm0-.015A.063.063 0 0 0 .308.676v.022H.31c.002 0 .002 0 .002-.006zm.048.004H.354L.353.695c0 .002.002.003.004.003L.358.696zM.3.694l.002-.02V.672a.072.072 0 0 0-.005.024C.3.698.3.697.301.694zM.307.693c0-.004 0-.004-.002-.004s-.002 0-.002.003c0 .004.001.006.003.005V.692zM.374.685V.683L.372.686zm-.056 0a.01.01 0 0 0-.004 0h.004zm.012 0H.328.33zm.017 0H.343h.004zm.022 0a.02.02 0 0 0-.006 0h.006zM.306.681c0-.002 0-.004-.001-.003L.304.68v.003L.307.68zM.373.679H.37h.002zM.329.67V.662H.31v.016h.02V.67zm.022 0V.662H.334v.017h.017v-.01zM.354.666v.008a.06.06 0 0 0 0-.008zm.017.01C.37.67.37.67.368.67S.365.67.365.666s0-.004-.002-.004C.36.662.36.662.36.67v.008h.01V.674zM.307.672c0-.001 0 0 0 0zm0-.004c0-.001 0-.002-.002-.002H.303V.614L.304.56h.003V.559c0-.002 0-.002-.003-.002H.301v.055l.001.056.002.001c0 .003.002.002.003 0zM.374.664L.373.659.372.662.37.663c-.002 0-.003 0-.002.002C.368.67.368.67.37.67S.373.67.373.665zM.324.658H.32h.005zM.343.656zM.35.65V.645H.31v.009h.04V.649zM.356.647h.002L.356.645c-.003 0-.003 0-.003.004v.004V.65c0-.003 0-.004.003-.003zm.01.004c0-.002 0-.003.002-.003S.371.647.371.646L.364.645H.36v.004c0 .005 0 .005.003.005.002 0 .003 0 .003-.003zM.357.644H.355h.002zM.332.639zM.367.637a.115.115 0 0 0 0-.035L.365.606a.231.231 0 0 1-.001.03c-.001 0-.002 0-.001.001 0 .002.001.002.003 0zM.359.636C.36.635.36.634.357.634S.354.634.354.627V.619h.01v.002a.07.07 0 0 0 0-.014L.362.603h-.02L.321.604c0 .002 0 .002.003.002h.003v.028H.319c-.006 0-.007 0-.007-.002L.311.629.31.633v.004h.025L.36.636zM.347.629c0-.005 0-.005.002-.005s.002.001.003.003C.352.631.35.634.349.634S.347.634.347.63zM.335.633V.618h.012v.015H.335zm.002-.01zm.004.002V.622S.338.623.338.625L.34.63.341.625zm.006-.01L.346.608C.344.607.346.604.347.603c.004 0 .006 0 .006.003V.61L.352.612C.352.616.35.618.349.618S.347.618.347.614zM.35.605H.347L.35.607zm.02.029zM.321.632H.317h.004zm.039 0H.358.36zm.013 0H.37h.002zM.324.62a.05.05 0 0 0 0-.012V.62zm.038.004v.001zM.322.62c0-.01 0-.01-.003-.01S.317.61.317.62s0 .01.002.01C.322.63.322.63.322.62zm.037.005zM.37.615zM.313.627H.309h.004zm0-.003L.31.622v.002h.002zM.311.617H.31h.002zm0-.006V.61H.309l.002.002L.312.61zM.32.605L.318.602.317.605c0 .004.001.004.002 0zm.052 0V.601L.368.604v.002S.37.606.37.604zM.315.603L.312.602c-.002 0-.003 0-.003.002l.003.001.003-.001zm0-.007V.6c0 .001 0 .001 0 0V.598zM.328.594H.32c0 .002 0 .002.002.002L.327.594zm.037.002c0-.001 0-.002-.002-.002-.003 0-.003.002 0 .002h.002zM.345.595L.343.594H.342l.001.002.002-.001zM.315.59C.316.588.317.587.32.587c.007 0 .008 0 .008.004 0 .003 0 .003.006.003.004 0 .005 0 .004-.002C.34.59.341.587.343.587c.003 0 .005.002.005.005 0 .002 0 .002.005.002s.005 0 .005-.002c0-.003.001-.005.005-.005.003 0 .004 0 .006.003L.37.592V.586H.31V.59c0 .005.002.005.005 0zm.052 0H.364h.001c.003.002.003.002.002 0zm-.045 0H.32c-.002 0-.003 0 0 0h.002zM.349.584zM.365.579zM.356.577zM.341.575zM.37.572C.37.57.367.57.34.57S.31.57.31.572l.03.001.03-.001zM.36.568zM.356.566zM.332.564zM.357.562zM.337.544c0-.003-.002.003-.001.008v.006L.338.552V.544zm.038.01H.374zM.333.542L.33.528H.315C.301.528.3.528.3.53v.013l.002.012h.03V.542zm.04.012A.356.356 0 0 1 .374.53L.373.528c-.002 0-.002 0-.002.004v.004H.364V.532L.363.528.362.532v.004H.354V.532L.353.528C.352.528.35.529.35.532c0 .004 0 .004-.003.004S.345.536.345.532c0-.003 0-.004-.002-.004H.342a.489.489 0 0 1-.003.026l.017.001.016-.001zM.3.55V.544C.3.54.297.54.296.544v.004L.3.552C.3.556.302.555.3.55zM.377.543C.376.543.375.545.375.55v.004L.376.548.377.543zM.381.55L.38.548C.378.547.378.547.38.548V.55zM.335.541zM.376.536zM.348.53c0-.002 0-.004.002-.004H.343c.003 0 .003 0 .003.004l.001.005L.348.53zm.012 0C.36.525.36.525.358.525c-.003 0-.003 0-.002.005 0 .004 0 .005.002.005S.359.534.36.53zm.01 0C.37.525.37.525.366.525c-.002 0-.002 0-.002.005 0 .004 0 .005.002.005S.37.534.37.53zM.336.528c0-.004 0-.005-.001-.003v.003zm.003 0zM.38.526l.002.001c0 .001 0 .001 0 0h.002-.008V.53L.378.529C.377.527.378.526.38.526zm-.047 0zm0-.006V.463c0 .004 0 .004-.004.004S.325.467.325.464V.46H.308v.01H.3v.053h.032V.52zM.375.495V.467H.37c-.004 0-.004 0-.005-.004C.366.46.364.46.364.463c0 .002 0 .002-.006.002S.352.465.352.463L.35.46v.004c0 .004 0 .005-.007.005H.34V.52l.001.003h.033V.495zm-.078.02V.51v.004L.294.519V.52C.298.52.298.52.298.515zm.04.003V.517L.336.518zM.379.52H.376.38zM.297.504V.503L.295.506c.001.001.001 0 .001-.002zM.38.505H.378c.002.002.003.002.001 0zM.305.468H.302h.003zM.304.463C.304.461.304.46.302.46.301.46.3.461.3.463s0 .003.002.003.002 0 .002-.003zM.338.461zm.01.003zm-.003 0V.462C.344.46.342.46.342.462l.001.002h.002zM.376.46c0-.001 0 0 0 0zM.361.463H.358h.003zM.357.455l.008.001c0 .002 0 .002 0 0 .001-.002.011-.002.011 0v.002H.373h.002L.377.457c0-.002 0-.002-.004-.002C.368.454.368.453.371.449L.373.447.371.449a.01.01 0 0 0-.004.003c0 .002-.001.002-.01.002C.35.454.35.454.35.452s0-.001 0 0a.017.017 0 0 0-.002.005L.345.46.348.458V.455h.009zM.332.458H.326L.329.46h.003zm.008 0H.337.34zM.3.453L.298.45c0-.002 0-.002 0 0L.293.446l.001.002.003.005c0 .001 0 .002.002.002L.3.456c0 .002 0 .002 0 0V.453zm.02.002L.319.452V.45L.317.452v.003S.32.455.32.457V.455zM.315.456H.31h.005zm.016 0H.328h.004zm.013 0H.34h.004zm.016 0H.357.36zm.013 0H.371h.002zM.341.454H.337.34zM.311.45C.303.444.303.444.301.447.3.451.302.452.309.452h.007L.31.45zm.023 0H.325c0 .002 0 .002.004.002L.334.451zm.009.002H.34h.002zM.366.45L.365.447.363.445.36.448a.03.03 0 0 0-.005.004H.36L.366.451zm.009 0H.373v.001h.003zM.348.446L.35.448V.445L.351.443.353.442c.001 0 .001 0 0 0L.35.44C.351.438.349.439.349.44s0 .002-.002 0C.345.44.345.44.345.443V.45c0 .003 0 .003.002-.001 0-.002 0-.003.001-.002zM.321.444L.32.443c-.001 0-.002 0-.002-.002 0-.004 0-.004-.002-.002v.004l.002.003C.32.442.32.442.321.445zm.018 0v.001zm.001 0v.001zM.324.442zm-.01.003c-.002 0-.002 0 0 0 .002.002.003.002.002 0zm.042 0H.355L.353.444c-.001.001 0 .001 0 0h.004zm-.06 0H.295s-.001 0 0 0v.001h.001zm.004 0s0-.001 0 0H.298c0 .002 0 .002 0 0zM.332.438zm.04.006H.37v.001h.001zM.376.443V.441C.375.44.374.44.374.443v.002L.378.443zm-.07 0L.304.442H.303l.003.002h.001zM.33.438v.005a.02.02 0 0 0 0-.005zm.035.005c.002 0 .001 0-.002-.002C.36.441.36.441.36.443c0 0 0 .001 0 0h.003zm-.074 0L.289.44v.001c.001.002.001.002 0 0zM.343.438c0-.001 0-.003-.003-.003V.44L.343.439zM.31.434V.43v.005l.001.004V.434L.31.43C.308.43.308.429.308.419V.408v.003L.31.41V.401v.004L.308.408V.401L.297.405.291.437l.01.001h.008V.434zm.005.004H.313h.001zm.058 0A.716.716 0 0 1 .365.414v.02C.365.44.365.44.37.44S.374.44.374.438zM.363.433zm-.004 0H.352c0 .001.001.002.003.002H.36zm-.038 0V.431L.32.434zM.374.428C.374.426.373.425.372.425l.003.01L.374.428zM.331.433H.328c-.001 0 0 0 0 0h.003zM.318.419L.32.407.318.405H.314C.313.405.312.406.313.408l.001.006-.001.004H.311L.313.42v.012C.316.432.317.429.319.419zM.352.413V.405h.007V.403S.36.402.356.402c-.002 0-.004 0-.007.002L.346.406.348.42l.003.013.001-.005V.413zM.36.428c.004 0 .004 0 .005.002C.364.425.363.423.362.425H.357c-.004 0-.004 0-.004.004V.43C.355.428.356.428.36.428zM.309.426zm.003 0zm.019.001H.329h.002zm-.008 0L.322.426H.32v.001h.002zm.01-.002zm.012 0L.343.418C.343.414.342.413.34.414v.012h.003c.003 0 .003 0 .003-.002zM.31.42V.414S.308.416.308.419L.31.424V.42zm.018.003V.42C.327.42.326.42.326.422v.001C.33.423.33.423.33.421zm.045 0c0-.001 0-.001 0 0V.421zM.322.42zm.04 0C.361.417.36.417.357.418c-.003 0-.003.001 0 .002H.36zm0-.002V.42c0 .001 0 .001 0 0V.418zM.33.415h.005V.404h-.01v.003a.05.05 0 0 1 0 .007v.003L.328.415zm.04-.01L.368.404c-.002 0-.002 0 0 .005S.37.414.371.412V.406zM.364.412C.364.41.364.409.359.41.354.41.354.41.353.408c0-.002 0-.002 0 0v.005h.005c.005 0 .006 0 .006-.002zm.01 0H.372zM.311.41zM.343.408V.405L.342.408V.41L.344.408zM.323.405H.321zM.34.403h.002zm.023 0C.364.4.364.4.367.4H.36l.002.003h.001zM.334.4H.316h.018zm.038 0c0-.002-.001-.001 0 0zM.312.397H.309c-.004 0-.004.002 0 .002a.02.02 0 0 1 .003 0zm.044 0H.353L.354.4h.002zm-.026 0zm.018 0H.345h.003zm.02 0H.363h.003zM.361.378zm-.03.016h.004v-.02h-.03v.02H.33zM.36.384v-.01H.34v.02h.02v-.01zm.01 0v-.01H.365v.02H.37v-.01zM.335.361v-.01h-.03v.02h.03V.36zm.035 0v-.01H.34v.02h.03V.36zM.31.349H.306h.002zM.333.337c0-.006 0-.006-.002-.006S.33.33.33.337v.005H.317V.337C.317.33.316.329.315.335.315.34.315.34.313.34.309.34.308.34.309.335.309.33.309.33.307.33S.305.33.305.336v.006h.03V.337zM.37.341V.334C.37.331.369.331.366.331.364.33.363.33.364.334.364.338.364.34.36.34.358.34.357.34.357.334c0-.002 0-.003-.002-.003v.011H.341V.33C.34.33.339.332.339.337v.006H.37V.341zM.327.336V.33v.004C.327.34.327.34.323.34H.319h.008V.336zm.025 0V.33v.004C.352.34.352.34.347.34H.344h.008V.336zm-.038 0L.312.335c-.002 0-.001 0-.001.002s.002.002.002 0zm.048 0H.36c0-.001-.002.001 0 .002 0 0 .002 0 .002-.002zm-.037 0L.324.334c-.001 0-.002 0-.002.002l.002.001V.336zm.024 0V.334c-.002 0-.002 0-.002.002l.001.001L.35.336zM.303.332V.328v.004c0 .005 0 .005 0 0zm.01 0c0-.003 0-.003-.001-.002v.001zM.36.33c0-.002 0-.002.005-.002h.006L.362.327H.356C.359.329.36.33.36.334V.331zm-.035 0H.321h.005zm.025 0H.346.35zM.334.316V.308H.331c-.004 0-.004 0-.005.003C.326.316.323.318.32.318.316.318.314.317.313.315L.31.32.306.326h.028V.317zm.03.003A.259.259 0 0 1 .36.311C.359.31.358.308.356.308c-.003 0-.003 0-.002.002l.002.002v.005C.35.319.345.317.344.312.344.309.343.308.34.308s0 0 0 .009v.009h.03L.364.32zM.318.31c.001-.003 0-.002-.002 0v.003L.315.31zM.324.308H.322h.002zm.025 0H.347.35zM.36.304C.358.302.357.302.357.304H.352L.347.305H.336l.01.001.015.001L.359.304zM.317.306c0-.001-.001-.002-.002 0h.002zM.334.299V.295H.33C.324.295.324.295.321.3L.32.303h.015V.3zM.35.3V.297L.347.295H.342v.003c.001.005.001.005.004.005S.35.303.35.3zm.006 0C.355.296.35.296.35.298h.005zM.34.294V.293C.336.293.336.295.337.296S.34.296.339.295zM.347.273v-.01L.345.278c0 .016 0 .014.001-.005zM.344.278V.265H.33V.29h.013V.278zM.322.26L.321.258v.003C.323.263.323.263.322.26zm.03-.001H.343h.003C.349.26.35.26.349.262c0 .002 0 .002.001 0L.351.26zm-.017 0L.334.258H.332C.333.26.334.26.335.26V.259zM.33.249c0-.002 0-.002.006-.002H.335C.33.246.329.245.329.244H.326C.324.247.325.248.327.247c.002 0 .002 0 .002.004V.25zm.012.003zM.346.248zM.334.25L.333.249H.332v.002L.335.25zM.343.243L.341.24l.002.002c0 .002.002.003.002.003s0-.002-.002-.003zm-.005 0H.335.34zM.333.214zm.002.015V.23zM.34.221C.34.207.34.207.337.207s-.002 0-.001.007V.23c0 .005 0 .006.002.006L.339.22zM.333.205H.33c-.001 0 0 0 0 0h.002zM.344.199zM.328.2H.327v.002L.328.2zm.01-.015H.337.34zM.334.172zM.34.176V.169S.336.172.336.176l.001.007L.34.176zm0-.01H.336.34zM.333.16zM.34.161V.157L.336.162l.001.003L.34.161zM.341.154c0-.001 0-.001 0 0H.337c-.001 0-.001 0 0 0H.34z"/><path fill="#fff" d="M.371 1.37a.076.076 0 0 0-.037-.005H.318V1.34h.018c.019 0 .024 0 .034.005a.025.025 0 0 0 .005.002h.001l.002.023H.37zm.012-.005l-.001-.012v-.006l.015-.001.02-.002h.006l.003.02v.003H.421l-.034.003H.383v-.005zm.001.02v-.009l.02-.002a.706.706 0 0 1 .034-.002l.002.014v.003l-.054.005H.385v-.009zm-.01.008A.023.023 0 0 1 .37 1.39l-.002-.014v-.003l.002.001a.017.017 0 0 0 .007.003c.001 0 .002.001.002.009v.009l-.005-.002zM.3 1.389v-.012c0-.002.008-.005.018-.006A.2.2 0 0 1 .35 1.37l.012.002.002.01v.007H.359a.377.377 0 0 0-.06 0zm0-.025c0-.01.001-.015.002-.017 0-.001.003-.003.008-.004h.003v.023l-.007.002-.006.001v-.006zm-.012.007H.265c-.011-.002-.022-.002-.024-.002H.238v-.003a.16.16 0 0 1 .004-.02h.027a.57.57 0 0 1 .028.002l-.002.021v.003H.288zm-.017.023a.869.869 0 0 1-.018-.002H.251v-.006c0-.006.001-.011.002-.011l.04.002c.002 0 .001.014 0 .017h-.02zm-.037-.002v-.001a.27.27 0 0 0 .003-.016h.01v.005c0 .01 0 .011-.002.012h-.01zm.019.04V1.43a.002.002 0 0 0 .002-.003H.25c-.004 0-.005 0-.006.003l-.001.001H.237c.002 0 .002-.002.002-.01v-.006H.238l-.006-.002h.011l.008.001h.006l.002-.001v.018c0 .002 0 .002-.002.002H.254zm.019.002a.07.07 0 0 1-.009 0V1.43l.001-.014c.001-.003.002-.003.004-.002.002.002.004.002.007 0h.007l.007.001h.002v.011l-.005.004c-.004.004-.005.004-.006.004H.273zm-.01-.024c0-.001-.002-.003-.004-.003l-.004.002-.001.001-.001-.001c-.002-.002-.005-.003-.007 0H.242c0-.002-.004-.003-.006-.002H.234l-.002-.001v-.001h.025a.575.575 0 0 1 .026.004H.28c-.002-.002-.004-.002-.006 0l-.001.002-.003-.002-.003-.002c-.001 0-.002 0-.003.002l-.003.001zm.036 0v-.002c0-.003 0-.004.005-.005A.105.105 0 0 1 .335 1.4c.02 0 .032.002.038.006.003.001.003.002.001.002H.37c-.002-.002-.005-.003-.006-.002H.36c-.002-.002-.004-.003-.006-.001L.35 1.403C.351 1.402.35 1.4.348 1.4l-.004.001v.002l-.002-.002A.01.01 0 0 0 .338 1.4c-.003 0-.006 0-.006.003H.331a.008.008 0 0 0-.01 0c-.002.002-.002.002-.005 0-.002 0-.004 0-.006.002a.01.01 0 0 1-.005.002c-.003 0-.003 0-.004.002H.298zm-.003-.006v-.005L.3 1.395c.001 0 0 .002-.002.003-.001.001-.002.002 0 .003l-.001.002H.295zm.003.019v-.008h.003a.01.01 0 0 0 .004 0l.003-.001c.002 0 .003-.001.005-.003s.003-.002.005 0v.017H.311v-.001L.31 1.425a.02.02 0 0 0-.008.001L.3 1.43l-.001.002v-.008zm.072.072a.084.084 0 0 0-.008-.002.014.014 0 0 1-.005-.002v-.003l-.003-.005c-.002 0-.003 0-.003.004v.004H.34v-.002a.073.073 0 0 0 .002-.021c0-.007-.001-.01-.003-.01s-.004 0-.005.002a.096.096 0 0 0 0 .028c.001.003 0 .003-.006.003H.324v-.004c0-.003 0-.003-.002-.004-.001 0-.002 0-.003.004a.012.012 0 0 1-.002.004l-.015.003c-.002 0-.003 0-.003-.006v-.005h.004a.03.03 0 0 0 .006-.001L.31 1.48v-.013H.304c-.004.002-.005.002-.005 0h.003l.006-.001.003-.001v-.014H.308a.015.015 0 0 0-.009.004v-.012l.004-.001a.088.088 0 0 1 .026-.004h.004v.001c-.003.004.002.01.006.009.004 0 .007-.006.005-.009h.011c.002 0 .003 0 0 0-.003.002-.004.013 0 .016l.002.002c.002 0 .002 0 .003.004 0 .004 0 .005.003.006H.362c-.002.002-.002.003-.002.01v.004l.003.002h.01V1.47L.37 1.469l-.002-.001H.37c.002 0 .003-.002.003-.007l-.001-.006a.005.005 0 0 0-.003-.002H.368h.001c.002-.001.002-.001.003-.007V1.44v.005c.001.005.001.005.004.008l.002.003v.005l-.001.018v.013c-.001.002-.001.002-.006 0zm-.047-.017h.001v-.006c0-.007-.001-.01-.002-.01-.002 0-.005.003-.007.007v.008c0 .001.005.002.008.001zm.008-.017v-.006c-.003-.002-.006 0-.006.002 0 .003.001.005.003.005L.33 1.46zm-.01-.005c.004-.004.003-.014-.001-.016s-.007.002-.007.008c0 .004.001.008.003.008H.32zm-.076.027a.01.01 0 0 1-.003 0V1.47H.237c-.005 0-.009 0-.008-.001h.012v-.016H.238V1.45c0-.006-.001-.006.009-.006h.008v.002c0 .003.002.006.005.006.003.001.006-.002.006-.005v-.002l.001.002c.002.002.005.002.008 0h.017l.001.015v.006H.286v-.01l-.001-.003H.271v.013l-.008.006a.058.058 0 0 1-.016.01H.244zm.009-.028v-.006L.25 1.447c-.003 0-.004.002-.004.005s.002.004.005.004l.004-.001z"/><path fill="#fff" d="M.264 1.494h-.02c-.002 0-.002 0-.002-.004v-.002h.007l.003.001.008-.006c.01-.008.01-.008.01-.002 0 .005-.001.005.006.005h.006v-.014H.29l-.001.002c-.002.002-.003.003-.003.01a.18.18 0 0 1 0 .008l-.002.003h-.02zm-.059-.002L.203 1.49l.007-.006.006-.005v.012H.205zm.023-.057c0-.002-.001-.005-.003-.006l-.002-.001.002-.003c.002-.003.002-.003.001-.006v-.003l.002-.006a.088.088 0 0 1 0 .025v.002-.002zm.005-.01c0-.001 0-.006.002-.005l-.001.006H.233zm.032-.092L.264 1.33H.26c-.002 0-.004 0-.004.002H.255c0-.003-.001-.003-.004-.003H.25l.001-.001.001-.003.001.001c0 .002.003.003.004.002.002 0 .003-.003.003-.008.001-.005 0-.005.006-.004H.27v.004a.099.099 0 0 1-.003.014zm.014.009a.214.214 0 0 1-.036-.004v-.001c0-.001 0-.001 0 0h.01c.002.002.005.002.006 0l.001-.001h.001a.007.007 0 0 0 .009.002c0 .001.002.002.005.002l.004-.001v-.001l.002.001c.002.002.003.002.005.001H.29l.004.001H.279zM.284 1.3H.263v-.004l.003-.028v-.002h.007l.03.002h.001v.005l-.001.017-.001.013H.301L.284 1.3zM.25 1.298l-.002-.002a.373.373 0 0 0 .005-.03c0-.002.001-.002.006-.002h.004v.002a1.353 1.353 0 0 0-.004.03c0 .002 0 .002-.004.002H.249zm.046.015a.354.354 0 0 0-.033-.003H.246v-.003c0-.004 0-.004.008-.004l.032.002c.017.002.015.001.015.004 0 .006 0 .006-.006.004zm.012-.016a2.497 2.497 0 0 0 .004-.03.106.106 0 0 1 .046-.003H.36v.007a1.778 1.778 0 0 0 .002.028H.325a.177.177 0 0 0-.017.003v-.004zm.067.004l-.001-.014a.922.922 0 0 0 0-.02l.01-.001.023-.003a.407.407 0 0 0 .016-.001c.002 0 .002-.001.003.009a.163.163 0 0 1 .002.024.588.588 0 0 0-.053.006zm0 .01c0-.003 0-.003.002-.004a.27.27 0 0 1 .052-.006v.007H.423a.752.752 0 0 0-.046.004H.375V1.31zm-.068 0c0-.003.002-.004.005-.005a.12.12 0 0 1 .052-.002c.005.001.006.002.006.005v.003L.36 1.31a.15.15 0 0 0-.05.001c-.005.002-.005.002-.005-.001zm.054.02c.002 0 .002-.001.002-.006v-.007l-.007-.002c-.003 0-.003.001-.003.008v.007L.352 1.33C.35 1.328.346 1.327.344 1.329H.341c0-.001 0-.002-.002-.002H.338h.006l.006-.001a.02.02 0 0 0 0-.01v-.001a.045.045 0 0 1 .02.004H.367c-.002.001-.002.001-.003.008 0 .003 0 .005-.002.005H.361zm-.051 0v-.006l-.001-.006v-.002a.1.1 0 0 1 .025-.004v.002C.33 1.317.33 1.318.33 1.32l.001.004v.004c0 .002-.001.002-.004 0l-.001-.002a.04.04 0 0 0 0-.01l-.003-.001-.005.001H.316v.01c.001.003.001.003.003.003s.002.001 0 .002H.318c-.002 0-.003 0-.005.002-.001.001-.002 0-.003-.001zm-.025.002v-.015l-.002-.001h.01c.004.001.003.002-.002.002H.287v.003c0 .004 0 .005.003.005l.002.002v.002h.005l-.001.001H.287c-.001.002-.002.001-.003 0zm.017-.002L.3 1.329l-.001-.004v-.003H.3l.002-.003v-.001l.001.001.002.002c-.002 0-.003 0-.003.002v.005c0 .003-.001.004-.002.003zm.078.001s0-.002.004-.002h.003v-.011H.375l.003-.002a.334.334 0 0 1 .017-.001v.016H.39a.02.02 0 0 0-.005 0H.379zm.03-.002v-.016h.004a.25.25 0 0 0 .011 0l.006-.001v.001l-.005.001H.419v.013H.415a.01.01 0 0 0-.004 0L.41 1.33zm-.032.013c-.001-.001 0-.002.001-.003h.006l.004-.001h.007l.013-.002a.058.058 0 0 0 .019-.002h.005v.002a1.842 1.842 0 0 0-.056.006zm.055.023a.235.235 0 0 1-.003-.02c0-.003 0-.003.003-.003l.002.001.003.02c0 .002 0 .002-.002.002H.432zM.4 1.424v-.01c-.001-.001-.001-.001 0 0h.003l.001.002.002.005h.006c.002 0 .003-.002.003-.004 0-.003.003-.007.004-.006H.43l.004-.001h.008c.002-.002.003-.002.003 0H.44l-.004.001v.002a.07.07 0 0 0 .002.014h.004c.003 0 .004.001.004.002l-.001.001a.487.487 0 0 1-.023.003l-.001-.004-.001-.004c-.001-.002-.002-.002-.004-.002H.411l-.002.003.001.003c.002.001.002.003 0 .004l-.004.001H.4v-.009zm-.013.006a.027.027 0 0 0-.005-.005l-.001-.001a.02.02 0 0 1 0-.008h.007a.006.006 0 0 1 .004-.001h.002v.02H.393L.387 1.43zm-.024 0l-.007-.002V1.41c.002.002.003.003.006.002h.004l.004.001c.004 0 .005.001.006.008v.003h-.01c0 .002 0 .003.002.004s.002.002 0 .002H.364zM.33 1.426V1.41H.327c-.003 0-.004-.001-.003-.002h.004c.003.002.004.002.007 0l.002-.001v.002l-.004.001-.001.004.001.003c.002.002.006.002.007 0h.001v.002c0 .002 0 .002 0 0H.337c-.003 0-.006.003-.006.007 0 .002 0 .002-.001 0zm-.055.038v-.003c0-.003 0-.003.002-.003s.002 0 .002.004v.002H.276zm-.046.029H.228V1.49a.01.01 0 0 1 0-.004h.01v.008H.23zm.014.014L.247 1.5H.25l-.001.003a.016.016 0 0 0-.001.004c0 .001-.001.002-.003.002zm.181-.025a.432.432 0 0 1-.01-.008l-.01-.007v-.014H.403a.19.19 0 0 0-.007 0H.391v.01c0 .002 0 .003-.002.003s-.002 0-.002-.008v-.005H.382V1.45c0-.003 0-.003.002-.004a.144.144 0 0 1 .024-.002h.008c.002.003.003.003.006.003s.004-.001.005-.004l.009-.002H.44v.002c0 .003.002.005.003.005l.002.002c0 .002 0 .002-.008.003H.434v.005l-.001.007v.003h.013L.44 1.47H.435v.013h-.01zm-.035.01v-.007a.032.032 0 0 0-.002-.012l-.001-.002h.005v.006l.002.007.006.001h.006l.001-.006c0-.004 0-.004.007.001.009.007.01.008.013.008a.03.03 0 0 0 .004 0c.002 0 .003 0 .003.002v.002L.4 1.493H.39v-.002z"/><path fill="#fff" d="M.398 1.48v-.005h.003c0 .001.002.004 0 .005H.399zm-.002-.017V1.46l.002-.001c.002 0 .003 0 .003.003s0 .003-.003.003c-.002 0-.002 0-.002-.002zM.38 1.47h.007l.006-.001v-.002h.005c.007.001.007.002 0 .003a.11.11 0 0 1-.018 0zm-.001-.01l-.001-.006c-.003-.003-.003-.003-.003-.008v-.004h.002l.001-.002s-.001-.003-.003-.003c.002 0 .003-.002.003-.006v-.003.003l.001.007.001.005v.011c0 .008 0 .009-.001.005zm-.017-.008v-.003c0-.005-.002-.009-.004-.01-.001 0-.001 0 0 0a.02.02 0 0 1 .006.002v.011H.362zm-.006.002a.011.011 0 0 1-.002-.006c.002.002.003.002.004 0l.002-.001v.001a.013.013 0 0 1-.003.006H.356zm-.04-.001V1.45c-.002-.003-.001-.004 0-.003 0 .003.003.003.004 0v.002l-.001.005-.002-.001zm-.021-.015V1.43v.002l.001.003v.004L.3 1.437l.002.001-.003.003c-.002 0-.003.002-.003.002v-.005zm.029-.015v-.007h.001c.002.004 0 .01-.001.008zm.025 0l-.001-.005v-.003c.002 0 .003.001.003.004 0 .004 0 .004-.002.003zM.375 1.4l-.001-.003v-.001l.002.002.002.003H.375zm.007.008H.381c0-.002.003-.002.03-.004a.454.454 0 0 1 .02-.002h.001l-.001.001H.427c-.002 0-.004 0-.005.002v.001L.42 1.405c-.002-.001-.005-.002-.006 0l-.002.001v.002L.41 1.406l-.003-.002c-.002 0-.005.002-.005.004H.401c-.002-.003-.004-.003-.007 0H.381zm0 .074v-.006l.003.005-.002.001H.382zm0 .014v-.008h.003v.007l-.001.001H.382zm-.016-.018c-.002-.001-.002-.002-.002-.003 0-.002 0-.002.002-.001l.001.002c0 .002 0 .003-.002.002zm-.001-.016c-.002-.001-.002-.004 0-.004s.002.001.002.003 0 .003-.002.001zm-.061-.001v-.002h.003c0 .002-.001.004-.003.004V1.46zm0 .015v-.002l.003.001-.001.002c-.002.002-.002.002-.002 0zM.3 1.433V1.43c.002-.002.003-.002.003 0s-.002.004-.003.003zm-.026.048v-.005c.002 0 .003 0 .003.002v.002H.274zm.018-.009c.002-.002 0-.002-.007-.002h-.01l-.002-.001H.28a.27.27 0 0 0 .015.001l-.003.003zm-.06-.01v-.004h.002c.002 0 .002 0 .002.002v.003H.233zm0 .018l-.001-.003c0-.002 0-.002.002-.002h.002v.003c0 .002 0 .002-.002.002H.232zm-.011.011v-.015l.002-.003-.001.01c0 .008 0 .01-.001.008zm.048-.046v-.001c0-.001 0-.002.002 0v.001H.27zm-.01 0v-.003h.003c0 .002-.002.003-.003.002zm-.033.002c0-.002 0-.005.002-.006h.007l-.001.005-.001-.004H.23l-.001.003a.02.02 0 0 1-.001.003zm0 .013v-.004l.002.002-.002.001s0 .001 0 0zm.064.021V1.48l.002-.003v.006H.29zm0 .015v-.009h.002l.002.004v.004H.291zm.006.005H.294V1.5L.3 1.498l.001.001c0 .002.002.002.004.002h.003-.01zm.037-.003l-.007-.001.01-.001h.01l.001.001a.045.045 0 0 1-.014.001zm-.007.008s-.002-.003-.001-.004l.004.001v.003H.327zm.009 0c-.001 0 0-.002.002-.002H.34v.002H.336zm.01 0v-.002l.004-.002v.002c0 .002-.001.002-.002.002zm.01.007l-.002-.002s-.002 0-.003.002v-.004h.005c.005 0 .008-.001.008-.003L.36 1.51H.357l-.002.003zm-.028.001c-.002 0-.003 0-.004-.002l-.001-.001-.002.001v.002-.001c0-.002 0-.002-.003-.002l-.004-.002v-.005.001l.003.003H.32l.005.001v.002l.001.001.004.002H.328zm-.02-.015l.006-.001a.016.016 0 0 1-.006.001H.306h.002zm-.031.01c-.001 0-.002-.001-.002-.003l-.002-.003a.016.016 0 0 1 0-.003h.002l.002.004.002.004H.277zm-.01 0v-.003c0-.002 0-.002.001-.001l.002.003H.268zm-.014 0c0-.001 0-.005.002-.005.001 0 .002.002.001.004H.253zm.002-.01v-.002h.001V1.5zm-.01-.002H.242l-.003-.001h.007l-.001.001zm-.02 0v-.002a.05.05 0 0 1 .01.001h.001-.004l-.007.001c0 .001 0 .001 0 0zm-.006-.002v-.002c0-.001 0-.001 0 0l.001.001v.001H.22zm.01.008c.002-.001.003-.001.002-.002L.233 1.5c0 .002-.002.003-.004.003H.228zm0 .008v-.004l.002.001c0 .002 0 .004-.001.003zm-.005.005l.002-.003c0-.001.001-.001 0 0 0 .002-.002.004-.002.003zm.053-.018H.275c-.002-.001 0-.001.003-.001H.277zm-.01.001v-.002.003zm.007-.015H.272h.003zm.027.023v-.001l.002-.001h.001v.003H.301v.001L.3 1.508zm0 .006V1.51h.002v.003H.301zm-.01-.008v-.004.004zm0-.006c-.001 0-.002 0 0 0zm-.017.012h.005-.004zm.06.004v-.001l.001-.001v-.001.004H.333zm.034-.013H.37c.003 0 .003 0 .004-.002h.004v.001l-.007.002H.368zm.007.007c0-.002 0-.002-.002-.002H.37v-.001h.003l.001.002c0 .001 0 .001 0 0zm-.002.004v-.004.005-.001zm.005-.023v-.008.008zm-.025.006L.35 1.494h.001l.003.001v.001zm-.065-.059H.286h.002zm-.058.015l.001-.001-.002.002v-.001z"/><path fill="#fff" d="M.231 1.446v-.001h.001v.001zm-.033.048l-.001-.001.001-.002v.001c0 .001 0 .002.002.002H.198zm.02-.019l.003-.003-.001.002-.002.001zm.222.018c-.001 0-.002-.002-.002-.005s0-.003.006-.003h.004v.008H.44zm0-.013v-.003c0-.002 0-.002.002-.002.001 0 .002 0 .002.002 0 .003 0 .003-.002.003H.44zm0-.017c-.002 0-.002 0-.002-.003 0-.002 0-.002.003-.002.002 0 .002 0 .002.003 0 .002 0 .002-.002.002H.44zm-.042.045v-.003L.4 1.5h.003l-.001.002a.015.015 0 0 0-.002.005c0 .001-.001.002-.003.001zm0-.01H.395l-.001-.001h.004V1.5v-.001zm.01.01H.405l.001-.004c.001 0 .002 0 .002.002a.01.01 0 0 1 0 .002H.407zm.004.006L.41 1.51H.406l.005-.001h.001v.004zm.002-.01A.012.012 0 0 1 .413 1.5v-.001h.004V1.5l-.001.002c0 .003 0 .003-.002.002zm.006.004v-.005c0-.002.001 0 .002.002v.003H.42zm.01 0c-.001 0-.002 0-.002-.002a.016.016 0 0 0-.004-.007h.004l.004.006v.003H.43zm0-.01v-.003H.428h.006-.001l-.002.001c0 .001 0 .001 0 0z"/><path fill="#fff" d="M.445 1.497H.442v-.001h.003c.005 0 .006 0 .006-.003V1.49v.005H.45l-.004.001zm.013-.01v-.008l.001.002.006.004a.064.064 0 0 1 .007.006H.466l-.007.001H.458v-.006zm-.014.017L.443 1.5h.002l.002.001-.001.001H.444zm.004-.058v-.002c0-.003-.001-.004-.004-.005H.443h.002c.002 0 .003 0 .003.002v.005zm-.006-.025L.44 1.415h.001l.001.005v.001z"/><path fill="#fff" d="M.44 1.424l-.002-.001h.007v-.008l.002.006v.003H.44zm-.027.01V1.43c0 .003.001.004.002.005H.412zm-.03.003H.39.382zm-.017.01v-.003l.001.001v.001zm0 .004v-.002h.001v.002H.365zm.053-.01h.004s.001 0 0 0H.42zm.02-.037l-.005-.002.006-.001h.002H.44c-.002.001-.002.002-.002.003v.001zm-.061.01v-.006.002l.002.002v.001H.377zm.004-.01V1.4h.002v.003c0 .001 0 .001 0 0zm-.036.005l.001-.001h.001c0 .002-.002.002-.002.001zm-.002.018H.343h.001zm-.103-.1l.002-.01s.002 0 .001.001v.004c0 .003 0 .004-.002.004zm0 .007l.001-.003-.001.003zm.002-.021l.005-.001H.243zm.012.01v-.006l.001-.001v.003c0 .004 0 .007-.001.005zm.021.004v-.002c0-.003.002-.004.003-.003v.002l-.001.004-.002-.001zm-.002-.01l.003-.001h.001c-.003.002-.004.002-.004.001zm-.003-.002v-.002h.002l-.001.002zm.019.01v-.003h.004l-.001.003H.29zm-.015.01v-.002h.002l-.002.001zm.024.002c0-.001 0-.002.002-.002v.002L.3 1.338zm.004.003l.002-.003h.002v.002l-.003.001c-.001 0-.001 0 0 0zm.01-.003l.001-.001h.001l-.001.002zm.01-.002l.001-.003.002.001.002.002H.323zm.011 0l.002-.003.002.002-.002.001H.334zm.001-.012V1.32h.001l.001-.001v.003c0 .002-.001.002-.002 0zm.004-.009c-.002-.001-.001-.001.003-.001h.003l-.003.001H.338zm.005.006c.002 0 .002 0 .001.002zm0 .015l.003-.002v.002H.345zm-.048.01zm-.003.03l.005-.001c.001 0 .001 0 0 0H.295zm.08-.044C.37 1.33.37 1.33.37 1.327l.001-.005h.002c.002 0 .002 0 0 0s0 .002 0 .004l.001.005h.001-.004zm-.009.007v-.001l.002.001H.364zm.009 0v-.003l.002.001-.001.002H.373zm.032-.012V1.32l-.001-.002h.002v.002a.05.05 0 0 1 0 .008v-.002zM.4 1.327V1.32v.007zm.03.002v-.006l.001-.003v.01H.43zm-.006-.006V1.32h.001v.003zm-.052-.006V1.31v.007zM.367 1.3l-.001-.005a.296.296 0 0 1 0-.023c0 .004.002.026.001.028zm.03.035h.001c-.002 0-.002 0-.001-.001l.003.001c.001.001 0 .001 0 0zm-.025-.073a.066.066 0 0 1-.002-.016v-.012l.006-.002a.282.282 0 0 1 .036-.003l.004.026v.002H.415A.535.535 0 0 1 .4 1.26l-.026.002zm-.01-.002a.26.26 0 0 0-.03-.002H.324v-.002a.482.482 0 0 1 .002-.028.156.156 0 0 1 .023 0c.006 0 .01.002.014.004l.002.001a4.606 4.606 0 0 0 0 .028l-.004-.002zm-.051 0v-.017l.001-.01.008-.003v.028l-.004.002H.311zM.3 1.262a.656.656 0 0 0-.039-.003H.252l.004-.028a.321.321 0 0 1 .048.003h.003v.002l-.001.02c0 .004-.001.006-.002.006H.3zm.007.002v-.003l.001.002c0 .001 0 .002-.001.001zm.115-.014zM.37 1.219v-.017h.003a.652.652 0 0 1 .04-.006h.003v.001a.173.173 0 0 1 .002.024L.4 1.223a.427.427 0 0 0-.03.004V1.22zm-.006.007a.058.058 0 0 1-.002-.014v-.01c.002 0 .003.006.003.017v.008H.363zm-.051 0v-.009c0-.008.001-.012.002-.014 0-.002.001-.003.006-.004a.066.066 0 0 1 .035 0v.004l.002.017v.003c0 .002 0 .002-.005 0a.067.067 0 0 0-.014 0c-.009 0-.014 0-.02.002l-.006.002zM.3 1.229a.688.688 0 0 0-.03-.003v-.001l.003-.022v-.002h.004l.029.003.001.012v.013H.3zm-.045-.003v-.004a.65.65 0 0 0 .003-.02V1.2h.008a.566.566 0 0 0-.004.025H.256zm.046-.027a.578.578 0 0 0-.033-.003H.26v-.002l.003-.02V1.17l.026.002.016.002V1.2H.3zm.007.03v-.041.017a.82.82 0 0 0 0 .007l.001-.01c0-.018.001-.027.002-.028v.027l-.002.016a.179.179 0 0 1-.001.013zm.05-.03c0-.002 0-.002.001-.001H.36v.003L.358 1.2zm.003-.003l-.008-.002-.007-.001h-.02a1.922 1.922 0 0 1 .001-.025H.34c.008 0 .018.002.02.004h.001l.001.011v.014l-.001-.001zm-.047 0V1.19l.001-.01v-.01H.32l.003-.002v.025l-.003.001H.315zm.052.004a.26.26 0 0 1-.002-.022V1.17h.002l.001-.001a.05.05 0 0 0 0 .016V1.2zm.003-.01a.146.146 0 0 1 .002-.019.35.35 0 0 1 .03-.003h.002a.134.134 0 0 1 .003.024H.404a.462.462 0 0 0-.034.005V1.19zm.043 0a.342.342 0 0 0-.004-.022c0-.001 0-.002.002-.002h.001a.714.714 0 0 1 .002.025zM.37 1.153v-.014h.004A.644.644 0 0 1 .4 1.135h.01l.003.025v.001l-.01.002a2.111 2.111 0 0 0-.03.004H.37v-.014zm-.01.013L.359 1.16v-.02l.002.02v.006H.36zm-.043-.001v-.009c.002-.015.002-.017.004-.018a.057.057 0 0 1 .02-.002l.012.001v.022l.001.006H.346a.064.064 0 0 0-.03.001v-.001zm-.016.005H.297l-.01-.002h-.01l-.003-.001v-.014a.04.04 0 0 1 .003-.012h.016l.01.001v.027H.3zm-.037-.003v-.002l.002-.018C.267 1.14.267 1.14.27 1.14h.002a1.54 1.54 0 0 1-.004.027H.264zm.002-.03H.265h.004c.004 0 .004 0 0 0H.267zm0 .033l.004-.002h.001v.001H.267zm.048.006v-.004H.311a.513.513 0 0 1 .001-.001h.001v.005zm0-.043a.085.085 0 0 1-.001-.015l.001-.005h.002a.13.13 0 0 1-.002.02zm-.016.004H.29a.905.905 0 0 1-.022-.003l.004-.026.028.003c.002 0 .002.001.003.006a.34.34 0 0 1 0 .02H.298zm.06-.004A.09.09 0 0 0 .33 1.13v-.023h.01a.07.07 0 0 1 .019.002v.008l.001.012c0 .004 0 .005-.001.004zm-.038 0V1.12c.001-.008.002-.01.003-.01h.001v.018c0 .004 0 .004-.002.004H.32zm-.011.015v-.004a1.847 1.847 0 0 1-.004-.05.442.442 0 0 1 0-.01.311.311 0 0 1 .004.052v.012zM.28 1.1H.276a.077.077 0 0 1 .018 0h.002-.001c-.004.001-.01.002-.014.001zm.008-.004c-.003 0-.003 0-.003-.002a.26.26 0 0 1 .002-.018.107.107 0 0 1 .01.001l.002.01v.009H.29zm-.015 0l.001-.008.003-.012H.28c.002 0 .002 0 .002.002a.285.285 0 0 1-.002.018H.273zm.014-.025a.15.15 0 0 1-.01 0l.005-.024h.011a.097.097 0 0 1 .003.023l-.004.001H.288zm.02 0a.383.383 0 0 0-.002-.017h.017l-.003.02-.006.001H.309V1.07zm.004.024a.08.08 0 0 1-.002-.014h.008l.001.002a.152.152 0 0 1-.001.01v.002H.311zm.01.003l.002-.013V1.08l.004-.002a.02.02 0 0 1 .01-.002c.003 0 .009 0 .013.002l.001.002.001.008.002.01H.35a.117.117 0 0 0-.028.002zm.026-.027a.035.035 0 0 0-.013-.002H.332l.002-.019c0-.004 0-.004.004-.004h.01l.002.016v.01l-.002-.001zm.022.024v-.003a.184.184 0 0 0 .002-.016h.002a.28.28 0 0 1 .024-.004H.4v.002a.268.268 0 0 1 .005.02h-.02l-.013.001zm0 .03V1.11l.002-.001.01-.001a.133.133 0 0 1 .014-.001l.002.006a.062.062 0 0 1 .001.016l-.015.002c-.007 0-.01.001-.013.002v-.006zm.035.003l-.003-.022v-.002l.003.001a.1.1 0 0 1 .003.018l-.001.004H.405zm-.04.003l-.001-.01V1.11l.001.01v.011zm-.052-.027v-.001c0-.002 0-.003.002-.003l.001.002c0 .001 0 .002-.002.003zM.31 1.101c0-.002 0-.002.002-.002l-.001.002c0 .002-.001.001 0 0zm.052-.006v-.001a.146.146 0 0 1 .002-.013h.003v.01c-.001.004-.002.005-.004.005H.362zm-.004.002a.063.063 0 0 1-.002-.013c0-.004 0-.004.001-.003V1.08l-.001-.001H.355c-.001-.001 0-.001.001-.001.002 0 .002 0 .002-.002a.71.71 0 0 1 .003-.023H.355c-.001 0-.002-.001 0-.001H.36l.001-.002v-.001c0 .002.001.003.004.003H.37.366l-.003.001v.001l-.001.012c-.001.009-.002.01-.001.011l.002.002c-.002 0-.002 0-.003.003a.015.015 0 0 0 0 .007.05.05 0 0 1-.002.009zm0-.01v-.003.003c0 .001 0 .001 0 0z"/><path fill="#fff" d="M.363 1.075a.517.517 0 0 1 .003-.02h.003v.012l-.001.007-.003.002H.364zm.01-.004v-.008l.002-.01.001-.007.004-.002h.005v.006a.263.263 0 0 0 .003.016c0 .003 0 .003-.005.004a.13.13 0 0 0-.01.001zm.021-.003l-.001-.005a.083.083 0 0 1-.002-.02c.002 0 .006.02.006.023v.002H.393zM.382 1.1H.379l-.002-.001c.001 0 .026-.002.029-.001.001 0 .002 0 .002.002-.002-.002-.004-.002-.017 0h-.01zm-.018.005l-.003-.004h.002c.002 0 .002 0 .002.003v.002H.364zM.36 1.11l.001-.002v.003L.36 1.109zm.006-.01H.364l.004-.001c0 .002 0 .002-.002 0zm.033.007l-.002-.002H.396h.001c.002 0 .003 0 .002.001 0 .001 0 .001 0 0zm-.083-.028l.006-.001h.002l-.003.001H.313h.003zm.04-.012l.001-.01a.06.06 0 0 1 0 .012v-.002zm-.003 0v-.005.006zM.306 1.05l-.001-.005A.452.452 0 0 0 .3 1.019h.027v.002a1.105 1.105 0 0 1-.004.028H.305z"/><path fill="#fff" d="M.303 1.055v-.008.004h.012l-.008.001H.304v.003c0 .001 0 .001 0 0zm-.019-.012l.001-.007a.232.232 0 0 0 .003-.015h.003l-.001.004-.002.008a.034.034 0 0 1-.002.01H.284zm-.003-.004v-.003l.002-.004-.001.008H.28zm.012.004v-.007l.001.006v.001zm0-.017v-.007.001l.001.003v.002H.292zm.008.011v-.004C.297 1.021.297 1.021.295 1.02L.3 1.016v-.001.005a.15.15 0 0 0 .002.016zm.027-.001l.002-.015v.002l.004.006h.001v-.001.006l-.005.001a.015.015 0 0 1-.002.002zm.002.006V1.04l.005-.004v.004c0 .002-.001.002-.003.003H.33zm.013 0L.34 1.038V1.03c0-.006 0-.01-.002-.011-.002 0-.003 0-.004.004v.001-.001L.332 1.02v-.005H.34l.002.005.004.021v.002H.343zm.008 0a.495.495 0 0 1-.003-.022h.008l-.002.015a.235.235 0 0 1-.001.016L.35 1.043zm.013.007v-.006l.001-.01.003-.014.003-.002c.002 0 .002.002.002.005a.246.246 0 0 1-.003.026l-.004.001H.364zm.012-.01v-.005l.003-.012.001-.001h.006v.003a.034.034 0 0 0-.003.009c0 .002.001.003.004.003a.01.01 0 0 1 .003 0l-.002.002H.383l-.005.001H.376z"/><path fill="#fff" d="M.393 1.04v-.003c0-.003 0-.003-.005-.003a.01.01 0 0 1-.002 0l.003-.011c0-.002 0-.002.002-.001v.001l.003.013v.003c0 .001 0 .002 0 0zm-.035.008l.002-.019.001-.01v.006a.356.356 0 0 1-.003.024v-.001zm-.032.025v-.007.007zm.012-.032v-.002.001s0 .001 0 0zm0-.017V1.02v.002H.337zM.3 1.01v-.003h.014l.015.001v.003l-.016.001H.3V1.01zm-.007.005l-.004-.001h.007v.001H.292zm.003-.004H.29h.004v-.005H.292h.004l.001.006H.296zm-.004-.01V.997c.001 0 .002 0 .002.003v.002H.292zM.298 1C.296.998.296.996.295.99V.985C.293.983.292.983.291.985c0 0 0 .001 0 0V.984L.295.978V.976h.032-.006L.3.979h.002V.98C.296.979.294.983.294.986c0 .002 0 .003.002.003L.299.988v.004c-.003 0-.003 0-.003.002L.298 1c.001.002.001.002 0 0z"/><path fill="#fff" d="M.307 1.002V.996L.304.993.303.989V.984L.306.981h.02v.001l.001.004c.001.003 0 .004-.002.01a.008.008 0 0 0 0 .006v.001H.307v-.001z"/><path fill="#fff" d="M.342 1.008v-.002H.333V.995C.335.994.336.993.335.992H.329V.987H.33L.333.99C.335.989.335.988.334.985c0-.002 0-.003-.002-.004C.331.98.328.979.321.979h.005c.01 0 .011 0 .012-.003L.34.978a.189.189 0 0 0 .023 0V.976.98L.352.979.347.981V.98H.345L.341.985v.003h.004v.004H.341l.001.006v.001-.001C.338.996.336.996.336.998a.01.01 0 0 0 0 .005l.001.001.003-.001v-.001l.003.006z"/><path fill="#fff" d="M.352 1.003V1c0-.003 0-.005-.002-.007C.348.99.347.989.348.985L.351.981H.36L.358.997v.006H.351zm-.004.002v-.003c.001 0 .002.001.001.002H.348zm-.001.008L.345 1.01H.35v.005H.346zM.335 1.01v-.001zm.02.004V1.01c.001 0 .002 0 .002.002s-.001.003-.002.002zm.013 0V1.01c0-.001.001-.002.004-.002s.003 0 .002.002v.004H.368zm-.006 0L.363.995a2.826 2.826 0 0 0 0-.071V.92h.002v.014a.581.581 0 0 1-.002.078v.001-.001zM.367 1L.368.992.37.996V1c-.001 0-.002 0-.002.002V1zm.012.015l.002-.002h.005v.001H.38zm-.003-.004l.001-.008h.001l.002.001c-.002.001-.002.001-.002.003 0 .001 0 .003.002.003l.002-.002v-.001.002l.001.001H.381l-.005.002zm.004-.01V.999h.002c.001 0 .002.003 0 .003H.38zM.375.99V.988h.001c.002 0 .002 0 .002-.003 0-.002 0-.004-.002-.005C.374.978.372.979.372.98.372.982.37.982.37.982v.001L.368.985V.98L.375.977H.38V.975.98c0 .004 0 .004.002.005 0 0 .001 0 0 0C.38.985.38.985.38.989L.376.99H.374zM.34.969V.966h.02v.007H.34V.97zm-.042 0V.966h.037v.007H.298V.97zm0-.01a.343.343 0 0 1 0-.031V.923h.037v.038H.297V.96zM.34.943v-.02h.018L.36.959V.96H.34V.942zM.372.96L.371.953.37.928V.923h.002c.002 0 .003 0 .004.002v.012L.379.96.375.962H.372zm0 .013V.97c0-.004 0-.004.003-.004.004 0 .004 0 .004.003 0 .004 0 .004-.004.004H.372z"/><path fill="#fff" d="M.369.967V.963h.008-.008v.01-.006zM.362.97V.964H.338L.35.962h.013v.006c0 .001 0 .001 0 0zM.34.898v-.02h.018v.007a.386.386 0 0 0 .001.031V.92H.34V.9zm.03.01L.367.882V.878h.006V.88l.001.025v.013H.37v-.01zM.3.914V.878h.035v.04H.3V.913zm0-.041L.301.846v-.01h.034v.038H.3V.872zm.07.002H.368V.839L.366.836h.005l.002.035v.003H.369zM.362.919V.842v.004L.363.9v.019zM.34.855v-.02h.017v.008l.001.03v.001H.34v-.02zm0-.043v-.02h.014v.005a.595.595 0 0 1 .003.028v.006H.34V.81zM.302.819L.303.796V.792h.032v.039H.302V.819zM.34.834zm-.009 0h.023H.35a.4.4 0 0 1-.02 0zm.035-.01A.197.197 0 0 0 .364.791H.37v.016L.373.83H.367V.824zM.336.778V.771h.01v.016h-.01V.78zm-.033 0V.771h.013v.016H.303V.78zM.32.786v-.01c0-.011 0-.012.003-.013v.003L.32.768v.02L.318.786z"/><path fill="#fff" d="M.3.792L.302.79h.032V.765.79h.028V.784l.001.003v.002h.006L.372.79H.368L.361.791c0 .001 0 .001 0 0H.359C.357.79.357.79.356.792V.791L.326.79H.301v.002z"/><path fill="#fff" d="M.322.773V.77H.33c0 .002 0 .002-.004.002H.322zm.003.011V.779h.002v.005H.324zM.35.786V.771h.01v.003L.359.78H.357C.354.782.354.783.353.785L.352.787H.35zm.015.001V.785L.367.784h.004v.003H.365zM.368.782C.365.78.366.78.367.78zM.365.772C.366.77.37.77.371.771H.364zM.361.769L.36.766V.764h.002l.001.002A.03.03 0 0 0 .37.768h.002v-.01L.374.75c0-.003 0-.003-.003-.003L.368.749v.002L.365.749.363.748H.356v.001L.355.752C.354.752.353.752.354.75V.748H.341V.75.749L.34.748H.33c-.002 0-.003 0-.003.002H.326c0-.002 0-.003-.004-.003H.314V.75H.31C.31.749.31.748.308.748a.754.754 0 0 1 .057 0h.007V.74H.357a2.867 2.867 0 0 0-.037 0h.01V.707H.327L.323.706V.705L.327.704H.33V.7v.04h.044v.027H.36z"/><path fill="#fff" d="M.367.764H.365V.762L.368.757.37.764H.367zM.36.757A.041.041 0 0 1 .359.751L.361.75c.003 0 .003 0 .001.004C.361.76.362.76.361.757zm-.013 0A.072.072 0 0 1 .345.75h.007a.078.078 0 0 1-.004.009V.758zm-.015 0L.33.751V.75h.008a.056.056 0 0 1-.004.008H.332zM.318.755V.75h.004v.004A.044.044 0 0 1 .32.76L.318.755zM.303.757L.304.75H.31L.307.754a.059.059 0 0 1-.003.004zm.004.007L.312.756l.002.002v.005a.108.108 0 0 1-.007.001zM.303.768C.302.768.3.766.302.765c0-.002.001 0 .001 0v.002h.01c.002 0 .002 0 0 0a.02.02 0 0 1-.006.001H.302zM.338.765c-.002 0-.001-.001 0-.002.003 0 .006 0 .007.002H.337zm.01.003L.345.762h.007L.35.764.349.766v.002H.347zM.341.758L.34.757V.755l.001.003zm.013.004S.353.76.355.758c.001 0 .002.003.001.004H.355zM.325.759L.327.757l.002.002H.326zM.334.72V.696H.35L.352.7l.001.001v.001H.35L.347.703v.003C.347.71.347.71.35.71h.002v.03h-.02V.717zM.303.73V.72H.31a.07.07 0 0 0 .006 0V.71c0-.003 0-.004-.002-.005V.697h.014v.002c0 .003 0 .003-.004.003-.003 0-.003 0-.003.004s0 .004.004.004h.003v.013H.32a.12.12 0 0 0-.006 0v.015L.307.74H.303V.73zm.058.01L.359.738.362.737h.004V.722h-.01V.717A.22.22 0 0 1 .361.7V.697L.368.696H.37v.003c0 .003 0 .003-.003.003H.366v.004c0 .004 0 .004.003.004H.37v.03H.366L.36.738z"/><path fill="#fff" d="M.36.731V.727c.002 0 .002 0 .002.002s0 .003-.002.003zM.319.734V.73c0-.002 0-.002.002-.002.003 0 .003 0 .003.003s0 .003-.003.003H.32zM.308.715V.711H.31c.001 0 .002 0 .002.002v.002H.307zM.355.71C.355.708.354.707.352.707c-.003 0-.003 0-.003-.002L.352.704h.003V.702.71zM.371.708c-.003 0-.004 0-.004-.002A.008.008 0 0 1 .372.704h.002v.004H.37zM.357.734V.73c0-.005 0-.005 0 0v.004zM.355.698L.353.695l.001.001c.001.001.002.002.003 0L.36.698H.355zM.309.699V.677v.002a.13.13 0 0 1 .002.013V.7H.307zM.304.697V.69c.002 0 .003 0 .003.002v.005H.303zM.3.697A.06.06 0 0 1 .303.673v.002L.301.692v.005H.298zM.305.684V.679v.005zM.31.676V.663h.019v.015H.311V.676zM.373.69V.684.69zM.361.67V.664h.004v.004c0 .004 0 .004.003.004l.003.001v.006h-.01V.67zm-.026 0V.662H.35v.016H.335V.67zm.034 0V.663h.003V.662L.373.66v.009H.37zM.36.653V.645h.004c.006 0 .007 0 .006.002H.369L.367.65v.003c0 .002-.001.002-.004.002H.361zm-.051 0a.074.074 0 0 0 0-.007h.043v.008H.31zM.354.649L.355.646H.36v.001H.355c-.001 0-.002 0-.002.002zm.01-.01L.365.636h.001V.624A.29.29 0 0 0 .369.608v.014c0 .012 0 .015-.002.016H.365zM.31.634L.311.63h.001v.002c0 .002.001.003.003.003h.012V.606H.322V.604h.042v.002A.045.045 0 0 1 .365.62v.003V.62h-.01v.015H.36v.001L.333.637H.31V.634zm.04 0C.353.634.353.632.353.63S.352.625.35.624L.347.63v.006H.35zm-.004 0V.617h-.01v.016h.01zM.351.617L.352.614c0-.003 0-.004.002-.005V.605C.351.603.347.603.346.605c-.001 0-.002.003 0 .004v.005c0 .004 0 .005.002.005H.35zM.304.671V.669L.301.668v-.11h.005L.308.56C.305.559.303.56.303.562v.106h.001l.003.001c0 .002-.002.003-.003.002z"/><path fill="#fff" d="M.318.63V.618C.318.61.318.61.32.61s.002 0 .002.01 0 .01-.002.01H.318zM.311.593L.31.589V.587h.061v.005L.37.59C.368.588.367.588.365.588.36.588.359.588.358.59v.002c0 .002 0 .002-.006.002-.002 0-.003 0-.003-.002S.347.587.344.587L.34.59v.005H.33V.59L.328.588H.323L.316.589.315.592.312.594zm0 .01l.002.001.002.002H.31zm.007.004V.603v.005zM.31.612L.311.61c.001 0 .002.001.001.002H.31zm0 .013L.311.623c.001 0 .002.001.001.002H.31zm.014.004V.61c0-.002 0-.002 0 0v.02zm.017 0V.622v.005c0 .001 0 .001 0 0zM.348.607V.606c.003 0 .004 0 .002.001H.348zM.362.596H.36h.002zm-.019 0V.595z"/><path fill="#fff" d="M.321.596V.594h.006L.324.596H.321zM.32.592L.319.59H.32v.002zM.317.573L.31.572.343.571h.028c0 .001 0 .002-.003.002h-.05zM.37.605V.603h.001v.003H.37zM.348.555H.34V.554A3.352 3.352 0 0 0 .343.528v.007c0 .001.002.002.004.001C.35.536.35.536.35.532V.53h.002v.003l.001.004h.008V.528l.001.005v.003H.37V.528h.003v.001L.372.552v.002H.347zM.341.521A.312.312 0 0 1 .339.487V.47h.01L.35.463.351.46l.001.003v.001h.012V.463C.365.46.366.46.367.46v.002c0 .002.001.003.002.003l.007.001v.056H.342V.521zM.3.497V.471h.01V.46h.015v.006h.008V.465v.007a1.021 1.021 0 0 1 0 .049L.33.523H.3V.497zm.003.058A.32.32 0 0 1 .3.53h.03l.003.026h-.03z"/><path fill="#fff" d="M.347.534V.531c0-.004 0-.005-.002-.005s-.002 0 0 0H.35V.53L.347.534zm.01 0L.356.53V.526H.36v.003c0 .005 0 .006-.002.006H.357zm.01 0L.364.53V.526H.37v.007C.37.535.368.535.367.534zM.376.53V.525h.006v.002H.378v.001H.376zM.375.55c0-.004 0-.006.002-.007v.01V.55zM.337.556L.336.549V.544l.001.003v.009zm0-.024V.525c0-.001 0-.001 0 0v.007zM.291.526H.29h.011a.37.37 0 0 1-.01 0zM.3.553L.297.548V.547L.298.542v.003A.08.08 0 0 0 .3.553v.001zM.294.52L.295.519.297.513V.51v.005L.296.52H.295zM.297.506V.502v.004zm.005-.04C.3.466.3.465.3.463L.302.46c.002 0 .002 0 .002.003v.002H.302zM.3.456V.455L.297.454A.013.013 0 0 0 .296.449L.294.448h.004V.45L.3.453v.003zM.294.438c-.002 0-.002 0-.001-.006L.297.41V.405H.3L.309.4v.004L.31.408V.405L.312.403v.002A.01.01 0 0 1 .31.411V.408H.308v.02L.31.436V.44H.294zm.01.013L.3.45.303.445.31.449l.005.003H.304zM.32.446a.01.01 0 0 0 0-.002H.318v.001L.316.443V.438L.319.44c0 .002 0 .003.002.003h.002v.005L.32.446zM.313.432V.429A.05.05 0 0 0 .315.422C.315.42.315.42.313.42V.417c.001 0 .002 0 .002-.002L.313.41.315.406.316.405.32.407a.699.699 0 0 1-.007.025zm.01-.016L.325.413v-.01h.01v.013h-.01zM.31.424v-.01.01zM.34.422V.414c.002 0 .002 0 .003.007.001.005.002.005.001.006H.34V.422zm.012.01L.346.407.35.405.355.402.36.403.358.404H.352V.41a.11.11 0 0 1 0 .022z"/><path fill="#fff" d="M.353.41V.408v.001A.008.008 0 0 0 .357.41H.36l.004.001v.001H.352zm.014.028L.366.434a.396.396 0 0 0 0-.02L.37.43c.003.007.003.008.002.008H.367zM.354.428V.427h.008L.363.424S.365.428.364.43c0-.002 0-.002-.004-.002-.005 0-.005 0-.006.002V.429zm0 .023L.36.447.363.445l.002.002v.004h-.01zM.346.45V.44l.002.001.001.001L.35.44c0-.001.002-.002.002 0h.002v.001L.35.443v.004L.348.446c0-.001 0-.001 0 0L.346.447V.45H.345zM.34.44V.436c.002 0 .003 0 .003.002V.44H.34zM.326.451V.45h.008-.009z"/><path fill="#fff" d="M.347.46V.456L.35.453c0-.002 0-.002 0 0h.009l.01-.001A.01.01 0 0 1 .37.448c.001 0 .001 0 0 0v.005l.005.002h.003v.003H.374h.001L.377.455.373.454c-.004 0-.007 0-.007.002C.364.454.364.454.355.454H.348v.004H.346c0 .001 0 .001 0 0zM.353.434zM.36.42L.356.419.36.418h.002v.001H.36zM.37.411A.041.041 0 0 1 .368.403H.37v.01zm.006.022A.021.021 0 0 1 .373.426L.375.43v.003zm0 .012V.44h.001v.004zM.344.464L.342.462V.461h.002l.001.002H.342zM.327.459L.33.458h.002-.005zM.32.457V.455L.317.453V.45L.32.453v.004zM.31.434V.43l.001.004v.003-.003zm.05.009V.441h.005v.001H.362L.36.444zM.328.423V.42H.33v.003H.328zm-.021.02L.303.442h.001l.003.001zm0-.048C.304.395.304.395.304.39V.375h.03v.02H.331a.215.215 0 0 0-.025 0zm.032-.01v-.01h.02v.02H.34v-.01zm0-.024V.352H.37v.019H.34V.36zm-.035 0V.352h.03v.019h-.03V.36zM.31.4C.306.4.305.398.307.397h.004L.312.4H.31zm.006.002h.008a.283.283 0 0 1-.008 0zM.353.4V.398h.002v.001H.353zM.365.384v-.01H.37v.02H.365v-.01zm-.001.02V.403L.36.4h.003v.002zM.32.433L.321.432v.002zM.314.445H.313L.312.442h.001l.002.001v.002zm-.02 0V.443l.002.002H.295zm.005 0V.442v.002zM.343.41V.407v.004zm.01.035L.356.442v.002H.352zm.02.006L.374.45zM.37.444v.001zM.34.339V.332c.002 0 .002 0 .002.006v.005h.012V.338L.355.33l.002.005C.357.34.357.34.36.34S.364.34.364.338V.333c0-.001 0-.002.002-.002s.003 0 .003.002L.37.34v.003H.34V.338zm0-.02V.31s0-.002.001 0c0 0 .002 0 .002.003.002.004.004.006.008.006h.003L.357.315.356.312.354.31h.002C.358.31.359.31.36.313l.005.009a.153.153 0 0 1 .003.005H.34V.32zM.307.324L.313.315v.001l.005.002C.323.318.325.317.326.312L.327.309h.007v.017H.306L.31.323zM.305.339L.306.331h.002v.004L.31.34h.006V.335c0-.003.001-.004.002-.004v.011H.33V.338c0-.006 0-.007.002-.007S.334.332.334.34v.005H.305V.34z"/><path fill="#fff" d="M.311.338V.335h.001s.002 0 .001.001L.312.339zm.012 0V.333h.001v.003H.323zm.024 0V.333H.35v.003H.347zm.013 0V.335c.002 0 .002.002.001.003H.36zm0-.005C.36.33.36.329.357.329H.356h.011c-.006 0-.006 0-.006.002v.002c-.001 0-.001 0 0 0zM.35.34V.338c0-.001 0-.001 0 0V.34zm-.025 0C.326.34.327.34.327.338V.34H.325c-.002 0-.002 0 0 0zM.303.333V.329v.004zm.009 0V.33v.003zM.357.307A.608.608 0 0 0 .354.305L.356.304.357.303.36.306v.001H.357zM.344.303L.342.298V.295H.35v.001C.347.296.347.298.348.3v.003H.344zm-.024 0V.3C.324.296.324.296.33.296h.005v.008H.32zm-.006.01L.317.308V.31L.313.313zM.315.305h.002-.002zm.023-.01C.34.294.34.296.34.297H.338zM.352.3zM.331.278V.265h.013v.026H.33V.278zM.328.252V.247H.326L.327.245l.01.001h.005L.336.248C.33.247.33.247.33.25v.002zM.337.234V.228A.361.361 0 0 0 .335.21V.207h.001C.34.207.34.207.34.22L.338.235H.337zm.012.028V.26H.345C.345.258.35.257.35.258V.26H.349zm-.003.02zM.333.26V.258L.335.26H.332zm-.011 0L.32.259.322.26v.002zM.343.202V.197v.004zm-.016 0V.198v.003zm.01-.02V.17H.34v.01c0 .003 0 .004-.001.002zm0-.019L.339.158v.006zM.339.155L.34.154c0 .001 0 .002-.002.002H.337L.338.154zM.333.161s0-.001 0 0v.001zM.332.25zM.343.245h.001c0 .002 0 .002 0 0zm-.001.01V.252v.002zm.108 1.26v-.002l.001.001v.001zm-.113-.072zm0 .018zm0 .027h.001zM.321 1.5l.001-.001h.002L.322 1.5zm0-.005s.001 0 0 0zm0 .01l.001-.002.001.001H.322zm.031 0c0-.001.001-.002.002-.001v.001H.351zm0-.005zm-.011.015v-.001l.001.001H.341zm-.025-.013V1.5h.001l-.001.002zm-.02-.016v-.001.001zM.27 1.474V1.47v.003zm.018-.042l.003-.002-.001.002H.289zm.008-.019l-.002-.001V1.41l.002.003h.001-.002zm.086.017l-.001-.002.002.002zm-.01-.003L.37 1.426h.001l.002.001zm.023-.015V1.41v.002zm.048-.014s-.001 0 0 0h.001c0 .001 0 .001 0 0zm.003.009l-.002-.003h.001l.001.003zm-.001.076v-.008.003a.02.02 0 0 1 0 .005zm.033.01a.008.008 0 0 1-.002-.003l.003.003zm-.028-.02V1.47l.001.001H.45zm.003.012V1.48v.005zM.45 1.478v-.003.002s0 .001 0 0zm-.002 0v-.005.004zm.007.007v-.002.002zm.002.01zm0 0H.455zm.014 0H.47l.001-.001H.47zM.449 1.46v-.003.003zm-.002-.002v-.003.003zm-.18.052zm-.017 0v-.002c0-.001 0 0 0 0v.002zm-.025-.024v-.003.003zm.007-.003c-.001 0 0 0 0 0zm.007.008V1.49v.002zm-.01-.026v-.003.003zm.001-.008v-.001zm-.006.013l.002-.002v-.002.003H.223zm.022-.035v-.001h.002l-.002.001zm.005-.004V1.43v.002zm.01-.006v-.002.001zm0 .009v-.002.002zm.058.034l.001-.002h.001l-.002.002zm-.002.006v-.002.002z"/></svg>