<svg xmlns="http://www.w3.org/2000/svg" width="24.778" height="24.745" version="1"><path d="M21.214 19.034c.073-.053.073-.065.005-.27a1.234 1.234 0 0 0-.145-.304c-.064-.08-.066-.105-.018-.198.03-.059.075-.11.098-.112.023-.003.077-.008.12-.01.095-.006.141-.155.083-.264-.03-.056-.028-.097.008-.14.051-.062.05-.068-.087-.358-.04-.086-.042-.126-.005-.17.037-.046.034-.07-.015-.111a.22.22 0 0 1-.062-.15c0-.055-.015-.1-.032-.1-.036 0-.156.175-.145.212.004.014-.04.05-.096.08a.281.281 0 0 0-.127.152c-.014.053-.04.096-.059.096-.018 0-.06.027-.094.06-.087.087-.217.036-.3-.12-.052-.096-.104-.136-.181-.14a7.044 7.044 0 0 1-.266-.02c-.086-.008-.166 0-.177.017-.03.047-.18.009-.299-.076a.965.965 0 0 0-.28-.16c-.078-.027-.078-.03.015-.055l.097-.025-.108-.116c-.059-.064-.107-.134-.107-.156 0-.021-.02-.04-.044-.04-.023 0-.094-.047-.155-.105-.105-.099-.133-.104-.424-.084-.447.03-.498.04-.499.086 0 .023-.065.084-.145.135-.165.107-.181.175-.062.25.093.058.113.254.034.332-.027.027-.05.175-.053.33-.004.248-.018.296-.12.405l-.115.123-.184-.066c-.15-.054-.196-.056-.256-.013-.059.043-.093.042-.185-.005-.101-.052-.128-.05-.26.029-.082.048-.16.13-.172.183-.017.067-.064.103-.16.12a.437.437 0 0 0-.21.108c-.04.044-.093.07-.116.055-.024-.015-.15-.023-.282-.018-.198.007-.253-.007-.323-.082-.055-.059-.114-.083-.17-.068-.058.015-.1-.004-.128-.057-.053-.1-.347-.109-.523-.017a.553.553 0 0 1-.195.062c-.087 0-.318-.228-.318-.314 0-.062-.205-.184-.31-.184-.102 0-.371-.16-.403-.239-.023-.059-.03-.054-.031.026a.464.464 0 0 1-.107.22c-.108.129-.136.318-.06.395.033.032.015.075-.062.152-.088.088-.133.103-.242.083a.556.556 0 0 1-.184-.065c-.028-.022-.068-.029-.088-.016-.043.027-.148-.082-.188-.195-.02-.056-.061-.072-.162-.063-.074.007-.154-.009-.177-.036-.031-.039-.094-.03-.27.037a1.19 1.19 0 0 1-.346.082c-.085-.003-.112.012-.096.053.025.064-.04.097-.26.132a.88.88 0 0 0-.177.041c-.016.01-.072-.028-.125-.084a.4.4 0 0 0-.24-.115c-.122-.012-.15-.034-.182-.148-.021-.075-.064-.135-.095-.135-.035 0-.056-.048-.056-.126 0-.102-.027-.138-.146-.194-.104-.05-.158-.057-.19-.025-.07.07-.201.013-.269-.117-.065-.126-.184-.163-.184-.057a.063.063 0 0 1-.062.062c-.049 0-.062-.057-.062-.262 0-.145-.03-.361-.066-.482-.035-.12-.056-.228-.045-.238.01-.01-.026-.068-.08-.127-.124-.133-.125-.16-.007-.198.082-.026.072-.034-.07-.062-.118-.023-.18-.016-.22.024-.057.057-.215.055-.357-.005-.059-.025-.064-.04-.02-.066.043-.027.037-.047-.028-.096a.318.318 0 0 0-.134-.064c-.027 0-.04-.03-.026-.064.017-.046-.006-.062-.085-.062-.103 0-.144-.075-.078-.141.017-.016.034-.094.04-.173.007-.117-.006-.143-.072-.143a.28.28 0 0 1-.162-.08c-.064-.065-.106-.074-.206-.046-.137.04-.509-.027-.938-.166a1.901 1.901 0 0 0-.308-.082c-.032 0-.092-.03-.132-.066-.04-.036-.091-.055-.113-.042-.063.04-.087.249-.035.316.042.054.039.055-.022.007-.11-.087-.264-.047-.252.066.012.105-.1.13-.192.041-.044-.042-.05-.022-.031.114.05.363.049.37-.023.386-.039.008-.111-.033-.16-.09-.05-.056-.113-.094-.141-.083-.066.025-.136-.061-.154-.192-.009-.063-.046-.11-.097-.119a.263.263 0 0 1-.14-.096c-.03-.046-.083-.07-.117-.058a.328.328 0 0 1-.162-.002c-.076-.019-.1-.053-.1-.143 0-.143-.063-.191-.12-.092-.033.056-.04.026-.03-.125.012-.161 0-.207-.065-.24-.043-.024-.076-.065-.072-.093.015-.122-.009-.158-.097-.145-.07.01-.097-.01-.107-.08-.011-.08-.03-.089-.176-.068-.096.013-.164.006-.164-.019 0-.022-.079-.037-.176-.032-.144.007-.179.025-.19.096-.006.048-.04.098-.073.111-.068.026-.121-.068-.088-.155.04-.105-.03-.147-.207-.123-.134.018-.178.043-.196.117-.024.096-.19.175-.19.09 0-.026-.03-.005-.066.047-.05.072-.055.108-.019.152.037.044.03.066-.027.099-.07.04-.07.047.022.133.066.062.09.118.073.179a.732.732 0 0 0-.024.14c0 .029-.029.052-.063.052-.075 0-.084.148-.011.193.116.072-.161.08-.327.01-.15-.062-.186-.064-.283-.013a.455.455 0 0 1-.14.053c-.132-.018-.174.013-.165.127a.3.3 0 0 1-.044.184c-.044.052-.039.07.028.106.044.024.092.031.106.017.014-.015.026-.005.026.022 0 .029-.066.048-.163.048-.176 0-.165-.017-.234.384-.02.118-.047.156-.108.156-.173 0-.242-.076-.242-.269 0-.1-.02-.195-.044-.21-.025-.015-.041-.077-.037-.137.018-.288-.002-.36-.12-.427-.098-.055-.123-.102-.142-.268-.012-.111-.043-.209-.069-.217-.062-.02-.17-.233-.17-.336a.194.194 0 0 0-.078-.138c-.067-.047-.082-.129-.103-.564l-.026-.51.1.108c.09.095.111.102.187.054.07-.043.103-.043.17-.002.074.047.083.042.083-.05 0-.055.019-.113.041-.127.023-.014.042-.01.042.008 0 .034.195.138.257.138.063 0 .033-.12-.04-.162-.063-.036-.064-.043-.006-.066.081-.031.287.044.287.105 0 .06.177.005.22-.07a.122.122 0 0 1 .093-.056c.034 0 .06-.017.06-.037 0-.02.038-.047.084-.059.102-.026.113-.24.02-.417a.362.362 0 0 1-.037-.214c.02-.08.004-.1-.1-.123-.105-.023-.121-.044-.113-.15a.367.367 0 0 1 .1-.208c.105-.099.107-.117.023-.236-.06-.088-.058-.095.04-.133a.23.23 0 0 0 .134-.152c.024-.094.003-.135-.127-.255l-.156-.142.116-.12c.136-.143.166-.149.195-.038.016.061.056.083.152.083.085 0 .121-.016.103-.046-.04-.064.063-.371.162-.483a.458.458 0 0 1 .158-.116c.08-.026.108-.202.04-.245-.021-.013-.03-.059-.018-.102.011-.043 0-.09-.024-.106-.068-.041-.055-.147.018-.147.034 0 .084-.047.11-.104.026-.057.072-.104.103-.104.03 0 .056-.018.056-.04 0-.022.04-.062.089-.088.076-.04.085-.038.063.02-.034.089.037.085.105-.007a.877.877 0 0 1 .253-.166c.217-.102.32-.083.403.074.075.139.127.094.099-.084-.019-.115-.012-.166.023-.166.027 0 .036-.02.02-.046-.018-.03-.001-.038.05-.022.165.052.533.11.703.11.178 0 .334-.093.286-.17-.044-.072.026-.199.118-.213.05-.008.087-.037.081-.065-.005-.028.027-.05.073-.05.051 0 .083-.029.083-.074 0-.07.168-.176.277-.176.03 0 .086-.051.126-.114.1-.158.181-.215.303-.218.145-.003.193-.043.225-.192.024-.11.052-.134.178-.154a.311.311 0 0 1 .261.056c.062.044.122.07.134.06.01-.012.045.008.075.045.036.044.04.076.013.095-.056.036-.1.214-.054.214.02 0 .059.042.086.093.062.115.05.982-.013 1.059a.531.531 0 0 1-.199.099c-.127.038-.173.034-.256-.02-.152-.1-.286-.52-.285-.89 0-.119-.07-.082-.133.068a.578.578 0 0 0-.069.274.131.131 0 0 1-.098.129c-.16.049-.28.19-.28.33 0 .07-.023.151-.05.179-.033.032-.035.05-.005.05.025 0 .055.037.067.082.024.093.13.111.182.032a.349.349 0 0 0 .034-.155c0-.064.027-.108.071-.117.058-.012.07.014.067.126-.01.282.184.422.265.19.044-.125.045-.125.275-.096.14.017.252.056.283.097.028.039.033.075.011.083-.065.023.003.09.092.09.1 0 .188-.08.209-.19.008-.045.055-.086.107-.093a.327.327 0 0 0 .172-.115c.05-.064.104-.092.146-.076.078.03.08.056.024.205-.032.084-.055.1-.095.067-.094-.078-.226-.01-.246.126-.024.162.068.258.213.222.26-.065.597-.036.7.06.052.049.1.066.114.042.014-.022.065-.04.113-.04.084 0 .084.002.012.081-.062.07-.065.093-.02.148.033.04.09.057.145.043a.159.159 0 0 1 .158.052c.042.046.116.071.197.066.115-.008.126 0 .104.088-.02.082-.01.095.07.087.138-.015.196-.061.196-.154 0-.15.116-.136.269.03.145.158.215.292.175.333-.012.011.015.057.06.102a.468.468 0 0 1 .105.204c.013.068.048.123.077.123.085 0 .154-.114.124-.207a.178.178 0 0 1 .022-.148c.036-.042.037-.06.004-.06-.073 0-.055-.122.036-.238a.402.402 0 0 0 .083-.204c0-.07.024-.098.081-.098.045 0 .17-.084.28-.187.108-.102.201-.186.206-.186.005 0 .057.018.116.04.144.055.138.195-.015.376-.087.105-.115.174-.1.251a.193.193 0 0 1-.045.174c-.036.036-.066.082-.066.103 0 .02-.038.114-.084.21-.053.11-.074.212-.058.277.02.075.007.111-.043.13-.038.015-.059.053-.046.085.013.036-.018.073-.081.097-.057.022-.103.057-.103.08 0 .02-.06.069-.134.106-.125.062-.138.062-.187-.005-.03-.04-.053-.057-.053-.038 0 .018-.028.01-.062-.018-.038-.032-.062-.035-.062-.008 0 .105.062.182.191.236.127.053.159.05.327-.024.244-.108.414-.268.424-.4.011-.14.056-.18.17-.15.106.027.168.203.097.274-.058.058-.062.238-.005.238.023 0 .08.04.128.087l.087.087-.03-.097a.334.334 0 0 0-.097-.146c-.06-.044-.06-.055.006-.128a.3.3 0 0 0 .072-.17c0-.108-.156-.297-.246-.298a.266.266 0 0 1-.12-.034c-.066-.043-.002-.232.124-.367.061-.066.08-.131.069-.233-.017-.14.04-.237.137-.237.027 0 .089-.033.136-.073.084-.07.085-.07.022.01a.483.483 0 0 0-.076.218c-.009.11.009.144.096.183.059.027.107.065.107.084 0 .019.027.035.06.035.079 0 .036-.125-.068-.2-.091-.066-.1-.174-.013-.174.034 0 .062.019.062.041 0 .023.03.042.067.042.046 0 .06-.025.047-.08-.016-.059 0-.079.054-.075.042.003.066.02.055.039-.01.018.009.033.044.033.035 0 .076.047.09.104a.178.178 0 0 0 .125.13c.121.03.129.08.016.11-.056.015-.083.057-.083.132 0 .07.017.1.046.082.027-.017.024.012-.009.07-.03.054-.049.117-.041.14.015.05.038.154.043.197.005.046.127.038.127-.008 0-.021-.018-.05-.04-.064-.025-.015-.025-.062 0-.13a.777.777 0 0 0 .04-.229.52.52 0 0 1 .046-.21c.032-.06.032-.097 0-.13a.173.173 0 0 1-.046-.104c0-.033-.028-.081-.062-.106-.044-.033-.054-.09-.036-.199l.025-.152.286.007c.201.005.285.023.285.06 0 .04.021.043.078.012.059-.031.075-.082.068-.207-.006-.111.01-.172.05-.188.032-.012.049-.039.036-.06-.033-.053.234-.17.388-.17.078 0 .14-.026.154-.063.027-.069.14-.086.14-.02 0 .022.033.041.075.041.092 0 .298-.093.298-.135 0-.017.044-.031.097-.031.083 0 .094-.017.08-.12-.023-.15.177-.364.27-.287.045.038.046.053.001.082-.043.027-.04.043.008.075a.262.262 0 0 0 .115.042c.028 0 .052.038.052.083 0 .098.074.112.11.021.036-.096.22-.073.378.047.11.084.13.118.087.146-.046.03-.043.047.016.093.104.08.091.136-.072.309-.08.084-.145.172-.145.196 0 .023-.085.132-.188.24-.102.11-.186.22-.185.248 0 .028.025.018.056-.023a.202.202 0 0 1 .142-.073c.05 0 .097-.035.113-.086.016-.05.05-.077.084-.064.032.012.085-.005.118-.038.079-.079.217-.078.248.002.013.034.044.062.069.062.025 0 .035-.016.022-.037-.033-.054.164-.17.29-.17.06 0 .136.028.17.062.08.08.276.08.433-.002.105-.054.117-.076.079-.146-.061-.114-.017-.166.12-.138.076.015.132 0 .168-.043.05-.059.067-.056.177.022.071.05.113.112.1.145-.012.033.005.058.04.058.07 0 .081.065.018.104-.06.037-.002.113.068.087.037-.015.058.007.058.06 0 .051.043.1.114.13.162.066.283.061.265-.01a1.98 1.98 0 0 1-.029-.196c-.012-.114-.004-.13.052-.099.095.054.22.01.22-.078 0-.095.078-.122.199-.068.12.054.236-.032.133-.098-.051-.033-.046-.044.029-.065.081-.022.085-.036.042-.135a.435.435 0 0 0-.086-.137c-.021-.015-.023-.061-.005-.104a.292.292 0 0 0 .029-.1c-.003-.014.074-.065.17-.114.145-.074.176-.079.187-.028.017.075.089.082.095.01.002-.03.017-.006.033.051.045.161.107.123.12-.074.011-.147.032-.186.118-.218.152-.058.19-.05.162.04-.023.072-.012.075.15.039a.594.594 0 0 1 .236-.016c.068.027.256-.128.256-.21 0-.03.048-.11.108-.18.089-.106.137-.128.286-.128.12 0 .186.02.202.062.052.135.374.032.356-.113-.014-.113.06-.248.158-.285a.313.313 0 0 0 .15-.165c.033-.09.068-.12.12-.107.04.01.085 0 .099-.022.014-.023.06-.032.102-.021a.133.133 0 0 0 .125-.038c.068-.083-.025-.183-.17-.183-.164 0-.181-.099-.043-.247.065-.07.11-.126.099-.126-.01 0 .015-.06.056-.133.114-.202.274-.33.656-.522.069-.035.156-.09.195-.123.038-.034.088-.05.11-.036.021.013.05-.005.065-.042.015-.04.051-.056.092-.04.049.018.06.007.04-.044-.023-.06.003-.066.224-.046.197.018.25.01.25-.035 0-.035-.043-.059-.104-.059-.12 0-.129-.022-.04-.112.036-.035.056-.089.044-.12-.012-.03.018-.066.07-.082a.925.925 0 0 0 .206-.109c.12-.085.116-.088.13.102a.13.13 0 0 0 .047.083c.026.02.018.045-.02.07-.034.022-.051.05-.04.061.023.022.177.057.28.063.03.002.041.024.024.051-.02.033-.007.04.04.022.044-.017.068-.005.068.035 0 .033-.018.06-.041.06-.023 0-.038.015-.033.032.005.017-.047.09-.115.16-.1.104-.137.12-.194.084-.056-.035-.084-.027-.133.037a.352.352 0 0 0-.063.176c-.001.07-.026.093-.103.093-.056 0-.113-.019-.127-.042-.038-.061-.092-.05-.121.026-.032.084.093.187.192.157.05-.015.094.026.156.148.095.185.071.293-.081.375-.051.027-.071.068-.055.11.024.063.03.063.076 0a.193.193 0 0 1 .138-.068c.05 0 .09-.02.09-.044 0-.052.172-.007.212.054.016.025.036.024.054-.004.035-.057.326-.049.364.01.035.053-.122.233-.202.233-.068 0-.073.07-.006.093.03.01.054.13.06.32.006.166.032.363.056.437.025.074.052.172.06.218.01.047.036.152.058.235.04.142.037.15-.057.15-.124 0-.224.178-.234.413-.006.144-.015.16-.068.116-.054-.045-.06-.028-.039.125.017.129.009.177-.03.177-.09 0-.108.176-.03.283.039.054.117.185.174.291.104.192.25.283.25.155 0-.036.03-.065.067-.065.045 0 .06.025.046.08-.016.059.007.087.088.11a.48.48 0 0 0 .145.023.303.303 0 0 1 .115.016c.093.03.106.144.016.144-.034 0-.062.035-.062.078 0 .111.158.296.253.296.097 0 .15.111.084.177-.026.026-.047.116-.047.2 0 .111.027.17.1.226.095.071.097.083.043.234-.044.127-.045.16-.004.16.07 0 .234.38.234.54 0 .163-.107.165-.258.004a1.305 1.305 0 0 0-.29-.212c-.346-.18-.988-.773-.988-.912 0-.11-.086-.293-.14-.293-.025 0-.023-.02.008-.05.074-.073.064-.509-.012-.572a.19.19 0 0 1-.063-.128c0-.041-.02-.087-.043-.102-.03-.019-.03-.043 0-.08.031-.037.023-.108-.028-.246-.06-.161-.063-.208-.019-.279.06-.097.035-.145-.173-.333-.075-.068-.12-.151-.12-.218 0-.126-.06-.141-.14-.036-.077.101-.071.165.025.269.047.05.083.146.083.221 0 .073.011.19.025.26.02.101.012.124-.042.116-.038-.005-.097-.05-.132-.1-.073-.106-.142-.12-.142-.03 0 .035-.03.063-.066.063-.036 0-.076.037-.088.083-.012.046-.036.083-.055.083-.059 0-.092.249-.04.31.026.032.058.167.071.3.013.132.05.294.083.359.057.113.063.115.14.045.047-.042.08-.052.08-.024 0 .027-.047.089-.104.139-.057.05-.104.116-.104.147 0 .038-.027.05-.08.033-.043-.014-.09-.008-.103.014-.013.021-.062.03-.107.017-.058-.015-.083 0-.083.046 0 .037-.014.065-.031.062-.124-.02-.181.017-.204.129-.025.127-.082.192-.237.271-.049.025-.086.078-.083.117.004.05-.009.06-.041.033-.033-.027-.098.006-.202.101-.233.214-.295.328-.265.488.014.076.012.152-.005.17-.017.017-.035.124-.039.237-.004.114-.027.231-.052.26-.024.03-.042.176-.04.325.002.149-.017.31-.042.357a.477.477 0 0 0-.046.19c0 .057-.019.115-.042.13-.022.013-.041.061-.041.106 0 .061.029.08.122.08.067 0 .134-.018.148-.041.014-.023.07.01.125.073.08.09.1.099.102.04.002-.087.084-.098.084-.01a.062.062 0 0 0 .125 0c0-.034.028-.062.062-.062.07 0 .085-.106.019-.146-.081-.05.05-.153.165-.13.252.05.38.091.38.12-.001.017.065.097.146.178.093.094.14.173.124.213-.033.085.053.366.141.46.039.042.12.176.181.297.111.22.111.224.093.974-.02.796-.031.933-.083 1.017-.018.029-.021.096-.008.15.031.125-.116.46-.26.59-.091.081-.139.094-.285.074l-.175-.024-.027.169c-.022.134-.045.168-.113.168-.082 0-.082-.003-.01-.055zm1.999-2.065c-.063-.07-.104-.155-.091-.187.012-.033.006-.06-.015-.06-.042 0-.168-.234-.168-.313 0-.03-.063-.092-.14-.14a.557.557 0 0 1-.195-.221 1.816 1.816 0 0 0-.195-.321 1.918 1.918 0 0 1-.198-.322c-.037-.09-.085-.135-.141-.135-.086 0-.252-.134-.252-.203 0-.02-.028-.06-.062-.088a.178.178 0 0 1-.062-.116c0-.035-.032-.1-.071-.142-.055-.061-.06-.086-.018-.111.074-.046.014-.26-.08-.284-.043-.011-.065-.044-.052-.077.034-.09.094-.07.14.05.022.059.077.117.123.129.045.012.082.048.082.08s.033.07.073.085c.127.045.18.103.139.153-.05.06.06.195.214.263.063.028.114.07.114.094 0 .023.02.042.046.042.025 0 .16.101.3.224.141.124.321.253.401.288l.146.063-.199.004c-.242.004-.267.05-.175.32.092.273.22.472.304.473.038 0 .106.029.15.063.045.033.112.051.15.04.09-.03.196.183.116.232-.028.018-.069.022-.09.009-.02-.013-.012-.04.02-.059.04-.026.042-.036.004-.036-.09-.001-.211.15-.172.212.103.162.001.156-.146-.009zm-.187-.139c-.002-.044.008-.068.021-.054.014.013.016.05.003.08-.013.032-.023.022-.025-.026zm1.159-.177c0-.119.02-.178.067-.196.057-.022.063-.003.038.13-.042.23-.105.268-.105.065zm.153-.289c-.058-.058-.031-.42.034-.445a.103.103 0 0 0 .062-.087c0-.035.019-.064.041-.064.057 0 .053.047-.02.22-.034.082-.051.177-.038.211.028.073-.036.207-.079.165zm.223-.832c-.002-.073.016-.144.039-.158.05-.031.05.091 0 .207-.03.07-.036.062-.039-.05zm.129-.636c0-.057.009-.08.02-.052a.16.16 0 0 1 0 .104c-.011.029-.02.005-.02-.052zm-4.138-.207c-.014-.023-.006-.042.019-.042.024 0 .044.019.044.042 0 .022-.008.041-.019.041-.01 0-.03-.019-.044-.041zm3.984-.542c-.038-.062-.008-.084.06-.043.035.022.04.044.011.061a.052.052 0 0 1-.07-.018zm-.06-.289a.042.042 0 0 1 .082 0 .042.042 0 0 1-.083 0zm-.046-.228a.266.266 0 0 1 0-.074.25.25 0 0 0-.035-.108c-.027-.051-.025-.09.008-.123.06-.06.128-.063.092-.005-.014.024-.008.066.015.093.029.035.023.084-.016.154-.031.057-.06.085-.063.063zm-2.695-1.658c0-.01.02-.03.042-.044.023-.014.041-.006.041.018s-.018.044-.041.044c-.023 0-.042-.008-.042-.018zM8.95 10.08c0-.068.018-.124.041-.124.023 0 .042.056.042.124 0 .069-.02.125-.042.125-.023 0-.041-.056-.041-.125zm5.753-.16c-.013-.021.005-.05.038-.062.034-.013.062-.007.062.014 0 .056-.074.09-.1.047zm-4.087-.168c-.042-.026-.044-.043-.007-.065.057-.035.1-.004.078.057-.008.025-.038.029-.07.008zm-1.844-.125c-.09-.107-.105-.15-.068-.194.062-.075.013-.266-.068-.266-.05 0-.054-.017-.02-.08.026-.05.07-.071.12-.058.047.012.123-.022.193-.087.133-.123.18-.13.293-.047.077.059.073.067-.1.224-.165.147-.185.186-.209.404l-.026.242-.115-.138zm-1.04-.031c-.048-.048-.03-.093.056-.139.066-.035.089-.03.11.024.034.09-.099.182-.166.115zm9.677-.522c-.048-.13.067-.195.235-.13.094.035.081.078-.04.133-.135.062-.172.06-.195-.004zm-8.086-.198c-.03-.056-.03-.083-.001-.083.023 0 .038-.023.032-.052-.005-.029.022-.046.063-.04.04.008.072-.004.072-.025s.056-.062.125-.09c.068-.029.124-.064.124-.08 0-.014.049-.03.107-.036a.524.524 0 0 0 .175-.046c.04-.022.107-.022.166 0 .054.02.117.027.139.013.022-.013.067-.002.1.026.042.034.14.043.292.028.18-.019.235-.01.254.037.012.034.011.073-.003.088-.04.04-.433.083-.482.053-.024-.015-.141-.01-.26.01-.12.02-.271.042-.336.048-.065.006-.13.029-.145.05-.015.02-.074.042-.131.048a.244.244 0 0 0-.15.073c-.061.082-.088.078-.14-.021zm7.93.065c0-.01.018-.03.041-.044.023-.014.042-.006.042.018a.043.043 0 0 1-.042.044c-.023 0-.041-.008-.041-.018zM1.198 8.868a.547.547 0 0 1-.067-.127c-.016-.042-.069-.072-.129-.072-.056 0-.115-.02-.13-.043-.017-.028.012-.034.081-.017.089.023.108.013.108-.056 0-.15.204-.148.207.002 0 .017.03.031.065.031.05 0 .062.037.052.156-.014.163-.108.227-.187.126zm15.691-.05c-.101-.048-.187-.24-.15-.337.028-.073.074-.077.187-.016.099.052.155.016.084-.054-.079-.08-.059-.095.135-.103.186-.008.307.064.253.151-.042.069-.179.051-.23-.029-.03-.049-.04-.052-.03-.01.01.034.058.083.108.108l.092.046-.116.077c-.063.043-.132.073-.152.067-.02-.006-.026.016-.013.05.03.079-.051.103-.168.05zm-3.335-.257a.772.772 0 0 0 .086-.213c0-.03.018-.053.041-.053.023 0 .042.019.042.042 0 .023.02.041.044.041.073 0 .173.122.15.182-.011.03-.074.067-.139.081a4.283 4.283 0 0 0-.214.053l-.096.028.086-.161zm-.34-.165c-.142-.077-.152-.235-.022-.327.118-.082.173-.082.141 0-.019.05-.006.06.054.04.095-.03.148.038.105.136a.324.324 0 0 0-.022.144c.011.09-.098.093-.256.007zm4.272-.133c-.023-.039.059-.11.14-.12a1.27 1.27 0 0 0 .165-.04c.1-.03.102-.027.04.066-.063.094-.305.16-.344.094zm-4.524-.162c-.05-.05-.029-.094.034-.07.035.013.063.04.063.061 0 .044-.058.049-.097.009zm.082-.159c-.033-.085.04-.228.116-.228a.086.086 0 0 0 .076-.052c.025-.07.06-.033.09.094.03.13-.01.193-.148.228-.08.02-.115.009-.134-.042zm7.321-.203c0-.009.028-.027.063-.04.034-.013.062-.006.062.016s-.028.04-.062.04c-.035 0-.063-.007-.063-.016zm-9.28-.568a.07.07 0 0 1 .008-.082c.049-.049.157.023.121.08-.036.06-.094.06-.13.002zm.23.004c0-.023.038-.042.085-.042.047 0 .074.019.06.042-.014.023-.052.041-.085.041-.033 0-.06-.019-.06-.041zm-.353-.29c-.014-.024.002-.031.04-.017.071.028.085.058.025.058-.022 0-.05-.019-.065-.041zm-.498-.167c-.128-.033-.104-.047.09-.054.062-.002.12.018.129.046.018.054-.03.056-.22.008zm-.076-.152a.098.098 0 0 1-.028-.059c0-.04.16.002.19.05.026.042-.12.05-.162.009zm10.192-.16c-.069-.152-.06-.219.034-.27.092-.049.095-.043.084.166-.01.193-.058.235-.118.103z" fill="#fff" stroke="#000" stroke-width=".2"/><path d="M20.48 16.607c0 .607-.469 1.1-1.047 1.1s-1.046-.493-1.046-1.1c0-.607.468-1.099 1.046-1.099.578 0 1.046.493 1.046 1.1z" fill="none" stroke="red" stroke-width=".245" stroke-linecap="round" stroke-linejoin="bevel"/><path d="M20.036 16.575c0 .35-.271.635-.606.635-.335 0-.606-.284-.606-.635 0-.35.271-.635.606-.635a.62.62 0 0 1 .606.634z" fill="none" stroke="red" stroke-width=".245" stroke-linecap="round" stroke-linejoin="bevel"/></svg>