<svg xmlns="http://www.w3.org/2000/svg" width="24.659" height="24.793"><path d="M19.676 2.139l-.18.08-.278.068-.287.16-.145.043-.133.242-.067.053-.01.126.074-.01.146.012.022.095.046.075-.01.194-.14.168-.103.372-.045.196-.07.207.078.123-.066.137-.149.035-.16.19-.127.091-.21-.01-.219-.087-.172.546.024.086-.052.072-.022.229-.096.084.075.16.112.08.083-.09.305-.064.163.076.102-.19.259-.046.153.093.11.014.07.106.23.136.124.242-.082.095-.142.034-.184-.045-.074.039-.114-.02-.22.174-.106-.021-.037.109-.18.023-.131.133-.07.166.002.107-.203.214-.382.053-.071.135-.285.278-.393-.018-.09-.074-.231-.007-.15.41.263.317-.087.07-.075.082-.188.104-.272.365-.365.192-.492.043-.158.04-.202-.027-.077.067-.222.058-.346.179-.357.227-.115-.036-.08-.11-.161.043-.444-.119-.337-.083-.14-.169-.701-.113-.38.065-.417-.076-.354-.029-.352-.087-.195-.26-.135-.451-.08-.053v-.106l-.187-.049-.33-.236-.197-.185-.687-.1-.181-.097-.137-.027-.066-.075.018-.178.154-.213-.033-.164.065-.083.012-.131-.142-.273-.039-.227-.128-.19-.07.015-.136-.142-.072.023H7.24l-.052-.071-.083-.183-.178-.12.003-.069-.083-.14.042-.064-.006-.104-.116.028-.12-.051-.144.024-.018.115-.057.135-.186.082-.178-.03-.143.328.02.259-.039.134-.163.031-.154.075-.061-.071-.109-.058-.146-.009-.335-.19-.05.126-.27.46-.132.275.107.106-.073.145-.089-.061-.144.002-.1-.129-.274.05h-.366l-.09.074.2.12-.05.082-.065.254.069.333-.029.103.015.113-.142.04-.007.102-.143.056-.01.122-.054.252-.11-.035-.092.057-.224.037-.355.105-.197.17-.266-.028-.233-.088-.186.206-.133.1-.11-.04-.132.012-.055-.19L1 8.854l-.168-.061-.01.06-.225.074-.14-.023-.1.086-.029.196-.121.023-.047.105.047.156-.074.038.034.229.129-.065.254.163-.062.16.02.113-.02.264.002.13-.285.003-.005.081.149.099.177.043.044.136.128.051.036.218-.047.14.073.164.114.023.159.18.357.169.023-.001v.001l.02-.002h.042l.018.034-.03.05-.014.045.028.106.003.04-.004.055.017.04.006.065-.006.036.026.057.05.022.084.037.037.045.017.036.048.028.018.033-.01.06-.031.027-.1.016-.01.053.003.051.006.056-.008.042-.025.093.017.07-.001.009.006.007.001.007.013.013v-.002l.123.147v.007l-.043-.02-.013.038-.02.024-.007.023.012.02.02.01.015.048-.013.032-.017.01.012.025v.022l-.016.038.006.022-.021.027-.006.035.03-.004.026-.014-.002.014-.23.045-.041-.13-.128-.025-.024.153.074.196-.006.019-.01-.024-.05-.063-.025-.067-.032.01.002.043.02-.006.03.052.035.057.01.049.004-.005-.01.028.007.1-.03.097-.002.063.047.046-.01.004.023.047.001.044.014.029.074.03h.033l.021.002.095.093.161.042.082.126-.021-.024-.005.036-.002.024.026.01.022.03.02-.014.012.018.176.165.128.142.054.111.26-.176.03.093.116.081.232.163.102.146.188.149.046.203.122.114.103-.134.092.053-.027.229.312.2.137-.013-.013.081.026.117.141.03.165.11.043.127.073-.075.078.087.067.03.119-.072.254.21.144-.022.077.055.47-.105.112.062.003.09-.072.156.028.09.045-.005.148-.158.18-.15.252-.116.146.05.154.154.29.037.184.13-.044.095.025.07.048.051.114.006.038.04-.005.049-.046.059.001.053.03.023.015.057-.005.021.097.003.097-.018.075-.024.068.052.086.003.086.019.086-.011.042.007.024-.007.106-.02.059-.014.02-.084.076-.072.069-.04.072-.078.1-.019.172-.035.075-.047.062-.016.053-.031.052-.02.032-.088.287-.088.015.035.041.027.07-.001.044-.018.032.053.036.006.01-.012.09.071.098.082.07.027.035.04.003.033.172-.111.014-.047-.016-.063.016-.05h-.016l.087-.1.092-.032.066.08.1.044.052.181.107.237.05-.063.114.071-.02.194.02.084-.011.385-.075.158.025.123-.08.035-.085.117-.077.004-.041.115-.156.062-.043.145.015.06-.082.027-.038.064.016.125.042.047.02.107-.068.11.015.063.132-.045.074-.076.232-.015.06.037.129-.013-.09.127.066.1.043.273.089.078.199.003.021.07-.093.14.02.109-.079.103-.025.104.09.04.05-.01.261.061-.016.128.074.077.073.148.064-.065.118.049.124-.103.134-.047.117.3.12-.021.114.027.023-.26-.117-.317.076-.145.066.03.176-.01.096-.072.075-.11.164.082.059.074.05.004.174-.185.083.118.065-.115.16.158.043-.105.08-.08.067.063.084-.04.177-.069.006-.105.24-.163.13.125.188.101.12-.04.08.078.1-.041.144.053.003.078-.092.073-.008.084.04.04.046.177.151.038.081.094.186.076.17-.047.09.06.084-.033.014.011h.05l.026-.056.07-.02v-.12l.07-.018.018.076.064.082.037-.038.07.038.07.019.026.1.043-.03.152-.033-.025-.107.032-.006.076.095.145.012-.03.057-.07.108-.027.203.07.018.013.146.108.057-.032.025.02.064.189-.006.089-.089.006-.038-.089-.089-.019-.088-.07-.025-.024-.083.056-.057.09-.063.062-.007.09-.12.1-.007.044-.056.14-.007.044-.038h.083l.082-.057v-.056l.076-.026.057-.032h.183l.02-.057.094.025.108-.076h.101l-.01-.148.025-.053.084.11.089-.115-.032-.08.07.068.038-.007.024-.047-.006-.045-.036-.092-.009-.088-.021-.034.019-.05.05.05.056-.005.025.06.06.055.069-.004-.026.09.063-.006.043.01.07.014-.014-.046.051-.032-.08-.067.085-.034.073.034.007-.095.088-.044.013.095.082-.006.038-.064.089-.082.076-.006.031.019.007.057h.07l.019-.108.025-.032.101.057.095-.07.057-.012.076-.057.12-.019.013-.133.101-.044-.037-.063-.051-.02.146-.013.094-.043-.05-.045.044-.064.089.007.019-.089.07.013-.026-.114.095.025v-.107h.07l.05-.082.05-.051-.03-.064-.058-.05.101-.019.045-.063.076-.039h.107l.032-.044.026-.057-.051-.031-.02-.051.134-.006.025-.045-.037-.07.05-.044.05-.044.058-.02-.057-.069.012-.07.045-.05.07.044.056.013.013-.044-.057-.082.057-.09-.032-.056.013-.057-.038-.064.031-.1.045-.058-.026-.044-.095-.082.02-.07.082.013.025.03.02-.1.081-.057.039-.032.006-.088.05-.051-.044-.032h.064l.07-.095-.007-.095.007-.057.044-.126.038-.089.044-.032.012-.152.076-.031.02.127.069-.096.083-.056-.051-.109-.045-.076.07-.063v-.089l.07-.094-.025-.076.044-.038-.025-.096-.013-.152-.045.108-.07.007.09-.12.107-.083.089-.044-.013-.064-.14-.057-.056.02-.038.088-.063.025-.083-.057-.113-.088-.096.012-.12.108-.063.025-.115-.018-.1-.026-.02-.032.083-.044.133-.013.076-.025.006-.076.158-.127.114-.082.082-.101.02-.101-.09-.076-.132-.051-.102-.057-.05-.057-.102-.02-.12-.018-.012-.07-.095-.019-.102.051-.037.013.043-.07.083-.038.12.012.044.064.07.025h.12l.09.013.088.05.114.02.057-.013.02-.038-.07-.095-.134-.12-.12-.032-.044-.127-.115-.044-.126-.032-.045-.031.02-.083-.032-.082-.152-.222-.095-.158-.12-.228-.063-.063-.166-.051-.145-.044-.057-.064-.14-.025-.012-.114.064-.063.012-.108.038-.057.05-.126.083-.026.019-.063.038-.102.064-.056-.07-.076.038-.039.063.033.082.012.07-.07-.006-.152.037-.07.058-.012.114-.095.082-.057.108-.082.063-.082.07.012.031-.031.07.062.082-.062-.031-.083.025-.063-.006-.114-.083-.032-.07.038-.082-.038-.127.05-.1.051-.058-.025-.044-.05-.057.012-.107-.07-.083-.038-.101.038-.108.082-.019.102-.114.101-.019.108-.082.089-.177-.02-.133-.05-.02-.24-.082-.09-.12-.031-.076-.057-.07.026-.082.05-.076-.064-.101-.082-.07-.132-.013-.165.044-.108.102-.07.057-.012.089.044.063-.032.038-.044h.089l.037-.026.032.014.019-.127.031-.115.07-.113.064-.038v-.057l.133-.082.152-.115.076-.05.006-.127.095-.133.038-.038.013-.082.082-.05.126-.007.09-.051.076.02.126.126.07.05-.044.102-.045.1-.031.096-.102.076-.044.05-.006.128-.058.03.089.052.05.045.09-.026-.039.108-.013.062-.07.039-.024.05-.058.007-.025.095.038.044.102-.082.088-.102.101-.07.058-.063.044-.1.19-.172.132-.109.064-.006.028-.062.116-.02.052-.053.136-.012.087-.053.034-.163.233-.292.271-.23.18-.302.012-.197.141-.098.17.119.366-.049.01-.097-.133-.148.022-.082.192-.049.18-.12.027-.163.136-.036.012-.33.118-.02.083.128.118.021-.05-.057.045-.077.122-.087.06-.302-.065-.069-.04-.284-.239-.412.13-.062.128-.265.099.037.385-.031-.02-.237.072-.087.02-.314.046-.106-.046-.148.013-.1-.015-.258-.022-.09.035-.085.067-.055.034-.147-.116-.129-.002-.165-.12-.051-.193.142-.1.138-.099.018-.105.081-.082.197-.249.113-.174.014-.117.061-.21-.17.03-.128-.141-.145-.033-.156-.132.046-.358-.215-.114.055-.21-.096-.134.086-.17.01-.154-.152-.026-.166-.09-.038-.033-.18-.228-.235-.01-.109-.23-.288-.043-.154-.104-.145-.119-.093-.056-.1-.331-.165-.14.063-.456-.143zm2.23 15.733l-.03.049.013.054-.108.04-.076.062-.036.08-.013.1-.058.062-.04.148-.045.13-.067.156-.036.13-.013.14.008.13.036.057.054.081.049.143.063.085.076.031.072.018.058.076.036.094v.055l.022.013.058-.018.014-.12-.027-.113.032-.147.089-.144.05-.17.026-.161.018-.462.018-.138.022-.036v-.094l-.032-.036-.026-.072.044-.071.019-.04-.032-.036-.09-.023h-.04l-.045-.053h-.062zm-5.05 3.618l-.12.053-.108.031-.166.023-.022.04-.081.018-.13-.022-.031.004-.045.023v.044l-.035.018-.1-.004-.053.036v.053l.063.005-.036.058-.067.018-.193.134-.031.067.018.063-.023.059.023.12.031.076.018.108.134.058.108.049.152-.009.054.05.112-.018v-.09l.089-.022.08-.005.005-.049.09-.112h.054l.058-.027.018-.116.023-.157.066-.143.068-.094.062-.054-.013-.085-.036-.099v-.09l-.036-.012z" fill="#fff" stroke="#000" stroke-width=".246"/><path d="M13.794 17.238c0 .78-.602 1.413-1.345 1.413s-1.345-.632-1.345-1.413c0-.78.602-1.412 1.345-1.412s1.345.633 1.345 1.414z" fill="none" stroke="red" stroke-width=".315" stroke-linecap="round" stroke-linejoin="bevel"/><path d="M13.224 17.197c0 .45-.349.816-.779.816-.43 0-.779-.366-.779-.816 0-.45.349-.816.779-.816.43 0 .78.366.78.815z" fill="none" stroke="red" stroke-width=".315" stroke-linecap="round" stroke-linejoin="bevel"/></svg>